ISO-10303-21;
HEADER;
/* Generated by software containing ST-Developer
 * from STEP Tools, Inc. (www.steptools.com) 
 */

FILE_DESCRIPTION(
/* description */ (''),
/* implementation_level */ '2;1');

FILE_NAME(
/* name */ 'BOTTOM.step',
/* time_stamp */ '2026-09-02T07:39:42+02:00',
/* author */ (''),
/* organization */ (''),
/* preprocessor_version */ 'ST-DEVELOPER v20.1',
/* originating_system */ 'Autodesk Translation Framework v15.8.0.0',
/* authorisation */ '');

FILE_SCHEMA (('AUTOMOTIVE_DESIGN { 1 0 10303 214 3 1 1 }'));
ENDSEC;

DATA;
#10=MECHANICAL_DESIGN_GEOMETRIC_PRESENTATION_REPRESENTATION('',(#21),#1581);
#11=ITEM_DEFINED_TRANSFORMATION($,$,#892,#1008);
#12=ITEM_DEFINED_TRANSFORMATION($,$,#891,#1009);
#13=(
REPRESENTATION_RELATIONSHIP($,$,#1596,#1595)
REPRESENTATION_RELATIONSHIP_WITH_TRANSFORMATION(#11)
SHAPE_REPRESENTATION_RELATIONSHIP()
);
#14=(
REPRESENTATION_RELATIONSHIP($,$,#1595,#1594)
REPRESENTATION_RELATIONSHIP_WITH_TRANSFORMATION(#12)
SHAPE_REPRESENTATION_RELATIONSHIP()
);
#15=CONTEXT_DEPENDENT_SHAPE_REPRESENTATION(#13,#1592);
#16=CONTEXT_DEPENDENT_SHAPE_REPRESENTATION(#14,#1593);
#17=NEXT_ASSEMBLY_USAGE_OCCURRENCE('Component20:1','Component20:1',
'Component20:1',#1599,#1600,'Component20:1');
#18=NEXT_ASSEMBLY_USAGE_OCCURRENCE('Case:1','Case:1','Case:1',#1598,#1599,
'Case:1');
#19=SHAPE_REPRESENTATION_RELATIONSHIP('SRR','None',#1596,#20);
#20=ADVANCED_BREP_SHAPE_REPRESENTATION('',(#22),#1580);
#21=STYLED_ITEM('',(#1620),#22);
#22=MANIFOLD_SOLID_BREP('Body1',#877);
#23=FACE_BOUND('',#122,.T.);
#24=FACE_BOUND('',#123,.T.);
#25=FACE_BOUND('',#124,.T.);
#26=FACE_BOUND('',#125,.T.);
#27=FACE_BOUND('',#126,.T.);
#28=PLANE('',#905);
#29=PLANE('',#924);
#30=PLANE('',#943);
#31=PLANE('',#962);
#32=PLANE('',#969);
#33=PLANE('',#979);
#34=PLANE('',#982);
#35=PLANE('',#985);
#36=PLANE('',#986);
#37=PLANE('',#989);
#38=PLANE('',#994);
#39=PLANE('',#997);
#40=PLANE('',#1000);
#41=PLANE('',#1003);
#42=PLANE('',#1006);
#43=PLANE('',#1007);
#44=FACE_OUTER_BOUND('',#93,.T.);
#45=FACE_OUTER_BOUND('',#94,.T.);
#46=FACE_OUTER_BOUND('',#95,.T.);
#47=FACE_OUTER_BOUND('',#96,.T.);
#48=FACE_OUTER_BOUND('',#97,.T.);
#49=FACE_OUTER_BOUND('',#98,.T.);
#50=FACE_OUTER_BOUND('',#99,.T.);
#51=FACE_OUTER_BOUND('',#100,.T.);
#52=FACE_OUTER_BOUND('',#101,.T.);
#53=FACE_OUTER_BOUND('',#102,.T.);
#54=FACE_OUTER_BOUND('',#103,.T.);
#55=FACE_OUTER_BOUND('',#104,.T.);
#56=FACE_OUTER_BOUND('',#105,.T.);
#57=FACE_OUTER_BOUND('',#106,.T.);
#58=FACE_OUTER_BOUND('',#107,.T.);
#59=FACE_OUTER_BOUND('',#108,.T.);
#60=FACE_OUTER_BOUND('',#109,.T.);
#61=FACE_OUTER_BOUND('',#110,.T.);
#62=FACE_OUTER_BOUND('',#111,.T.);
#63=FACE_OUTER_BOUND('',#112,.T.);
#64=FACE_OUTER_BOUND('',#113,.T.);
#65=FACE_OUTER_BOUND('',#114,.T.);
#66=FACE_OUTER_BOUND('',#115,.T.);
#67=FACE_OUTER_BOUND('',#116,.T.);
#68=FACE_OUTER_BOUND('',#117,.T.);
#69=FACE_OUTER_BOUND('',#118,.T.);
#70=FACE_OUTER_BOUND('',#119,.T.);
#71=FACE_OUTER_BOUND('',#120,.T.);
#72=FACE_OUTER_BOUND('',#121,.T.);
#73=FACE_OUTER_BOUND('',#127,.T.);
#74=FACE_OUTER_BOUND('',#128,.T.);
#75=FACE_OUTER_BOUND('',#129,.T.);
#76=FACE_OUTER_BOUND('',#130,.T.);
#77=FACE_OUTER_BOUND('',#131,.T.);
#78=FACE_OUTER_BOUND('',#132,.T.);
#79=FACE_OUTER_BOUND('',#133,.T.);
#80=FACE_OUTER_BOUND('',#134,.T.);
#81=FACE_OUTER_BOUND('',#135,.T.);
#82=FACE_OUTER_BOUND('',#136,.T.);
#83=FACE_OUTER_BOUND('',#137,.T.);
#84=FACE_OUTER_BOUND('',#138,.T.);
#85=FACE_OUTER_BOUND('',#139,.T.);
#86=FACE_OUTER_BOUND('',#140,.T.);
#87=FACE_OUTER_BOUND('',#141,.T.);
#88=FACE_OUTER_BOUND('',#142,.T.);
#89=FACE_OUTER_BOUND('',#143,.T.);
#90=FACE_OUTER_BOUND('',#144,.T.);
#91=FACE_OUTER_BOUND('',#145,.T.);
#92=FACE_OUTER_BOUND('',#146,.T.);
#93=EDGE_LOOP('',(#543,#544,#545,#546));
#94=EDGE_LOOP('',(#547,#548,#549,#550));
#95=EDGE_LOOP('',(#551,#552,#553,#554));
#96=EDGE_LOOP('',(#555,#556,#557,#558));
#97=EDGE_LOOP('',(#559,#560,#561,#562,#563,#564));
#98=EDGE_LOOP('',(#565,#566,#567,#568));
#99=EDGE_LOOP('',(#569,#570,#571,#572));
#100=EDGE_LOOP('',(#573,#574,#575,#576));
#101=EDGE_LOOP('',(#577,#578,#579,#580));
#102=EDGE_LOOP('',(#581,#582,#583,#584));
#103=EDGE_LOOP('',(#585,#586,#587,#588));
#104=EDGE_LOOP('',(#589,#590,#591,#592,#593,#594));
#105=EDGE_LOOP('',(#595,#596,#597,#598));
#106=EDGE_LOOP('',(#599,#600,#601,#602));
#107=EDGE_LOOP('',(#603,#604,#605,#606));
#108=EDGE_LOOP('',(#607,#608,#609,#610));
#109=EDGE_LOOP('',(#611,#612,#613,#614));
#110=EDGE_LOOP('',(#615,#616,#617,#618));
#111=EDGE_LOOP('',(#619,#620,#621,#622,#623,#624));
#112=EDGE_LOOP('',(#625,#626,#627,#628));
#113=EDGE_LOOP('',(#629,#630,#631,#632));
#114=EDGE_LOOP('',(#633,#634,#635,#636));
#115=EDGE_LOOP('',(#637,#638,#639,#640));
#116=EDGE_LOOP('',(#641,#642,#643,#644));
#117=EDGE_LOOP('',(#645,#646,#647,#648));
#118=EDGE_LOOP('',(#649,#650,#651,#652,#653,#654));
#119=EDGE_LOOP('',(#655,#656,#657,#658));
#120=EDGE_LOOP('',(#659,#660,#661,#662));
#121=EDGE_LOOP('',(#663,#664,#665,#666,#667,#668,#669,#670));
#122=EDGE_LOOP('',(#671,#672,#673,#674,#675,#676));
#123=EDGE_LOOP('',(#677,#678,#679,#680,#681,#682));
#124=EDGE_LOOP('',(#683,#684,#685,#686,#687,#688));
#125=EDGE_LOOP('',(#689,#690,#691,#692,#693,#694));
#126=EDGE_LOOP('',(#695,#696,#697,#698,#699,#700,#701,#702,#703,#704));
#127=EDGE_LOOP('',(#705,#706,#707,#708));
#128=EDGE_LOOP('',(#709,#710,#711,#712));
#129=EDGE_LOOP('',(#713,#714,#715,#716));
#130=EDGE_LOOP('',(#717,#718,#719,#720));
#131=EDGE_LOOP('',(#721,#722,#723,#724));
#132=EDGE_LOOP('',(#725,#726,#727,#728));
#133=EDGE_LOOP('',(#729,#730,#731,#732));
#134=EDGE_LOOP('',(#733,#734,#735,#736));
#135=EDGE_LOOP('',(#737,#738,#739,#740));
#136=EDGE_LOOP('',(#741,#742,#743,#744));
#137=EDGE_LOOP('',(#745,#746,#747,#748));
#138=EDGE_LOOP('',(#749,#750,#751,#752));
#139=EDGE_LOOP('',(#753,#754,#755,#756));
#140=EDGE_LOOP('',(#757,#758,#759,#760));
#141=EDGE_LOOP('',(#761,#762,#763,#764,#765,#766,#767,#768,#769,#770));
#142=EDGE_LOOP('',(#771,#772,#773,#774));
#143=EDGE_LOOP('',(#775,#776,#777,#778));
#144=EDGE_LOOP('',(#779,#780,#781,#782));
#145=EDGE_LOOP('',(#783,#784,#785,#786));
#146=EDGE_LOOP('',(#787,#788,#789,#790,#791,#792,#793,#794));
#147=LINE('',#1318,#207);
#148=LINE('',#1321,#208);
#149=LINE('',#1327,#209);
#150=LINE('',#1333,#210);
#151=LINE('',#1338,#211);
#152=LINE('',#1347,#212);
#153=LINE('',#1355,#213);
#154=LINE('',#1358,#214);
#155=LINE('',#1364,#215);
#156=LINE('',#1370,#216);
#157=LINE('',#1375,#217);
#158=LINE('',#1384,#218);
#159=LINE('',#1392,#219);
#160=LINE('',#1395,#220);
#161=LINE('',#1401,#221);
#162=LINE('',#1407,#222);
#163=LINE('',#1412,#223);
#164=LINE('',#1421,#224);
#165=LINE('',#1429,#225);
#166=LINE('',#1432,#226);
#167=LINE('',#1438,#227);
#168=LINE('',#1444,#228);
#169=LINE('',#1449,#229);
#170=LINE('',#1458,#230);
#171=LINE('',#1466,#231);
#172=LINE('',#1470,#232);
#173=LINE('',#1474,#233);
#174=LINE('',#1477,#234);
#175=LINE('',#1480,#235);
#176=LINE('',#1484,#236);
#177=LINE('',#1488,#237);
#178=LINE('',#1492,#238);
#179=LINE('',#1496,#239);
#180=LINE('',#1500,#240);
#181=LINE('',#1502,#241);
#182=LINE('',#1503,#242);
#183=LINE('',#1506,#243);
#184=LINE('',#1510,#244);
#185=LINE('',#1511,#245);
#186=LINE('',#1514,#246);
#187=LINE('',#1518,#247);
#188=LINE('',#1519,#248);
#189=LINE('',#1522,#249);
#190=LINE('',#1524,#250);
#191=LINE('',#1525,#251);
#192=LINE('',#1528,#252);
#193=LINE('',#1532,#253);
#194=LINE('',#1533,#254);
#195=LINE('',#1536,#255);
#196=LINE('',#1540,#256);
#197=LINE('',#1544,#257);
#198=LINE('',#1545,#258);
#199=LINE('',#1548,#259);
#200=LINE('',#1552,#260);
#201=LINE('',#1553,#261);
#202=LINE('',#1560,#262);
#203=LINE('',#1563,#263);
#204=LINE('',#1564,#264);
#205=LINE('',#1568,#265);
#206=LINE('',#1570,#266);
#207=VECTOR('',#1020,1000.);
#208=VECTOR('',#1023,1000.);
#209=VECTOR('',#1030,1000.);
#210=VECTOR('',#1037,1000.);
#211=VECTOR('',#1042,1000.);
#212=VECTOR('',#1055,1000.);
#213=VECTOR('',#1064,1000.);
#214=VECTOR('',#1067,1000.);
#215=VECTOR('',#1074,1000.);
#216=VECTOR('',#1081,1000.);
#217=VECTOR('',#1086,1000.);
#218=VECTOR('',#1099,1000.);
#219=VECTOR('',#1108,1000.);
#220=VECTOR('',#1111,1000.);
#221=VECTOR('',#1118,1000.);
#222=VECTOR('',#1125,1000.);
#223=VECTOR('',#1130,1000.);
#224=VECTOR('',#1143,1000.);
#225=VECTOR('',#1152,1000.);
#226=VECTOR('',#1155,1000.);
#227=VECTOR('',#1162,1000.);
#228=VECTOR('',#1169,1000.);
#229=VECTOR('',#1174,1000.);
#230=VECTOR('',#1187,1000.);
#231=VECTOR('',#1196,10.);
#232=VECTOR('',#1199,10.);
#233=VECTOR('',#1202,10.);
#234=VECTOR('',#1205,10.);
#235=VECTOR('',#1206,10.);
#236=VECTOR('',#1209,10.);
#237=VECTOR('',#1212,10.);
#238=VECTOR('',#1215,10.);
#239=VECTOR('',#1218,10.);
#240=VECTOR('',#1223,10.);
#241=VECTOR('',#1224,10.);
#242=VECTOR('',#1225,10.);
#243=VECTOR('',#1228,10.);
#244=VECTOR('',#1233,10.);
#245=VECTOR('',#1234,10.);
#246=VECTOR('',#1237,10.);
#247=VECTOR('',#1242,10.);
#248=VECTOR('',#1243,10.);
#249=VECTOR('',#1246,10.);
#250=VECTOR('',#1247,10.);
#251=VECTOR('',#1248,10.);
#252=VECTOR('',#1251,10.);
#253=VECTOR('',#1256,10.);
#254=VECTOR('',#1257,10.);
#255=VECTOR('',#1260,10.);
#256=VECTOR('',#1265,10.);
#257=VECTOR('',#1270,10.);
#258=VECTOR('',#1271,10.);
#259=VECTOR('',#1274,10.);
#260=VECTOR('',#1279,10.);
#261=VECTOR('',#1280,10.);
#262=VECTOR('',#1291,10.);
#263=VECTOR('',#1294,10.);
#264=VECTOR('',#1295,10.);
#265=VECTOR('',#1300,10.);
#266=VECTOR('',#1303,10.);
#267=CIRCLE('',#894,0.75);
#268=CIRCLE('',#895,0.75);
#269=CIRCLE('',#897,1.6);
#270=CIRCLE('',#898,1.6);
#271=CIRCLE('',#900,0.75);
#272=CIRCLE('',#901,0.75);
#273=CIRCLE('',#903,1.6);
#274=CIRCLE('',#904,1.6);
#275=CIRCLE('',#906,0.75);
#276=CIRCLE('',#907,1.6);
#277=CIRCLE('',#909,1.6);
#278=CIRCLE('',#911,0.75);
#279=CIRCLE('',#913,0.75);
#280=CIRCLE('',#914,0.75);
#281=CIRCLE('',#916,1.6);
#282=CIRCLE('',#917,1.6);
#283=CIRCLE('',#919,0.75);
#284=CIRCLE('',#920,0.75);
#285=CIRCLE('',#922,1.6);
#286=CIRCLE('',#923,1.6);
#287=CIRCLE('',#925,0.75);
#288=CIRCLE('',#926,1.6);
#289=CIRCLE('',#928,1.6);
#290=CIRCLE('',#930,0.75);
#291=CIRCLE('',#932,0.75);
#292=CIRCLE('',#933,0.75);
#293=CIRCLE('',#935,1.6);
#294=CIRCLE('',#936,1.6);
#295=CIRCLE('',#938,0.75);
#296=CIRCLE('',#939,0.75);
#297=CIRCLE('',#941,1.6);
#298=CIRCLE('',#942,1.6);
#299=CIRCLE('',#944,0.75);
#300=CIRCLE('',#945,1.6);
#301=CIRCLE('',#947,1.6);
#302=CIRCLE('',#949,0.75);
#303=CIRCLE('',#951,0.75);
#304=CIRCLE('',#952,0.75);
#305=CIRCLE('',#954,1.6);
#306=CIRCLE('',#955,1.6);
#307=CIRCLE('',#957,0.75);
#308=CIRCLE('',#958,0.75);
#309=CIRCLE('',#960,1.6);
#310=CIRCLE('',#961,1.6);
#311=CIRCLE('',#963,0.75);
#312=CIRCLE('',#964,1.6);
#313=CIRCLE('',#966,1.6);
#314=CIRCLE('',#968,0.75);
#315=CIRCLE('',#970,3.5);
#316=CIRCLE('',#971,3.49999999999998);
#317=CIRCLE('',#972,3.49999999999999);
#318=CIRCLE('',#973,3.5);
#319=CIRCLE('',#974,2.);
#320=CIRCLE('',#975,1.9999999999998);
#321=CIRCLE('',#976,3.50000000000003);
#322=CIRCLE('',#977,3.5);
#323=CIRCLE('',#978,3.50000000000001);
#324=CIRCLE('',#981,1.9999999999998);
#325=CIRCLE('',#984,2.);
#326=CIRCLE('',#988,3.49999999999998);
#327=CIRCLE('',#991,3.5);
#328=CIRCLE('',#993,3.50000000000001);
#329=CIRCLE('',#996,3.5);
#330=CIRCLE('',#999,3.50000000000003);
#331=CIRCLE('',#1002,3.49999999999999);
#332=CIRCLE('',#1005,3.5);
#333=VERTEX_POINT('',#1314);
#334=VERTEX_POINT('',#1315);
#335=VERTEX_POINT('',#1317);
#336=VERTEX_POINT('',#1319);
#337=VERTEX_POINT('',#1323);
#338=VERTEX_POINT('',#1325);
#339=VERTEX_POINT('',#1329);
#340=VERTEX_POINT('',#1331);
#341=VERTEX_POINT('',#1335);
#342=VERTEX_POINT('',#1337);
#343=VERTEX_POINT('',#1341);
#344=VERTEX_POINT('',#1345);
#345=VERTEX_POINT('',#1351);
#346=VERTEX_POINT('',#1352);
#347=VERTEX_POINT('',#1354);
#348=VERTEX_POINT('',#1356);
#349=VERTEX_POINT('',#1360);
#350=VERTEX_POINT('',#1362);
#351=VERTEX_POINT('',#1366);
#352=VERTEX_POINT('',#1368);
#353=VERTEX_POINT('',#1372);
#354=VERTEX_POINT('',#1374);
#355=VERTEX_POINT('',#1378);
#356=VERTEX_POINT('',#1382);
#357=VERTEX_POINT('',#1388);
#358=VERTEX_POINT('',#1389);
#359=VERTEX_POINT('',#1391);
#360=VERTEX_POINT('',#1393);
#361=VERTEX_POINT('',#1397);
#362=VERTEX_POINT('',#1399);
#363=VERTEX_POINT('',#1403);
#364=VERTEX_POINT('',#1405);
#365=VERTEX_POINT('',#1409);
#366=VERTEX_POINT('',#1411);
#367=VERTEX_POINT('',#1415);
#368=VERTEX_POINT('',#1419);
#369=VERTEX_POINT('',#1425);
#370=VERTEX_POINT('',#1426);
#371=VERTEX_POINT('',#1428);
#372=VERTEX_POINT('',#1430);
#373=VERTEX_POINT('',#1434);
#374=VERTEX_POINT('',#1436);
#375=VERTEX_POINT('',#1440);
#376=VERTEX_POINT('',#1442);
#377=VERTEX_POINT('',#1446);
#378=VERTEX_POINT('',#1448);
#379=VERTEX_POINT('',#1452);
#380=VERTEX_POINT('',#1456);
#381=VERTEX_POINT('',#1462);
#382=VERTEX_POINT('',#1463);
#383=VERTEX_POINT('',#1465);
#384=VERTEX_POINT('',#1467);
#385=VERTEX_POINT('',#1469);
#386=VERTEX_POINT('',#1471);
#387=VERTEX_POINT('',#1473);
#388=VERTEX_POINT('',#1475);
#389=VERTEX_POINT('',#1478);
#390=VERTEX_POINT('',#1479);
#391=VERTEX_POINT('',#1481);
#392=VERTEX_POINT('',#1483);
#393=VERTEX_POINT('',#1485);
#394=VERTEX_POINT('',#1487);
#395=VERTEX_POINT('',#1489);
#396=VERTEX_POINT('',#1491);
#397=VERTEX_POINT('',#1493);
#398=VERTEX_POINT('',#1495);
#399=VERTEX_POINT('',#1499);
#400=VERTEX_POINT('',#1501);
#401=VERTEX_POINT('',#1505);
#402=VERTEX_POINT('',#1509);
#403=VERTEX_POINT('',#1513);
#404=VERTEX_POINT('',#1517);
#405=VERTEX_POINT('',#1521);
#406=VERTEX_POINT('',#1523);
#407=VERTEX_POINT('',#1527);
#408=VERTEX_POINT('',#1531);
#409=VERTEX_POINT('',#1535);
#410=VERTEX_POINT('',#1539);
#411=VERTEX_POINT('',#1543);
#412=VERTEX_POINT('',#1547);
#413=VERTEX_POINT('',#1551);
#414=VERTEX_POINT('',#1558);
#415=VERTEX_POINT('',#1562);
#416=VERTEX_POINT('',#1566);
#417=EDGE_CURVE('',#333,#334,#267,.T.);
#418=EDGE_CURVE('',#335,#333,#147,.F.);
#419=EDGE_CURVE('',#336,#335,#268,.F.);
#420=EDGE_CURVE('',#334,#336,#148,.T.);
#421=EDGE_CURVE('',#334,#337,#269,.T.);
#422=EDGE_CURVE('',#338,#336,#270,.T.);
#423=EDGE_CURVE('',#338,#337,#149,.F.);
#424=EDGE_CURVE('',#337,#339,#271,.T.);
#425=EDGE_CURVE('',#340,#338,#272,.F.);
#426=EDGE_CURVE('',#339,#340,#150,.T.);
#427=EDGE_CURVE('',#341,#333,#273,.T.);
#428=EDGE_CURVE('',#341,#342,#151,.T.);
#429=EDGE_CURVE('',#335,#342,#274,.T.);
#430=EDGE_CURVE('',#342,#343,#275,.F.);
#431=EDGE_CURVE('',#343,#340,#276,.T.);
#432=EDGE_CURVE('',#339,#344,#277,.T.);
#433=EDGE_CURVE('',#343,#344,#152,.F.);
#434=EDGE_CURVE('',#344,#341,#278,.T.);
#435=EDGE_CURVE('',#345,#346,#279,.T.);
#436=EDGE_CURVE('',#347,#345,#153,.F.);
#437=EDGE_CURVE('',#348,#347,#280,.F.);
#438=EDGE_CURVE('',#346,#348,#154,.T.);
#439=EDGE_CURVE('',#346,#349,#281,.T.);
#440=EDGE_CURVE('',#350,#348,#282,.T.);
#441=EDGE_CURVE('',#350,#349,#155,.F.);
#442=EDGE_CURVE('',#349,#351,#283,.T.);
#443=EDGE_CURVE('',#352,#350,#284,.F.);
#444=EDGE_CURVE('',#351,#352,#156,.T.);
#445=EDGE_CURVE('',#353,#345,#285,.T.);
#446=EDGE_CURVE('',#353,#354,#157,.T.);
#447=EDGE_CURVE('',#347,#354,#286,.T.);
#448=EDGE_CURVE('',#354,#355,#287,.F.);
#449=EDGE_CURVE('',#355,#352,#288,.T.);
#450=EDGE_CURVE('',#351,#356,#289,.T.);
#451=EDGE_CURVE('',#355,#356,#158,.F.);
#452=EDGE_CURVE('',#356,#353,#290,.T.);
#453=EDGE_CURVE('',#357,#358,#291,.T.);
#454=EDGE_CURVE('',#359,#357,#159,.F.);
#455=EDGE_CURVE('',#360,#359,#292,.F.);
#456=EDGE_CURVE('',#358,#360,#160,.T.);
#457=EDGE_CURVE('',#358,#361,#293,.T.);
#458=EDGE_CURVE('',#362,#360,#294,.T.);
#459=EDGE_CURVE('',#362,#361,#161,.F.);
#460=EDGE_CURVE('',#361,#363,#295,.T.);
#461=EDGE_CURVE('',#364,#362,#296,.F.);
#462=EDGE_CURVE('',#363,#364,#162,.T.);
#463=EDGE_CURVE('',#365,#357,#297,.T.);
#464=EDGE_CURVE('',#365,#366,#163,.T.);
#465=EDGE_CURVE('',#359,#366,#298,.T.);
#466=EDGE_CURVE('',#366,#367,#299,.F.);
#467=EDGE_CURVE('',#367,#364,#300,.T.);
#468=EDGE_CURVE('',#363,#368,#301,.T.);
#469=EDGE_CURVE('',#367,#368,#164,.F.);
#470=EDGE_CURVE('',#368,#365,#302,.T.);
#471=EDGE_CURVE('',#369,#370,#303,.T.);
#472=EDGE_CURVE('',#371,#369,#165,.F.);
#473=EDGE_CURVE('',#372,#371,#304,.F.);
#474=EDGE_CURVE('',#370,#372,#166,.T.);
#475=EDGE_CURVE('',#370,#373,#305,.T.);
#476=EDGE_CURVE('',#374,#372,#306,.T.);
#477=EDGE_CURVE('',#374,#373,#167,.F.);
#478=EDGE_CURVE('',#373,#375,#307,.T.);
#479=EDGE_CURVE('',#376,#374,#308,.F.);
#480=EDGE_CURVE('',#375,#376,#168,.T.);
#481=EDGE_CURVE('',#377,#369,#309,.T.);
#482=EDGE_CURVE('',#377,#378,#169,.T.);
#483=EDGE_CURVE('',#371,#378,#310,.T.);
#484=EDGE_CURVE('',#378,#379,#311,.F.);
#485=EDGE_CURVE('',#379,#376,#312,.T.);
#486=EDGE_CURVE('',#375,#380,#313,.T.);
#487=EDGE_CURVE('',#379,#380,#170,.F.);
#488=EDGE_CURVE('',#380,#377,#314,.T.);
#489=EDGE_CURVE('',#381,#382,#315,.T.);
#490=EDGE_CURVE('',#383,#381,#171,.T.);
#491=EDGE_CURVE('',#384,#383,#316,.T.);
#492=EDGE_CURVE('',#385,#384,#172,.T.);
#493=EDGE_CURVE('',#386,#385,#317,.T.);
#494=EDGE_CURVE('',#387,#386,#173,.T.);
#495=EDGE_CURVE('',#388,#387,#318,.T.);
#496=EDGE_CURVE('',#382,#388,#174,.T.);
#497=EDGE_CURVE('',#389,#390,#175,.T.);
#498=EDGE_CURVE('',#391,#389,#319,.T.);
#499=EDGE_CURVE('',#392,#391,#176,.T.);
#500=EDGE_CURVE('',#393,#392,#320,.T.);
#501=EDGE_CURVE('',#394,#393,#177,.T.);
#502=EDGE_CURVE('',#395,#394,#321,.T.);
#503=EDGE_CURVE('',#396,#395,#178,.T.);
#504=EDGE_CURVE('',#397,#396,#322,.T.);
#505=EDGE_CURVE('',#398,#397,#179,.T.);
#506=EDGE_CURVE('',#390,#398,#323,.T.);
#507=EDGE_CURVE('',#393,#399,#180,.T.);
#508=EDGE_CURVE('',#399,#400,#181,.T.);
#509=EDGE_CURVE('',#394,#400,#182,.T.);
#510=EDGE_CURVE('',#392,#401,#183,.T.);
#511=EDGE_CURVE('',#401,#399,#324,.T.);
#512=EDGE_CURVE('',#391,#402,#184,.T.);
#513=EDGE_CURVE('',#402,#401,#185,.T.);
#514=EDGE_CURVE('',#389,#403,#186,.T.);
#515=EDGE_CURVE('',#403,#402,#325,.T.);
#516=EDGE_CURVE('',#390,#404,#187,.T.);
#517=EDGE_CURVE('',#404,#403,#188,.T.);
#518=EDGE_CURVE('',#384,#405,#189,.T.);
#519=EDGE_CURVE('',#406,#405,#190,.T.);
#520=EDGE_CURVE('',#385,#406,#191,.T.);
#521=EDGE_CURVE('',#383,#407,#192,.T.);
#522=EDGE_CURVE('',#405,#407,#326,.T.);
#523=EDGE_CURVE('',#381,#408,#193,.T.);
#524=EDGE_CURVE('',#407,#408,#194,.T.);
#525=EDGE_CURVE('',#382,#409,#195,.T.);
#526=EDGE_CURVE('',#408,#409,#327,.T.);
#527=EDGE_CURVE('',#398,#410,#196,.T.);
#528=EDGE_CURVE('',#410,#404,#328,.T.);
#529=EDGE_CURVE('',#397,#411,#197,.T.);
#530=EDGE_CURVE('',#411,#410,#198,.T.);
#531=EDGE_CURVE('',#396,#412,#199,.T.);
#532=EDGE_CURVE('',#412,#411,#329,.T.);
#533=EDGE_CURVE('',#395,#413,#200,.T.);
#534=EDGE_CURVE('',#413,#412,#201,.T.);
#535=EDGE_CURVE('',#400,#413,#330,.T.);
#536=EDGE_CURVE('',#414,#406,#331,.T.);
#537=EDGE_CURVE('',#386,#414,#202,.T.);
#538=EDGE_CURVE('',#415,#414,#203,.T.);
#539=EDGE_CURVE('',#387,#415,#204,.T.);
#540=EDGE_CURVE('',#416,#415,#332,.T.);
#541=EDGE_CURVE('',#388,#416,#205,.T.);
#542=EDGE_CURVE('',#409,#416,#206,.T.);
#543=ORIENTED_EDGE('',*,*,#417,.F.);
#544=ORIENTED_EDGE('',*,*,#418,.F.);
#545=ORIENTED_EDGE('',*,*,#419,.F.);
#546=ORIENTED_EDGE('',*,*,#420,.F.);
#547=ORIENTED_EDGE('',*,*,#421,.F.);
#548=ORIENTED_EDGE('',*,*,#420,.T.);
#549=ORIENTED_EDGE('',*,*,#422,.F.);
#550=ORIENTED_EDGE('',*,*,#423,.T.);
#551=ORIENTED_EDGE('',*,*,#424,.F.);
#552=ORIENTED_EDGE('',*,*,#423,.F.);
#553=ORIENTED_EDGE('',*,*,#425,.F.);
#554=ORIENTED_EDGE('',*,*,#426,.F.);
#555=ORIENTED_EDGE('',*,*,#427,.F.);
#556=ORIENTED_EDGE('',*,*,#428,.T.);
#557=ORIENTED_EDGE('',*,*,#429,.F.);
#558=ORIENTED_EDGE('',*,*,#418,.T.);
#559=ORIENTED_EDGE('',*,*,#425,.T.);
#560=ORIENTED_EDGE('',*,*,#422,.T.);
#561=ORIENTED_EDGE('',*,*,#419,.T.);
#562=ORIENTED_EDGE('',*,*,#429,.T.);
#563=ORIENTED_EDGE('',*,*,#430,.T.);
#564=ORIENTED_EDGE('',*,*,#431,.T.);
#565=ORIENTED_EDGE('',*,*,#432,.F.);
#566=ORIENTED_EDGE('',*,*,#426,.T.);
#567=ORIENTED_EDGE('',*,*,#431,.F.);
#568=ORIENTED_EDGE('',*,*,#433,.T.);
#569=ORIENTED_EDGE('',*,*,#434,.F.);
#570=ORIENTED_EDGE('',*,*,#433,.F.);
#571=ORIENTED_EDGE('',*,*,#430,.F.);
#572=ORIENTED_EDGE('',*,*,#428,.F.);
#573=ORIENTED_EDGE('',*,*,#435,.F.);
#574=ORIENTED_EDGE('',*,*,#436,.F.);
#575=ORIENTED_EDGE('',*,*,#437,.F.);
#576=ORIENTED_EDGE('',*,*,#438,.F.);
#577=ORIENTED_EDGE('',*,*,#439,.F.);
#578=ORIENTED_EDGE('',*,*,#438,.T.);
#579=ORIENTED_EDGE('',*,*,#440,.F.);
#580=ORIENTED_EDGE('',*,*,#441,.T.);
#581=ORIENTED_EDGE('',*,*,#442,.F.);
#582=ORIENTED_EDGE('',*,*,#441,.F.);
#583=ORIENTED_EDGE('',*,*,#443,.F.);
#584=ORIENTED_EDGE('',*,*,#444,.F.);
#585=ORIENTED_EDGE('',*,*,#445,.F.);
#586=ORIENTED_EDGE('',*,*,#446,.T.);
#587=ORIENTED_EDGE('',*,*,#447,.F.);
#588=ORIENTED_EDGE('',*,*,#436,.T.);
#589=ORIENTED_EDGE('',*,*,#443,.T.);
#590=ORIENTED_EDGE('',*,*,#440,.T.);
#591=ORIENTED_EDGE('',*,*,#437,.T.);
#592=ORIENTED_EDGE('',*,*,#447,.T.);
#593=ORIENTED_EDGE('',*,*,#448,.T.);
#594=ORIENTED_EDGE('',*,*,#449,.T.);
#595=ORIENTED_EDGE('',*,*,#450,.F.);
#596=ORIENTED_EDGE('',*,*,#444,.T.);
#597=ORIENTED_EDGE('',*,*,#449,.F.);
#598=ORIENTED_EDGE('',*,*,#451,.T.);
#599=ORIENTED_EDGE('',*,*,#452,.F.);
#600=ORIENTED_EDGE('',*,*,#451,.F.);
#601=ORIENTED_EDGE('',*,*,#448,.F.);
#602=ORIENTED_EDGE('',*,*,#446,.F.);
#603=ORIENTED_EDGE('',*,*,#453,.F.);
#604=ORIENTED_EDGE('',*,*,#454,.F.);
#605=ORIENTED_EDGE('',*,*,#455,.F.);
#606=ORIENTED_EDGE('',*,*,#456,.F.);
#607=ORIENTED_EDGE('',*,*,#457,.F.);
#608=ORIENTED_EDGE('',*,*,#456,.T.);
#609=ORIENTED_EDGE('',*,*,#458,.F.);
#610=ORIENTED_EDGE('',*,*,#459,.T.);
#611=ORIENTED_EDGE('',*,*,#460,.F.);
#612=ORIENTED_EDGE('',*,*,#459,.F.);
#613=ORIENTED_EDGE('',*,*,#461,.F.);
#614=ORIENTED_EDGE('',*,*,#462,.F.);
#615=ORIENTED_EDGE('',*,*,#463,.F.);
#616=ORIENTED_EDGE('',*,*,#464,.T.);
#617=ORIENTED_EDGE('',*,*,#465,.F.);
#618=ORIENTED_EDGE('',*,*,#454,.T.);
#619=ORIENTED_EDGE('',*,*,#461,.T.);
#620=ORIENTED_EDGE('',*,*,#458,.T.);
#621=ORIENTED_EDGE('',*,*,#455,.T.);
#622=ORIENTED_EDGE('',*,*,#465,.T.);
#623=ORIENTED_EDGE('',*,*,#466,.T.);
#624=ORIENTED_EDGE('',*,*,#467,.T.);
#625=ORIENTED_EDGE('',*,*,#468,.F.);
#626=ORIENTED_EDGE('',*,*,#462,.T.);
#627=ORIENTED_EDGE('',*,*,#467,.F.);
#628=ORIENTED_EDGE('',*,*,#469,.T.);
#629=ORIENTED_EDGE('',*,*,#470,.F.);
#630=ORIENTED_EDGE('',*,*,#469,.F.);
#631=ORIENTED_EDGE('',*,*,#466,.F.);
#632=ORIENTED_EDGE('',*,*,#464,.F.);
#633=ORIENTED_EDGE('',*,*,#471,.F.);
#634=ORIENTED_EDGE('',*,*,#472,.F.);
#635=ORIENTED_EDGE('',*,*,#473,.F.);
#636=ORIENTED_EDGE('',*,*,#474,.F.);
#637=ORIENTED_EDGE('',*,*,#475,.F.);
#638=ORIENTED_EDGE('',*,*,#474,.T.);
#639=ORIENTED_EDGE('',*,*,#476,.F.);
#640=ORIENTED_EDGE('',*,*,#477,.T.);
#641=ORIENTED_EDGE('',*,*,#478,.F.);
#642=ORIENTED_EDGE('',*,*,#477,.F.);
#643=ORIENTED_EDGE('',*,*,#479,.F.);
#644=ORIENTED_EDGE('',*,*,#480,.F.);
#645=ORIENTED_EDGE('',*,*,#481,.F.);
#646=ORIENTED_EDGE('',*,*,#482,.T.);
#647=ORIENTED_EDGE('',*,*,#483,.F.);
#648=ORIENTED_EDGE('',*,*,#472,.T.);
#649=ORIENTED_EDGE('',*,*,#479,.T.);
#650=ORIENTED_EDGE('',*,*,#476,.T.);
#651=ORIENTED_EDGE('',*,*,#473,.T.);
#652=ORIENTED_EDGE('',*,*,#483,.T.);
#653=ORIENTED_EDGE('',*,*,#484,.T.);
#654=ORIENTED_EDGE('',*,*,#485,.T.);
#655=ORIENTED_EDGE('',*,*,#486,.F.);
#656=ORIENTED_EDGE('',*,*,#480,.T.);
#657=ORIENTED_EDGE('',*,*,#485,.F.);
#658=ORIENTED_EDGE('',*,*,#487,.T.);
#659=ORIENTED_EDGE('',*,*,#488,.F.);
#660=ORIENTED_EDGE('',*,*,#487,.F.);
#661=ORIENTED_EDGE('',*,*,#484,.F.);
#662=ORIENTED_EDGE('',*,*,#482,.F.);
#663=ORIENTED_EDGE('',*,*,#489,.F.);
#664=ORIENTED_EDGE('',*,*,#490,.F.);
#665=ORIENTED_EDGE('',*,*,#491,.F.);
#666=ORIENTED_EDGE('',*,*,#492,.F.);
#667=ORIENTED_EDGE('',*,*,#493,.F.);
#668=ORIENTED_EDGE('',*,*,#494,.F.);
#669=ORIENTED_EDGE('',*,*,#495,.F.);
#670=ORIENTED_EDGE('',*,*,#496,.F.);
#671=ORIENTED_EDGE('',*,*,#432,.T.);
#672=ORIENTED_EDGE('',*,*,#434,.T.);
#673=ORIENTED_EDGE('',*,*,#427,.T.);
#674=ORIENTED_EDGE('',*,*,#417,.T.);
#675=ORIENTED_EDGE('',*,*,#421,.T.);
#676=ORIENTED_EDGE('',*,*,#424,.T.);
#677=ORIENTED_EDGE('',*,*,#450,.T.);
#678=ORIENTED_EDGE('',*,*,#452,.T.);
#679=ORIENTED_EDGE('',*,*,#445,.T.);
#680=ORIENTED_EDGE('',*,*,#435,.T.);
#681=ORIENTED_EDGE('',*,*,#439,.T.);
#682=ORIENTED_EDGE('',*,*,#442,.T.);
#683=ORIENTED_EDGE('',*,*,#468,.T.);
#684=ORIENTED_EDGE('',*,*,#470,.T.);
#685=ORIENTED_EDGE('',*,*,#463,.T.);
#686=ORIENTED_EDGE('',*,*,#453,.T.);
#687=ORIENTED_EDGE('',*,*,#457,.T.);
#688=ORIENTED_EDGE('',*,*,#460,.T.);
#689=ORIENTED_EDGE('',*,*,#486,.T.);
#690=ORIENTED_EDGE('',*,*,#488,.T.);
#691=ORIENTED_EDGE('',*,*,#481,.T.);
#692=ORIENTED_EDGE('',*,*,#471,.T.);
#693=ORIENTED_EDGE('',*,*,#475,.T.);
#694=ORIENTED_EDGE('',*,*,#478,.T.);
#695=ORIENTED_EDGE('',*,*,#497,.F.);
#696=ORIENTED_EDGE('',*,*,#498,.F.);
#697=ORIENTED_EDGE('',*,*,#499,.F.);
#698=ORIENTED_EDGE('',*,*,#500,.F.);
#699=ORIENTED_EDGE('',*,*,#501,.F.);
#700=ORIENTED_EDGE('',*,*,#502,.F.);
#701=ORIENTED_EDGE('',*,*,#503,.F.);
#702=ORIENTED_EDGE('',*,*,#504,.F.);
#703=ORIENTED_EDGE('',*,*,#505,.F.);
#704=ORIENTED_EDGE('',*,*,#506,.F.);
#705=ORIENTED_EDGE('',*,*,#501,.T.);
#706=ORIENTED_EDGE('',*,*,#507,.T.);
#707=ORIENTED_EDGE('',*,*,#508,.T.);
#708=ORIENTED_EDGE('',*,*,#509,.F.);
#709=ORIENTED_EDGE('',*,*,#500,.T.);
#710=ORIENTED_EDGE('',*,*,#510,.T.);
#711=ORIENTED_EDGE('',*,*,#511,.T.);
#712=ORIENTED_EDGE('',*,*,#507,.F.);
#713=ORIENTED_EDGE('',*,*,#499,.T.);
#714=ORIENTED_EDGE('',*,*,#512,.T.);
#715=ORIENTED_EDGE('',*,*,#513,.T.);
#716=ORIENTED_EDGE('',*,*,#510,.F.);
#717=ORIENTED_EDGE('',*,*,#498,.T.);
#718=ORIENTED_EDGE('',*,*,#514,.T.);
#719=ORIENTED_EDGE('',*,*,#515,.T.);
#720=ORIENTED_EDGE('',*,*,#512,.F.);
#721=ORIENTED_EDGE('',*,*,#497,.T.);
#722=ORIENTED_EDGE('',*,*,#516,.T.);
#723=ORIENTED_EDGE('',*,*,#517,.T.);
#724=ORIENTED_EDGE('',*,*,#514,.F.);
#725=ORIENTED_EDGE('',*,*,#492,.T.);
#726=ORIENTED_EDGE('',*,*,#518,.T.);
#727=ORIENTED_EDGE('',*,*,#519,.F.);
#728=ORIENTED_EDGE('',*,*,#520,.F.);
#729=ORIENTED_EDGE('',*,*,#491,.T.);
#730=ORIENTED_EDGE('',*,*,#521,.T.);
#731=ORIENTED_EDGE('',*,*,#522,.F.);
#732=ORIENTED_EDGE('',*,*,#518,.F.);
#733=ORIENTED_EDGE('',*,*,#490,.T.);
#734=ORIENTED_EDGE('',*,*,#523,.T.);
#735=ORIENTED_EDGE('',*,*,#524,.F.);
#736=ORIENTED_EDGE('',*,*,#521,.F.);
#737=ORIENTED_EDGE('',*,*,#489,.T.);
#738=ORIENTED_EDGE('',*,*,#525,.T.);
#739=ORIENTED_EDGE('',*,*,#526,.F.);
#740=ORIENTED_EDGE('',*,*,#523,.F.);
#741=ORIENTED_EDGE('',*,*,#506,.T.);
#742=ORIENTED_EDGE('',*,*,#527,.T.);
#743=ORIENTED_EDGE('',*,*,#528,.T.);
#744=ORIENTED_EDGE('',*,*,#516,.F.);
#745=ORIENTED_EDGE('',*,*,#505,.T.);
#746=ORIENTED_EDGE('',*,*,#529,.T.);
#747=ORIENTED_EDGE('',*,*,#530,.T.);
#748=ORIENTED_EDGE('',*,*,#527,.F.);
#749=ORIENTED_EDGE('',*,*,#504,.T.);
#750=ORIENTED_EDGE('',*,*,#531,.T.);
#751=ORIENTED_EDGE('',*,*,#532,.T.);
#752=ORIENTED_EDGE('',*,*,#529,.F.);
#753=ORIENTED_EDGE('',*,*,#503,.T.);
#754=ORIENTED_EDGE('',*,*,#533,.T.);
#755=ORIENTED_EDGE('',*,*,#534,.T.);
#756=ORIENTED_EDGE('',*,*,#531,.F.);
#757=ORIENTED_EDGE('',*,*,#502,.T.);
#758=ORIENTED_EDGE('',*,*,#509,.T.);
#759=ORIENTED_EDGE('',*,*,#535,.T.);
#760=ORIENTED_EDGE('',*,*,#533,.F.);
#761=ORIENTED_EDGE('',*,*,#515,.F.);
#762=ORIENTED_EDGE('',*,*,#517,.F.);
#763=ORIENTED_EDGE('',*,*,#528,.F.);
#764=ORIENTED_EDGE('',*,*,#530,.F.);
#765=ORIENTED_EDGE('',*,*,#532,.F.);
#766=ORIENTED_EDGE('',*,*,#534,.F.);
#767=ORIENTED_EDGE('',*,*,#535,.F.);
#768=ORIENTED_EDGE('',*,*,#508,.F.);
#769=ORIENTED_EDGE('',*,*,#511,.F.);
#770=ORIENTED_EDGE('',*,*,#513,.F.);
#771=ORIENTED_EDGE('',*,*,#493,.T.);
#772=ORIENTED_EDGE('',*,*,#520,.T.);
#773=ORIENTED_EDGE('',*,*,#536,.F.);
#774=ORIENTED_EDGE('',*,*,#537,.F.);
#775=ORIENTED_EDGE('',*,*,#494,.T.);
#776=ORIENTED_EDGE('',*,*,#537,.T.);
#777=ORIENTED_EDGE('',*,*,#538,.F.);
#778=ORIENTED_EDGE('',*,*,#539,.F.);
#779=ORIENTED_EDGE('',*,*,#495,.T.);
#780=ORIENTED_EDGE('',*,*,#539,.T.);
#781=ORIENTED_EDGE('',*,*,#540,.F.);
#782=ORIENTED_EDGE('',*,*,#541,.F.);
#783=ORIENTED_EDGE('',*,*,#496,.T.);
#784=ORIENTED_EDGE('',*,*,#541,.T.);
#785=ORIENTED_EDGE('',*,*,#542,.F.);
#786=ORIENTED_EDGE('',*,*,#525,.F.);
#787=ORIENTED_EDGE('',*,*,#526,.T.);
#788=ORIENTED_EDGE('',*,*,#542,.T.);
#789=ORIENTED_EDGE('',*,*,#540,.T.);
#790=ORIENTED_EDGE('',*,*,#538,.T.);
#791=ORIENTED_EDGE('',*,*,#536,.T.);
#792=ORIENTED_EDGE('',*,*,#519,.T.);
#793=ORIENTED_EDGE('',*,*,#522,.T.);
#794=ORIENTED_EDGE('',*,*,#524,.T.);
#795=CYLINDRICAL_SURFACE('',#893,0.75);
#796=CYLINDRICAL_SURFACE('',#896,1.6);
#797=CYLINDRICAL_SURFACE('',#899,0.75);
#798=CYLINDRICAL_SURFACE('',#902,1.6);
#799=CYLINDRICAL_SURFACE('',#908,1.6);
#800=CYLINDRICAL_SURFACE('',#910,0.75);
#801=CYLINDRICAL_SURFACE('',#912,0.75);
#802=CYLINDRICAL_SURFACE('',#915,1.6);
#803=CYLINDRICAL_SURFACE('',#918,0.75);
#804=CYLINDRICAL_SURFACE('',#921,1.6);
#805=CYLINDRICAL_SURFACE('',#927,1.6);
#806=CYLINDRICAL_SURFACE('',#929,0.75);
#807=CYLINDRICAL_SURFACE('',#931,0.75);
#808=CYLINDRICAL_SURFACE('',#934,1.6);
#809=CYLINDRICAL_SURFACE('',#937,0.75);
#810=CYLINDRICAL_SURFACE('',#940,1.6);
#811=CYLINDRICAL_SURFACE('',#946,1.6);
#812=CYLINDRICAL_SURFACE('',#948,0.75);
#813=CYLINDRICAL_SURFACE('',#950,0.75);
#814=CYLINDRICAL_SURFACE('',#953,1.6);
#815=CYLINDRICAL_SURFACE('',#956,0.75);
#816=CYLINDRICAL_SURFACE('',#959,1.6);
#817=CYLINDRICAL_SURFACE('',#965,1.6);
#818=CYLINDRICAL_SURFACE('',#967,0.75);
#819=CYLINDRICAL_SURFACE('',#980,1.9999999999998);
#820=CYLINDRICAL_SURFACE('',#983,2.);
#821=CYLINDRICAL_SURFACE('',#987,3.49999999999998);
#822=CYLINDRICAL_SURFACE('',#990,3.5);
#823=CYLINDRICAL_SURFACE('',#992,3.50000000000001);
#824=CYLINDRICAL_SURFACE('',#995,3.5);
#825=CYLINDRICAL_SURFACE('',#998,3.50000000000003);
#826=CYLINDRICAL_SURFACE('',#1001,3.49999999999999);
#827=CYLINDRICAL_SURFACE('',#1004,3.5);
#828=ADVANCED_FACE('',(#44),#795,.T.);
#829=ADVANCED_FACE('',(#45),#796,.F.);
#830=ADVANCED_FACE('',(#46),#797,.T.);
#831=ADVANCED_FACE('',(#47),#798,.F.);
#832=ADVANCED_FACE('',(#48),#28,.T.);
#833=ADVANCED_FACE('',(#49),#799,.F.);
#834=ADVANCED_FACE('',(#50),#800,.T.);
#835=ADVANCED_FACE('',(#51),#801,.T.);
#836=ADVANCED_FACE('',(#52),#802,.F.);
#837=ADVANCED_FACE('',(#53),#803,.T.);
#838=ADVANCED_FACE('',(#54),#804,.F.);
#839=ADVANCED_FACE('',(#55),#29,.T.);
#840=ADVANCED_FACE('',(#56),#805,.F.);
#841=ADVANCED_FACE('',(#57),#806,.T.);
#842=ADVANCED_FACE('',(#58),#807,.T.);
#843=ADVANCED_FACE('',(#59),#808,.F.);
#844=ADVANCED_FACE('',(#60),#809,.T.);
#845=ADVANCED_FACE('',(#61),#810,.F.);
#846=ADVANCED_FACE('',(#62),#30,.T.);
#847=ADVANCED_FACE('',(#63),#811,.F.);
#848=ADVANCED_FACE('',(#64),#812,.T.);
#849=ADVANCED_FACE('',(#65),#813,.T.);
#850=ADVANCED_FACE('',(#66),#814,.F.);
#851=ADVANCED_FACE('',(#67),#815,.T.);
#852=ADVANCED_FACE('',(#68),#816,.F.);
#853=ADVANCED_FACE('',(#69),#31,.T.);
#854=ADVANCED_FACE('',(#70),#817,.F.);
#855=ADVANCED_FACE('',(#71),#818,.T.);
#856=ADVANCED_FACE('',(#72,#23,#24,#25,#26,#27),#32,.T.);
#857=ADVANCED_FACE('',(#73),#33,.F.);
#858=ADVANCED_FACE('',(#74),#819,.F.);
#859=ADVANCED_FACE('',(#75),#34,.F.);
#860=ADVANCED_FACE('',(#76),#820,.F.);
#861=ADVANCED_FACE('',(#77),#35,.F.);
#862=ADVANCED_FACE('',(#78),#36,.T.);
#863=ADVANCED_FACE('',(#79),#821,.T.);
#864=ADVANCED_FACE('',(#80),#37,.T.);
#865=ADVANCED_FACE('',(#81),#822,.T.);
#866=ADVANCED_FACE('',(#82),#823,.F.);
#867=ADVANCED_FACE('',(#83),#38,.F.);
#868=ADVANCED_FACE('',(#84),#824,.F.);
#869=ADVANCED_FACE('',(#85),#39,.F.);
#870=ADVANCED_FACE('',(#86),#825,.F.);
#871=ADVANCED_FACE('',(#87),#40,.T.);
#872=ADVANCED_FACE('',(#88),#826,.T.);
#873=ADVANCED_FACE('',(#89),#41,.T.);
#874=ADVANCED_FACE('',(#90),#827,.T.);
#875=ADVANCED_FACE('',(#91),#42,.T.);
#876=ADVANCED_FACE('',(#92),#43,.F.);
#877=CLOSED_SHELL('',(#828,#829,#830,#831,#832,#833,#834,#835,#836,#837,
#838,#839,#840,#841,#842,#843,#844,#845,#846,#847,#848,#849,#850,#851,#852,
#853,#854,#855,#856,#857,#858,#859,#860,#861,#862,#863,#864,#865,#866,#867,
#868,#869,#870,#871,#872,#873,#874,#875,#876));
#878=DERIVED_UNIT_ELEMENT(#880,1.);
#879=DERIVED_UNIT_ELEMENT(#1583,-3.);
#880=(
MASS_UNIT()
NAMED_UNIT(*)
SI_UNIT(.KILO.,.GRAM.)
);
#881=DERIVED_UNIT((#878,#879));
#882=MEASURE_REPRESENTATION_ITEM('density measure',
POSITIVE_RATIO_MEASURE(7850.),#881);
#883=PROPERTY_DEFINITION_REPRESENTATION(#888,#885);
#884=PROPERTY_DEFINITION_REPRESENTATION(#889,#886);
#885=REPRESENTATION('material name',(#887),#1580);
#886=REPRESENTATION('density',(#882),#1580);
#887=DESCRIPTIVE_REPRESENTATION_ITEM('Steel','Steel');
#888=PROPERTY_DEFINITION('material property','material name',#1600);
#889=PROPERTY_DEFINITION('material property','density of part',#1600);
#890=AXIS2_PLACEMENT_3D('',#1310,#1010,#1011);
#891=AXIS2_PLACEMENT_3D('',#1311,#1012,#1013);
#892=AXIS2_PLACEMENT_3D('',#1312,#1014,#1015);
#893=AXIS2_PLACEMENT_3D('',#1313,#1016,#1017);
#894=AXIS2_PLACEMENT_3D('',#1316,#1018,#1019);
#895=AXIS2_PLACEMENT_3D('',#1320,#1021,#1022);
#896=AXIS2_PLACEMENT_3D('',#1322,#1024,#1025);
#897=AXIS2_PLACEMENT_3D('',#1324,#1026,#1027);
#898=AXIS2_PLACEMENT_3D('',#1326,#1028,#1029);
#899=AXIS2_PLACEMENT_3D('',#1328,#1031,#1032);
#900=AXIS2_PLACEMENT_3D('',#1330,#1033,#1034);
#901=AXIS2_PLACEMENT_3D('',#1332,#1035,#1036);
#902=AXIS2_PLACEMENT_3D('',#1334,#1038,#1039);
#903=AXIS2_PLACEMENT_3D('',#1336,#1040,#1041);
#904=AXIS2_PLACEMENT_3D('',#1339,#1043,#1044);
#905=AXIS2_PLACEMENT_3D('',#1340,#1045,#1046);
#906=AXIS2_PLACEMENT_3D('',#1342,#1047,#1048);
#907=AXIS2_PLACEMENT_3D('',#1343,#1049,#1050);
#908=AXIS2_PLACEMENT_3D('',#1344,#1051,#1052);
#909=AXIS2_PLACEMENT_3D('',#1346,#1053,#1054);
#910=AXIS2_PLACEMENT_3D('',#1348,#1056,#1057);
#911=AXIS2_PLACEMENT_3D('',#1349,#1058,#1059);
#912=AXIS2_PLACEMENT_3D('',#1350,#1060,#1061);
#913=AXIS2_PLACEMENT_3D('',#1353,#1062,#1063);
#914=AXIS2_PLACEMENT_3D('',#1357,#1065,#1066);
#915=AXIS2_PLACEMENT_3D('',#1359,#1068,#1069);
#916=AXIS2_PLACEMENT_3D('',#1361,#1070,#1071);
#917=AXIS2_PLACEMENT_3D('',#1363,#1072,#1073);
#918=AXIS2_PLACEMENT_3D('',#1365,#1075,#1076);
#919=AXIS2_PLACEMENT_3D('',#1367,#1077,#1078);
#920=AXIS2_PLACEMENT_3D('',#1369,#1079,#1080);
#921=AXIS2_PLACEMENT_3D('',#1371,#1082,#1083);
#922=AXIS2_PLACEMENT_3D('',#1373,#1084,#1085);
#923=AXIS2_PLACEMENT_3D('',#1376,#1087,#1088);
#924=AXIS2_PLACEMENT_3D('',#1377,#1089,#1090);
#925=AXIS2_PLACEMENT_3D('',#1379,#1091,#1092);
#926=AXIS2_PLACEMENT_3D('',#1380,#1093,#1094);
#927=AXIS2_PLACEMENT_3D('',#1381,#1095,#1096);
#928=AXIS2_PLACEMENT_3D('',#1383,#1097,#1098);
#929=AXIS2_PLACEMENT_3D('',#1385,#1100,#1101);
#930=AXIS2_PLACEMENT_3D('',#1386,#1102,#1103);
#931=AXIS2_PLACEMENT_3D('',#1387,#1104,#1105);
#932=AXIS2_PLACEMENT_3D('',#1390,#1106,#1107);
#933=AXIS2_PLACEMENT_3D('',#1394,#1109,#1110);
#934=AXIS2_PLACEMENT_3D('',#1396,#1112,#1113);
#935=AXIS2_PLACEMENT_3D('',#1398,#1114,#1115);
#936=AXIS2_PLACEMENT_3D('',#1400,#1116,#1117);
#937=AXIS2_PLACEMENT_3D('',#1402,#1119,#1120);
#938=AXIS2_PLACEMENT_3D('',#1404,#1121,#1122);
#939=AXIS2_PLACEMENT_3D('',#1406,#1123,#1124);
#940=AXIS2_PLACEMENT_3D('',#1408,#1126,#1127);
#941=AXIS2_PLACEMENT_3D('',#1410,#1128,#1129);
#942=AXIS2_PLACEMENT_3D('',#1413,#1131,#1132);
#943=AXIS2_PLACEMENT_3D('',#1414,#1133,#1134);
#944=AXIS2_PLACEMENT_3D('',#1416,#1135,#1136);
#945=AXIS2_PLACEMENT_3D('',#1417,#1137,#1138);
#946=AXIS2_PLACEMENT_3D('',#1418,#1139,#1140);
#947=AXIS2_PLACEMENT_3D('',#1420,#1141,#1142);
#948=AXIS2_PLACEMENT_3D('',#1422,#1144,#1145);
#949=AXIS2_PLACEMENT_3D('',#1423,#1146,#1147);
#950=AXIS2_PLACEMENT_3D('',#1424,#1148,#1149);
#951=AXIS2_PLACEMENT_3D('',#1427,#1150,#1151);
#952=AXIS2_PLACEMENT_3D('',#1431,#1153,#1154);
#953=AXIS2_PLACEMENT_3D('',#1433,#1156,#1157);
#954=AXIS2_PLACEMENT_3D('',#1435,#1158,#1159);
#955=AXIS2_PLACEMENT_3D('',#1437,#1160,#1161);
#956=AXIS2_PLACEMENT_3D('',#1439,#1163,#1164);
#957=AXIS2_PLACEMENT_3D('',#1441,#1165,#1166);
#958=AXIS2_PLACEMENT_3D('',#1443,#1167,#1168);
#959=AXIS2_PLACEMENT_3D('',#1445,#1170,#1171);
#960=AXIS2_PLACEMENT_3D('',#1447,#1172,#1173);
#961=AXIS2_PLACEMENT_3D('',#1450,#1175,#1176);
#962=AXIS2_PLACEMENT_3D('',#1451,#1177,#1178);
#963=AXIS2_PLACEMENT_3D('',#1453,#1179,#1180);
#964=AXIS2_PLACEMENT_3D('',#1454,#1181,#1182);
#965=AXIS2_PLACEMENT_3D('',#1455,#1183,#1184);
#966=AXIS2_PLACEMENT_3D('',#1457,#1185,#1186);
#967=AXIS2_PLACEMENT_3D('',#1459,#1188,#1189);
#968=AXIS2_PLACEMENT_3D('',#1460,#1190,#1191);
#969=AXIS2_PLACEMENT_3D('',#1461,#1192,#1193);
#970=AXIS2_PLACEMENT_3D('',#1464,#1194,#1195);
#971=AXIS2_PLACEMENT_3D('',#1468,#1197,#1198);
#972=AXIS2_PLACEMENT_3D('',#1472,#1200,#1201);
#973=AXIS2_PLACEMENT_3D('',#1476,#1203,#1204);
#974=AXIS2_PLACEMENT_3D('',#1482,#1207,#1208);
#975=AXIS2_PLACEMENT_3D('',#1486,#1210,#1211);
#976=AXIS2_PLACEMENT_3D('',#1490,#1213,#1214);
#977=AXIS2_PLACEMENT_3D('',#1494,#1216,#1217);
#978=AXIS2_PLACEMENT_3D('',#1497,#1219,#1220);
#979=AXIS2_PLACEMENT_3D('',#1498,#1221,#1222);
#980=AXIS2_PLACEMENT_3D('',#1504,#1226,#1227);
#981=AXIS2_PLACEMENT_3D('',#1507,#1229,#1230);
#982=AXIS2_PLACEMENT_3D('',#1508,#1231,#1232);
#983=AXIS2_PLACEMENT_3D('',#1512,#1235,#1236);
#984=AXIS2_PLACEMENT_3D('',#1515,#1238,#1239);
#985=AXIS2_PLACEMENT_3D('',#1516,#1240,#1241);
#986=AXIS2_PLACEMENT_3D('',#1520,#1244,#1245);
#987=AXIS2_PLACEMENT_3D('',#1526,#1249,#1250);
#988=AXIS2_PLACEMENT_3D('',#1529,#1252,#1253);
#989=AXIS2_PLACEMENT_3D('',#1530,#1254,#1255);
#990=AXIS2_PLACEMENT_3D('',#1534,#1258,#1259);
#991=AXIS2_PLACEMENT_3D('',#1537,#1261,#1262);
#992=AXIS2_PLACEMENT_3D('',#1538,#1263,#1264);
#993=AXIS2_PLACEMENT_3D('',#1541,#1266,#1267);
#994=AXIS2_PLACEMENT_3D('',#1542,#1268,#1269);
#995=AXIS2_PLACEMENT_3D('',#1546,#1272,#1273);
#996=AXIS2_PLACEMENT_3D('',#1549,#1275,#1276);
#997=AXIS2_PLACEMENT_3D('',#1550,#1277,#1278);
#998=AXIS2_PLACEMENT_3D('',#1554,#1281,#1282);
#999=AXIS2_PLACEMENT_3D('',#1555,#1283,#1284);
#1000=AXIS2_PLACEMENT_3D('',#1556,#1285,#1286);
#1001=AXIS2_PLACEMENT_3D('',#1557,#1287,#1288);
#1002=AXIS2_PLACEMENT_3D('',#1559,#1289,#1290);
#1003=AXIS2_PLACEMENT_3D('',#1561,#1292,#1293);
#1004=AXIS2_PLACEMENT_3D('',#1565,#1296,#1297);
#1005=AXIS2_PLACEMENT_3D('',#1567,#1298,#1299);
#1006=AXIS2_PLACEMENT_3D('',#1569,#1301,#1302);
#1007=AXIS2_PLACEMENT_3D('',#1571,#1304,#1305);
#1008=AXIS2_PLACEMENT_3D('',#1572,#1306,#1307);
#1009=AXIS2_PLACEMENT_3D('',#1573,#1308,#1309);
#1010=DIRECTION('axis',(0.,0.,1.));
#1011=DIRECTION('refdir',(1.,0.,0.));
#1012=DIRECTION('axis',(0.,0.,1.));
#1013=DIRECTION('refdir',(1.,0.,0.));
#1014=DIRECTION('axis',(0.,0.,1.));
#1015=DIRECTION('refdir',(1.,0.,0.));
#1016=DIRECTION('center_axis',(-1.06057523872491E-16,-6.12323399573676E-17,
-1.));
#1017=DIRECTION('ref_axis',(0.86602540378445,0.49999999999998,-1.22464679914736E-16));
#1018=DIRECTION('center_axis',(0.,0.,1.));
#1019=DIRECTION('ref_axis',(-0.866025403784439,-0.5,1.22464679914736E-16));
#1020=DIRECTION('',(-1.06057523872491E-16,-6.12323399573676E-17,-1.));
#1021=DIRECTION('center_axis',(0.,0.,1.));
#1022=DIRECTION('ref_axis',(-0.5,0.866025403784439,0.));
#1023=DIRECTION('',(-1.06057523872491E-16,-6.12323399573676E-17,-1.));
#1024=DIRECTION('center_axis',(0.,0.,1.));
#1025=DIRECTION('ref_axis',(-0.866025403784445,0.499999999999988,0.));
#1026=DIRECTION('center_axis',(0.,0.,-1.));
#1027=DIRECTION('ref_axis',(1.,5.55111512312578E-17,0.));
#1028=DIRECTION('center_axis',(0.,0.,1.));
#1029=DIRECTION('ref_axis',(1.,5.55111512312578E-17,0.));
#1030=DIRECTION('',(-6.79815536723444E-33,1.22464679914735E-16,-1.));
#1031=DIRECTION('center_axis',(-6.79815536723444E-33,1.22464679914735E-16,
-1.));
#1032=DIRECTION('ref_axis',(-4.51191235735604E-14,-1.,-1.22464679914735E-16));
#1033=DIRECTION('center_axis',(0.,0.,1.));
#1034=DIRECTION('ref_axis',(-5.55111512312578E-17,1.,1.22464679914735E-16));
#1035=DIRECTION('center_axis',(0.,0.,1.));
#1036=DIRECTION('ref_axis',(1.,5.55111512312578E-17,0.));
#1037=DIRECTION('',(-6.79815536723444E-33,1.22464679914735E-16,-1.));
#1038=DIRECTION('center_axis',(0.,0.,1.));
#1039=DIRECTION('ref_axis',(1.,5.55111512312578E-17,0.));
#1040=DIRECTION('center_axis',(0.,0.,-1.));
#1041=DIRECTION('ref_axis',(1.,5.55111512312578E-17,0.));
#1042=DIRECTION('',(1.06057523872491E-16,-6.12323399573677E-17,-1.));
#1043=DIRECTION('center_axis',(0.,0.,1.));
#1044=DIRECTION('ref_axis',(1.,5.55111512312578E-17,0.));
#1045=DIRECTION('center_axis',(0.,0.,1.));
#1046=DIRECTION('ref_axis',(1.,5.55111512312578E-17,0.));
#1047=DIRECTION('center_axis',(0.,0.,1.));
#1048=DIRECTION('ref_axis',(-0.5,-0.866025403784438,0.));
#1049=DIRECTION('center_axis',(0.,0.,1.));
#1050=DIRECTION('ref_axis',(1.,5.55111512312578E-17,0.));
#1051=DIRECTION('center_axis',(0.,0.,1.));
#1052=DIRECTION('ref_axis',(1.,5.55111512312578E-17,0.));
#1053=DIRECTION('center_axis',(0.,0.,-1.));
#1054=DIRECTION('ref_axis',(1.,5.55111512312578E-17,0.));
#1055=DIRECTION('',(1.06057523872491E-16,-6.12323399573677E-17,-1.));
#1056=DIRECTION('center_axis',(1.06057523872491E-16,-6.12323399573677E-17,
-1.));
#1057=DIRECTION('ref_axis',(-0.866025403784451,0.499999999999979,-1.22464679914736E-16));
#1058=DIRECTION('center_axis',(0.,0.,1.));
#1059=DIRECTION('ref_axis',(0.866025403784438,-0.5,1.22464679914736E-16));
#1060=DIRECTION('center_axis',(-1.06057523872491E-16,-6.12323399573676E-17,
-1.));
#1061=DIRECTION('ref_axis',(0.866025403784451,0.499999999999979,-1.22464679914736E-16));
#1062=DIRECTION('center_axis',(0.,0.,1.));
#1063=DIRECTION('ref_axis',(-0.866025403784439,-0.5,1.22464679914736E-16));
#1064=DIRECTION('',(-1.06057523872491E-16,-6.12323399573676E-17,-1.));
#1065=DIRECTION('center_axis',(0.,-7.70371977754895E-34,1.));
#1066=DIRECTION('ref_axis',(-0.5,0.866025403784439,6.671617030994E-34));
#1067=DIRECTION('',(-1.06057523872491E-16,-6.12323399573676E-17,-1.));
#1068=DIRECTION('center_axis',(0.,-7.70371977754895E-34,1.));
#1069=DIRECTION('ref_axis',(-0.866025403784445,0.499999999999989,3.85185988877439E-34));
#1070=DIRECTION('center_axis',(0.,0.,-1.));
#1071=DIRECTION('ref_axis',(1.,5.55111512312578E-17,4.27642353614752E-50));
#1072=DIRECTION('center_axis',(0.,-7.70371977754895E-34,1.));
#1073=DIRECTION('ref_axis',(1.,5.55111512312578E-17,4.27642353614752E-50));
#1074=DIRECTION('',(-6.79815536723444E-33,1.22464679914735E-16,-1.));
#1075=DIRECTION('center_axis',(-6.79815536723444E-33,1.22464679914735E-16,
-1.));
#1076=DIRECTION('ref_axis',(-3.71255177962593E-14,-1.,-1.22464679914735E-16));
#1077=DIRECTION('center_axis',(0.,0.,1.));
#1078=DIRECTION('ref_axis',(-5.55111512312578E-17,1.,1.22464679914735E-16));
#1079=DIRECTION('center_axis',(0.,-7.70371977754895E-34,1.));
#1080=DIRECTION('ref_axis',(1.,5.55111512312578E-17,4.27642353614752E-50));
#1081=DIRECTION('',(-6.79815536723444E-33,1.22464679914735E-16,-1.));
#1082=DIRECTION('center_axis',(0.,-7.70371977754895E-34,1.));
#1083=DIRECTION('ref_axis',(1.,5.55111512312578E-17,4.27642353614752E-50));
#1084=DIRECTION('center_axis',(0.,0.,-1.));
#1085=DIRECTION('ref_axis',(1.,5.55111512312578E-17,4.27642353614752E-50));
#1086=DIRECTION('',(1.06057523872491E-16,-6.12323399573677E-17,-1.));
#1087=DIRECTION('center_axis',(0.,-7.70371977754895E-34,1.));
#1088=DIRECTION('ref_axis',(1.,5.55111512312578E-17,4.27642353614752E-50));
#1089=DIRECTION('center_axis',(0.,-7.70371977754895E-34,1.));
#1090=DIRECTION('ref_axis',(1.,5.55111512312578E-17,4.27642353614752E-50));
#1091=DIRECTION('center_axis',(0.,-7.70371977754895E-34,1.));
#1092=DIRECTION('ref_axis',(-0.5,-0.866025403784438,-6.67161703099399E-34));
#1093=DIRECTION('center_axis',(0.,-7.70371977754895E-34,1.));
#1094=DIRECTION('ref_axis',(1.,5.55111512312578E-17,4.27642353614752E-50));
#1095=DIRECTION('center_axis',(0.,-7.70371977754895E-34,1.));
#1096=DIRECTION('ref_axis',(1.,5.55111512312578E-17,4.27642353614752E-50));
#1097=DIRECTION('center_axis',(0.,0.,-1.));
#1098=DIRECTION('ref_axis',(1.,5.55111512312578E-17,4.27642353614752E-50));
#1099=DIRECTION('',(1.06057523872491E-16,-6.12323399573677E-17,-1.));
#1100=DIRECTION('center_axis',(1.06057523872491E-16,-6.12323399573677E-17,
-1.));
#1101=DIRECTION('ref_axis',(-0.866025403784453,0.499999999999976,-1.22464679914736E-16));
#1102=DIRECTION('center_axis',(0.,0.,1.));
#1103=DIRECTION('ref_axis',(0.866025403784438,-0.5,1.22464679914736E-16));
#1104=DIRECTION('center_axis',(-1.06057523872491E-16,-6.12323399573676E-17,
-1.));
#1105=DIRECTION('ref_axis',(0.866025403784451,0.499999999999978,-1.22464679914736E-16));
#1106=DIRECTION('center_axis',(0.,0.,1.));
#1107=DIRECTION('ref_axis',(-0.866025403784439,-0.5,1.22464679914736E-16));
#1108=DIRECTION('',(-1.06057523872491E-16,-6.12323399573676E-17,-1.));
#1109=DIRECTION('center_axis',(0.,-7.70371977754895E-34,1.));
#1110=DIRECTION('ref_axis',(-0.5,0.866025403784439,6.671617030994E-34));
#1111=DIRECTION('',(-1.06057523872491E-16,-6.12323399573676E-17,-1.));
#1112=DIRECTION('center_axis',(0.,-7.70371977754895E-34,1.));
#1113=DIRECTION('ref_axis',(-0.866025403784447,0.499999999999986,3.85185988877437E-34));
#1114=DIRECTION('center_axis',(0.,0.,-1.));
#1115=DIRECTION('ref_axis',(1.,5.55111512312578E-17,4.27642353614752E-50));
#1116=DIRECTION('center_axis',(0.,-7.70371977754895E-34,1.));
#1117=DIRECTION('ref_axis',(1.,5.55111512312578E-17,4.27642353614752E-50));
#1118=DIRECTION('',(-6.79815536723444E-33,1.22464679914735E-16,-1.));
#1119=DIRECTION('center_axis',(-6.79815536723444E-33,1.22464679914735E-16,
-1.));
#1120=DIRECTION('ref_axis',(-4.86718372523609E-14,-1.,-1.22464679914735E-16));
#1121=DIRECTION('center_axis',(0.,0.,1.));
#1122=DIRECTION('ref_axis',(-5.55111512312578E-17,1.,1.22464679914735E-16));
#1123=DIRECTION('center_axis',(0.,-7.70371977754895E-34,1.));
#1124=DIRECTION('ref_axis',(1.,5.55111512312578E-17,4.27642353614752E-50));
#1125=DIRECTION('',(-6.79815536723444E-33,1.22464679914735E-16,-1.));
#1126=DIRECTION('center_axis',(0.,-7.70371977754895E-34,1.));
#1127=DIRECTION('ref_axis',(1.,5.55111512312578E-17,4.27642353614752E-50));
#1128=DIRECTION('center_axis',(0.,0.,-1.));
#1129=DIRECTION('ref_axis',(1.,5.55111512312578E-17,4.27642353614752E-50));
#1130=DIRECTION('',(1.06057523872491E-16,-6.12323399573677E-17,-1.));
#1131=DIRECTION('center_axis',(0.,-7.70371977754895E-34,1.));
#1132=DIRECTION('ref_axis',(1.,5.55111512312578E-17,4.27642353614752E-50));
#1133=DIRECTION('center_axis',(0.,-7.70371977754895E-34,1.));
#1134=DIRECTION('ref_axis',(1.,5.55111512312578E-17,4.27642353614752E-50));
#1135=DIRECTION('center_axis',(0.,-7.70371977754895E-34,1.));
#1136=DIRECTION('ref_axis',(-0.5,-0.866025403784438,-6.67161703099399E-34));
#1137=DIRECTION('center_axis',(0.,-7.70371977754895E-34,1.));
#1138=DIRECTION('ref_axis',(1.,5.55111512312578E-17,4.27642353614752E-50));
#1139=DIRECTION('center_axis',(0.,-7.70371977754895E-34,1.));
#1140=DIRECTION('ref_axis',(1.,5.55111512312578E-17,4.27642353614752E-50));
#1141=DIRECTION('center_axis',(0.,0.,-1.));
#1142=DIRECTION('ref_axis',(1.,5.55111512312578E-17,4.27642353614752E-50));
#1143=DIRECTION('',(1.06057523872491E-16,-6.12323399573677E-17,-1.));
#1144=DIRECTION('center_axis',(1.06057523872491E-16,-6.12323399573677E-17,
-1.));
#1145=DIRECTION('ref_axis',(-0.866025403784453,0.499999999999975,-1.22464679914736E-16));
#1146=DIRECTION('center_axis',(0.,0.,1.));
#1147=DIRECTION('ref_axis',(0.866025403784438,-0.5,1.22464679914736E-16));
#1148=DIRECTION('center_axis',(-1.06057523872491E-16,-6.12323399573676E-17,
-1.));
#1149=DIRECTION('ref_axis',(0.86602540378445,0.499999999999979,-1.22464679914736E-16));
#1150=DIRECTION('center_axis',(0.,0.,1.));
#1151=DIRECTION('ref_axis',(-0.866025403784439,-0.5,1.22464679914736E-16));
#1152=DIRECTION('',(-1.06057523872491E-16,-6.12323399573676E-17,-1.));
#1153=DIRECTION('center_axis',(0.,0.,1.));
#1154=DIRECTION('ref_axis',(-0.5,0.866025403784439,0.));
#1155=DIRECTION('',(-1.06057523872491E-16,-6.12323399573676E-17,-1.));
#1156=DIRECTION('center_axis',(0.,0.,1.));
#1157=DIRECTION('ref_axis',(-0.866025403784447,0.499999999999985,0.));
#1158=DIRECTION('center_axis',(0.,0.,-1.));
#1159=DIRECTION('ref_axis',(1.,5.55111512312578E-17,0.));
#1160=DIRECTION('center_axis',(0.,0.,1.));
#1161=DIRECTION('ref_axis',(1.,5.55111512312578E-17,0.));
#1162=DIRECTION('',(-6.79815536723444E-33,1.22464679914735E-16,-1.));
#1163=DIRECTION('center_axis',(-6.79815536723444E-33,1.22464679914735E-16,
-1.));
#1164=DIRECTION('ref_axis',(-4.77836588326608E-14,-1.,-1.22464679914735E-16));
#1165=DIRECTION('center_axis',(0.,0.,1.));
#1166=DIRECTION('ref_axis',(-5.55111512312578E-17,1.,1.22464679914735E-16));
#1167=DIRECTION('center_axis',(0.,0.,1.));
#1168=DIRECTION('ref_axis',(1.,5.55111512312578E-17,0.));
#1169=DIRECTION('',(-6.79815536723444E-33,1.22464679914735E-16,-1.));
#1170=DIRECTION('center_axis',(0.,0.,1.));
#1171=DIRECTION('ref_axis',(1.,5.55111512312578E-17,0.));
#1172=DIRECTION('center_axis',(0.,0.,-1.));
#1173=DIRECTION('ref_axis',(1.,5.55111512312578E-17,0.));
#1174=DIRECTION('',(1.06057523872491E-16,-6.12323399573677E-17,-1.));
#1175=DIRECTION('center_axis',(0.,0.,1.));
#1176=DIRECTION('ref_axis',(1.,5.55111512312578E-17,0.));
#1177=DIRECTION('center_axis',(0.,0.,1.));
#1178=DIRECTION('ref_axis',(1.,5.55111512312578E-17,0.));
#1179=DIRECTION('center_axis',(0.,0.,1.));
#1180=DIRECTION('ref_axis',(-0.5,-0.866025403784438,0.));
#1181=DIRECTION('center_axis',(0.,0.,1.));
#1182=DIRECTION('ref_axis',(1.,5.55111512312578E-17,0.));
#1183=DIRECTION('center_axis',(0.,0.,1.));
#1184=DIRECTION('ref_axis',(1.,5.55111512312578E-17,0.));
#1185=DIRECTION('center_axis',(0.,0.,-1.));
#1186=DIRECTION('ref_axis',(1.,5.55111512312578E-17,0.));
#1187=DIRECTION('',(1.06057523872491E-16,-6.12323399573677E-17,-1.));
#1188=DIRECTION('center_axis',(1.06057523872491E-16,-6.12323399573677E-17,
-1.));
#1189=DIRECTION('ref_axis',(-0.866025403784451,0.499999999999978,-1.22464679914736E-16));
#1190=DIRECTION('center_axis',(0.,0.,1.));
#1191=DIRECTION('ref_axis',(0.866025403784438,-0.5,1.22464679914736E-16));
#1192=DIRECTION('center_axis',(0.,0.,1.));
#1193=DIRECTION('ref_axis',(-1.,0.,0.));
#1194=DIRECTION('center_axis',(0.,0.,-1.));
#1195=DIRECTION('ref_axis',(0.,-1.,0.));
#1196=DIRECTION('',(0.,-1.,0.));
#1197=DIRECTION('center_axis',(0.,0.,-1.));
#1198=DIRECTION('ref_axis',(1.,-2.53765262771466E-15,0.));
#1199=DIRECTION('',(1.,-1.03886740499904E-16,0.));
#1200=DIRECTION('center_axis',(0.,0.,-1.));
#1201=DIRECTION('ref_axis',(-2.53765262771465E-15,1.,0.));
#1202=DIRECTION('',(0.,1.,0.));
#1203=DIRECTION('center_axis',(0.,0.,-1.));
#1204=DIRECTION('ref_axis',(-1.,-1.26882631385732E-15,0.));
#1205=DIRECTION('',(-1.,6.49292128124399E-18,0.));
#1206=DIRECTION('',(-1.,0.,0.));
#1207=DIRECTION('center_axis',(0.,0.,1.));
#1208=DIRECTION('ref_axis',(0.921028123003812,0.389496080386022,0.));
#1209=DIRECTION('',(-0.389496080386023,0.921028123003812,0.));
#1210=DIRECTION('center_axis',(0.,0.,1.));
#1211=DIRECTION('ref_axis',(1.,-3.10862446895075E-14,0.));
#1212=DIRECTION('',(0.,1.,0.));
#1213=DIRECTION('center_axis',(0.,0.,1.));
#1214=DIRECTION('ref_axis',(5.07530525542924E-15,-1.,0.));
#1215=DIRECTION('',(1.,-3.08233704007325E-17,0.));
#1216=DIRECTION('center_axis',(0.,0.,1.));
#1217=DIRECTION('ref_axis',(-0.999941227632709,-0.0108416456495318,0.));
#1218=DIRECTION('',(0.0108416456495342,-0.999941227632709,0.));
#1219=DIRECTION('center_axis',(0.,0.,1.));
#1220=DIRECTION('ref_axis',(0.,1.,0.));
#1221=DIRECTION('center_axis',(1.,0.,0.));
#1222=DIRECTION('ref_axis',(0.,-1.,0.));
#1223=DIRECTION('',(0.,0.,-1.));
#1224=DIRECTION('',(0.,-1.,0.));
#1225=DIRECTION('',(0.,0.,-1.));
#1226=DIRECTION('center_axis',(0.,0.,-1.));
#1227=DIRECTION('ref_axis',(1.,-3.10862446895075E-14,0.));
#1228=DIRECTION('',(0.,0.,-1.));
#1229=DIRECTION('center_axis',(0.,0.,-1.));
#1230=DIRECTION('ref_axis',(1.,-3.10862446895075E-14,0.));
#1231=DIRECTION('center_axis',(0.921028123003812,0.389496080386023,0.));
#1232=DIRECTION('ref_axis',(0.389496080386023,-0.921028123003812,0.));
#1233=DIRECTION('',(0.,0.,-1.));
#1234=DIRECTION('',(0.389496080386023,-0.921028123003812,0.));
#1235=DIRECTION('center_axis',(0.,0.,-1.));
#1236=DIRECTION('ref_axis',(0.921028123003812,0.389496080386022,0.));
#1237=DIRECTION('',(0.,0.,-1.));
#1238=DIRECTION('center_axis',(0.,0.,-1.));
#1239=DIRECTION('ref_axis',(0.921028123003812,0.389496080386022,0.));
#1240=DIRECTION('center_axis',(0.,1.,0.));
#1241=DIRECTION('ref_axis',(1.,0.,0.));
#1242=DIRECTION('',(0.,0.,-1.));
#1243=DIRECTION('',(1.,0.,0.));
#1244=DIRECTION('center_axis',(1.03886740499904E-16,1.,0.));
#1245=DIRECTION('ref_axis',(1.,-1.03886740499904E-16,0.));
#1246=DIRECTION('',(0.,0.,-1.));
#1247=DIRECTION('',(1.,-1.03886740499904E-16,0.));
#1248=DIRECTION('',(0.,0.,-1.));
#1249=DIRECTION('center_axis',(0.,0.,-1.));
#1250=DIRECTION('ref_axis',(1.,-2.53765262771466E-15,0.));
#1251=DIRECTION('',(0.,0.,-1.));
#1252=DIRECTION('center_axis',(0.,0.,-1.));
#1253=DIRECTION('ref_axis',(1.,-2.53765262771466E-15,0.));
#1254=DIRECTION('center_axis',(1.,0.,0.));
#1255=DIRECTION('ref_axis',(0.,-1.,0.));
#1256=DIRECTION('',(0.,0.,-1.));
#1257=DIRECTION('',(0.,-1.,0.));
#1258=DIRECTION('center_axis',(0.,0.,-1.));
#1259=DIRECTION('ref_axis',(0.,-1.,0.));
#1260=DIRECTION('',(0.,0.,-1.));
#1261=DIRECTION('center_axis',(0.,0.,-1.));
#1262=DIRECTION('ref_axis',(0.,-1.,0.));
#1263=DIRECTION('center_axis',(0.,0.,-1.));
#1264=DIRECTION('ref_axis',(0.,1.,0.));
#1265=DIRECTION('',(0.,0.,-1.));
#1266=DIRECTION('center_axis',(0.,0.,-1.));
#1267=DIRECTION('ref_axis',(0.,1.,0.));
#1268=DIRECTION('center_axis',(-0.999941227632709,-0.0108416456495342,0.));
#1269=DIRECTION('ref_axis',(-0.0108416456495342,0.999941227632709,0.));
#1270=DIRECTION('',(0.,0.,-1.));
#1271=DIRECTION('',(-0.0108416456495342,0.999941227632709,0.));
#1272=DIRECTION('center_axis',(0.,0.,-1.));
#1273=DIRECTION('ref_axis',(-0.999941227632709,-0.0108416456495318,0.));
#1274=DIRECTION('',(0.,0.,-1.));
#1275=DIRECTION('center_axis',(0.,0.,-1.));
#1276=DIRECTION('ref_axis',(-0.999941227632709,-0.0108416456495318,0.));
#1277=DIRECTION('center_axis',(-3.08233704007325E-17,-1.,0.));
#1278=DIRECTION('ref_axis',(-1.,3.08233704007325E-17,0.));
#1279=DIRECTION('',(0.,0.,-1.));
#1280=DIRECTION('',(-1.,3.08233704007325E-17,0.));
#1281=DIRECTION('center_axis',(0.,0.,-1.));
#1282=DIRECTION('ref_axis',(5.07530525542924E-15,-1.,0.));
#1283=DIRECTION('center_axis',(0.,0.,-1.));
#1284=DIRECTION('ref_axis',(5.07530525542924E-15,-1.,0.));
#1285=DIRECTION('center_axis',(0.,0.,1.));
#1286=DIRECTION('ref_axis',(-1.,0.,0.));
#1287=DIRECTION('center_axis',(0.,0.,-1.));
#1288=DIRECTION('ref_axis',(-2.53765262771465E-15,1.,0.));
#1289=DIRECTION('center_axis',(0.,0.,-1.));
#1290=DIRECTION('ref_axis',(-2.53765262771465E-15,1.,0.));
#1291=DIRECTION('',(0.,0.,-1.));
#1292=DIRECTION('center_axis',(-1.,0.,0.));
#1293=DIRECTION('ref_axis',(0.,1.,0.));
#1294=DIRECTION('',(0.,1.,0.));
#1295=DIRECTION('',(0.,0.,-1.));
#1296=DIRECTION('center_axis',(0.,0.,-1.));
#1297=DIRECTION('ref_axis',(-1.,-1.26882631385732E-15,0.));
#1298=DIRECTION('center_axis',(0.,0.,-1.));
#1299=DIRECTION('ref_axis',(-1.,-1.26882631385732E-15,0.));
#1300=DIRECTION('',(0.,0.,-1.));
#1301=DIRECTION('center_axis',(-6.49292128124399E-18,-1.,0.));
#1302=DIRECTION('ref_axis',(-1.,6.49292128124399E-18,0.));
#1303=DIRECTION('',(-1.,6.49292128124399E-18,0.));
#1304=DIRECTION('center_axis',(0.,0.,1.));
#1305=DIRECTION('ref_axis',(-1.,0.,0.));
#1306=DIRECTION('',(0.,0.,1.));
#1307=DIRECTION('',(1.,0.,0.));
#1308=DIRECTION('',(0.,0.,1.));
#1309=DIRECTION('',(1.,0.,0.));
#1310=CARTESIAN_POINT('',(0.,0.,0.));
#1311=CARTESIAN_POINT('',(0.,0.,0.));
#1312=CARTESIAN_POINT('',(0.,0.,0.));
#1313=CARTESIAN_POINT('Origin',(91.2195251706641,5.40840706427891,7.1));
#1314=CARTESIAN_POINT('',(91.9466520685456,5.22459608969575,0.));
#1315=CARTESIAN_POINT('',(91.4239036461215,6.13002291691085,0.));
#1316=CARTESIAN_POINT('Origin',(91.2195251706641,5.40840706427891,-2.22044604925031E-15));
#1317=CARTESIAN_POINT('',(91.9466520685456,5.22459608969575,-6.4));
#1318=CARTESIAN_POINT('',(91.9466520685456,5.22459608969575,0.35));
#1319=CARTESIAN_POINT('',(91.4239036461215,6.13002291691085,-6.4));
#1320=CARTESIAN_POINT('Origin',(91.2195251706641,5.40840706427891,-6.4));
#1321=CARTESIAN_POINT('',(91.4239036461215,6.13002291691085,0.35));
#1322=CARTESIAN_POINT('Origin',(92.9948772484222,6.43340706427891,-6.4));
#1323=CARTESIAN_POINT('',(92.472128825998,7.94560218623013,0.));
#1324=CARTESIAN_POINT('Origin',(92.9948772484222,6.43340706427891,0.));
#1325=CARTESIAN_POINT('',(92.472128825998,7.94560218623013,-6.4));
#1326=CARTESIAN_POINT('Origin',(92.9948772484222,6.43340706427891,-6.4));
#1327=CARTESIAN_POINT('',(92.472128825998,7.94560218623013,0.35));
#1328=CARTESIAN_POINT('Origin',(92.9948772484222,8.48340706427891,7.1));
#1329=CARTESIAN_POINT('',(93.5176256708463,7.94560218623013,0.));
#1330=CARTESIAN_POINT('Origin',(92.9948772484222,8.48340706427891,-3.33066907387547E-15));
#1331=CARTESIAN_POINT('',(93.5176256708463,7.94560218623013,-6.4));
#1332=CARTESIAN_POINT('Origin',(92.9948772484222,8.48340706427891,-6.4));
#1333=CARTESIAN_POINT('',(93.5176256708463,7.94560218623013,0.35));
#1334=CARTESIAN_POINT('Origin',(92.9948772484222,6.43340706427891,-6.4));
#1335=CARTESIAN_POINT('',(94.0431024282988,5.22459608969575,0.));
#1336=CARTESIAN_POINT('Origin',(92.9948772484222,6.43340706427891,0.));
#1337=CARTESIAN_POINT('',(94.0431024282988,5.22459608969575,-6.4));
#1338=CARTESIAN_POINT('',(94.0431024282988,5.22459608969575,0.35));
#1339=CARTESIAN_POINT('Origin',(92.9948772484222,6.43340706427891,-6.4));
#1340=CARTESIAN_POINT('Origin',(92.9948772484222,7.18340706427891,-6.4));
#1341=CARTESIAN_POINT('',(94.5658508507229,6.13002291691085,-6.4));
#1342=CARTESIAN_POINT('Origin',(94.7702293261803,5.40840706427891,-6.4));
#1343=CARTESIAN_POINT('Origin',(92.9948772484222,6.43340706427891,-6.4));
#1344=CARTESIAN_POINT('Origin',(92.9948772484222,6.43340706427891,-6.4));
#1345=CARTESIAN_POINT('',(94.5658508507229,6.13002291691085,0.));
#1346=CARTESIAN_POINT('Origin',(92.9948772484222,6.43340706427891,0.));
#1347=CARTESIAN_POINT('',(94.5658508507229,6.13002291691085,0.35));
#1348=CARTESIAN_POINT('Origin',(94.7702293261803,5.40840706427891,7.1));
#1349=CARTESIAN_POINT('Origin',(94.7702293261803,5.40840706427891,6.66133814775094E-15));
#1350=CARTESIAN_POINT('Origin',(91.2195251706641,58.4263567256009,7.1));
#1351=CARTESIAN_POINT('',(91.9466520685456,58.2425457510178,0.));
#1352=CARTESIAN_POINT('',(91.4239036461215,59.1479725782329,0.));
#1353=CARTESIAN_POINT('Origin',(91.2195251706641,58.4263567256009,-5.55111512312578E-15));
#1354=CARTESIAN_POINT('',(91.9466520685456,58.2425457510178,-6.4));
#1355=CARTESIAN_POINT('',(91.9466520685456,58.2425457510178,0.35));
#1356=CARTESIAN_POINT('',(91.4239036461215,59.1479725782329,-6.4));
#1357=CARTESIAN_POINT('Origin',(91.2195251706641,58.4263567256009,-6.4));
#1358=CARTESIAN_POINT('',(91.4239036461215,59.1479725782329,0.35));
#1359=CARTESIAN_POINT('Origin',(92.9948772484222,59.4513567256009,-6.4));
#1360=CARTESIAN_POINT('',(92.472128825998,60.9635518475521,0.));
#1361=CARTESIAN_POINT('Origin',(92.9948772484222,59.4513567256009,0.));
#1362=CARTESIAN_POINT('',(92.472128825998,60.9635518475521,-6.4));
#1363=CARTESIAN_POINT('Origin',(92.9948772484222,59.4513567256009,-6.4));
#1364=CARTESIAN_POINT('',(92.472128825998,60.9635518475521,0.35));
#1365=CARTESIAN_POINT('Origin',(92.9948772484222,61.5013567256009,7.1));
#1366=CARTESIAN_POINT('',(93.5176256708463,60.9635518475521,0.));
#1367=CARTESIAN_POINT('Origin',(92.9948772484222,61.5013567256009,3.33066907387547E-15));
#1368=CARTESIAN_POINT('',(93.5176256708463,60.9635518475521,-6.4));
#1369=CARTESIAN_POINT('Origin',(92.9948772484222,61.5013567256009,-6.4));
#1370=CARTESIAN_POINT('',(93.5176256708463,60.9635518475521,0.35));
#1371=CARTESIAN_POINT('Origin',(92.9948772484222,59.4513567256009,-6.4));
#1372=CARTESIAN_POINT('',(94.0431024282988,58.2425457510178,0.));
#1373=CARTESIAN_POINT('Origin',(92.9948772484222,59.4513567256009,0.));
#1374=CARTESIAN_POINT('',(94.0431024282988,58.2425457510178,-6.4));
#1375=CARTESIAN_POINT('',(94.0431024282988,58.2425457510178,0.35));
#1376=CARTESIAN_POINT('Origin',(92.9948772484222,59.4513567256009,-6.4));
#1377=CARTESIAN_POINT('Origin',(92.9948772484222,60.2013567256009,-6.4));
#1378=CARTESIAN_POINT('',(94.5658508507229,59.1479725782329,-6.4));
#1379=CARTESIAN_POINT('Origin',(94.7702293261803,58.4263567256009,-6.4));
#1380=CARTESIAN_POINT('Origin',(92.9948772484222,59.4513567256009,-6.4));
#1381=CARTESIAN_POINT('Origin',(92.9948772484222,59.4513567256009,-6.4));
#1382=CARTESIAN_POINT('',(94.5658508507229,59.1479725782329,0.));
#1383=CARTESIAN_POINT('Origin',(92.9948772484222,59.4513567256009,0.));
#1384=CARTESIAN_POINT('',(94.5658508507229,59.1479725782329,0.35));
#1385=CARTESIAN_POINT('Origin',(94.7702293261803,58.4263567256009,7.1));
#1386=CARTESIAN_POINT('Origin',(94.7702293261803,58.4263567256009,3.33066907387547E-15));
#1387=CARTESIAN_POINT('Origin',(5.72464724628201,58.4263567256009,7.1));
#1388=CARTESIAN_POINT('',(6.45177414416351,58.2425457510178,0.));
#1389=CARTESIAN_POINT('',(5.92902572173941,59.1479725782329,0.));
#1390=CARTESIAN_POINT('Origin',(5.72464724628201,58.4263567256009,3.33066907387547E-15));
#1391=CARTESIAN_POINT('',(6.45177414416351,58.2425457510178,-6.4));
#1392=CARTESIAN_POINT('',(6.45177414416351,58.2425457510178,0.35));
#1393=CARTESIAN_POINT('',(5.92902572173941,59.1479725782329,-6.4));
#1394=CARTESIAN_POINT('Origin',(5.72464724628201,58.4263567256009,-6.4));
#1395=CARTESIAN_POINT('',(5.92902572173941,59.1479725782329,0.35));
#1396=CARTESIAN_POINT('Origin',(7.49999932404011,59.4513567256009,-6.4));
#1397=CARTESIAN_POINT('',(6.97725090161591,60.9635518475521,0.));
#1398=CARTESIAN_POINT('Origin',(7.49999932404011,59.4513567256009,0.));
#1399=CARTESIAN_POINT('',(6.97725090161591,60.9635518475521,-6.4));
#1400=CARTESIAN_POINT('Origin',(7.49999932404011,59.4513567256009,-6.4));
#1401=CARTESIAN_POINT('',(6.97725090161591,60.9635518475521,0.35));
#1402=CARTESIAN_POINT('Origin',(7.49999932404011,61.5013567256009,7.1));
#1403=CARTESIAN_POINT('',(8.02274774646421,60.9635518475521,0.));
#1404=CARTESIAN_POINT('Origin',(7.49999932404011,61.5013567256009,3.33066907387547E-15));
#1405=CARTESIAN_POINT('',(8.02274774646421,60.9635518475521,-6.4));
#1406=CARTESIAN_POINT('Origin',(7.49999932404011,61.5013567256009,-6.4));
#1407=CARTESIAN_POINT('',(8.02274774646421,60.9635518475521,0.35));
#1408=CARTESIAN_POINT('Origin',(7.49999932404011,59.4513567256009,-6.4));
#1409=CARTESIAN_POINT('',(8.54822450391671,58.2425457510178,0.));
#1410=CARTESIAN_POINT('Origin',(7.49999932404011,59.4513567256009,0.));
#1411=CARTESIAN_POINT('',(8.54822450391671,58.2425457510178,-6.4));
#1412=CARTESIAN_POINT('',(8.54822450391671,58.2425457510178,0.35));
#1413=CARTESIAN_POINT('Origin',(7.49999932404011,59.4513567256009,-6.4));
#1414=CARTESIAN_POINT('Origin',(7.49999932404011,60.2013567256009,-6.4));
#1415=CARTESIAN_POINT('',(9.07097292634081,59.1479725782329,-6.4));
#1416=CARTESIAN_POINT('Origin',(9.27535140179821,58.4263567256009,-6.4));
#1417=CARTESIAN_POINT('Origin',(7.49999932404011,59.4513567256009,-6.4));
#1418=CARTESIAN_POINT('Origin',(7.49999932404011,59.4513567256009,-6.4));
#1419=CARTESIAN_POINT('',(9.07097292634081,59.1479725782329,0.));
#1420=CARTESIAN_POINT('Origin',(7.49999932404011,59.4513567256009,0.));
#1421=CARTESIAN_POINT('',(9.07097292634081,59.1479725782329,0.35));
#1422=CARTESIAN_POINT('Origin',(9.27535140179821,58.4263567256009,7.1));
#1423=CARTESIAN_POINT('Origin',(9.27535140179821,58.4263567256009,-5.55111512312578E-15));
#1424=CARTESIAN_POINT('Origin',(5.72464724628203,5.40840706427891,7.1));
#1425=CARTESIAN_POINT('',(6.45177414416353,5.22459608969575,0.));
#1426=CARTESIAN_POINT('',(5.92902572173943,6.13002291691085,0.));
#1427=CARTESIAN_POINT('Origin',(5.72464724628203,5.40840706427891,6.66133814775094E-15));
#1428=CARTESIAN_POINT('',(6.45177414416353,5.22459608969575,-6.4));
#1429=CARTESIAN_POINT('',(6.45177414416353,5.22459608969575,0.35));
#1430=CARTESIAN_POINT('',(5.92902572173943,6.13002291691085,-6.4));
#1431=CARTESIAN_POINT('Origin',(5.72464724628203,5.40840706427891,-6.4));
#1432=CARTESIAN_POINT('',(5.92902572173943,6.13002291691085,0.35));
#1433=CARTESIAN_POINT('Origin',(7.49999932404013,6.43340706427891,-6.4));
#1434=CARTESIAN_POINT('',(6.97725090161593,7.94560218623013,0.));
#1435=CARTESIAN_POINT('Origin',(7.49999932404013,6.43340706427891,0.));
#1436=CARTESIAN_POINT('',(6.97725090161593,7.94560218623013,-6.4));
#1437=CARTESIAN_POINT('Origin',(7.49999932404013,6.43340706427891,-6.4));
#1438=CARTESIAN_POINT('',(6.97725090161593,7.94560218623013,0.35));
#1439=CARTESIAN_POINT('Origin',(7.49999932404013,8.48340706427891,7.1));
#1440=CARTESIAN_POINT('',(8.02274774646423,7.94560218623013,0.));
#1441=CARTESIAN_POINT('Origin',(7.49999932404013,8.48340706427891,-3.33066907387547E-15));
#1442=CARTESIAN_POINT('',(8.02274774646423,7.94560218623013,-6.4));
#1443=CARTESIAN_POINT('Origin',(7.49999932404013,8.48340706427891,-6.4));
#1444=CARTESIAN_POINT('',(8.02274774646423,7.94560218623013,0.35));
#1445=CARTESIAN_POINT('Origin',(7.49999932404013,6.43340706427891,-6.4));
#1446=CARTESIAN_POINT('',(8.54822450391673,5.22459608969575,0.));
#1447=CARTESIAN_POINT('Origin',(7.49999932404013,6.43340706427891,0.));
#1448=CARTESIAN_POINT('',(8.54822450391673,5.22459608969575,-6.4));
#1449=CARTESIAN_POINT('',(8.54822450391673,5.22459608969575,0.35));
#1450=CARTESIAN_POINT('Origin',(7.49999932404013,6.43340706427891,-6.4));
#1451=CARTESIAN_POINT('Origin',(7.49999932404013,7.18340706427891,-6.4));
#1452=CARTESIAN_POINT('',(9.07097292634083,6.13002291691085,-6.4));
#1453=CARTESIAN_POINT('Origin',(9.27535140179823,5.40840706427891,-6.4));
#1454=CARTESIAN_POINT('Origin',(7.49999932404013,6.43340706427891,-6.4));
#1455=CARTESIAN_POINT('Origin',(7.49999932404013,6.43340706427891,-6.4));
#1456=CARTESIAN_POINT('',(9.07097292634083,6.13002291691085,0.));
#1457=CARTESIAN_POINT('Origin',(7.49999932404013,6.43340706427891,0.));
#1458=CARTESIAN_POINT('',(9.07097292634083,6.13002291691085,0.35));
#1459=CARTESIAN_POINT('Origin',(9.27535140179823,5.40840706427891,7.1));
#1460=CARTESIAN_POINT('Origin',(9.27535140179823,5.40840706427891,-2.22044604925031E-15));
#1461=CARTESIAN_POINT('Origin',(50.2474388727841,32.9423430733311,0.));
#1462=CARTESIAN_POINT('',(96.4948778349752,6.4333682426701,0.));
#1463=CARTESIAN_POINT('',(92.9948778349752,2.93336824267009,0.));
#1464=CARTESIAN_POINT('Origin',(92.9948778349752,6.43336824267009,0.));
#1465=CARTESIAN_POINT('',(96.4948778349752,59.4513179039922,0.));
#1466=CARTESIAN_POINT('',(96.4948778349752,46.1968304886616,0.));
#1467=CARTESIAN_POINT('',(92.9948778349752,62.9513179039921,0.));
#1468=CARTESIAN_POINT('Origin',(92.9948778349753,59.4513179039922,0.));
#1469=CARTESIAN_POINT('',(7.49999991059301,62.9513179039921,0.));
#1470=CARTESIAN_POINT('',(28.8737193916886,62.9513179039921,0.));
#1471=CARTESIAN_POINT('',(3.99999991059303,59.4513179039922,0.));
#1472=CARTESIAN_POINT('Origin',(7.49999991059302,59.4513179039922,0.));
#1473=CARTESIAN_POINT('',(3.99999991059303,6.43336824267009,0.));
#1474=CARTESIAN_POINT('',(3.99999991059303,19.6878556580006,0.));
#1475=CARTESIAN_POINT('',(7.49999991059303,2.93336824267009,0.));
#1476=CARTESIAN_POINT('Origin',(7.49999991059303,6.43336824267009,0.));
#1477=CARTESIAN_POINT('',(71.6211583538797,2.9333682426701,0.));
#1478=CARTESIAN_POINT('',(86.3339201163313,59.8988843879728,0.));
#1479=CARTESIAN_POINT('',(15.018820632208,59.8988843879728,0.));
#1480=CARTESIAN_POINT('',(32.6331297524961,59.8988843879728,0.));
#1481=CARTESIAN_POINT('',(88.1759763623389,58.6778765487449,0.));
#1482=CARTESIAN_POINT('Origin',(86.3339201163313,57.8988843879728,0.));
#1483=CARTESIAN_POINT('',(90.8420576020133,52.3734849935863,0.));
#1484=CARTESIAN_POINT('',(89.9151023415091,54.5654245449279,0.));
#1485=CARTESIAN_POINT('',(91.0000013560057,51.5944928328142,0.));
#1486=CARTESIAN_POINT('Origin',(89.0000013560059,51.5944928328143,0.));
#1487=CARTESIAN_POINT('',(91.0000013560057,15.5000001788139,0.));
#1488=CARTESIAN_POINT('',(91.0000013560057,42.2684179530727,0.));
#1489=CARTESIAN_POINT('',(87.5000013560057,12.0000001788139,0.));
#1490=CARTESIAN_POINT('Origin',(87.5000013560056,15.500000178814,0.));
#1491=CARTESIAN_POINT('',(15.4622579041233,12.0000001788139,0.));
#1492=CARTESIAN_POINT('',(68.8737201143949,12.0000001788139,0.));
#1493=CARTESIAN_POINT('',(11.9624636074088,15.4620544190406,0.));
#1494=CARTESIAN_POINT('Origin',(15.4622579041232,15.5000001788139,0.));
#1495=CARTESIAN_POINT('',(11.5190263354935,56.3609386281995,0.));
#1496=CARTESIAN_POINT('',(11.8699616613197,23.9936475480526,0.));
#1497=CARTESIAN_POINT('Origin',(15.018820632208,56.3988843879728,0.));
#1498=CARTESIAN_POINT('Origin',(91.0000013560057,51.5944928328142,1.6));
#1499=CARTESIAN_POINT('',(91.0000013560057,51.5944928328142,-0.9));
#1500=CARTESIAN_POINT('',(91.0000013560057,51.5944928328142,1.6));
#1501=CARTESIAN_POINT('',(91.0000013560057,15.5000001788139,-0.9));
#1502=CARTESIAN_POINT('',(91.0000013560057,51.5944928328142,-0.9));
#1503=CARTESIAN_POINT('',(91.0000013560057,15.5000001788139,1.6));
#1504=CARTESIAN_POINT('Origin',(89.0000013560059,51.5944928328143,1.6));
#1505=CARTESIAN_POINT('',(90.8420576020133,52.3734849935863,-0.9));
#1506=CARTESIAN_POINT('',(90.8420576020133,52.3734849935863,1.6));
#1507=CARTESIAN_POINT('Origin',(89.0000013560059,51.5944928328143,-0.9));
#1508=CARTESIAN_POINT('Origin',(88.1759763623389,58.6778765487449,1.6));
#1509=CARTESIAN_POINT('',(88.1759763623389,58.6778765487449,-0.9));
#1510=CARTESIAN_POINT('',(88.1759763623389,58.6778765487449,1.6));
#1511=CARTESIAN_POINT('',(88.1759763623389,58.6778765487449,-0.9));
#1512=CARTESIAN_POINT('Origin',(86.3339201163313,57.8988843879728,1.6));
#1513=CARTESIAN_POINT('',(86.3339201163313,59.8988843879728,-0.9));
#1514=CARTESIAN_POINT('',(86.3339201163313,59.8988843879728,1.6));
#1515=CARTESIAN_POINT('Origin',(86.3339201163313,57.8988843879728,-0.9));
#1516=CARTESIAN_POINT('Origin',(15.018820632208,59.8988843879728,1.6));
#1517=CARTESIAN_POINT('',(15.018820632208,59.8988843879728,-0.9));
#1518=CARTESIAN_POINT('',(15.018820632208,59.8988843879728,1.6));
#1519=CARTESIAN_POINT('',(64.8079465501737,59.8988843879728,-0.9));
#1520=CARTESIAN_POINT('Origin',(7.49999991059301,62.9513179039921,1.6));
#1521=CARTESIAN_POINT('',(92.9948778349752,62.9513179039921,-8.4));
#1522=CARTESIAN_POINT('',(92.9948778349752,62.9513179039921,1.6));
#1523=CARTESIAN_POINT('',(7.49999991059301,62.9513179039921,-8.4));
#1524=CARTESIAN_POINT('',(92.9948778349752,62.9513179039921,-8.4));
#1525=CARTESIAN_POINT('',(7.49999991059301,62.9513179039921,1.6));
#1526=CARTESIAN_POINT('Origin',(92.9948778349753,59.4513179039922,1.6));
#1527=CARTESIAN_POINT('',(96.4948778349752,59.4513179039922,-8.4));
#1528=CARTESIAN_POINT('',(96.4948778349752,59.4513179039922,1.6));
#1529=CARTESIAN_POINT('Origin',(92.9948778349753,59.4513179039922,-8.4));
#1530=CARTESIAN_POINT('Origin',(96.4948778349752,59.4513179039922,1.6));
#1531=CARTESIAN_POINT('',(96.4948778349752,6.4333682426701,-8.4));
#1532=CARTESIAN_POINT('',(96.4948778349752,6.4333682426701,1.6));
#1533=CARTESIAN_POINT('',(96.4948778349752,6.4333682426701,-8.4));
#1534=CARTESIAN_POINT('Origin',(92.9948778349752,6.43336824267009,1.6));
#1535=CARTESIAN_POINT('',(92.9948778349752,2.9333682426701,-8.4));
#1536=CARTESIAN_POINT('',(92.9948778349752,2.9333682426701,1.6));
#1537=CARTESIAN_POINT('Origin',(92.9948778349752,6.43336824267009,-8.4));
#1538=CARTESIAN_POINT('Origin',(15.018820632208,56.3988843879728,1.6));
#1539=CARTESIAN_POINT('',(11.5190263354935,56.3609386281995,-0.9));
#1540=CARTESIAN_POINT('',(11.5190263354935,56.3609386281995,1.6));
#1541=CARTESIAN_POINT('Origin',(15.018820632208,56.3988843879728,-0.9));
#1542=CARTESIAN_POINT('Origin',(11.9624636074088,15.4620544190406,1.6));
#1543=CARTESIAN_POINT('',(11.9624636074088,15.4620544190406,-0.9));
#1544=CARTESIAN_POINT('',(11.9624636074088,15.4620544190406,1.6));
#1545=CARTESIAN_POINT('',(11.5190263354935,56.3609386281995,-0.9));
#1546=CARTESIAN_POINT('Origin',(15.4622579041232,15.5000001788139,1.6));
#1547=CARTESIAN_POINT('',(15.4622579041233,12.0000001788139,-0.9));
#1548=CARTESIAN_POINT('',(15.4622579041233,12.0000001788139,1.6));
#1549=CARTESIAN_POINT('Origin',(15.4622579041232,15.5000001788139,-0.9));
#1550=CARTESIAN_POINT('Origin',(87.5000013560057,12.0000001788139,1.6));
#1551=CARTESIAN_POINT('',(87.5000013560057,12.0000001788139,-0.9));
#1552=CARTESIAN_POINT('',(87.5000013560057,12.0000001788139,1.6));
#1553=CARTESIAN_POINT('',(15.4622579041233,12.0000001788139,-0.9));
#1554=CARTESIAN_POINT('Origin',(87.5000013560056,15.500000178814,1.6));
#1555=CARTESIAN_POINT('Origin',(87.5000013560056,15.500000178814,-0.9));
#1556=CARTESIAN_POINT('Origin',(63.4815432914363,42.4877841511695,-0.9));
#1557=CARTESIAN_POINT('Origin',(7.49999991059302,59.4513179039922,1.6));
#1558=CARTESIAN_POINT('',(3.99999991059303,59.4513179039922,-8.4));
#1559=CARTESIAN_POINT('Origin',(7.49999991059302,59.4513179039922,-8.4));
#1560=CARTESIAN_POINT('',(3.99999991059303,59.4513179039922,1.6));
#1561=CARTESIAN_POINT('Origin',(3.99999991059303,6.43336824267009,1.6));
#1562=CARTESIAN_POINT('',(3.99999991059303,6.43336824267009,-8.4));
#1563=CARTESIAN_POINT('',(3.99999991059303,59.4513179039922,-8.4));
#1564=CARTESIAN_POINT('',(3.99999991059303,6.43336824267009,1.6));
#1565=CARTESIAN_POINT('Origin',(7.49999991059303,6.43336824267009,1.6));
#1566=CARTESIAN_POINT('',(7.49999991059303,2.9333682426701,-8.4));
#1567=CARTESIAN_POINT('Origin',(7.49999991059303,6.43336824267009,-8.4));
#1568=CARTESIAN_POINT('',(7.49999991059303,2.9333682426701,1.6));
#1569=CARTESIAN_POINT('Origin',(92.9948778349752,2.9333682426701,1.6));
#1570=CARTESIAN_POINT('',(7.49999991059303,2.9333682426701,-8.4));
#1571=CARTESIAN_POINT('Origin',(50.2474388727841,32.9423430733311,-8.4));
#1572=CARTESIAN_POINT('',(0.,0.,0.));
#1573=CARTESIAN_POINT('',(0.,0.,0.));
#1574=UNCERTAINTY_MEASURE_WITH_UNIT(LENGTH_MEASURE(0.01),#1582,
'DISTANCE_ACCURACY_VALUE',
'Maximum model space distance between geometric entities at asserted c
onnectivities');
#1575=UNCERTAINTY_MEASURE_WITH_UNIT(LENGTH_MEASURE(0.01),#1582,
'DISTANCE_ACCURACY_VALUE',
'Maximum model space distance between geometric entities at asserted c
onnectivities');
#1576=UNCERTAINTY_MEASURE_WITH_UNIT(LENGTH_MEASURE(0.01),#1582,
'DISTANCE_ACCURACY_VALUE',
'Maximum model space distance between geometric entities at asserted c
onnectivities');
#1577=UNCERTAINTY_MEASURE_WITH_UNIT(LENGTH_MEASURE(0.01),#1582,
'DISTANCE_ACCURACY_VALUE',
'Maximum model space distance between geometric entities at asserted c
onnectivities');
#1578=(
GEOMETRIC_REPRESENTATION_CONTEXT(3)
GLOBAL_UNCERTAINTY_ASSIGNED_CONTEXT((#1574))
GLOBAL_UNIT_ASSIGNED_CONTEXT((#1582,#1584,#1585))
REPRESENTATION_CONTEXT('','3D')
);
#1579=(
GEOMETRIC_REPRESENTATION_CONTEXT(3)
GLOBAL_UNCERTAINTY_ASSIGNED_CONTEXT((#1575))
GLOBAL_UNIT_ASSIGNED_CONTEXT((#1582,#1584,#1585))
REPRESENTATION_CONTEXT('','3D')
);
#1580=(
GEOMETRIC_REPRESENTATION_CONTEXT(3)
GLOBAL_UNCERTAINTY_ASSIGNED_CONTEXT((#1576))
GLOBAL_UNIT_ASSIGNED_CONTEXT((#1582,#1584,#1585))
REPRESENTATION_CONTEXT('','3D')
);
#1581=(
GEOMETRIC_REPRESENTATION_CONTEXT(3)
GLOBAL_UNCERTAINTY_ASSIGNED_CONTEXT((#1577))
GLOBAL_UNIT_ASSIGNED_CONTEXT((#1582,#1584,#1585))
REPRESENTATION_CONTEXT('','3D')
);
#1582=(
LENGTH_UNIT()
NAMED_UNIT(*)
SI_UNIT(.MILLI.,.METRE.)
);
#1583=(
LENGTH_UNIT()
NAMED_UNIT(*)
SI_UNIT($,.METRE.)
);
#1584=(
NAMED_UNIT(*)
PLANE_ANGLE_UNIT()
SI_UNIT($,.RADIAN.)
);
#1585=(
NAMED_UNIT(*)
SI_UNIT($,.STERADIAN.)
SOLID_ANGLE_UNIT()
);
#1586=SHAPE_DEFINITION_REPRESENTATION(#1589,#1594);
#1587=SHAPE_DEFINITION_REPRESENTATION(#1590,#1595);
#1588=SHAPE_DEFINITION_REPRESENTATION(#1591,#1596);
#1589=PRODUCT_DEFINITION_SHAPE('',$,#1598);
#1590=PRODUCT_DEFINITION_SHAPE('',$,#1599);
#1591=PRODUCT_DEFINITION_SHAPE('',$,#1600);
#1592=PRODUCT_DEFINITION_SHAPE($,$,#17);
#1593=PRODUCT_DEFINITION_SHAPE($,$,#18);
#1594=SHAPE_REPRESENTATION('',(#890,#1009),#1578);
#1595=SHAPE_REPRESENTATION('',(#891,#1008),#1579);
#1596=SHAPE_REPRESENTATION('',(#892),#1580);
#1597=PRODUCT_DEFINITION_CONTEXT('part definition',#1608,'design');
#1598=PRODUCT_DEFINITION('CommieCAD','CommieCAD v13',#1601,#1597);
#1599=PRODUCT_DEFINITION('Case','Case',#1602,#1597);
#1600=PRODUCT_DEFINITION('Component20','Component20',#1603,#1597);
#1601=PRODUCT_DEFINITION_FORMATION('',$,#1610);
#1602=PRODUCT_DEFINITION_FORMATION('',$,#1611);
#1603=PRODUCT_DEFINITION_FORMATION('',$,#1612);
#1604=PRODUCT_RELATED_PRODUCT_CATEGORY('CommieCAD v13','CommieCAD v13',
(#1610));
#1605=PRODUCT_RELATED_PRODUCT_CATEGORY('Case','Case',(#1611));
#1606=PRODUCT_RELATED_PRODUCT_CATEGORY('Component20','Component20',(#1612));
#1607=APPLICATION_PROTOCOL_DEFINITION('international standard',
'automotive_design',2009,#1608);
#1608=APPLICATION_CONTEXT(
'Core Data for Automotive Mechanical Design Process');
#1609=PRODUCT_CONTEXT('part definition',#1608,'mechanical');
#1610=PRODUCT('CommieCAD','CommieCAD v13',$,(#1609));
#1611=PRODUCT('Case','Case',$,(#1609));
#1612=PRODUCT('Component20','Component20',$,(#1609));
#1613=PRESENTATION_STYLE_ASSIGNMENT((#1621));
#1614=PRESENTATION_STYLE_ASSIGNMENT((#1622));
#1615=PRESENTATION_STYLE_ASSIGNMENT((#1623));
#1616=PRESENTATION_STYLE_ASSIGNMENT((#1624));
#1617=PRESENTATION_STYLE_ASSIGNMENT((#1625));
#1618=PRESENTATION_STYLE_ASSIGNMENT((#1626));
#1619=PRESENTATION_STYLE_ASSIGNMENT((#1627));
#1620=PRESENTATION_STYLE_ASSIGNMENT((#1628));
#1621=SURFACE_STYLE_USAGE(.BOTH.,#1629);
#1622=SURFACE_STYLE_USAGE(.BOTH.,#1630);
#1623=SURFACE_STYLE_USAGE(.BOTH.,#1631);
#1624=SURFACE_STYLE_USAGE(.BOTH.,#1632);
#1625=SURFACE_STYLE_USAGE(.BOTH.,#1633);
#1626=SURFACE_STYLE_USAGE(.BOTH.,#1634);
#1627=SURFACE_STYLE_USAGE(.BOTH.,#1635);
#1628=SURFACE_STYLE_USAGE(.BOTH.,#1636);
#1629=SURFACE_SIDE_STYLE('',(#1637));
#1630=SURFACE_SIDE_STYLE('',(#1638));
#1631=SURFACE_SIDE_STYLE('',(#1639));
#1632=SURFACE_SIDE_STYLE('',(#1640));
#1633=SURFACE_SIDE_STYLE('',(#1641));
#1634=SURFACE_SIDE_STYLE('',(#1642));
#1635=SURFACE_SIDE_STYLE('',(#1643));
#1636=SURFACE_SIDE_STYLE('',(#1644));
#1637=SURFACE_STYLE_FILL_AREA(#1645);
#1638=SURFACE_STYLE_FILL_AREA(#1646);
#1639=SURFACE_STYLE_FILL_AREA(#1647);
#1640=SURFACE_STYLE_FILL_AREA(#1648);
#1641=SURFACE_STYLE_FILL_AREA(#1649);
#1642=SURFACE_STYLE_FILL_AREA(#1650);
#1643=SURFACE_STYLE_FILL_AREA(#1651);
#1644=SURFACE_STYLE_FILL_AREA(#1652);
#1645=FILL_AREA_STYLE('Aluminium - Rough',(#1653));
#1646=FILL_AREA_STYLE('Steel - Satin',(#1654));
#1647=FILL_AREA_STYLE('Gold - Polished',(#1655));
#1648=FILL_AREA_STYLE('PETG Grey',(#1656));
#1649=FILL_AREA_STYLE('Opaque(191,153,15)',(#1657));
#1650=FILL_AREA_STYLE('Opaque(255,255,255)',(#1658));
#1651=FILL_AREA_STYLE('Powder Coat - Rough (Black)',(#1659));
#1652=FILL_AREA_STYLE('EPX 86FR (with Carbon M2 M3 L1 3D Printers)',(#1660));
#1653=FILL_AREA_STYLE_COLOUR('Aluminium - Rough',#1661);
#1654=FILL_AREA_STYLE_COLOUR('Steel - Satin',#1662);
#1655=FILL_AREA_STYLE_COLOUR('Gold - Polished',#1663);
#1656=FILL_AREA_STYLE_COLOUR('PETG Grey',#1664);
#1657=FILL_AREA_STYLE_COLOUR('Opaque(191,153,15)',#1665);
#1658=FILL_AREA_STYLE_COLOUR('Opaque(255,255,255)',#1666);
#1659=FILL_AREA_STYLE_COLOUR('Powder Coat - Rough (Black)',#1667);
#1660=FILL_AREA_STYLE_COLOUR(
'EPX 86FR (with Carbon M2 M3 L1 3D Printers)',#1668);
#1661=COLOUR_RGB('Aluminium - Rough',0.83921568627451,0.83921568627451,
0.83921568627451);
#1662=COLOUR_RGB('Steel - Satin',0.627450980392157,0.627450980392157,0.627450980392157);
#1663=COLOUR_RGB('Gold - Polished',0.956862745098039,0.898039215686275,
0.654901960784314);
#1664=COLOUR_RGB('PETG Grey',0.247058823529412,0.247058823529412,0.247058823529412);
#1665=COLOUR_RGB('Opaque(191,153,15)',0.749019607843137,0.6,0.0588235294117647);
#1666=COLOUR_RGB('Opaque(255,255,255)',1.,1.,1.);
#1667=COLOUR_RGB('Powder Coat - Rough (Black)',0.0980392156862745,0.0980392156862745,
0.0980392156862745);
#1668=COLOUR_RGB('EPX 86FR (with Carbon M2 M3 L1 3D Printers)',0.647058823529412,
0.462745098039216,0.96078431372549);
ENDSEC;
END-ISO-10303-21;
