ISO-10303-21;
HEADER;
/* Generated by software containing ST-Developer
 * from STEP Tools, Inc. (www.steptools.com) 
 */

FILE_DESCRIPTION(
/* description */ (''),
/* implementation_level */ '2;1');

FILE_NAME(
/* name */ 'Joiner.step',
/* time_stamp */ '2026-09-02T07:39:56+02:00',
/* author */ (''),
/* organization */ (''),
/* preprocessor_version */ 'ST-DEVELOPER v20.1',
/* originating_system */ 'Autodesk Translation Framework v15.8.0.0',
/* authorisation */ '');

FILE_SCHEMA (('AUTOMOTIVE_DESIGN { 1 0 10303 214 3 1 1 }'));
ENDSEC;

DATA;
#10=MECHANICAL_DESIGN_GEOMETRIC_PRESENTATION_REPRESENTATION('',(#21),#608);
#11=ITEM_DEFINED_TRANSFORMATION($,$,#313,#341);
#12=ITEM_DEFINED_TRANSFORMATION($,$,#314,#342);
#13=(
REPRESENTATION_RELATIONSHIP($,$,#622,#621)
REPRESENTATION_RELATIONSHIP_WITH_TRANSFORMATION(#11)
SHAPE_REPRESENTATION_RELATIONSHIP()
);
#14=(
REPRESENTATION_RELATIONSHIP($,$,#623,#621)
REPRESENTATION_RELATIONSHIP_WITH_TRANSFORMATION(#12)
SHAPE_REPRESENTATION_RELATIONSHIP()
);
#15=CONTEXT_DEPENDENT_SHAPE_REPRESENTATION(#13,#619);
#16=CONTEXT_DEPENDENT_SHAPE_REPRESENTATION(#14,#620);
#17=NEXT_ASSEMBLY_USAGE_OCCURRENCE('Case:1','Case:1','Case:1',#625,#626,
'Case:1');
#18=NEXT_ASSEMBLY_USAGE_OCCURRENCE('Joiner:1','Joiner:1','Joiner:1',#625,
#627,'Joiner:1');
#19=SHAPE_REPRESENTATION_RELATIONSHIP('SRR','None',#623,#20);
#20=ADVANCED_BREP_SHAPE_REPRESENTATION('',(#22),#607);
#21=STYLED_ITEM('',(#646),#22);
#22=MANIFOLD_SOLID_BREP('Body1',#299);
#23=CONICAL_SURFACE('',#340,12.,0.463647609000807);
#24=(
BOUNDED_CURVE()
B_SPLINE_CURVE(2,(#550,#551,#552,#553),.UNSPECIFIED.,.F.,.F.)
B_SPLINE_CURVE_WITH_KNOTS((3,1,3),(16736.7145600998,16827.7318755219,17472.0978669549),
 .UNSPECIFIED.)
CURVE()
GEOMETRIC_REPRESENTATION_ITEM()
RATIONAL_B_SPLINE_CURVE((4157.22280511755,4134.87999242893,3951.40253171206,
3772.29343622258))
REPRESENTATION_ITEM('')
);
#25=(
BOUNDED_CURVE()
B_SPLINE_CURVE(2,(#560,#561,#562),.UNSPECIFIED.,.F.,.F.)
B_SPLINE_CURVE_WITH_KNOTS((3,3),(4929.85696648734,5621.93351029467),
 .UNSPECIFIED.)
CURVE()
GEOMETRIC_REPRESENTATION_ITEM()
RATIONAL_B_SPLINE_CURVE((3796.28584036968,3987.33275164097,4157.22280511878))
REPRESENTATION_ITEM('')
);
#26=(
BOUNDED_CURVE()
B_SPLINE_CURVE(2,(#586,#587,#588),.UNSPECIFIED.,.F.,.F.)
B_SPLINE_CURVE_WITH_KNOTS((3,3),(0.,0.549905850420784),.UNSPECIFIED.)
CURVE()
GEOMETRIC_REPRESENTATION_ITEM()
RATIONAL_B_SPLINE_CURVE((1.,1.12801785322969,1.20216271073723))
REPRESENTATION_ITEM('')
);
#27=(
BOUNDED_CURVE()
B_SPLINE_CURVE(2,(#592,#593,#594),.UNSPECIFIED.,.F.,.F.)
B_SPLINE_CURVE_WITH_KNOTS((3,3),(2.09243384941917,2.65190211674113),
 .UNSPECIFIED.)
CURVE()
GEOMETRIC_REPRESENTATION_ITEM()
RATIONAL_B_SPLINE_CURVE((1.20969461822768,1.13288104713599,1.))
REPRESENTATION_ITEM('')
);
#28=PLANE('',#326);
#29=PLANE('',#330);
#30=PLANE('',#331);
#31=PLANE('',#334);
#32=PLANE('',#335);
#33=PLANE('',#336);
#34=PLANE('',#337);
#35=PLANE('',#338);
#36=LINE('',#462,#54);
#37=LINE('',#471,#55);
#38=LINE('',#479,#56);
#39=LINE('',#487,#57);
#40=LINE('',#530,#58);
#41=LINE('',#555,#59);
#42=LINE('',#557,#60);
#43=LINE('',#559,#61);
#44=LINE('',#564,#62);
#45=LINE('',#565,#63);
#46=LINE('',#568,#64);
#47=LINE('',#571,#65);
#48=LINE('',#574,#66);
#49=LINE('',#575,#67);
#50=LINE('',#579,#68);
#51=LINE('',#582,#69);
#52=LINE('',#589,#70);
#53=LINE('',#595,#71);
#54=VECTOR('',#357,10.);
#55=VECTOR('',#358,10.);
#56=VECTOR('',#359,10.);
#57=VECTOR('',#360,10.);
#58=VECTOR('',#369,10.);
#59=VECTOR('',#378,10.);
#60=VECTOR('',#379,10.);
#61=VECTOR('',#380,10.);
#62=VECTOR('',#383,10.);
#63=VECTOR('',#384,10.);
#64=VECTOR('',#387,10.);
#65=VECTOR('',#390,10.);
#66=VECTOR('',#393,10.);
#67=VECTOR('',#394,10.);
#68=VECTOR('',#399,10.);
#69=VECTOR('',#404,10.);
#70=VECTOR('',#409,10.);
#71=VECTOR('',#412,10.);
#72=CYLINDRICAL_SURFACE('',#318,2.);
#73=CYLINDRICAL_SURFACE('',#322,1.);
#74=CYLINDRICAL_SURFACE('',#327,1.);
#75=CYLINDRICAL_SURFACE('',#328,2.3);
#76=CYLINDRICAL_SURFACE('',#332,2.3);
#77=FACE_OUTER_BOUND('',#94,.T.);
#78=FACE_OUTER_BOUND('',#95,.T.);
#79=FACE_OUTER_BOUND('',#96,.T.);
#80=FACE_OUTER_BOUND('',#97,.T.);
#81=FACE_OUTER_BOUND('',#98,.T.);
#82=FACE_OUTER_BOUND('',#99,.T.);
#83=FACE_OUTER_BOUND('',#100,.T.);
#84=FACE_OUTER_BOUND('',#101,.T.);
#85=FACE_OUTER_BOUND('',#102,.T.);
#86=FACE_OUTER_BOUND('',#103,.T.);
#87=FACE_OUTER_BOUND('',#104,.T.);
#88=FACE_OUTER_BOUND('',#105,.T.);
#89=FACE_OUTER_BOUND('',#106,.T.);
#90=FACE_OUTER_BOUND('',#107,.T.);
#91=FACE_OUTER_BOUND('',#108,.T.);
#92=FACE_OUTER_BOUND('',#109,.T.);
#93=FACE_OUTER_BOUND('',#110,.T.);
#94=EDGE_LOOP('',(#197,#198,#199,#200));
#95=EDGE_LOOP('',(#201,#202,#203,#204,#205,#206,#207,#208,#209,#210));
#96=EDGE_LOOP('',(#211,#212,#213,#214,#215));
#97=EDGE_LOOP('',(#216,#217,#218,#219));
#98=EDGE_LOOP('',(#220,#221,#222,#223,#224));
#99=EDGE_LOOP('',(#225,#226,#227,#228,#229,#230));
#100=EDGE_LOOP('',(#231,#232,#233,#234));
#101=EDGE_LOOP('',(#235,#236,#237,#238));
#102=EDGE_LOOP('',(#239,#240,#241,#242));
#103=EDGE_LOOP('',(#243,#244,#245,#246,#247,#248));
#104=EDGE_LOOP('',(#249,#250,#251,#252));
#105=EDGE_LOOP('',(#253,#254,#255,#256));
#106=EDGE_LOOP('',(#257,#258,#259,#260));
#107=EDGE_LOOP('',(#261,#262,#263));
#108=EDGE_LOOP('',(#264,#265,#266));
#109=EDGE_LOOP('',(#267,#268,#269,#270));
#110=EDGE_LOOP('',(#271,#272,#273,#274,#275,#276,#277,#278));
#111=B_SPLINE_CURVE_WITH_KNOTS('',3,(#431,#432,#433,#434,#435,#436,#437,
#438,#439,#440),.UNSPECIFIED.,.F.,.F.,(4,2,2,2,4),(0.,0.0761659931457116,
0.157575674933681,0.24165688449124,0.242383798559791),.UNSPECIFIED.);
#112=B_SPLINE_CURVE_WITH_KNOTS('',3,(#443,#444,#445,#446,#447,#448,#449,
#450,#451,#452),.UNSPECIFIED.,.F.,.F.,(4,2,2,2,4),(-0.242741981484718,-0.166233984880919,
-0.0844587542233853,0.,0.000730178085928479),.UNSPECIFIED.);
#113=B_SPLINE_CURVE_WITH_KNOTS('',3,(#456,#457,#458,#459,#460,#461),
 .UNSPECIFIED.,.F.,.F.,(4,2,4),(-0.045493139445646,0.,0.000948813264590489),
 .UNSPECIFIED.);
#114=B_SPLINE_CURVE_WITH_KNOTS('',3,(#464,#465,#466,#467,#468,#469),
 .UNSPECIFIED.,.F.,.F.,(4,2,4),(0.558543334505365,0.59215689635569,0.657911796641429),
 .UNSPECIFIED.);
#115=B_SPLINE_CURVE_WITH_KNOTS('',3,(#472,#473,#474,#475,#476,#477),
 .UNSPECIFIED.,.F.,.F.,(4,2,4),(0.677915983677028,0.743670883963599,0.777284445813924),
 .UNSPECIFIED.);
#116=B_SPLINE_CURVE_WITH_KNOTS('',3,(#481,#482,#483,#484,#485,#486),
 .UNSPECIFIED.,.F.,.F.,(4,2,4),(-0.0759240558080609,-0.0749734549912646,
-0.0293946023607154),.UNSPECIFIED.);
#117=B_SPLINE_CURVE_WITH_KNOTS('',3,(#490,#491,#492,#493,#494,#495,#496,
#497,#498,#499),.UNSPECIFIED.,.F.,.F.,(4,2,2,2,4),(-0.309620971518128,-0.279517976534147,
-0.237706375481298,-0.197708648207165,-0.160803880664584),.UNSPECIFIED.);
#118=B_SPLINE_CURVE_WITH_KNOTS('',3,(#503,#504,#505,#506,#507,#508,#509,
#510,#511,#512,#513,#514),.UNSPECIFIED.,.F.,.F.,(4,2,2,2,2,4),(-0.000504476388711902,
0.,0.0421969424912639,0.0840205659225809,0.1240297940158,0.160945172921286),
 .UNSPECIFIED.);
#119=B_SPLINE_CURVE_WITH_KNOTS('',3,(#518,#519,#520,#521,#522,#523,#524,
#525,#526,#527,#528,#529),.UNSPECIFIED.,.F.,.F.,(4,2,2,2,2,4),(-0.160806644594709,
-0.123751502653498,-0.0855422818612616,-0.0451176311222638,-0.0225744472365835,
-0.012073685801816),.UNSPECIFIED.);
#120=B_SPLINE_CURVE_WITH_KNOTS('',3,(#535,#536,#537,#538,#539,#540,#541,
#542,#543,#544,#545,#546),.UNSPECIFIED.,.F.,.F.,(4,2,2,2,2,4),(-0.32220712126049,
-0.321702789883827,-0.279517976992986,-0.237706375851407,-0.197708648496135,
-0.160803880995659),.UNSPECIFIED.);
#121=CIRCLE('',#316,7.05278640450004);
#122=CIRCLE('',#317,5.26393202250021);
#123=CIRCLE('',#320,2.3);
#124=CIRCLE('',#321,3.3);
#125=CIRCLE('',#324,3.3);
#126=CIRCLE('',#325,2.3);
#127=CIRCLE('',#329,2.3);
#128=CIRCLE('',#333,2.3);
#129=CIRCLE('',#339,12.);
#130=VERTEX_POINT('',#427);
#131=VERTEX_POINT('',#428);
#132=VERTEX_POINT('',#430);
#133=VERTEX_POINT('',#441);
#134=VERTEX_POINT('',#454);
#135=VERTEX_POINT('',#455);
#136=VERTEX_POINT('',#463);
#137=VERTEX_POINT('',#470);
#138=VERTEX_POINT('',#478);
#139=VERTEX_POINT('',#480);
#140=VERTEX_POINT('',#489);
#141=VERTEX_POINT('',#500);
#142=VERTEX_POINT('',#502);
#143=VERTEX_POINT('',#517);
#144=VERTEX_POINT('',#532);
#145=VERTEX_POINT('',#534);
#146=VERTEX_POINT('',#549);
#147=VERTEX_POINT('',#554);
#148=VERTEX_POINT('',#556);
#149=VERTEX_POINT('',#558);
#150=VERTEX_POINT('',#567);
#151=VERTEX_POINT('',#569);
#152=VERTEX_POINT('',#573);
#153=VERTEX_POINT('',#578);
#154=VERTEX_POINT('',#585);
#155=VERTEX_POINT('',#591);
#156=EDGE_CURVE('',#130,#131,#121,.T.);
#157=EDGE_CURVE('',#131,#132,#111,.T.);
#158=EDGE_CURVE('',#132,#133,#122,.T.);
#159=EDGE_CURVE('',#130,#133,#112,.T.);
#160=EDGE_CURVE('',#134,#135,#113,.T.);
#161=EDGE_CURVE('',#135,#132,#36,.T.);
#162=EDGE_CURVE('',#131,#136,#114,.T.);
#163=EDGE_CURVE('',#136,#137,#37,.T.);
#164=EDGE_CURVE('',#137,#130,#115,.T.);
#165=EDGE_CURVE('',#133,#138,#38,.T.);
#166=EDGE_CURVE('',#138,#139,#116,.T.);
#167=EDGE_CURVE('',#139,#134,#39,.T.);
#168=EDGE_CURVE('',#134,#140,#117,.T.);
#169=EDGE_CURVE('',#140,#141,#123,.T.);
#170=EDGE_CURVE('',#142,#141,#118,.T.);
#171=EDGE_CURVE('',#142,#135,#124,.T.);
#172=EDGE_CURVE('',#143,#139,#119,.T.);
#173=EDGE_CURVE('',#143,#140,#40,.T.);
#174=EDGE_CURVE('',#138,#144,#125,.T.);
#175=EDGE_CURVE('',#144,#145,#120,.T.);
#176=EDGE_CURVE('',#145,#143,#126,.T.);
#177=EDGE_CURVE('',#146,#136,#24,.F.);
#178=EDGE_CURVE('',#147,#146,#41,.T.);
#179=EDGE_CURVE('',#148,#147,#42,.T.);
#180=EDGE_CURVE('',#148,#149,#43,.T.);
#181=EDGE_CURVE('',#137,#149,#25,.F.);
#182=EDGE_CURVE('',#144,#142,#44,.T.);
#183=EDGE_CURVE('',#141,#145,#45,.T.);
#184=EDGE_CURVE('',#145,#150,#46,.T.);
#185=EDGE_CURVE('',#150,#151,#127,.T.);
#186=EDGE_CURVE('',#143,#151,#47,.T.);
#187=EDGE_CURVE('',#141,#152,#48,.T.);
#188=EDGE_CURVE('',#152,#150,#49,.T.);
#189=EDGE_CURVE('',#140,#153,#50,.T.);
#190=EDGE_CURVE('',#153,#152,#128,.T.);
#191=EDGE_CURVE('',#151,#153,#51,.T.);
#192=EDGE_CURVE('',#154,#146,#26,.T.);
#193=EDGE_CURVE('',#147,#154,#52,.T.);
#194=EDGE_CURVE('',#149,#155,#27,.T.);
#195=EDGE_CURVE('',#155,#148,#53,.T.);
#196=EDGE_CURVE('',#155,#154,#129,.T.);
#197=ORIENTED_EDGE('',*,*,#156,.T.);
#198=ORIENTED_EDGE('',*,*,#157,.T.);
#199=ORIENTED_EDGE('',*,*,#158,.T.);
#200=ORIENTED_EDGE('',*,*,#159,.F.);
#201=ORIENTED_EDGE('',*,*,#160,.T.);
#202=ORIENTED_EDGE('',*,*,#161,.T.);
#203=ORIENTED_EDGE('',*,*,#157,.F.);
#204=ORIENTED_EDGE('',*,*,#162,.T.);
#205=ORIENTED_EDGE('',*,*,#163,.T.);
#206=ORIENTED_EDGE('',*,*,#164,.T.);
#207=ORIENTED_EDGE('',*,*,#159,.T.);
#208=ORIENTED_EDGE('',*,*,#165,.T.);
#209=ORIENTED_EDGE('',*,*,#166,.T.);
#210=ORIENTED_EDGE('',*,*,#167,.T.);
#211=ORIENTED_EDGE('',*,*,#160,.F.);
#212=ORIENTED_EDGE('',*,*,#168,.T.);
#213=ORIENTED_EDGE('',*,*,#169,.T.);
#214=ORIENTED_EDGE('',*,*,#170,.F.);
#215=ORIENTED_EDGE('',*,*,#171,.T.);
#216=ORIENTED_EDGE('',*,*,#167,.F.);
#217=ORIENTED_EDGE('',*,*,#172,.F.);
#218=ORIENTED_EDGE('',*,*,#173,.T.);
#219=ORIENTED_EDGE('',*,*,#168,.F.);
#220=ORIENTED_EDGE('',*,*,#166,.F.);
#221=ORIENTED_EDGE('',*,*,#174,.T.);
#222=ORIENTED_EDGE('',*,*,#175,.T.);
#223=ORIENTED_EDGE('',*,*,#176,.T.);
#224=ORIENTED_EDGE('',*,*,#172,.T.);
#225=ORIENTED_EDGE('',*,*,#163,.F.);
#226=ORIENTED_EDGE('',*,*,#177,.F.);
#227=ORIENTED_EDGE('',*,*,#178,.F.);
#228=ORIENTED_EDGE('',*,*,#179,.F.);
#229=ORIENTED_EDGE('',*,*,#180,.T.);
#230=ORIENTED_EDGE('',*,*,#181,.F.);
#231=ORIENTED_EDGE('',*,*,#182,.T.);
#232=ORIENTED_EDGE('',*,*,#170,.T.);
#233=ORIENTED_EDGE('',*,*,#183,.T.);
#234=ORIENTED_EDGE('',*,*,#175,.F.);
#235=ORIENTED_EDGE('',*,*,#176,.F.);
#236=ORIENTED_EDGE('',*,*,#184,.T.);
#237=ORIENTED_EDGE('',*,*,#185,.T.);
#238=ORIENTED_EDGE('',*,*,#186,.F.);
#239=ORIENTED_EDGE('',*,*,#183,.F.);
#240=ORIENTED_EDGE('',*,*,#187,.T.);
#241=ORIENTED_EDGE('',*,*,#188,.T.);
#242=ORIENTED_EDGE('',*,*,#184,.F.);
#243=ORIENTED_EDGE('',*,*,#161,.F.);
#244=ORIENTED_EDGE('',*,*,#171,.F.);
#245=ORIENTED_EDGE('',*,*,#182,.F.);
#246=ORIENTED_EDGE('',*,*,#174,.F.);
#247=ORIENTED_EDGE('',*,*,#165,.F.);
#248=ORIENTED_EDGE('',*,*,#158,.F.);
#249=ORIENTED_EDGE('',*,*,#169,.F.);
#250=ORIENTED_EDGE('',*,*,#189,.T.);
#251=ORIENTED_EDGE('',*,*,#190,.T.);
#252=ORIENTED_EDGE('',*,*,#187,.F.);
#253=ORIENTED_EDGE('',*,*,#173,.F.);
#254=ORIENTED_EDGE('',*,*,#186,.T.);
#255=ORIENTED_EDGE('',*,*,#191,.T.);
#256=ORIENTED_EDGE('',*,*,#189,.F.);
#257=ORIENTED_EDGE('',*,*,#191,.F.);
#258=ORIENTED_EDGE('',*,*,#185,.F.);
#259=ORIENTED_EDGE('',*,*,#188,.F.);
#260=ORIENTED_EDGE('',*,*,#190,.F.);
#261=ORIENTED_EDGE('',*,*,#192,.F.);
#262=ORIENTED_EDGE('',*,*,#193,.F.);
#263=ORIENTED_EDGE('',*,*,#178,.T.);
#264=ORIENTED_EDGE('',*,*,#194,.F.);
#265=ORIENTED_EDGE('',*,*,#180,.F.);
#266=ORIENTED_EDGE('',*,*,#195,.F.);
#267=ORIENTED_EDGE('',*,*,#195,.T.);
#268=ORIENTED_EDGE('',*,*,#179,.T.);
#269=ORIENTED_EDGE('',*,*,#193,.T.);
#270=ORIENTED_EDGE('',*,*,#196,.F.);
#271=ORIENTED_EDGE('',*,*,#164,.F.);
#272=ORIENTED_EDGE('',*,*,#181,.T.);
#273=ORIENTED_EDGE('',*,*,#194,.T.);
#274=ORIENTED_EDGE('',*,*,#196,.T.);
#275=ORIENTED_EDGE('',*,*,#192,.T.);
#276=ORIENTED_EDGE('',*,*,#177,.T.);
#277=ORIENTED_EDGE('',*,*,#162,.F.);
#278=ORIENTED_EDGE('',*,*,#156,.F.);
#279=TOROIDAL_SURFACE('',#315,5.26393202250021,2.);
#280=TOROIDAL_SURFACE('',#319,3.3,1.);
#281=TOROIDAL_SURFACE('',#323,3.3,1.);
#282=ADVANCED_FACE('',(#77),#279,.T.);
#283=ADVANCED_FACE('',(#78),#72,.T.);
#284=ADVANCED_FACE('',(#79),#280,.T.);
#285=ADVANCED_FACE('',(#80),#73,.T.);
#286=ADVANCED_FACE('',(#81),#281,.T.);
#287=ADVANCED_FACE('',(#82),#28,.F.);
#288=ADVANCED_FACE('',(#83),#74,.T.);
#289=ADVANCED_FACE('',(#84),#75,.F.);
#290=ADVANCED_FACE('',(#85),#29,.F.);
#291=ADVANCED_FACE('',(#86),#30,.F.);
#292=ADVANCED_FACE('',(#87),#76,.F.);
#293=ADVANCED_FACE('',(#88),#31,.F.);
#294=ADVANCED_FACE('',(#89),#32,.T.);
#295=ADVANCED_FACE('',(#90),#33,.F.);
#296=ADVANCED_FACE('',(#91),#34,.F.);
#297=ADVANCED_FACE('',(#92),#35,.F.);
#298=ADVANCED_FACE('',(#93),#23,.T.);
#299=CLOSED_SHELL('',(#282,#283,#284,#285,#286,#287,#288,#289,#290,#291,
#292,#293,#294,#295,#296,#297,#298));
#300=DERIVED_UNIT_ELEMENT(#302,1.);
#301=DERIVED_UNIT_ELEMENT(#610,-3.);
#302=(
MASS_UNIT()
NAMED_UNIT(*)
SI_UNIT(.KILO.,.GRAM.)
);
#303=DERIVED_UNIT((#300,#301));
#304=MEASURE_REPRESENTATION_ITEM('density measure',
POSITIVE_RATIO_MEASURE(7850.),#303);
#305=PROPERTY_DEFINITION_REPRESENTATION(#310,#307);
#306=PROPERTY_DEFINITION_REPRESENTATION(#311,#308);
#307=REPRESENTATION('material name',(#309),#607);
#308=REPRESENTATION('density',(#304),#607);
#309=DESCRIPTIVE_REPRESENTATION_ITEM('Steel','Steel');
#310=PROPERTY_DEFINITION('material property','material name',#627);
#311=PROPERTY_DEFINITION('material property','density of part',#627);
#312=AXIS2_PLACEMENT_3D('',#423,#343,#344);
#313=AXIS2_PLACEMENT_3D('',#424,#345,#346);
#314=AXIS2_PLACEMENT_3D('',#425,#347,#348);
#315=AXIS2_PLACEMENT_3D('',#426,#349,#350);
#316=AXIS2_PLACEMENT_3D('',#429,#351,#352);
#317=AXIS2_PLACEMENT_3D('',#442,#353,#354);
#318=AXIS2_PLACEMENT_3D('',#453,#355,#356);
#319=AXIS2_PLACEMENT_3D('',#488,#361,#362);
#320=AXIS2_PLACEMENT_3D('',#501,#363,#364);
#321=AXIS2_PLACEMENT_3D('',#515,#365,#366);
#322=AXIS2_PLACEMENT_3D('',#516,#367,#368);
#323=AXIS2_PLACEMENT_3D('',#531,#370,#371);
#324=AXIS2_PLACEMENT_3D('',#533,#372,#373);
#325=AXIS2_PLACEMENT_3D('',#547,#374,#375);
#326=AXIS2_PLACEMENT_3D('',#548,#376,#377);
#327=AXIS2_PLACEMENT_3D('',#563,#381,#382);
#328=AXIS2_PLACEMENT_3D('',#566,#385,#386);
#329=AXIS2_PLACEMENT_3D('',#570,#388,#389);
#330=AXIS2_PLACEMENT_3D('',#572,#391,#392);
#331=AXIS2_PLACEMENT_3D('',#576,#395,#396);
#332=AXIS2_PLACEMENT_3D('',#577,#397,#398);
#333=AXIS2_PLACEMENT_3D('',#580,#400,#401);
#334=AXIS2_PLACEMENT_3D('',#581,#402,#403);
#335=AXIS2_PLACEMENT_3D('',#583,#405,#406);
#336=AXIS2_PLACEMENT_3D('',#584,#407,#408);
#337=AXIS2_PLACEMENT_3D('',#590,#410,#411);
#338=AXIS2_PLACEMENT_3D('',#596,#413,#414);
#339=AXIS2_PLACEMENT_3D('',#597,#415,#416);
#340=AXIS2_PLACEMENT_3D('',#598,#417,#418);
#341=AXIS2_PLACEMENT_3D('',#599,#419,#420);
#342=AXIS2_PLACEMENT_3D('',#600,#421,#422);
#343=DIRECTION('axis',(0.,0.,1.));
#344=DIRECTION('refdir',(1.,0.,0.));
#345=DIRECTION('axis',(0.,0.,1.));
#346=DIRECTION('refdir',(1.,0.,0.));
#347=DIRECTION('axis',(0.,0.,1.));
#348=DIRECTION('refdir',(1.,0.,0.));
#349=DIRECTION('center_axis',(1.8930350609371E-29,1.38777878078145E-16,
1.));
#350=DIRECTION('ref_axis',(0.,-1.,0.));
#351=DIRECTION('center_axis',(0.,0.,-1.));
#352=DIRECTION('ref_axis',(0.,-1.,0.));
#353=DIRECTION('center_axis',(1.8930350609371E-29,1.38777878078145E-16,
1.));
#354=DIRECTION('ref_axis',(5.82472326442185E-30,-1.,1.38777878078145E-16));
#355=DIRECTION('center_axis',(1.,1.57772181044202E-30,-1.8930350609371E-29));
#356=DIRECTION('ref_axis',(0.,0.707106781186548,-0.707106781186547));
#357=DIRECTION('',(-1.,-1.57772181044202E-30,1.8930350609371E-29));
#358=DIRECTION('',(1.,1.57772181044202E-30,-1.8930350609371E-29));
#359=DIRECTION('',(-1.,-1.57772181044202E-30,1.8930350609371E-29));
#360=DIRECTION('',(-1.,-1.57772181044202E-30,1.8930350609371E-29));
#361=DIRECTION('center_axis',(1.8930350609371E-29,1.38777878078145E-16,
1.));
#362=DIRECTION('ref_axis',(-0.999985539048402,-0.00537788937003064,0.));
#363=DIRECTION('center_axis',(1.8930350609371E-29,1.38777878078145E-16,
1.));
#364=DIRECTION('ref_axis',(-1.,6.03382078600628E-17,0.));
#365=DIRECTION('center_axis',(-1.8930350609371E-29,-1.38777878078145E-16,
-1.));
#366=DIRECTION('ref_axis',(-1.,6.03382078600628E-17,1.89219770009172E-29));
#367=DIRECTION('center_axis',(-1.,-1.55082679091829E-15,1.91455710606814E-29));
#368=DIRECTION('ref_axis',(0.,-0.707106781186549,-0.707106781186546));
#369=DIRECTION('',(-1.,-1.55082679091829E-15,1.91455710606814E-29));
#370=DIRECTION('center_axis',(1.8930350609371E-29,1.38777878078145E-16,
1.));
#371=DIRECTION('ref_axis',(1.,0.,0.));
#372=DIRECTION('center_axis',(-1.8930350609371E-29,-1.38777878078145E-16,
-1.));
#373=DIRECTION('ref_axis',(1.,3.92198351090409E-15,-1.94746351588718E-29));
#374=DIRECTION('center_axis',(1.8930350609371E-29,1.38777878078145E-16,
1.));
#375=DIRECTION('ref_axis',(1.,3.92198351090409E-15,0.));
#376=DIRECTION('center_axis',(1.57772181044202E-30,-1.,0.));
#377=DIRECTION('ref_axis',(-1.,-1.57772181044202E-30,1.8930350609371E-29));
#378=DIRECTION('',(0.,0.,-1.));
#379=DIRECTION('',(-1.,-1.57772181044202E-30,1.8930350609371E-29));
#380=DIRECTION('',(0.,0.,-1.));
#381=DIRECTION('center_axis',(1.,3.10165358183656E-15,-1.93607915119918E-29));
#382=DIRECTION('ref_axis',(0.,0.707106781186546,-0.707106781186549));
#383=DIRECTION('',(-1.,-3.10165358183656E-15,1.93607915119918E-29));
#384=DIRECTION('',(1.,3.10165358183656E-15,-1.93607915119918E-29));
#385=DIRECTION('center_axis',(0.,0.,1.));
#386=DIRECTION('ref_axis',(0.622513959272882,0.782608695652176,0.));
#387=DIRECTION('',(0.,0.,1.));
#388=DIRECTION('center_axis',(6.83292692448903E-33,8.59018171111709E-33,
1.));
#389=DIRECTION('ref_axis',(0.622513959272882,0.782608695652176,-1.09763432975385E-32));
#390=DIRECTION('',(0.,0.,1.));
#391=DIRECTION('center_axis',(3.10165358183656E-15,-1.,0.));
#392=DIRECTION('ref_axis',(1.,3.10165358183656E-15,2.05070998434394E-32));
#393=DIRECTION('',(0.,0.,1.));
#394=DIRECTION('',(1.,3.10165358183656E-15,2.05070998434394E-32));
#395=DIRECTION('center_axis',(1.8930350609371E-29,1.38777878078145E-16,
1.));
#396=DIRECTION('ref_axis',(1.,0.,-1.8930350609371E-29));
#397=DIRECTION('center_axis',(0.,0.,1.));
#398=DIRECTION('ref_axis',(-0.622513959272886,-0.782608695652173,0.));
#399=DIRECTION('',(0.,0.,1.));
#400=DIRECTION('center_axis',(-2.21259641550987E-32,-2.78161986402587E-32,
1.));
#401=DIRECTION('ref_axis',(-0.622513959272886,-0.782608695652173,-3.55429204847751E-32));
#402=DIRECTION('center_axis',(-1.55082679091829E-15,1.,0.));
#403=DIRECTION('ref_axis',(-1.,-1.55082679091829E-15,1.89749180204345E-32));
#404=DIRECTION('',(-1.,-1.55082679091829E-15,1.89749180204345E-32));
#405=DIRECTION('center_axis',(-6.83292692448904E-33,-8.59018171111709E-33,
-1.));
#406=DIRECTION('ref_axis',(1.,0.,-6.83292692448904E-33));
#407=DIRECTION('center_axis',(-1.,-1.57772181044203E-30,0.));
#408=DIRECTION('ref_axis',(-1.57772181044203E-30,1.,-1.38777878078145E-16));
#409=DIRECTION('',(-1.57772181044203E-30,1.,-1.38777878078145E-16));
#410=DIRECTION('center_axis',(1.,1.57772181044203E-30,0.));
#411=DIRECTION('ref_axis',(1.57772181044203E-30,-1.,1.38777878078145E-16));
#412=DIRECTION('',(1.57772181044203E-30,-1.,1.38777878078145E-16));
#413=DIRECTION('center_axis',(-1.8930350609371E-29,-1.38777878078145E-16,
-1.));
#414=DIRECTION('ref_axis',(-1.,0.,1.8930350609371E-29));
#415=DIRECTION('center_axis',(-1.8930350609371E-29,-1.38777878078145E-16,
-1.));
#416=DIRECTION('ref_axis',(1.,1.57772181044202E-30,-1.8930350609371E-29));
#417=DIRECTION('center_axis',(1.8930350609371E-29,1.38777878078145E-16,
1.));
#418=DIRECTION('ref_axis',(0.00520119466325227,-0.999986473695557,1.38776000926316E-16));
#419=DIRECTION('',(0.,0.,1.));
#420=DIRECTION('',(1.,0.,0.));
#421=DIRECTION('',(0.,0.,1.));
#422=DIRECTION('',(1.,0.,0.));
#423=CARTESIAN_POINT('',(0.,0.,0.));
#424=CARTESIAN_POINT('',(0.,0.,0.));
#425=CARTESIAN_POINT('',(0.,0.,0.));
#426=CARTESIAN_POINT('Origin',(27.2419805079488,35.1455249004154,16.8410382134442));
#427=CARTESIAN_POINT('',(32.8192074385051,39.4625071603487,15.9466110224443));
#428=CARTESIAN_POINT('',(21.6647535773926,39.4625071603487,15.9466110224443));
#429=CARTESIAN_POINT('Origin',(27.2419805079488,35.1455249004154,15.9466110224443));
#430=CARTESIAN_POINT('',(22.6248872913981,37.6736527783489,14.8410382134442));
#431=CARTESIAN_POINT('Ctrl Pts',(21.6647535773926,39.4625071603487,15.9466110224443));
#432=CARTESIAN_POINT('Ctrl Pts',(21.7191556153443,39.3516028356572,15.7248023730612));
#433=CARTESIAN_POINT('Ctrl Pts',(21.7928940565723,39.2028184508189,15.5301919057513));
#434=CARTESIAN_POINT('Ctrl Pts',(21.9779119640297,38.8403537878299,15.1967920670139));
#435=CARTESIAN_POINT('Ctrl Pts',(22.0896313251442,38.6265722342498,15.0659523725057));
#436=CARTESIAN_POINT('Ctrl Pts',(22.339843937779,38.1666033049926,14.8865766939243));
#437=CARTESIAN_POINT('Ctrl Pts',(22.4777377818911,37.9221879806482,14.8418090560975));
#438=CARTESIAN_POINT('Ctrl Pts',(22.6224061866796,37.6778408708847,14.8410415018723));
#439=CARTESIAN_POINT('Ctrl Pts',(22.6236465539005,37.6757467150421,14.8410382134442));
#440=CARTESIAN_POINT('Ctrl Pts',(22.6248872913981,37.6736527783489,14.8410382134442));
#441=CARTESIAN_POINT('',(31.8590737244995,37.6736527783489,14.8410382134442));
#442=CARTESIAN_POINT('Origin',(27.2419805079488,35.1455249004154,14.8410382134442));
#443=CARTESIAN_POINT('Ctrl Pts',(32.8192074385051,39.4625071603487,15.9466110224443));
#444=CARTESIAN_POINT('Ctrl Pts',(32.7648054005533,39.3516028356572,15.7248023730612));
#445=CARTESIAN_POINT('Ctrl Pts',(32.6910669593254,39.2028184508189,15.5301919057513));
#446=CARTESIAN_POINT('Ctrl Pts',(32.5060490518679,38.8403537878299,15.1967920670139));
#447=CARTESIAN_POINT('Ctrl Pts',(32.3943296907534,38.6265722342498,15.0659523725057));
#448=CARTESIAN_POINT('Ctrl Pts',(32.1441170781186,38.1666033049926,14.8865766939243));
#449=CARTESIAN_POINT('Ctrl Pts',(32.0062232340065,37.9221879806482,14.8418090560975));
#450=CARTESIAN_POINT('Ctrl Pts',(31.861554829218,37.6778408708847,14.8410415018723));
#451=CARTESIAN_POINT('Ctrl Pts',(31.8603144619971,37.6757467150421,14.8410382134442));
#452=CARTESIAN_POINT('Ctrl Pts',(31.8590737244995,37.6736527783489,14.8410382134442));
#453=CARTESIAN_POINT('Origin',(30.923274867372,37.6736527783489,16.8410382134442));
#454=CARTESIAN_POINT('',(25.5095485007551,37.844189335619,14.8483221567436));
#455=CARTESIAN_POINT('',(25.0775406049142,37.6736527783489,14.8410382134442));
#456=CARTESIAN_POINT('Ctrl Pts',(25.5095485007531,37.8441893356245,14.8483221567435));
#457=CARTESIAN_POINT('Ctrl Pts',(25.3662203138673,37.7943442192229,14.8440564137544));
#458=CARTESIAN_POINT('Ctrl Pts',(25.2249857294647,37.7386406076443,14.8411591045974));
#459=CARTESIAN_POINT('Ctrl Pts',(25.0833257076975,37.6762108138495,14.8410394426386));
#460=CARTESIAN_POINT('Ctrl Pts',(25.0804326301234,37.6749329854854,14.8410382134442));
#461=CARTESIAN_POINT('Ctrl Pts',(25.0775406049142,37.6736527783489,14.8410382134442));
#462=CARTESIAN_POINT('',(30.923274867372,37.6736527783489,14.8410382134442));
#463=CARTESIAN_POINT('',(21.2631797932157,39.6736527783568,16.8410382134442));
#464=CARTESIAN_POINT('Ctrl Pts',(21.6647535773926,39.4625071603487,15.9466110224443));
#465=CARTESIAN_POINT('Ctrl Pts',(21.6397536923741,39.5134720776521,16.048540857051));
#466=CARTESIAN_POINT('Ctrl Pts',(21.6059282875261,39.5541414850845,16.1520109018327));
#467=CARTESIAN_POINT('Ctrl Pts',(21.4892531926191,39.6454067428053,16.4482704167072));
#468=CARTESIAN_POINT('Ctrl Pts',(21.3846685460264,39.6736527785874,16.6473430113763));
#469=CARTESIAN_POINT('Ctrl Pts',(21.2631797971416,39.6736527783489,16.8410382159065));
#470=CARTESIAN_POINT('',(33.2207812226983,39.6736527783568,16.8410382134442));
#471=CARTESIAN_POINT('',(30.923274867372,39.6736527783489,16.8410382134442));
#472=CARTESIAN_POINT('Ctrl Pts',(33.2207812187607,39.6736527783489,16.8410382159139));
#473=CARTESIAN_POINT('Ctrl Pts',(33.0992924698739,39.6736527785881,16.6473430113813));
#474=CARTESIAN_POINT('Ctrl Pts',(32.9947078232795,39.645406742806,16.4482704167096));
#475=CARTESIAN_POINT('Ctrl Pts',(32.8780327283715,39.5541414850844,16.1520109018327));
#476=CARTESIAN_POINT('Ctrl Pts',(32.8442073235236,39.5134720776521,16.048540857051));
#477=CARTESIAN_POINT('Ctrl Pts',(32.819207438505,39.4625071603487,15.9466110224443));
#478=CARTESIAN_POINT('',(29.3647259737741,37.6736527783489,14.8410382134442));
#479=CARTESIAN_POINT('',(30.923274867372,37.6736527783489,14.8410382134442));
#480=CARTESIAN_POINT('',(28.9327180779349,37.8441893356246,14.8483221567435));
#481=CARTESIAN_POINT('Ctrl Pts',(29.3647259737738,37.6736527783494,14.8410382134442));
#482=CARTESIAN_POINT('Ctrl Pts',(29.3618339488755,37.6749329853483,14.8410382134442));
#483=CARTESIAN_POINT('Ctrl Pts',(29.3589408710402,37.6762108138271,14.8410394426387));
#484=CARTESIAN_POINT('Ctrl Pts',(29.2172808502434,37.7386406072101,14.8411591045917));
#485=CARTESIAN_POINT('Ctrl Pts',(29.0760462657216,37.7943442189097,14.8440564137276));
#486=CARTESIAN_POINT('Ctrl Pts',(28.9327180779349,37.8441893356246,14.8483221567435));
#487=CARTESIAN_POINT('',(30.923274867372,37.8441893356246,14.8483221567435));
#488=CARTESIAN_POINT('Origin',(27.2211332893442,35.1646668470893,15.8410382134442));
#489=CARTESIAN_POINT('',(25.7893511830165,36.9646668470893,15.8410382134442));
#490=CARTESIAN_POINT('Ctrl Pts',(25.509548500755,37.8441893356189,14.8483221567442));
#491=CARTESIAN_POINT('Ctrl Pts',(25.537422411257,37.7487722131917,14.8599021220164));
#492=CARTESIAN_POINT('Ctrl Pts',(25.5654272797856,37.6552890440264,14.8852060243822));
#493=CARTESIAN_POINT('Ctrl Pts',(25.630422268129,37.4436004295714,14.9770424328358));
#494=CARTESIAN_POINT('Ctrl Pts',(25.6661449521274,37.3317173230994,15.0550140970669));
#495=CARTESIAN_POINT('Ctrl Pts',(25.7260779469723,37.1489987118807,15.248098364596));
#496=CARTESIAN_POINT('Ctrl Pts',(25.7501613711823,37.0781610860327,15.3598196598551));
#497=CARTESIAN_POINT('Ctrl Pts',(25.781409669717,36.9872460752468,15.5970793351967));
#498=CARTESIAN_POINT('Ctrl Pts',(25.7893511830165,36.9646668470893,15.7182899190533));
#499=CARTESIAN_POINT('Ctrl Pts',(25.7893511830165,36.9646668470893,15.8410382134441));
#500=CARTESIAN_POINT('',(25.7893511830165,33.3646668470893,15.8410382134442));
#501=CARTESIAN_POINT('Origin',(27.2211332893442,35.1646668470893,15.8410382134442));
#502=CARTESIAN_POINT('',(25.4747083696866,32.3646668470895,14.8410382134442));
#503=CARTESIAN_POINT('Ctrl Pts',(25.4747083696866,32.3646668470895,14.8410382134442));
#504=CARTESIAN_POINT('Ctrl Pts',(25.4751712115402,32.3662834841835,14.8410382134442));
#505=CARTESIAN_POINT('Ctrl Pts',(25.4756342229475,32.3679000708345,14.8410421337173));
#506=CARTESIAN_POINT('Ctrl Pts',(25.5148398789153,32.5047306241958,14.8417057349165));
#507=CARTESIAN_POINT('Ctrl Pts',(25.5545079723822,32.6384804764807,14.869777296539));
#508=CARTESIAN_POINT('Ctrl Pts',(25.6304222684774,32.8857332657144,14.9770424335049));
#509=CARTESIAN_POINT('Ctrl Pts',(25.6661449524503,32.9976163720813,15.0550140978746));
#510=CARTESIAN_POINT('Ctrl Pts',(25.7260779472212,33.18033498304,15.2480983656204));
#511=CARTESIAN_POINT('Ctrl Pts',(25.7501613713845,33.2511726087391,15.3598196609526));
#512=CARTESIAN_POINT('Ctrl Pts',(25.7814096697715,33.3420876190857,15.5970793360138));
#513=CARTESIAN_POINT('Ctrl Pts',(25.7893511830165,33.3646668470893,15.7182899194723));
#514=CARTESIAN_POINT('Ctrl Pts',(25.7893511830165,33.3646668470893,15.8410382134441));
#515=CARTESIAN_POINT('Origin',(27.2211332893442,35.1646668470893,14.8410382134442));
#516=CARTESIAN_POINT('Origin',(27.9474479518103,37.9646668470893,15.8410382134442));
#517=CARTESIAN_POINT('',(28.6529153956718,36.9646668470893,15.8410382134442));
#518=CARTESIAN_POINT('Ctrl Pts',(28.6529153956718,36.9646668470893,15.8410382134442));
#519=CARTESIAN_POINT('Ctrl Pts',(28.6529153956718,36.9646668470893,15.7177081539438));
#520=CARTESIAN_POINT('Ctrl Pts',(28.660932270483,36.9874594466844,15.5959817771363));
#521=CARTESIAN_POINT('Ctrl Pts',(28.6916359354394,37.0768019174938,15.3639314125077));
#522=CARTESIAN_POINT('Ctrl Pts',(28.7143674558845,37.1436531483169,15.2567688616861));
#523=CARTESIAN_POINT('Ctrl Pts',(28.7711757509821,37.3164455824018,15.0683254319663));
#524=CARTESIAN_POINT('Ctrl Pts',(28.8052877397178,37.4228974338623,14.9905527033882));
#525=CARTESIAN_POINT('Ctrl Pts',(28.8617673560202,37.6059381260944,14.9047954132697));
#526=CARTESIAN_POINT('Ctrl Pts',(28.8825449480786,37.674517678988,14.8813392602778));
#527=CARTESIAN_POINT('Ctrl Pts',(28.9132173709505,37.7777203793098,14.8580930663396));
#528=CARTESIAN_POINT('Ctrl Pts',(28.9229790236999,37.8108509014568,14.8523681591805));
#529=CARTESIAN_POINT('Ctrl Pts',(28.9327180779349,37.8441893356246,14.8483221567435));
#530=CARTESIAN_POINT('',(27.9474479518103,36.9646668470893,15.8410382134442));
#531=CARTESIAN_POINT('Origin',(27.2211332893442,35.1646668470893,15.8410382134442));
#532=CARTESIAN_POINT('',(28.9675582090015,32.3646668470893,14.8410382134442));
#533=CARTESIAN_POINT('Origin',(27.2211332893442,35.1646668470893,14.8410382134442));
#534=CARTESIAN_POINT('',(28.6529153956718,33.3646668470893,15.8410382134442));
#535=CARTESIAN_POINT('Ctrl Pts',(28.9675582090015,32.3646668470887,14.8410382134442));
#536=CARTESIAN_POINT('Ctrl Pts',(28.9670953671472,32.3662834841852,14.8410382134442));
#537=CARTESIAN_POINT('Ctrl Pts',(28.9666323557416,32.367900070832,14.8410421337173));
#538=CARTESIAN_POINT('Ctrl Pts',(28.9274266997716,32.504730624199,14.8417057349165));
#539=CARTESIAN_POINT('Ctrl Pts',(28.8877586063047,32.6384804764853,14.86977729654));
#540=CARTESIAN_POINT('Ctrl Pts',(28.8118443102091,32.8857332657203,14.9770424335084));
#541=CARTESIAN_POINT('Ctrl Pts',(28.7761216262363,32.9976163720866,15.0550140978788));
#542=CARTESIAN_POINT('Ctrl Pts',(28.7161886314658,33.1803349830439,15.2480983656258));
#543=CARTESIAN_POINT('Ctrl Pts',(28.6921052073028,33.2511726087422,15.3598196609584));
#544=CARTESIAN_POINT('Ctrl Pts',(28.6608569089166,33.3420876190866,15.5970793360181));
#545=CARTESIAN_POINT('Ctrl Pts',(28.6529153956718,33.3646668470893,15.7182899194746));
#546=CARTESIAN_POINT('Ctrl Pts',(28.6529153956718,33.3646668470893,15.8410382134441));
#547=CARTESIAN_POINT('Origin',(27.2211332893442,35.1646668470893,15.8410382134442));
#548=CARTESIAN_POINT('Origin',(34.6045692267951,39.6736527783489,25.8410382134442));
#549=CARTESIAN_POINT('',(19.7812196891286,39.6736527783489,19.2957675524585));
#550=CARTESIAN_POINT('Ctrl Pts',(21.2631797932157,39.6736527783568,16.8410382134442));
#551=CARTESIAN_POINT('Ctrl Pts',(21.1816492832275,39.6736527783568,16.9710261256239));
#552=CARTESIAN_POINT('Ctrl Pts',(20.4840690279731,39.6736527783568,18.0940781419599));
#553=CARTESIAN_POINT('Ctrl Pts',(19.7812196845112,39.6736527783568,19.2957675497579));
#554=CARTESIAN_POINT('',(19.7812196891286,39.6736527783489,25.8410382134442));
#555=CARTESIAN_POINT('',(19.7812196891286,39.6736527783489,25.8410382134442));
#556=CARTESIAN_POINT('',(34.6045692267951,39.6736527783489,25.8410382134442));
#557=CARTESIAN_POINT('',(30.923274867372,39.6736527783489,25.8410382134442));
#558=CARTESIAN_POINT('',(34.6045692267951,39.6736527783489,19.1282189809148));
#559=CARTESIAN_POINT('',(34.6045692267951,39.6736527783489,25.8410382134442));
#560=CARTESIAN_POINT('Ctrl Pts',(34.6045692313848,39.6736527783568,19.1282189782207));
#561=CARTESIAN_POINT('Ctrl Pts',(33.8636623798883,39.6736527783568,17.8660137644963));
#562=CARTESIAN_POINT('Ctrl Pts',(33.2207812226983,39.6736527783568,16.8410382134442));
#563=CARTESIAN_POINT('Origin',(26.5156658454827,32.3646668470893,15.8410382134442));
#564=CARTESIAN_POINT('',(26.5156658454827,32.3646668470893,14.8410382134442));
#565=CARTESIAN_POINT('',(26.5156658454827,33.3646668470893,15.8410382134442));
#566=CARTESIAN_POINT('Origin',(27.2211332893442,35.1646668470893,14.8410382134442));
#567=CARTESIAN_POINT('',(28.6529153956718,33.3646668470893,21.8410382134442));
#568=CARTESIAN_POINT('',(28.6529153956718,33.3646668470893,14.8410382134442));
#569=CARTESIAN_POINT('',(28.6529153956718,36.9646668470893,21.8410382134442));
#570=CARTESIAN_POINT('Origin',(27.2211332893442,35.1646668470893,21.8410382134442));
#571=CARTESIAN_POINT('',(28.6529153956718,36.9646668470893,14.8410382134442));
#572=CARTESIAN_POINT('Origin',(25.7893511830165,33.3646668470893,14.8410382134442));
#573=CARTESIAN_POINT('',(25.7893511830165,33.3646668470893,21.8410382134442));
#574=CARTESIAN_POINT('',(25.7893511830165,33.3646668470893,14.8410382134442));
#575=CARTESIAN_POINT('',(28.6529153956718,33.3646668470893,21.8410382134442));
#576=CARTESIAN_POINT('Origin',(27.2419805079488,35.1455249004154,14.8410382134442));
#577=CARTESIAN_POINT('Origin',(27.2211332893442,35.1646668470893,14.8410382134442));
#578=CARTESIAN_POINT('',(25.7893511830165,36.9646668470893,21.8410382134442));
#579=CARTESIAN_POINT('',(25.7893511830165,36.9646668470893,14.8410382134442));
#580=CARTESIAN_POINT('Origin',(27.2211332893442,35.1646668470893,21.8410382134442));
#581=CARTESIAN_POINT('Origin',(28.6529153956718,36.9646668470893,14.8410382134442));
#582=CARTESIAN_POINT('',(25.7893511830165,36.9646668470893,21.8410382134442));
#583=CARTESIAN_POINT('Origin',(27.2211332893442,35.1646668470893,21.8410382134442));
#584=CARTESIAN_POINT('Origin',(19.7812196891286,39.6736527783489,25.8410382134442));
#585=CARTESIAN_POINT('',(19.7812196891286,44.5443039702924,25.8410382134442));
#586=CARTESIAN_POINT('Ctrl Pts',(19.7812196891286,44.5443039702924,25.8410382134442));
#587=CARTESIAN_POINT('Ctrl Pts',(19.7812196891286,41.7244657884748,21.4238655328418));
#588=CARTESIAN_POINT('Ctrl Pts',(19.7812196891286,39.6736527783489,19.2957675524585));
#589=CARTESIAN_POINT('',(19.7812196891286,37.4095888393822,25.8410382134442));
#590=CARTESIAN_POINT('Origin',(34.6045692267951,44.6214041396795,25.8410382134442));
#591=CARTESIAN_POINT('',(34.6045692267951,44.6214041396795,25.8410382134442));
#592=CARTESIAN_POINT('Ctrl Pts',(34.6045692267951,39.6736527783489,19.1282189809148));
#593=CARTESIAN_POINT('Ctrl Pts',(34.6045692267951,41.7453048162073,21.2987765686066));
#594=CARTESIAN_POINT('Ctrl Pts',(34.6045692267951,44.6214041396795,25.8410382134442));
#595=CARTESIAN_POINT('',(34.6045692267951,39.8834645200475,25.8410382134442));
#596=CARTESIAN_POINT('Origin',(27.2419805079488,35.1455249004154,25.8410382134442));
#597=CARTESIAN_POINT('Origin',(27.2419805079488,35.1455249004154,25.8410382134442));
#598=CARTESIAN_POINT('Origin',(27.2419805079488,35.1455249004154,25.8410382134442));
#599=CARTESIAN_POINT('',(0.,0.,0.));
#600=CARTESIAN_POINT('',(0.,0.,0.));
#601=UNCERTAINTY_MEASURE_WITH_UNIT(LENGTH_MEASURE(0.01),#609,
'DISTANCE_ACCURACY_VALUE',
'Maximum model space distance between geometric entities at asserted c
onnectivities');
#602=UNCERTAINTY_MEASURE_WITH_UNIT(LENGTH_MEASURE(0.01),#609,
'DISTANCE_ACCURACY_VALUE',
'Maximum model space distance between geometric entities at asserted c
onnectivities');
#603=UNCERTAINTY_MEASURE_WITH_UNIT(LENGTH_MEASURE(0.01),#609,
'DISTANCE_ACCURACY_VALUE',
'Maximum model space distance between geometric entities at asserted c
onnectivities');
#604=UNCERTAINTY_MEASURE_WITH_UNIT(LENGTH_MEASURE(0.01),#609,
'DISTANCE_ACCURACY_VALUE',
'Maximum model space distance between geometric entities at asserted c
onnectivities');
#605=(
GEOMETRIC_REPRESENTATION_CONTEXT(3)
GLOBAL_UNCERTAINTY_ASSIGNED_CONTEXT((#601))
GLOBAL_UNIT_ASSIGNED_CONTEXT((#609,#611,#612))
REPRESENTATION_CONTEXT('','3D')
);
#606=(
GEOMETRIC_REPRESENTATION_CONTEXT(3)
GLOBAL_UNCERTAINTY_ASSIGNED_CONTEXT((#602))
GLOBAL_UNIT_ASSIGNED_CONTEXT((#609,#611,#612))
REPRESENTATION_CONTEXT('','3D')
);
#607=(
GEOMETRIC_REPRESENTATION_CONTEXT(3)
GLOBAL_UNCERTAINTY_ASSIGNED_CONTEXT((#603))
GLOBAL_UNIT_ASSIGNED_CONTEXT((#609,#611,#612))
REPRESENTATION_CONTEXT('','3D')
);
#608=(
GEOMETRIC_REPRESENTATION_CONTEXT(3)
GLOBAL_UNCERTAINTY_ASSIGNED_CONTEXT((#604))
GLOBAL_UNIT_ASSIGNED_CONTEXT((#609,#611,#612))
REPRESENTATION_CONTEXT('','3D')
);
#609=(
LENGTH_UNIT()
NAMED_UNIT(*)
SI_UNIT(.MILLI.,.METRE.)
);
#610=(
LENGTH_UNIT()
NAMED_UNIT(*)
SI_UNIT($,.METRE.)
);
#611=(
NAMED_UNIT(*)
PLANE_ANGLE_UNIT()
SI_UNIT($,.RADIAN.)
);
#612=(
NAMED_UNIT(*)
SI_UNIT($,.STERADIAN.)
SOLID_ANGLE_UNIT()
);
#613=SHAPE_DEFINITION_REPRESENTATION(#616,#621);
#614=SHAPE_DEFINITION_REPRESENTATION(#617,#622);
#615=SHAPE_DEFINITION_REPRESENTATION(#618,#623);
#616=PRODUCT_DEFINITION_SHAPE('',$,#625);
#617=PRODUCT_DEFINITION_SHAPE('',$,#626);
#618=PRODUCT_DEFINITION_SHAPE('',$,#627);
#619=PRODUCT_DEFINITION_SHAPE($,$,#17);
#620=PRODUCT_DEFINITION_SHAPE($,$,#18);
#621=SHAPE_REPRESENTATION('',(#312,#341,#342),#605);
#622=SHAPE_REPRESENTATION('',(#313),#606);
#623=SHAPE_REPRESENTATION('',(#314),#607);
#624=PRODUCT_DEFINITION_CONTEXT('part definition',#635,'design');
#625=PRODUCT_DEFINITION('CommieCAD','CommieCAD v13',#628,#624);
#626=PRODUCT_DEFINITION('Case','Case',#629,#624);
#627=PRODUCT_DEFINITION('Joiner','Joiner',#630,#624);
#628=PRODUCT_DEFINITION_FORMATION('',$,#637);
#629=PRODUCT_DEFINITION_FORMATION('',$,#638);
#630=PRODUCT_DEFINITION_FORMATION('',$,#639);
#631=PRODUCT_RELATED_PRODUCT_CATEGORY('CommieCAD v13','CommieCAD v13',(#637));
#632=PRODUCT_RELATED_PRODUCT_CATEGORY('Case','Case',(#638));
#633=PRODUCT_RELATED_PRODUCT_CATEGORY('Joiner','Joiner',(#639));
#634=APPLICATION_PROTOCOL_DEFINITION('international standard',
'automotive_design',2009,#635);
#635=APPLICATION_CONTEXT(
'Core Data for Automotive Mechanical Design Process');
#636=PRODUCT_CONTEXT('part definition',#635,'mechanical');
#637=PRODUCT('CommieCAD','CommieCAD v13',$,(#636));
#638=PRODUCT('Case','Case',$,(#636));
#639=PRODUCT('Joiner','Joiner',$,(#636));
#640=PRESENTATION_STYLE_ASSIGNMENT((#648));
#641=PRESENTATION_STYLE_ASSIGNMENT((#649));
#642=PRESENTATION_STYLE_ASSIGNMENT((#650));
#643=PRESENTATION_STYLE_ASSIGNMENT((#651));
#644=PRESENTATION_STYLE_ASSIGNMENT((#652));
#645=PRESENTATION_STYLE_ASSIGNMENT((#653));
#646=PRESENTATION_STYLE_ASSIGNMENT((#654));
#647=PRESENTATION_STYLE_ASSIGNMENT((#655));
#648=SURFACE_STYLE_USAGE(.BOTH.,#656);
#649=SURFACE_STYLE_USAGE(.BOTH.,#657);
#650=SURFACE_STYLE_USAGE(.BOTH.,#658);
#651=SURFACE_STYLE_USAGE(.BOTH.,#659);
#652=SURFACE_STYLE_USAGE(.BOTH.,#660);
#653=SURFACE_STYLE_USAGE(.BOTH.,#661);
#654=SURFACE_STYLE_USAGE(.BOTH.,#662);
#655=SURFACE_STYLE_USAGE(.BOTH.,#663);
#656=SURFACE_SIDE_STYLE('',(#664));
#657=SURFACE_SIDE_STYLE('',(#665));
#658=SURFACE_SIDE_STYLE('',(#666));
#659=SURFACE_SIDE_STYLE('',(#667));
#660=SURFACE_SIDE_STYLE('',(#668));
#661=SURFACE_SIDE_STYLE('',(#669));
#662=SURFACE_SIDE_STYLE('',(#670));
#663=SURFACE_SIDE_STYLE('',(#671));
#664=SURFACE_STYLE_FILL_AREA(#672);
#665=SURFACE_STYLE_FILL_AREA(#673);
#666=SURFACE_STYLE_FILL_AREA(#674);
#667=SURFACE_STYLE_FILL_AREA(#675);
#668=SURFACE_STYLE_FILL_AREA(#676);
#669=SURFACE_STYLE_FILL_AREA(#677);
#670=SURFACE_STYLE_FILL_AREA(#678);
#671=SURFACE_STYLE_FILL_AREA(#679);
#672=FILL_AREA_STYLE('Aluminium - Rough',(#680));
#673=FILL_AREA_STYLE('Steel - Satin',(#681));
#674=FILL_AREA_STYLE('Gold - Polished',(#682));
#675=FILL_AREA_STYLE('PETG Grey',(#683));
#676=FILL_AREA_STYLE('Opaque(191,153,15)',(#684));
#677=FILL_AREA_STYLE('Opaque(255,255,255)',(#685));
#678=FILL_AREA_STYLE('Powder Coat - Rough (Black)',(#686));
#679=FILL_AREA_STYLE('EPX 86FR (with Carbon M2 M3 L1 3D Printers)',(#687));
#680=FILL_AREA_STYLE_COLOUR('Aluminium - Rough',#688);
#681=FILL_AREA_STYLE_COLOUR('Steel - Satin',#689);
#682=FILL_AREA_STYLE_COLOUR('Gold - Polished',#690);
#683=FILL_AREA_STYLE_COLOUR('PETG Grey',#691);
#684=FILL_AREA_STYLE_COLOUR('Opaque(191,153,15)',#692);
#685=FILL_AREA_STYLE_COLOUR('Opaque(255,255,255)',#693);
#686=FILL_AREA_STYLE_COLOUR('Powder Coat - Rough (Black)',#694);
#687=FILL_AREA_STYLE_COLOUR(
'EPX 86FR (with Carbon M2 M3 L1 3D Printers)',#695);
#688=COLOUR_RGB('Aluminium - Rough',0.83921568627451,0.83921568627451,0.83921568627451);
#689=COLOUR_RGB('Steel - Satin',0.627450980392157,0.627450980392157,0.627450980392157);
#690=COLOUR_RGB('Gold - Polished',0.956862745098039,0.898039215686275,0.654901960784314);
#691=COLOUR_RGB('PETG Grey',0.247058823529412,0.247058823529412,0.247058823529412);
#692=COLOUR_RGB('Opaque(191,153,15)',0.749019607843137,0.6,0.0588235294117647);
#693=COLOUR_RGB('Opaque(255,255,255)',1.,1.,1.);
#694=COLOUR_RGB('Powder Coat - Rough (Black)',0.0980392156862745,0.0980392156862745,
0.0980392156862745);
#695=COLOUR_RGB('EPX 86FR (with Carbon M2 M3 L1 3D Printers)',0.647058823529412,
0.462745098039216,0.96078431372549);
ENDSEC;
END-ISO-10303-21;
