M48
; DRILL file KiCad 10.0.5 date 2026-09-14T06:23:03
; FORMAT={-:-/ absolute / metric / decimal}
; #@! TF.CreationDate,2026-09-14T06:23:03+02:00
; #@! TF.GenerationSoftware,Kicad,Pcbnew,10.0.5
; #@! TF.FileFunction,Plated,1,2,PTH
FMAT,2
METRIC
; #@! TA.AperFunction,Plated,PTH,ComponentDrill
T1C0.500
; #@! TA.AperFunction,Plated,PTH,ComponentDrill
T2C1.000
; #@! TA.AperFunction,Plated,PTH,ComponentDrill
T3C1.050
; #@! TA.AperFunction,Plated,PTH,ComponentDrill
T4C1.250
; #@! TA.AperFunction,Plated,PTH,ComponentDrill
T5C1.500
; #@! TA.AperFunction,Plated,PTH,ComponentDrill
T6C1.550
; #@! TA.AperFunction,Plated,PTH,ComponentDrill
T7C3.200
%
G90
G05
T1
X38.5Y-87.5
X38.5Y-88.5
X38.5Y-89.5
X38.5Y-90.5
X38.5Y-91.5
T2
X47.719Y-88.298
X47.719Y-90.838
X47.719Y-93.378
X47.719Y-95.918
X47.719Y-98.458
X47.719Y-100.998
X47.719Y-103.538
X62.969Y-88.298
X62.969Y-90.838
X62.969Y-93.378
X62.969Y-95.918
X62.969Y-98.458
X62.969Y-100.998
X62.969Y-103.538
T3
X25.25Y-97.02
X27.75Y-97.02
X30.25Y-97.02
X36.48Y-103.25
X36.48Y-105.75
X36.48Y-108.25
T4
X24.5Y-111.5
X24.5Y-116.0
X31.0Y-111.5
X31.0Y-116.0
T5
X51.15Y-116.04
X57.5Y-113.5
X74.11Y-94.46
X74.15Y-115.96
X80.46Y-91.92
X80.5Y-113.42
T6
X21.425Y-100.75
X21.425Y-110.75
X34.075Y-100.75
X34.075Y-110.75
T7
X8.0Y-81.5
X8.0Y-134.5
X93.5Y-81.5
X93.5Y-134.5
M30
