%TF.GenerationSoftware,KiCad,Pcbnew,10.0.5*%
%TF.CreationDate,2026-08-30T10:22:25+02:00*%
%TF.ProjectId,HackpadCADController,4861636b-7061-4644-9341-44436f6e7472,rev?*%
%TF.SameCoordinates,Original*%
%TF.FileFunction,Copper,L2,Bot*%
%TF.FilePolarity,Positive*%
%FSLAX46Y46*%
G04 Gerber Fmt 4.6, Leading zero omitted, Abs format (unit mm)*
G04 Created by KiCad (PCBNEW 10.0.5) date 2026-08-30 10:22:25*
%MOMM*%
%LPD*%
G01*
G04 APERTURE LIST*
%TA.AperFunction,NonConductor*%
%ADD10C,0.200000*%
%TD*%
%TA.AperFunction,ComponentPad*%
%ADD11C,3.600000*%
%TD*%
%TA.AperFunction,ConnectorPad*%
%ADD12C,5.600000*%
%TD*%
%TA.AperFunction,ComponentPad*%
%ADD13C,2.200000*%
%TD*%
%TA.AperFunction,ComponentPad*%
%ADD14R,3.500000X1.700000*%
%TD*%
%TA.AperFunction,ComponentPad*%
%ADD15O,3.600000X1.700000*%
%TD*%
%TA.AperFunction,ComponentPad*%
%ADD16O,3.700000X1.700000*%
%TD*%
%TA.AperFunction,ComponentPad*%
%ADD17C,2.050000*%
%TD*%
%TA.AperFunction,ComponentPad*%
%ADD18C,2.550000*%
%TD*%
%TA.AperFunction,ComponentPad*%
%ADD19C,2.250000*%
%TD*%
%TA.AperFunction,ComponentPad*%
%ADD20R,0.850000X0.850000*%
%TD*%
%TA.AperFunction,ComponentPad*%
%ADD21C,0.850000*%
%TD*%
%TA.AperFunction,Conductor*%
%ADD22C,0.200000*%
%TD*%
G04 APERTURE END LIST*
D10*
X8000000Y-81500000D02*
X8000000Y-133000000D01*
X8000000Y-81500000D02*
X93500000Y-81500000D01*
X8000000Y-134500000D02*
X8000000Y-81500000D01*
X93500000Y-81500000D02*
X93500000Y-134500000D01*
X93500000Y-134500000D02*
X8000000Y-134500000D01*
D11*
%TO.P,REF\u002A\u002A,1*%
%TO.N,N/C*%
X8000000Y-134500000D03*
D12*
X8000000Y-134500000D03*
%TD*%
D11*
%TO.P,REF\u002A\u002A,1*%
%TO.N,N/C*%
X93500000Y-81500000D03*
D12*
X93500000Y-81500000D03*
%TD*%
D13*
%TO.P,SW1,1,1_1*%
%TO.N,Net-(U1-PA6_A10_D10_MOSI)*%
X80460000Y-91920000D03*
%TO.P,SW1,2,2_2*%
%TO.N,GND*%
X74110000Y-94460000D03*
%TD*%
D14*
%TO.P,U1,1,PA02_A0_D0_1*%
%TO.N,Net-(SW5-V)*%
X46719000Y-88297530D03*
D15*
%TO.P,U1,2,PA4_A1_D1_2*%
%TO.N,Net-(SW5-H)*%
X46719000Y-90837530D03*
%TO.P,U1,3,PA10_A2_D2_3*%
%TO.N,Net-(U1-PA10_A2_D2)*%
X46719000Y-93377530D03*
%TO.P,U1,4,PA11_A3_D3_4*%
%TO.N,unconnected-(U1-PA11_A3_D3-Pad4)*%
X46719000Y-95917530D03*
%TO.P,U1,5,PA8_A4_D4_SDA_5*%
%TO.N,Net-(J1-Pin_5)*%
X46719000Y-98457530D03*
%TO.P,U1,6,PA9_A5_D5_SCL_6*%
%TO.N,Net-(J1-Pin_4)*%
X46719000Y-100997530D03*
%TO.P,U1,7,PB08_A6_D6_TX_7*%
%TO.N,Net-(J1-Pin_3)*%
X46719000Y-103537530D03*
%TO.P,U1,8,PB09_A7_D7_RX_8*%
%TO.N,unconnected-(U1-PB09_A7_D7_RX-Pad8)*%
X63969000Y-103537530D03*
%TO.P,U1,9,PA7_A8_D8_SCK_9*%
%TO.N,Net-(U1-PA7_A8_D8_SCK)*%
X63969000Y-100997530D03*
%TO.P,U1,10,PA5_A9_D9_MISO_10*%
%TO.N,Net-(U1-PA5_A9_D9_MISO)*%
X63969000Y-98457530D03*
D16*
%TO.P,U1,11,PA6_A10_D10_MOSI_11*%
%TO.N,Net-(U1-PA6_A10_D10_MOSI)*%
X63969000Y-95917530D03*
%TO.P,U1,12,3V3_12*%
%TO.N,unconnected-(U1-3V3-Pad12)*%
X63969000Y-93377530D03*
%TO.P,U1,13,GND_13*%
%TO.N,GND*%
X63969000Y-90837530D03*
%TO.P,U1,14,5V_14*%
%TO.N,Net-(J1-Pin_1)*%
X63969000Y-88297530D03*
%TD*%
D11*
%TO.P,REF\u002A\u002A,1*%
%TO.N,N/C*%
X8000000Y-81500000D03*
D12*
X8000000Y-81500000D03*
%TD*%
D11*
%TO.P,REF\u002A\u002A,1*%
%TO.N,N/C*%
X93500000Y-134500000D03*
D12*
X93500000Y-134500000D03*
%TD*%
D13*
%TO.P,SW2,1,1_1*%
%TO.N,Net-(U1-PA5_A9_D9_MISO)*%
X80500000Y-113420000D03*
%TO.P,SW2,2,2_2*%
%TO.N,GND*%
X74150000Y-115960000D03*
%TD*%
D17*
%TO.P,SW5,1,H-_1*%
%TO.N,GND*%
X30250000Y-97020000D03*
%TO.P,SW5,1',V-_1'*%
X36480000Y-108250000D03*
%TO.P,SW5,2,H_2*%
%TO.N,Net-(SW5-H)*%
X27750000Y-97020000D03*
%TO.P,SW5,2',V_2'*%
%TO.N,Net-(SW5-V)*%
X36480000Y-105750000D03*
%TO.P,SW5,3,H+_3*%
%TO.N,Net-(J1-Pin_1)*%
X25250000Y-97020000D03*
%TO.P,SW5,3',V+_3'*%
X36480000Y-103250000D03*
D18*
%TO.P,SW5,SH,SH_SH*%
%TO.N,unconnected-(SW5-PadSH)*%
X21425000Y-100750000D03*
X21425000Y-110750000D03*
X34075000Y-100750000D03*
X34075000Y-110750000D03*
D19*
%TO.P,SW5,a,BTN_a*%
%TO.N,Net-(U1-PA10_A2_D2)*%
X24500000Y-111500000D03*
%TO.P,SW5,b,BTN_b*%
X31000000Y-111500000D03*
%TO.P,SW5,c,BTN_c*%
%TO.N,GND*%
X24500000Y-116000000D03*
%TO.P,SW5,d,BTN_d*%
X31000000Y-116000000D03*
%TD*%
D20*
%TO.P,J1,1,Pin_1_1*%
%TO.N,Net-(J1-Pin_1)*%
X38500000Y-87500000D03*
D21*
%TO.P,J1,2,Pin_2_2*%
%TO.N,GND*%
X38500000Y-88500000D03*
%TO.P,J1,3,Pin_3_3*%
%TO.N,Net-(J1-Pin_3)*%
X38500000Y-89500000D03*
%TO.P,J1,4,Pin_4_4*%
%TO.N,Net-(J1-Pin_4)*%
X38500000Y-90500000D03*
%TO.P,J1,5,Pin_5_5*%
%TO.N,Net-(J1-Pin_5)*%
X38500000Y-91500000D03*
%TD*%
D13*
%TO.P,SW3,1,1_1*%
%TO.N,Net-(U1-PA7_A8_D8_SCK)*%
X57500000Y-113500000D03*
%TO.P,SW3,2,2_2*%
%TO.N,GND*%
X51150000Y-116040000D03*
%TD*%
%TO.N,GND*%
D22*
X30500000Y-90000000D02*
X30250000Y-90250000D01*
X30250000Y-90250000D02*
X30250000Y-97020000D01*
X30250000Y-102020000D02*
X36480000Y-108250000D01*
X30500000Y-88500000D02*
X30500000Y-90000000D01*
X29575000Y-114575000D02*
X31000000Y-116000000D01*
X38500000Y-88500000D02*
X30500000Y-88500000D01*
X74110000Y-115920000D02*
X74150000Y-115960000D01*
X62969000Y-90837530D02*
X61806530Y-92000000D01*
X30250000Y-97020000D02*
X30250000Y-102000000D01*
X29575000Y-102675000D02*
X29575000Y-114575000D01*
X42601040Y-92000000D02*
X39101040Y-88500000D01*
X74150000Y-115960000D02*
X51230000Y-115960000D01*
X30250000Y-102000000D02*
X30250000Y-102020000D01*
X74110000Y-94460000D02*
X74110000Y-115920000D01*
X29575000Y-114575000D02*
X25925000Y-114575000D01*
X25925000Y-114575000D02*
X24500000Y-116000000D01*
X62969000Y-90837530D02*
X70487530Y-90837530D01*
X51230000Y-115960000D02*
X51150000Y-116040000D01*
X61806530Y-92000000D02*
X42601040Y-92000000D01*
X39101040Y-88500000D02*
X38500000Y-88500000D01*
X30250000Y-102000000D02*
X29575000Y-102675000D01*
X70487530Y-90837530D02*
X74110000Y-94460000D01*
%TO.N,Net-(J1-Pin_5)*%
X47719000Y-98457530D02*
X45457530Y-98457530D01*
X45457530Y-98457530D02*
X38500000Y-91500000D01*
%TO.N,Net-(J1-Pin_4)*%
X44708340Y-100997530D02*
X36500000Y-92789190D01*
X36500000Y-92789190D02*
X36500000Y-90500000D01*
X36500000Y-90500000D02*
X38500000Y-90500000D01*
X47719000Y-100997530D02*
X44708340Y-100997530D01*
%TO.N,Net-(J1-Pin_3)*%
X34500000Y-91354876D02*
X34500000Y-89500000D01*
X46682654Y-103537530D02*
X34500000Y-91354876D01*
X34500000Y-89500000D02*
X38500000Y-89500000D01*
X47719000Y-103537530D02*
X46682654Y-103537530D01*
%TO.N,Net-(J1-Pin_1)*%
X38852470Y-87147530D02*
X38500000Y-87500000D01*
X62969000Y-88297530D02*
X61819000Y-87147530D01*
X61819000Y-87147530D02*
X38852470Y-87147530D01*
%TD*%
M02*
