%TF.GenerationSoftware,KiCad,Pcbnew,10.0.5*%
%TF.CreationDate,2026-08-30T10:22:26+02:00*%
%TF.ProjectId,HackpadCADController,4861636b-7061-4644-9341-44436f6e7472,rev?*%
%TF.SameCoordinates,Original*%
%TF.FileFunction,Legend,Top*%
%TF.FilePolarity,Positive*%
%FSLAX46Y46*%
G04 Gerber Fmt 4.6, Leading zero omitted, Abs format (unit mm)*
G04 Created by KiCad (PCBNEW 10.0.5) date 2026-08-30 10:22:26*
%MOMM*%
%LPD*%
G01*
G04 APERTURE LIST*
%ADD10C,0.100000*%
%ADD11C,0.101600*%
%ADD12C,0.150000*%
%ADD13C,0.120000*%
%ADD14C,0.127000*%
%ADD15C,0.254000*%
%ADD16C,0.025400*%
%ADD17C,0.000000*%
%ADD18C,0.200000*%
G04 APERTURE END LIST*
D10*
G36*
X19399773Y-126638473D02*
G01*
X19305434Y-126846751D01*
X19085429Y-126949459D01*
X18852338Y-127023332D01*
X18604075Y-127068409D01*
X18338232Y-127083789D01*
X18023862Y-127065336D01*
X17753374Y-127013155D01*
X17520435Y-126930825D01*
X17319660Y-126820226D01*
X17146828Y-126681440D01*
X16999094Y-126512754D01*
X16875157Y-126310760D01*
X16774141Y-126066712D01*
X16713315Y-125809480D01*
X16692707Y-125535717D01*
X16711977Y-125267436D01*
X16767351Y-125030183D01*
X16856709Y-124819045D01*
X16980050Y-124630097D01*
X17139488Y-124460621D01*
X17327221Y-124317215D01*
X17541545Y-124203390D01*
X17786314Y-124119113D01*
X18066398Y-124066026D01*
X18387508Y-124047362D01*
X18719192Y-124066836D01*
X19045711Y-124125218D01*
X19369181Y-124223217D01*
X19395743Y-124253625D01*
X19340938Y-124544836D01*
X19309647Y-124906486D01*
X19291146Y-124926636D01*
X19170245Y-124926636D01*
X19149729Y-124904105D01*
X19127198Y-124559356D01*
X18990024Y-124436377D01*
X18825131Y-124346785D01*
X18626839Y-124290261D01*
X18387325Y-124270111D01*
X18142583Y-124291754D01*
X17935272Y-124353169D01*
X17758286Y-124451875D01*
X17606603Y-124589214D01*
X17487114Y-124755555D01*
X17399130Y-124951372D01*
X17343508Y-125182303D01*
X17323770Y-125455483D01*
X17339228Y-125703995D01*
X17383555Y-125924169D01*
X17454649Y-126120005D01*
X17551757Y-126294860D01*
X17675509Y-126451311D01*
X17827887Y-126591029D01*
X17966306Y-126679815D01*
X18129167Y-126745717D01*
X18320978Y-126787557D01*
X18547243Y-126802421D01*
X18815375Y-126779497D01*
X19081324Y-126710094D01*
X19348482Y-126591395D01*
X19399773Y-126638473D01*
G37*
G36*
X20950877Y-124988584D02*
G01*
X21135172Y-125030482D01*
X21287070Y-125095729D01*
X21411996Y-125182864D01*
X21513767Y-125292577D01*
X21594295Y-125427639D01*
X21648787Y-125576380D01*
X21684010Y-125756555D01*
X21696693Y-125974255D01*
X21680538Y-126223471D01*
X21635450Y-126430731D01*
X21565125Y-126602972D01*
X21471254Y-126745888D01*
X21353404Y-126863626D01*
X21209063Y-126958492D01*
X21046322Y-127027042D01*
X20866376Y-127069212D01*
X20665928Y-127083789D01*
X20431934Y-127064605D01*
X20239059Y-127010937D01*
X20079544Y-126926217D01*
X19947670Y-126810481D01*
X19844750Y-126668105D01*
X19767846Y-126494670D01*
X19718487Y-126283810D01*
X19700741Y-126027561D01*
X19707169Y-125930291D01*
X20268422Y-125930291D01*
X20288198Y-126281667D01*
X20339054Y-126525734D01*
X20410948Y-126689090D01*
X20498309Y-126793151D01*
X20601155Y-126852511D01*
X20725279Y-126872763D01*
X20855159Y-126853076D01*
X20954987Y-126797427D01*
X21032317Y-126703505D01*
X21087979Y-126559888D01*
X21117644Y-126385248D01*
X21129012Y-126144980D01*
X21113158Y-125802517D01*
X21072905Y-125568770D01*
X21017271Y-125416099D01*
X20951653Y-125317073D01*
X20874517Y-125250144D01*
X20784110Y-125210166D01*
X20676186Y-125196280D01*
X20561352Y-125213334D01*
X20468077Y-125262456D01*
X20390792Y-125346365D01*
X20328551Y-125474800D01*
X20285161Y-125662993D01*
X20268422Y-125930291D01*
X19707169Y-125930291D01*
X19716695Y-125786141D01*
X19761106Y-125586737D01*
X19830225Y-125422225D01*
X19922397Y-125286800D01*
X20038185Y-125176309D01*
X20180312Y-125088569D01*
X20341141Y-125026041D01*
X20522337Y-124987110D01*
X20727477Y-124973531D01*
X20950877Y-124988584D01*
G37*
G36*
X25501203Y-126977360D02*
G01*
X25480687Y-126999708D01*
X25058452Y-126990000D01*
X24699965Y-126999708D01*
X24671205Y-126960507D01*
X24703995Y-126213307D01*
X24703995Y-126025912D01*
X24698108Y-125748054D01*
X24685493Y-125620347D01*
X24647702Y-125507475D01*
X24583094Y-125422876D01*
X24492101Y-125368367D01*
X24365840Y-125348688D01*
X24266582Y-125358889D01*
X24182200Y-125388060D01*
X24109569Y-125435699D01*
X24052331Y-125499444D01*
X24018695Y-125572047D01*
X24007170Y-125656617D01*
X24007170Y-126270826D01*
X24015413Y-126596524D01*
X24024652Y-126717049D01*
X24037944Y-126769631D01*
X24056367Y-126791681D01*
X24093265Y-126808832D01*
X24292018Y-126835577D01*
X24314549Y-126855910D01*
X24314549Y-126977360D01*
X24290003Y-126999708D01*
X23787901Y-126990000D01*
X23246964Y-126999708D01*
X23224433Y-126977360D01*
X23224433Y-126857925D01*
X23244949Y-126833562D01*
X23423185Y-126810847D01*
X23453438Y-126792958D01*
X23476491Y-126749115D01*
X23490779Y-126520504D01*
X23494809Y-125855369D01*
X23484251Y-125641273D01*
X23460005Y-125525825D01*
X23419474Y-125455390D01*
X23351378Y-125396132D01*
X23272176Y-125361512D01*
X23162883Y-125348688D01*
X23045450Y-125363099D01*
X22949417Y-125404066D01*
X22869792Y-125471603D01*
X22826240Y-125527914D01*
X22809342Y-125564110D01*
X22800183Y-125718532D01*
X22800183Y-126165680D01*
X22808426Y-126507864D01*
X22824729Y-126759373D01*
X22846803Y-126794609D01*
X22893422Y-126818175D01*
X23064515Y-126835577D01*
X23085031Y-126855910D01*
X23085031Y-126979375D01*
X23064515Y-126999708D01*
X22543911Y-126990000D01*
X21984473Y-127001723D01*
X21963956Y-126981390D01*
X21963956Y-126857925D01*
X21984473Y-126837592D01*
X22162709Y-126824149D01*
X22228288Y-126806817D01*
X22258200Y-126777032D01*
X22273534Y-126708632D01*
X22287822Y-126138019D01*
X22287822Y-125845478D01*
X22276499Y-125477005D01*
X22257048Y-125374883D01*
X22227154Y-125343112D01*
X22168937Y-125323775D01*
X21990701Y-125313517D01*
X21970184Y-125292267D01*
X21970184Y-125172833D01*
X21990701Y-125149385D01*
X22234606Y-125114978D01*
X22493005Y-125057010D01*
X22767393Y-124973531D01*
X22812456Y-125000275D01*
X22808243Y-125328171D01*
X23173142Y-125030683D01*
X23279434Y-124997252D01*
X23410729Y-124985254D01*
X23566865Y-124995289D01*
X23686694Y-125022283D01*
X23777643Y-125062740D01*
X23855447Y-125123300D01*
X23925844Y-125211621D01*
X23988668Y-125334216D01*
X24361627Y-125032515D01*
X24468800Y-124997863D01*
X24605626Y-124985254D01*
X24798061Y-125005444D01*
X24947951Y-125061187D01*
X25064998Y-125149518D01*
X25154806Y-125273400D01*
X25189146Y-125361749D01*
X25213164Y-125488295D01*
X25222400Y-125664494D01*
X25220385Y-125826976D01*
X25218370Y-125905195D01*
X25214340Y-126037086D01*
X25214340Y-126304532D01*
X25224598Y-126700755D01*
X25243783Y-126775427D01*
X25271676Y-126808832D01*
X25325372Y-126824424D01*
X25480687Y-126835577D01*
X25501203Y-126857925D01*
X25501203Y-126977360D01*
G37*
G36*
X29235188Y-126977360D02*
G01*
X29214672Y-126999708D01*
X28792437Y-126990000D01*
X28433949Y-126999708D01*
X28405190Y-126960507D01*
X28437979Y-126213307D01*
X28437979Y-126025912D01*
X28432093Y-125748054D01*
X28419478Y-125620347D01*
X28381687Y-125507475D01*
X28317079Y-125422876D01*
X28226086Y-125368367D01*
X28099825Y-125348688D01*
X28000567Y-125358889D01*
X27916184Y-125388060D01*
X27843553Y-125435699D01*
X27786316Y-125499444D01*
X27752680Y-125572047D01*
X27741154Y-125656617D01*
X27741154Y-126270826D01*
X27749398Y-126596524D01*
X27758637Y-126717049D01*
X27771929Y-126769631D01*
X27790352Y-126791681D01*
X27827250Y-126808832D01*
X28026003Y-126835577D01*
X28048534Y-126855910D01*
X28048534Y-126977360D01*
X28023988Y-126999708D01*
X27521885Y-126990000D01*
X26980949Y-126999708D01*
X26958417Y-126977360D01*
X26958417Y-126857925D01*
X26978934Y-126833562D01*
X27157170Y-126810847D01*
X27187423Y-126792958D01*
X27210476Y-126749115D01*
X27224764Y-126520504D01*
X27228794Y-125855369D01*
X27218235Y-125641273D01*
X27193989Y-125525825D01*
X27153459Y-125455390D01*
X27085362Y-125396132D01*
X27006160Y-125361512D01*
X26896868Y-125348688D01*
X26779435Y-125363099D01*
X26683402Y-125404066D01*
X26603777Y-125471603D01*
X26560225Y-125527914D01*
X26543326Y-125564110D01*
X26534167Y-125718532D01*
X26534167Y-126165680D01*
X26542411Y-126507864D01*
X26558714Y-126759373D01*
X26580788Y-126794609D01*
X26627407Y-126818175D01*
X26798499Y-126835577D01*
X26819016Y-126855910D01*
X26819016Y-126979375D01*
X26798499Y-126999708D01*
X26277896Y-126990000D01*
X25718457Y-127001723D01*
X25697941Y-126981390D01*
X25697941Y-126857925D01*
X25718457Y-126837592D01*
X25896693Y-126824149D01*
X25962273Y-126806817D01*
X25992185Y-126777032D01*
X26007519Y-126708632D01*
X26021807Y-126138019D01*
X26021807Y-125845478D01*
X26010483Y-125477005D01*
X25991032Y-125374883D01*
X25961138Y-125343112D01*
X25902922Y-125323775D01*
X25724685Y-125313517D01*
X25704169Y-125292267D01*
X25704169Y-125172833D01*
X25724685Y-125149385D01*
X25968591Y-125114978D01*
X26226990Y-125057010D01*
X26501378Y-124973531D01*
X26546441Y-125000275D01*
X26542227Y-125328171D01*
X26907126Y-125030683D01*
X27013419Y-124997252D01*
X27144713Y-124985254D01*
X27300850Y-124995289D01*
X27420678Y-125022283D01*
X27511627Y-125062740D01*
X27589432Y-125123300D01*
X27659829Y-125211621D01*
X27722653Y-125334216D01*
X28095612Y-125032515D01*
X28202785Y-124997863D01*
X28339610Y-124985254D01*
X28532045Y-125005444D01*
X28681935Y-125061187D01*
X28798982Y-125149518D01*
X28888790Y-125273400D01*
X28923130Y-125361749D01*
X28947148Y-125488295D01*
X28956385Y-125664494D01*
X28954370Y-125826976D01*
X28952355Y-125905195D01*
X28948325Y-126037086D01*
X28948325Y-126304532D01*
X28958583Y-126700755D01*
X28977767Y-126775427D01*
X29005661Y-126808832D01*
X29059356Y-126824424D01*
X29214672Y-126835577D01*
X29235188Y-126857925D01*
X29235188Y-126977360D01*
G37*
G36*
X30329518Y-124306381D02*
G01*
X30319158Y-124389425D01*
X30288751Y-124462894D01*
X30237194Y-124529314D01*
X30171126Y-124581031D01*
X30098260Y-124611467D01*
X30016093Y-124621821D01*
X29932468Y-124611411D01*
X29858837Y-124580918D01*
X29792611Y-124529314D01*
X29741165Y-124462907D01*
X29710813Y-124389437D01*
X29700471Y-124306381D01*
X29711054Y-124220646D01*
X29741868Y-124146230D01*
X29793710Y-124080334D01*
X29860397Y-124029139D01*
X29933709Y-123998993D01*
X30016093Y-123988743D01*
X30097026Y-123998933D01*
X30169635Y-124029020D01*
X30236278Y-124080334D01*
X30288120Y-124146230D01*
X30318934Y-124220646D01*
X30329518Y-124306381D01*
G37*
G36*
X30612351Y-126981390D02*
G01*
X30591835Y-127001723D01*
X30030382Y-126990000D01*
X29470943Y-127001723D01*
X29450427Y-126981390D01*
X29450427Y-126857925D01*
X29470943Y-126837592D01*
X29649179Y-126824149D01*
X29714759Y-126806817D01*
X29744671Y-126777032D01*
X29760005Y-126708632D01*
X29774293Y-126138019D01*
X29774293Y-125845478D01*
X29763349Y-125487021D01*
X29743518Y-125374883D01*
X29716363Y-125343512D01*
X29655408Y-125323775D01*
X29476988Y-125313517D01*
X29456472Y-125292267D01*
X29456472Y-125172833D01*
X29476988Y-125149385D01*
X29737187Y-125114308D01*
X30001275Y-125056012D01*
X30270167Y-124973531D01*
X30313215Y-125000275D01*
X30286470Y-125632620D01*
X30286470Y-126289694D01*
X30300758Y-126707899D01*
X30316059Y-126776682D01*
X30345821Y-126806634D01*
X30411572Y-126824095D01*
X30589820Y-126837592D01*
X30612351Y-126857925D01*
X30612351Y-126981390D01*
G37*
G36*
X32090010Y-125023474D02*
G01*
X32241827Y-125065001D01*
X32369006Y-125130839D01*
X32475680Y-125221010D01*
X32561303Y-125335241D01*
X32625094Y-125474410D01*
X32665971Y-125643661D01*
X32680661Y-125849508D01*
X32678646Y-125954654D01*
X32656114Y-125983414D01*
X32473825Y-126021903D01*
X32238244Y-126047944D01*
X31938773Y-126057602D01*
X31696789Y-126060717D01*
X31452974Y-126063831D01*
X31480354Y-126256257D01*
X31542773Y-126418976D01*
X31639453Y-126557873D01*
X31737704Y-126649558D01*
X31847886Y-126714164D01*
X31972439Y-126753580D01*
X32114994Y-126767250D01*
X32243362Y-126753866D01*
X32397083Y-126709588D01*
X32582109Y-126626566D01*
X32631385Y-126686650D01*
X32541259Y-126891448D01*
X32334882Y-126998770D01*
X32119551Y-127062398D01*
X31891512Y-127083789D01*
X31662404Y-127065657D01*
X31470923Y-127014687D01*
X31310257Y-126933962D01*
X31175270Y-126823670D01*
X31067942Y-126686804D01*
X30988639Y-126521707D01*
X30938158Y-126322633D01*
X30920097Y-126082149D01*
X30933940Y-125842863D01*
X30945660Y-125783928D01*
X31438686Y-125783928D01*
X31438686Y-125829357D01*
X31580584Y-125845554D01*
X31860921Y-125852805D01*
X32143754Y-125834120D01*
X32145769Y-125792538D01*
X32126631Y-125559182D01*
X32077929Y-125405006D01*
X32008116Y-125307342D01*
X31918192Y-125251090D01*
X31801386Y-125231451D01*
X31676376Y-125251495D01*
X31581270Y-125308320D01*
X31508488Y-125405517D01*
X31458289Y-125556906D01*
X31438686Y-125783928D01*
X30945660Y-125783928D01*
X30971658Y-125653195D01*
X31028758Y-125504154D01*
X31102607Y-125388197D01*
X31192672Y-125299595D01*
X31392376Y-125164371D01*
X31576074Y-125075062D01*
X31746854Y-125024777D01*
X31907998Y-125008702D01*
X32090010Y-125023474D01*
G37*
G36*
X35727896Y-126638473D02*
G01*
X35633557Y-126846751D01*
X35413551Y-126949459D01*
X35180461Y-127023332D01*
X34932198Y-127068409D01*
X34666355Y-127083789D01*
X34351985Y-127065336D01*
X34081497Y-127013155D01*
X33848558Y-126930825D01*
X33647783Y-126820226D01*
X33474951Y-126681440D01*
X33327217Y-126512754D01*
X33203279Y-126310760D01*
X33102264Y-126066712D01*
X33041438Y-125809480D01*
X33020830Y-125535717D01*
X33040100Y-125267436D01*
X33095474Y-125030183D01*
X33184832Y-124819045D01*
X33308173Y-124630097D01*
X33467611Y-124460621D01*
X33655344Y-124317215D01*
X33869668Y-124203390D01*
X34114436Y-124119113D01*
X34394521Y-124066026D01*
X34715631Y-124047362D01*
X35047315Y-124066836D01*
X35373834Y-124125218D01*
X35697304Y-124223217D01*
X35723866Y-124253625D01*
X35669061Y-124544836D01*
X35637770Y-124906486D01*
X35619269Y-124926636D01*
X35498368Y-124926636D01*
X35477852Y-124904105D01*
X35455321Y-124559356D01*
X35318147Y-124436377D01*
X35153254Y-124346785D01*
X34954962Y-124290261D01*
X34715448Y-124270111D01*
X34470705Y-124291754D01*
X34263395Y-124353169D01*
X34086408Y-124451875D01*
X33934726Y-124589214D01*
X33815237Y-124755555D01*
X33727252Y-124951372D01*
X33671631Y-125182303D01*
X33651892Y-125455483D01*
X33667350Y-125703995D01*
X33711678Y-125924169D01*
X33782772Y-126120005D01*
X33879879Y-126294860D01*
X34003632Y-126451311D01*
X34156010Y-126591029D01*
X34294429Y-126679815D01*
X34457290Y-126745717D01*
X34649101Y-126787557D01*
X34875366Y-126802421D01*
X35143498Y-126779497D01*
X35409446Y-126710094D01*
X35676605Y-126591395D01*
X35727896Y-126638473D01*
G37*
G36*
X37119407Y-125012683D02*
G01*
X37277237Y-125055409D01*
X37399119Y-125120769D01*
X37492123Y-125207637D01*
X37557062Y-125317228D01*
X37600616Y-125469565D01*
X37617053Y-125678049D01*
X37610825Y-125927543D01*
X37600566Y-126310027D01*
X37610825Y-126703686D01*
X37630252Y-126777693D01*
X37659002Y-126811031D01*
X37710236Y-126826831D01*
X37840352Y-126837592D01*
X37860868Y-126860673D01*
X37860868Y-126978642D01*
X37838337Y-127001723D01*
X37442847Y-126990000D01*
X37108906Y-127001723D01*
X37090404Y-126978459D01*
X37108722Y-126695443D01*
X36711217Y-127001174D01*
X36657352Y-127028294D01*
X36575846Y-127044405D01*
X36493963Y-127048618D01*
X36348343Y-127031989D01*
X36234293Y-126985746D01*
X36144452Y-126911414D01*
X36079116Y-126813208D01*
X36037640Y-126689250D01*
X36022636Y-126532411D01*
X36034060Y-126408579D01*
X36534996Y-126408579D01*
X36552635Y-126537365D01*
X36598500Y-126618867D01*
X36670701Y-126667346D01*
X36778811Y-126685184D01*
X36906602Y-126664242D01*
X37014757Y-126602431D01*
X37108722Y-126493942D01*
X37108722Y-125993489D01*
X36800655Y-126078483D01*
X36652782Y-126151209D01*
X36588550Y-126215604D01*
X36549158Y-126299296D01*
X36534996Y-126408579D01*
X36034060Y-126408579D01*
X36037197Y-126374570D01*
X36077219Y-126251063D01*
X36139741Y-126154447D01*
X36225418Y-126079767D01*
X36383108Y-126000560D01*
X36660825Y-125912399D01*
X37108722Y-125817634D01*
X37095410Y-125653053D01*
X37059944Y-125531711D01*
X37006702Y-125443479D01*
X36936531Y-125381111D01*
X36824313Y-125331087D01*
X36686671Y-125313517D01*
X36538023Y-125331380D01*
X36434612Y-125378913D01*
X36356760Y-125568872D01*
X36330015Y-125583161D01*
X36225418Y-125558797D01*
X36211130Y-125530404D01*
X36221388Y-125291168D01*
X36456852Y-125132496D01*
X36620016Y-125046811D01*
X36729719Y-125011266D01*
X36916198Y-124996978D01*
X37119407Y-125012683D01*
G37*
G36*
X40145882Y-123966212D02*
G01*
X40137639Y-124167712D01*
X40124706Y-124660487D01*
X40119321Y-125482227D01*
X40119321Y-126139668D01*
X40129741Y-126653909D01*
X40145882Y-126768349D01*
X40166184Y-126797073D01*
X40191128Y-126811214D01*
X40395926Y-126837592D01*
X40416442Y-126859757D01*
X40416442Y-126979558D01*
X40395926Y-127001723D01*
X40033225Y-126990000D01*
X39617219Y-127001723D01*
X39598717Y-126986885D01*
X39606960Y-126640671D01*
X39395751Y-126829349D01*
X39174467Y-127017843D01*
X39098245Y-127039410D01*
X38961427Y-127048618D01*
X38791656Y-127031552D01*
X38643515Y-126982276D01*
X38512463Y-126901187D01*
X38395577Y-126785385D01*
X38304113Y-126648857D01*
X38237191Y-126492248D01*
X38195262Y-126311937D01*
X38180521Y-126103398D01*
X38191530Y-125915453D01*
X38717611Y-125915453D01*
X38732311Y-126129063D01*
X38772641Y-126299540D01*
X38834548Y-126435009D01*
X38916364Y-126541936D01*
X38992115Y-126600941D01*
X39084088Y-126637183D01*
X39196999Y-126650013D01*
X39336264Y-126627441D01*
X39467559Y-126558239D01*
X39560492Y-126469194D01*
X39600732Y-126382751D01*
X39606960Y-125907210D01*
X39606960Y-125523627D01*
X39501894Y-125413261D01*
X39408362Y-125341174D01*
X39324127Y-125299228D01*
X39229682Y-125274908D01*
X39127390Y-125266622D01*
X38996847Y-125285286D01*
X38896610Y-125337710D01*
X38819098Y-125425010D01*
X38762674Y-125556416D01*
X38729359Y-125722976D01*
X38717611Y-125915453D01*
X38191530Y-125915453D01*
X38192593Y-125897314D01*
X38226121Y-125726832D01*
X38277998Y-125586185D01*
X38346484Y-125470504D01*
X38412923Y-125404085D01*
X38600741Y-125260394D01*
X38832945Y-125104885D01*
X38959412Y-125037827D01*
X39065314Y-125008156D01*
X39209272Y-124996978D01*
X39349313Y-125007153D01*
X39481345Y-125037206D01*
X39606960Y-125087103D01*
X39606960Y-124975546D01*
X39597441Y-124502111D01*
X39580399Y-124357489D01*
X39553760Y-124316981D01*
X39496318Y-124293742D01*
X39307824Y-124281835D01*
X39287308Y-124258387D01*
X39287308Y-124141151D01*
X39307824Y-124117704D01*
X39699805Y-124053248D01*
X40100819Y-123941849D01*
X40145882Y-123966212D01*
G37*
D11*
X54666666Y-97974515D02*
X54666666Y-98694182D01*
X54666666Y-98694182D02*
X54709000Y-98778848D01*
X54709000Y-98778848D02*
X54751333Y-98821182D01*
X54751333Y-98821182D02*
X54836000Y-98863515D01*
X54836000Y-98863515D02*
X55005333Y-98863515D01*
X55005333Y-98863515D02*
X55090000Y-98821182D01*
X55090000Y-98821182D02*
X55132333Y-98778848D01*
X55132333Y-98778848D02*
X55174666Y-98694182D01*
X55174666Y-98694182D02*
X55174666Y-97974515D01*
X56063666Y-98863515D02*
X55555666Y-98863515D01*
X55809666Y-98863515D02*
X55809666Y-97974515D01*
X55809666Y-97974515D02*
X55724999Y-98101515D01*
X55724999Y-98101515D02*
X55640333Y-98186182D01*
X55640333Y-98186182D02*
X55555666Y-98228515D01*
D12*
X50582095Y-94824730D02*
X50724952Y-94872349D01*
X50724952Y-94872349D02*
X50963047Y-94872349D01*
X50963047Y-94872349D02*
X51058285Y-94824730D01*
X51058285Y-94824730D02*
X51105904Y-94777110D01*
X51105904Y-94777110D02*
X51153523Y-94681872D01*
X51153523Y-94681872D02*
X51153523Y-94586634D01*
X51153523Y-94586634D02*
X51105904Y-94491396D01*
X51105904Y-94491396D02*
X51058285Y-94443777D01*
X51058285Y-94443777D02*
X50963047Y-94396158D01*
X50963047Y-94396158D02*
X50772571Y-94348539D01*
X50772571Y-94348539D02*
X50677333Y-94300920D01*
X50677333Y-94300920D02*
X50629714Y-94253301D01*
X50629714Y-94253301D02*
X50582095Y-94158063D01*
X50582095Y-94158063D02*
X50582095Y-94062825D01*
X50582095Y-94062825D02*
X50629714Y-93967587D01*
X50629714Y-93967587D02*
X50677333Y-93919968D01*
X50677333Y-93919968D02*
X50772571Y-93872349D01*
X50772571Y-93872349D02*
X51010666Y-93872349D01*
X51010666Y-93872349D02*
X51153523Y-93919968D01*
X51963047Y-94824730D02*
X51867809Y-94872349D01*
X51867809Y-94872349D02*
X51677333Y-94872349D01*
X51677333Y-94872349D02*
X51582095Y-94824730D01*
X51582095Y-94824730D02*
X51534476Y-94729491D01*
X51534476Y-94729491D02*
X51534476Y-94348539D01*
X51534476Y-94348539D02*
X51582095Y-94253301D01*
X51582095Y-94253301D02*
X51677333Y-94205682D01*
X51677333Y-94205682D02*
X51867809Y-94205682D01*
X51867809Y-94205682D02*
X51963047Y-94253301D01*
X51963047Y-94253301D02*
X52010666Y-94348539D01*
X52010666Y-94348539D02*
X52010666Y-94443777D01*
X52010666Y-94443777D02*
X51534476Y-94539015D01*
X52820190Y-94824730D02*
X52724952Y-94872349D01*
X52724952Y-94872349D02*
X52534476Y-94872349D01*
X52534476Y-94872349D02*
X52439238Y-94824730D01*
X52439238Y-94824730D02*
X52391619Y-94729491D01*
X52391619Y-94729491D02*
X52391619Y-94348539D01*
X52391619Y-94348539D02*
X52439238Y-94253301D01*
X52439238Y-94253301D02*
X52534476Y-94205682D01*
X52534476Y-94205682D02*
X52724952Y-94205682D01*
X52724952Y-94205682D02*
X52820190Y-94253301D01*
X52820190Y-94253301D02*
X52867809Y-94348539D01*
X52867809Y-94348539D02*
X52867809Y-94443777D01*
X52867809Y-94443777D02*
X52391619Y-94539015D01*
X53677333Y-94824730D02*
X53582095Y-94872349D01*
X53582095Y-94872349D02*
X53391619Y-94872349D01*
X53391619Y-94872349D02*
X53296381Y-94824730D01*
X53296381Y-94824730D02*
X53248762Y-94729491D01*
X53248762Y-94729491D02*
X53248762Y-94348539D01*
X53248762Y-94348539D02*
X53296381Y-94253301D01*
X53296381Y-94253301D02*
X53391619Y-94205682D01*
X53391619Y-94205682D02*
X53582095Y-94205682D01*
X53582095Y-94205682D02*
X53677333Y-94253301D01*
X53677333Y-94253301D02*
X53724952Y-94348539D01*
X53724952Y-94348539D02*
X53724952Y-94443777D01*
X53724952Y-94443777D02*
X53248762Y-94539015D01*
X54582095Y-94872349D02*
X54582095Y-93872349D01*
X54582095Y-94824730D02*
X54486857Y-94872349D01*
X54486857Y-94872349D02*
X54296381Y-94872349D01*
X54296381Y-94872349D02*
X54201143Y-94824730D01*
X54201143Y-94824730D02*
X54153524Y-94777110D01*
X54153524Y-94777110D02*
X54105905Y-94681872D01*
X54105905Y-94681872D02*
X54105905Y-94396158D01*
X54105905Y-94396158D02*
X54153524Y-94300920D01*
X54153524Y-94300920D02*
X54201143Y-94253301D01*
X54201143Y-94253301D02*
X54296381Y-94205682D01*
X54296381Y-94205682D02*
X54486857Y-94205682D01*
X54486857Y-94205682D02*
X54582095Y-94253301D01*
X55772572Y-94824730D02*
X55915429Y-94872349D01*
X55915429Y-94872349D02*
X56153524Y-94872349D01*
X56153524Y-94872349D02*
X56248762Y-94824730D01*
X56248762Y-94824730D02*
X56296381Y-94777110D01*
X56296381Y-94777110D02*
X56344000Y-94681872D01*
X56344000Y-94681872D02*
X56344000Y-94586634D01*
X56344000Y-94586634D02*
X56296381Y-94491396D01*
X56296381Y-94491396D02*
X56248762Y-94443777D01*
X56248762Y-94443777D02*
X56153524Y-94396158D01*
X56153524Y-94396158D02*
X55963048Y-94348539D01*
X55963048Y-94348539D02*
X55867810Y-94300920D01*
X55867810Y-94300920D02*
X55820191Y-94253301D01*
X55820191Y-94253301D02*
X55772572Y-94158063D01*
X55772572Y-94158063D02*
X55772572Y-94062825D01*
X55772572Y-94062825D02*
X55820191Y-93967587D01*
X55820191Y-93967587D02*
X55867810Y-93919968D01*
X55867810Y-93919968D02*
X55963048Y-93872349D01*
X55963048Y-93872349D02*
X56201143Y-93872349D01*
X56201143Y-93872349D02*
X56344000Y-93919968D01*
X56629715Y-94205682D02*
X57010667Y-94205682D01*
X56772572Y-93872349D02*
X56772572Y-94729491D01*
X56772572Y-94729491D02*
X56820191Y-94824730D01*
X56820191Y-94824730D02*
X56915429Y-94872349D01*
X56915429Y-94872349D02*
X57010667Y-94872349D01*
X57772572Y-94205682D02*
X57772572Y-94872349D01*
X57344001Y-94205682D02*
X57344001Y-94729491D01*
X57344001Y-94729491D02*
X57391620Y-94824730D01*
X57391620Y-94824730D02*
X57486858Y-94872349D01*
X57486858Y-94872349D02*
X57629715Y-94872349D01*
X57629715Y-94872349D02*
X57724953Y-94824730D01*
X57724953Y-94824730D02*
X57772572Y-94777110D01*
X58677334Y-94872349D02*
X58677334Y-93872349D01*
X58677334Y-94824730D02*
X58582096Y-94872349D01*
X58582096Y-94872349D02*
X58391620Y-94872349D01*
X58391620Y-94872349D02*
X58296382Y-94824730D01*
X58296382Y-94824730D02*
X58248763Y-94777110D01*
X58248763Y-94777110D02*
X58201144Y-94681872D01*
X58201144Y-94681872D02*
X58201144Y-94396158D01*
X58201144Y-94396158D02*
X58248763Y-94300920D01*
X58248763Y-94300920D02*
X58296382Y-94253301D01*
X58296382Y-94253301D02*
X58391620Y-94205682D01*
X58391620Y-94205682D02*
X58582096Y-94205682D01*
X58582096Y-94205682D02*
X58677334Y-94253301D01*
X59153525Y-94872349D02*
X59153525Y-94205682D01*
X59153525Y-93872349D02*
X59105906Y-93919968D01*
X59105906Y-93919968D02*
X59153525Y-93967587D01*
X59153525Y-93967587D02*
X59201144Y-93919968D01*
X59201144Y-93919968D02*
X59153525Y-93872349D01*
X59153525Y-93872349D02*
X59153525Y-93967587D01*
X59772572Y-94872349D02*
X59677334Y-94824730D01*
X59677334Y-94824730D02*
X59629715Y-94777110D01*
X59629715Y-94777110D02*
X59582096Y-94681872D01*
X59582096Y-94681872D02*
X59582096Y-94396158D01*
X59582096Y-94396158D02*
X59629715Y-94300920D01*
X59629715Y-94300920D02*
X59677334Y-94253301D01*
X59677334Y-94253301D02*
X59772572Y-94205682D01*
X59772572Y-94205682D02*
X59915429Y-94205682D01*
X59915429Y-94205682D02*
X60010667Y-94253301D01*
X60010667Y-94253301D02*
X60058286Y-94300920D01*
X60058286Y-94300920D02*
X60105905Y-94396158D01*
X60105905Y-94396158D02*
X60105905Y-94681872D01*
X60105905Y-94681872D02*
X60058286Y-94777110D01*
X60058286Y-94777110D02*
X60010667Y-94824730D01*
X60010667Y-94824730D02*
X59915429Y-94872349D01*
X59915429Y-94872349D02*
X59772572Y-94872349D01*
X53820191Y-95872349D02*
X54486857Y-96872349D01*
X54486857Y-95872349D02*
X53820191Y-96872349D01*
X54867810Y-96872349D02*
X54867810Y-95872349D01*
X55296381Y-96586634D02*
X55772571Y-96586634D01*
X55201143Y-96872349D02*
X55534476Y-95872349D01*
X55534476Y-95872349D02*
X55867809Y-96872349D01*
X56391619Y-95872349D02*
X56582095Y-95872349D01*
X56582095Y-95872349D02*
X56677333Y-95919968D01*
X56677333Y-95919968D02*
X56772571Y-96015206D01*
X56772571Y-96015206D02*
X56820190Y-96205682D01*
X56820190Y-96205682D02*
X56820190Y-96539015D01*
X56820190Y-96539015D02*
X56772571Y-96729491D01*
X56772571Y-96729491D02*
X56677333Y-96824730D01*
X56677333Y-96824730D02*
X56582095Y-96872349D01*
X56582095Y-96872349D02*
X56391619Y-96872349D01*
X56391619Y-96872349D02*
X56296381Y-96824730D01*
X56296381Y-96824730D02*
X56201143Y-96729491D01*
X56201143Y-96729491D02*
X56153524Y-96539015D01*
X56153524Y-96539015D02*
X56153524Y-96205682D01*
X56153524Y-96205682D02*
X56201143Y-96015206D01*
X56201143Y-96015206D02*
X56296381Y-95919968D01*
X56296381Y-95919968D02*
X56391619Y-95872349D01*
%TO.C,SW1*%
D13*
X70935000Y-90015000D02*
X84905000Y-90015000D01*
X70935000Y-103985000D02*
X70935000Y-90015000D01*
X84905000Y-90015000D02*
X84905000Y-103985000D01*
X84905000Y-103985000D02*
X70935000Y-103985000D01*
%TO.C,U1*%
D14*
X46444000Y-87417530D02*
X46444000Y-104417530D01*
X48444000Y-106417530D02*
X62244000Y-106417530D01*
X50844000Y-83993500D02*
X59844000Y-83993500D01*
X50844000Y-91346800D02*
X50844000Y-83993500D01*
X59844000Y-83993500D02*
X59844000Y-91346800D01*
X59844000Y-91346800D02*
X50844000Y-91346800D01*
X62244000Y-85418440D02*
X48444000Y-85418440D01*
X64244000Y-104417530D02*
X64244000Y-87417530D01*
D13*
X46444000Y-87417530D02*
G75*
G02*
X48444000Y-85417530I2044612J-44612D01*
G01*
X48444000Y-106417530D02*
G75*
G02*
X46444000Y-104417530I44857J2044857D01*
G01*
X62244000Y-85417530D02*
G75*
G02*
X64244000Y-87417530I-44610J-2044610D01*
G01*
X64244000Y-104417530D02*
G75*
G02*
X62244000Y-106417530I-2000000J0D01*
G01*
D15*
X44471000Y-87117530D02*
G75*
G02*
X44217000Y-87117530I-127000J0D01*
G01*
X44217000Y-87117530D02*
G75*
G02*
X44471000Y-87117530I127000J0D01*
G01*
D16*
X46456285Y-87355825D02*
X46459333Y-87307057D01*
X46463397Y-87258036D01*
X46456285Y-87355825D01*
X64233492Y-104439104D02*
X64231713Y-104488380D01*
X64228665Y-104537148D01*
X64224601Y-104586169D01*
X64219268Y-104634937D01*
X64212664Y-104683705D01*
X64205044Y-104732220D01*
X64196153Y-104780480D01*
X64186248Y-104828485D01*
X64233492Y-104439104D01*
D17*
%TO.C,G\u002A\u002A\u002A*%
G36*
X28006635Y-119547412D02*
G01*
X28022390Y-119591462D01*
X28046232Y-119661096D01*
X28077131Y-119753218D01*
X28114055Y-119864734D01*
X28155975Y-119992550D01*
X28201858Y-120133570D01*
X28249927Y-120282376D01*
X28491468Y-121032711D01*
X29285900Y-121037038D01*
X30080332Y-121041365D01*
X29455823Y-121491660D01*
X29327997Y-121583984D01*
X29208305Y-121670732D01*
X29099506Y-121749885D01*
X29004362Y-121819419D01*
X28925631Y-121877312D01*
X28866075Y-121921543D01*
X28828453Y-121950089D01*
X28815720Y-121960583D01*
X28816845Y-121981436D01*
X28828847Y-122033108D01*
X28851535Y-122114951D01*
X28884714Y-122226318D01*
X28928194Y-122366561D01*
X28981781Y-122535036D01*
X29042151Y-122721488D01*
X29091138Y-122871958D01*
X29136804Y-123012673D01*
X29178133Y-123140468D01*
X29214109Y-123252180D01*
X29243715Y-123344647D01*
X29265936Y-123414704D01*
X29279754Y-123459189D01*
X29284175Y-123474857D01*
X29271870Y-123470635D01*
X29238887Y-123450068D01*
X29191124Y-123416967D01*
X29163263Y-123396702D01*
X29122067Y-123366425D01*
X29057779Y-123319345D01*
X28974270Y-123258288D01*
X28875413Y-123186084D01*
X28765080Y-123105561D01*
X28647144Y-123019547D01*
X28525477Y-122930870D01*
X28521175Y-122927735D01*
X27999999Y-122548015D01*
X27478824Y-122927735D01*
X27357097Y-123016454D01*
X27238964Y-123102610D01*
X27128298Y-123183374D01*
X27028971Y-123255919D01*
X26944856Y-123317416D01*
X26879825Y-123365037D01*
X26837751Y-123395953D01*
X26836736Y-123396702D01*
X26783750Y-123434682D01*
X26742567Y-123462054D01*
X26719084Y-123475006D01*
X26715823Y-123474857D01*
X26720839Y-123457228D01*
X26735210Y-123411060D01*
X26757920Y-123339517D01*
X26787952Y-123245761D01*
X26824291Y-123132956D01*
X26865919Y-123004265D01*
X26911821Y-122862852D01*
X26957848Y-122721488D01*
X27020899Y-122526684D01*
X27074026Y-122359493D01*
X27117036Y-122220562D01*
X27149738Y-122110538D01*
X27171939Y-122030067D01*
X27183445Y-121979798D01*
X27184278Y-121960583D01*
X27167923Y-121947283D01*
X27127239Y-121916544D01*
X27064986Y-121870388D01*
X26983923Y-121810837D01*
X26886812Y-121739914D01*
X26776413Y-121659640D01*
X26655485Y-121572037D01*
X26544175Y-121491660D01*
X25919666Y-121041365D01*
X26714099Y-121037038D01*
X27508531Y-121032711D01*
X27750071Y-120282376D01*
X27798852Y-120131375D01*
X27844683Y-119990530D01*
X27886536Y-119862936D01*
X27923378Y-119751687D01*
X27954178Y-119659879D01*
X27977907Y-119590606D01*
X27993532Y-119546963D01*
X27999999Y-119532041D01*
X28006635Y-119547412D01*
G37*
%TO.C,SW2*%
D13*
X70975000Y-111515000D02*
X84945000Y-111515000D01*
X70975000Y-125485000D02*
X70975000Y-111515000D01*
X84945000Y-111515000D02*
X84945000Y-125485000D01*
X84945000Y-125485000D02*
X70975000Y-125485000D01*
D17*
%TO.C,G\u002A\u002A\u002A*%
G36*
X47408453Y-113980512D02*
G01*
X47524988Y-114060734D01*
X47532449Y-114184558D01*
X47519809Y-114209229D01*
X47412921Y-114283611D01*
X47232750Y-114335884D01*
X47042176Y-114355825D01*
X46904074Y-114333213D01*
X46879717Y-114313278D01*
X46858613Y-114181158D01*
X46960236Y-114061600D01*
X47159364Y-113980372D01*
X47215854Y-113969886D01*
X47408453Y-113980512D01*
G37*
G36*
X42742117Y-119577486D02*
G01*
X42901174Y-119701200D01*
X43017584Y-119877622D01*
X43056606Y-120060732D01*
X43028973Y-120153752D01*
X42919275Y-120225663D01*
X42733178Y-120274410D01*
X42542464Y-120287016D01*
X42433278Y-120261454D01*
X42297303Y-120107920D01*
X42269079Y-119911282D01*
X42339004Y-119719507D01*
X42497485Y-119580556D01*
X42575150Y-119552506D01*
X42742117Y-119577486D01*
G37*
G36*
X43189877Y-114371971D02*
G01*
X43254683Y-114496023D01*
X43280777Y-114570942D01*
X43328084Y-114751774D01*
X43298863Y-114854271D01*
X43194221Y-114926901D01*
X42979800Y-114969330D01*
X42784744Y-114892010D01*
X42658574Y-114720415D01*
X42639708Y-114641673D01*
X42641378Y-114514658D01*
X42714057Y-114440632D01*
X42895052Y-114382667D01*
X42903532Y-114380546D01*
X43091006Y-114342653D01*
X43189877Y-114371971D01*
G37*
G36*
X46645017Y-114622107D02*
G01*
X46795686Y-114744400D01*
X46831315Y-114788355D01*
X46994154Y-115046884D01*
X47038169Y-115230430D01*
X46966010Y-115349574D01*
X46865166Y-115415077D01*
X46840614Y-115427300D01*
X46780977Y-115376953D01*
X46678384Y-115241529D01*
X46562259Y-115065667D01*
X46462024Y-114894002D01*
X46407100Y-114771172D01*
X46406428Y-114768579D01*
X46414802Y-114632539D01*
X46506193Y-114584268D01*
X46645017Y-114622107D01*
G37*
G36*
X47195681Y-111903497D02*
G01*
X47293688Y-111968991D01*
X47312517Y-112054764D01*
X47245208Y-112189965D01*
X47084800Y-112403746D01*
X47072575Y-112419068D01*
X46899686Y-112628856D01*
X46786394Y-112738133D01*
X46702777Y-112764906D01*
X46618914Y-112727205D01*
X46592286Y-112708264D01*
X46529082Y-112608326D01*
X46567431Y-112461657D01*
X46714192Y-112251747D01*
X46843652Y-112103312D01*
X47009052Y-111942984D01*
X47126267Y-111888826D01*
X47195681Y-111903497D01*
G37*
G36*
X42989126Y-116888340D02*
G01*
X43055899Y-117015051D01*
X43107593Y-117194459D01*
X43152235Y-117435803D01*
X43132840Y-117599804D01*
X43055541Y-117730709D01*
X42970714Y-117875236D01*
X42969816Y-118024148D01*
X43025020Y-118189302D01*
X43087650Y-118411057D01*
X43061435Y-118598754D01*
X43009711Y-118715991D01*
X42876182Y-118904475D01*
X42753461Y-118949198D01*
X42623812Y-118888994D01*
X42619853Y-118784972D01*
X42716884Y-118697376D01*
X42801056Y-118611320D01*
X42806577Y-118460677D01*
X42782900Y-118348159D01*
X42718520Y-118163406D01*
X42646019Y-118054414D01*
X42631021Y-118045994D01*
X42543795Y-117981339D01*
X42573544Y-117869259D01*
X42724635Y-117694315D01*
X42732705Y-117686341D01*
X42869821Y-117527137D01*
X42908727Y-117379434D01*
X42875346Y-117183960D01*
X42842697Y-116978240D01*
X42880139Y-116880055D01*
X42910965Y-116866327D01*
X42989126Y-116888340D01*
G37*
G36*
X44836744Y-99604201D02*
G01*
X44839150Y-99694090D01*
X44842255Y-99906017D01*
X44845745Y-100213487D01*
X44849309Y-100589999D01*
X44851401Y-100844364D01*
X44855815Y-101350972D01*
X44861740Y-101944600D01*
X44868524Y-102563755D01*
X44875505Y-103146936D01*
X44878302Y-103363564D01*
X44887670Y-104086064D01*
X44897337Y-104860889D01*
X44907016Y-105662649D01*
X44916418Y-106465953D01*
X44925255Y-107245410D01*
X44933239Y-107975627D01*
X44940083Y-108631220D01*
X44945496Y-109186793D01*
X44948937Y-109584178D01*
X44955052Y-109964618D01*
X44966252Y-110300284D01*
X44981039Y-110558550D01*
X44997916Y-110706797D01*
X45001072Y-110719320D01*
X45057030Y-110837468D01*
X45174819Y-111049139D01*
X45336296Y-111322683D01*
X45494775Y-111580870D01*
X45712409Y-111941215D01*
X45865568Y-112231629D01*
X45976780Y-112502569D01*
X46068576Y-112804495D01*
X46106154Y-112950254D01*
X46184296Y-113289361D01*
X46220085Y-113530526D01*
X46216655Y-113717205D01*
X46177153Y-113892858D01*
X46174851Y-113900321D01*
X46098527Y-114121080D01*
X46013181Y-114259470D01*
X45880375Y-114346265D01*
X45661672Y-114412245D01*
X45486016Y-114451860D01*
X45014598Y-114554479D01*
X45022730Y-115312176D01*
X45027293Y-115724418D01*
X45033512Y-116267575D01*
X45041178Y-116924048D01*
X45050077Y-117676219D01*
X45059990Y-118506489D01*
X45070706Y-119397246D01*
X45082011Y-120330887D01*
X45093687Y-121289799D01*
X45105525Y-122256377D01*
X45117304Y-123213011D01*
X45128815Y-124142101D01*
X45139841Y-125026032D01*
X45150170Y-125847199D01*
X45159585Y-126587994D01*
X45167864Y-127230083D01*
X45177532Y-127996574D01*
X45184372Y-128627855D01*
X45187866Y-129137231D01*
X45187507Y-129538013D01*
X45182777Y-129843504D01*
X45173161Y-130067018D01*
X45158152Y-130221861D01*
X45137234Y-130321340D01*
X45109894Y-130378762D01*
X45075619Y-130407440D01*
X45044930Y-130418117D01*
X44919159Y-130421893D01*
X44879305Y-130320371D01*
X44878018Y-130287512D01*
X44873609Y-130010133D01*
X44868335Y-129634587D01*
X44862421Y-129181093D01*
X44856090Y-128669855D01*
X44849565Y-128121089D01*
X44843068Y-127555006D01*
X44836825Y-126991812D01*
X44831058Y-126451723D01*
X44825989Y-125954951D01*
X44821843Y-125521704D01*
X44818843Y-125172193D01*
X44817210Y-124926632D01*
X44817169Y-124805231D01*
X44817380Y-124797500D01*
X44807622Y-124740750D01*
X44753316Y-124720118D01*
X44628811Y-124738621D01*
X44408455Y-124799279D01*
X44240870Y-124850860D01*
X44164570Y-124874345D01*
X43701764Y-124999614D01*
X43274529Y-125078882D01*
X43050225Y-125099763D01*
X42756487Y-125096453D01*
X42528075Y-125043154D01*
X42287500Y-124918576D01*
X42207976Y-124868390D01*
X41986874Y-124715744D01*
X41856535Y-124584683D01*
X41777996Y-124424453D01*
X41726155Y-124240649D01*
X41667624Y-123811355D01*
X41709101Y-123427836D01*
X41826936Y-123155496D01*
X41881877Y-123063046D01*
X41883756Y-122989081D01*
X41813554Y-122902686D01*
X41652256Y-122772943D01*
X41539417Y-122688085D01*
X40852825Y-122140588D01*
X40241029Y-121585875D01*
X39722145Y-121042160D01*
X39314281Y-120527655D01*
X39166791Y-120302267D01*
X39036863Y-120107011D01*
X38896889Y-119954540D01*
X38710384Y-119814678D01*
X38440851Y-119657246D01*
X38287678Y-119575227D01*
X37997539Y-119415764D01*
X37749742Y-119268018D01*
X37579588Y-119153602D01*
X37531570Y-119112359D01*
X37467551Y-118990335D01*
X37473908Y-118918120D01*
X37758379Y-118918120D01*
X38434478Y-119303643D01*
X38750784Y-119489369D01*
X38971571Y-119639243D01*
X39133181Y-119785804D01*
X39271947Y-119961595D01*
X39411704Y-120178781D01*
X39608710Y-120462221D01*
X39869098Y-120787449D01*
X40145898Y-121096835D01*
X40230263Y-121183075D01*
X40516467Y-121455753D01*
X40834042Y-121738622D01*
X41161337Y-122014622D01*
X41476700Y-122266694D01*
X41758484Y-122477780D01*
X41985035Y-122630824D01*
X42134704Y-122708765D01*
X42173725Y-122714298D01*
X42278659Y-122641833D01*
X42414815Y-122492821D01*
X42450934Y-122445110D01*
X42581504Y-122292153D01*
X42663087Y-122266770D01*
X42682067Y-122286288D01*
X42688972Y-122363966D01*
X42630592Y-122495047D01*
X42496440Y-122696830D01*
X42276032Y-122986612D01*
X42197495Y-123085798D01*
X42023172Y-123405153D01*
X41962816Y-123753469D01*
X42007018Y-124099005D01*
X42146365Y-124410013D01*
X42371447Y-124654744D01*
X42672848Y-124801455D01*
X42708655Y-124809905D01*
X42875148Y-124812063D01*
X43144342Y-124780582D01*
X43476437Y-124723745D01*
X43831634Y-124649835D01*
X44170127Y-124567131D01*
X44452125Y-124483918D01*
X44637822Y-124408476D01*
X44637860Y-124408456D01*
X44836380Y-124298538D01*
X44813251Y-122280871D01*
X44806705Y-121716602D01*
X44798704Y-121038110D01*
X44789662Y-120279686D01*
X44779992Y-119475632D01*
X44770104Y-118660248D01*
X44760410Y-117867830D01*
X44753820Y-117333799D01*
X44717518Y-114404395D01*
X44430036Y-114225485D01*
X44251861Y-114087815D01*
X44173160Y-113974856D01*
X44193244Y-113910759D01*
X44311430Y-113919677D01*
X44437171Y-113974297D01*
X44823319Y-114154871D01*
X45131980Y-114244264D01*
X45396244Y-114250477D01*
X45498665Y-114231033D01*
X45709140Y-114153444D01*
X45830262Y-114025861D01*
X45877065Y-113925192D01*
X45945844Y-113570960D01*
X45913627Y-113149729D01*
X45786616Y-112697317D01*
X45593759Y-112288514D01*
X45450858Y-112043986D01*
X45266515Y-111735045D01*
X45077637Y-111423483D01*
X45054581Y-111385856D01*
X44723875Y-110846964D01*
X44680541Y-109871719D01*
X44664289Y-109460682D01*
X44652017Y-109061120D01*
X44644911Y-108718550D01*
X44644157Y-108478497D01*
X44644177Y-108477312D01*
X44641998Y-108245547D01*
X44629102Y-108084037D01*
X44614332Y-108036027D01*
X44535245Y-108056312D01*
X44359064Y-108130032D01*
X44120616Y-108242361D01*
X44066061Y-108269382D01*
X43771033Y-108440280D01*
X43421693Y-108678639D01*
X43051652Y-108957613D01*
X42694509Y-109250342D01*
X42383875Y-109529974D01*
X42153353Y-109769651D01*
X42092356Y-109846589D01*
X41918781Y-110026497D01*
X41759596Y-110073152D01*
X41599022Y-110069449D01*
X41351293Y-110069414D01*
X41140395Y-110071951D01*
X40791563Y-110068356D01*
X40413186Y-110050248D01*
X40233906Y-110035751D01*
X39997441Y-110031355D01*
X39710320Y-110053186D01*
X39407022Y-110094828D01*
X39122020Y-110149859D01*
X38889792Y-110211859D01*
X38744817Y-110274409D01*
X38714282Y-110318707D01*
X38762698Y-110399487D01*
X38880579Y-110568433D01*
X39046931Y-110795889D01*
X39140362Y-110920493D01*
X39331980Y-111178979D01*
X39494060Y-111406676D01*
X39601462Y-111567890D01*
X39624663Y-111608062D01*
X39639888Y-111743949D01*
X39618355Y-111989788D01*
X39566108Y-112313296D01*
X39489189Y-112682183D01*
X39393637Y-113064167D01*
X39285497Y-113426959D01*
X39282714Y-113435416D01*
X39231137Y-113646798D01*
X39171005Y-113986176D01*
X39104929Y-114433434D01*
X39035534Y-114968452D01*
X38965433Y-115571114D01*
X38897246Y-116221296D01*
X38837005Y-116860422D01*
X38802029Y-117219160D01*
X38765150Y-117467016D01*
X38714479Y-117641313D01*
X38638126Y-117779370D01*
X38524208Y-117918508D01*
X38486921Y-117959518D01*
X38272801Y-118209597D01*
X38057978Y-118485979D01*
X37982989Y-118590998D01*
X37758379Y-118918120D01*
X37473908Y-118918120D01*
X37481293Y-118834222D01*
X37580774Y-118626790D01*
X37773979Y-118350809D01*
X38031330Y-118033449D01*
X38267214Y-117740695D01*
X38412161Y-117524666D01*
X38481823Y-117358629D01*
X38493848Y-117243435D01*
X38499148Y-117073810D01*
X38520795Y-116799943D01*
X38555008Y-116464765D01*
X38583611Y-116223049D01*
X38637817Y-115776435D01*
X38696481Y-115271072D01*
X38749535Y-114794297D01*
X38765279Y-114646900D01*
X38823806Y-114215906D01*
X38908879Y-113741732D01*
X39005516Y-113304502D01*
X39043016Y-113161614D01*
X39136637Y-112809637D01*
X39220558Y-112465106D01*
X39281471Y-112183773D01*
X39297059Y-112097449D01*
X39356058Y-111732526D01*
X39044648Y-111318411D01*
X38748958Y-110918960D01*
X38539019Y-110618525D01*
X38406004Y-110401597D01*
X38341090Y-110252656D01*
X38335444Y-110156188D01*
X38359558Y-110114085D01*
X38467097Y-110056498D01*
X38682820Y-109978388D01*
X38970087Y-109892243D01*
X39150217Y-109844723D01*
X39558293Y-109752929D01*
X39876168Y-109709542D01*
X40152112Y-109709200D01*
X40267421Y-109720644D01*
X40564189Y-109743514D01*
X40925347Y-109751517D01*
X41235490Y-109744361D01*
X41787920Y-109716062D01*
X42020560Y-109439605D01*
X42256317Y-109198771D01*
X42587565Y-108913056D01*
X42979447Y-108608789D01*
X43397102Y-108312304D01*
X43805666Y-108049932D01*
X44034104Y-107918661D01*
X44604824Y-107608860D01*
X44594821Y-106651803D01*
X44591495Y-106360764D01*
X44586327Y-105944032D01*
X44579625Y-105424441D01*
X44571686Y-104824822D01*
X44562818Y-104168007D01*
X44553320Y-103476824D01*
X44543497Y-102774105D01*
X44541925Y-102662869D01*
X44531606Y-101912044D01*
X44524292Y-101296158D01*
X44520527Y-100801637D01*
X44520854Y-100414904D01*
X44525819Y-100122380D01*
X44535967Y-99910492D01*
X44551842Y-99765660D01*
X44573987Y-99674309D01*
X44602948Y-99622862D01*
X44639268Y-99597743D01*
X44665160Y-99589573D01*
X44795324Y-99578108D01*
X44836744Y-99604201D01*
G37*
G36*
X63431070Y-91735441D02*
G01*
X63586910Y-91866384D01*
X63563111Y-92147341D01*
X63181070Y-92274145D01*
X62613691Y-92254007D01*
X62206160Y-92161511D01*
X62159705Y-92003206D01*
X62187741Y-91962528D01*
X62531848Y-91752642D01*
X63010079Y-91672561D01*
X63431070Y-91735441D01*
G37*
G36*
X76039082Y-107243592D02*
G01*
X76371126Y-107483607D01*
X76483229Y-107539596D01*
X76604675Y-107749625D01*
X76595170Y-107786438D01*
X76400555Y-107880781D01*
X76094960Y-107756987D01*
X75840179Y-107507032D01*
X75778484Y-107322166D01*
X75859221Y-107140876D01*
X76039082Y-107243592D01*
G37*
G36*
X69994516Y-97308277D02*
G01*
X69994701Y-97308359D01*
X70547414Y-97574247D01*
X70797274Y-97797009D01*
X70829162Y-98075768D01*
X70795541Y-98243680D01*
X70560180Y-98655016D01*
X70137806Y-98698433D01*
X69529051Y-98373933D01*
X69355836Y-98241746D01*
X68790296Y-97691918D01*
X68597914Y-97284910D01*
X68752171Y-97059467D01*
X69226546Y-97054341D01*
X69994516Y-97308277D01*
G37*
G36*
X61873152Y-93939343D02*
G01*
X61993645Y-94016658D01*
X62451285Y-94391600D01*
X62550721Y-94728236D01*
X62294652Y-95128400D01*
X62030028Y-95387922D01*
X61456242Y-95933731D01*
X60901612Y-96487644D01*
X60825723Y-96566561D01*
X60281484Y-97137624D01*
X60523148Y-96456434D01*
X60827046Y-95862658D01*
X61218489Y-95391242D01*
X61218710Y-95391053D01*
X61675942Y-94913782D01*
X61761054Y-94576618D01*
X61571853Y-94420802D01*
X61376680Y-94172045D01*
X61394376Y-94002749D01*
X61555330Y-93825048D01*
X61873152Y-93939343D01*
G37*
G36*
X61165082Y-97498853D02*
G01*
X61777242Y-97620618D01*
X62526127Y-97790331D01*
X63095256Y-97938907D01*
X63383764Y-98039464D01*
X63399890Y-98053111D01*
X63346347Y-98260970D01*
X63007638Y-98335512D01*
X62494062Y-98262540D01*
X62285274Y-98196580D01*
X61761837Y-98051756D01*
X61406674Y-98035823D01*
X61363390Y-98055460D01*
X61058916Y-98112169D01*
X60579051Y-98061559D01*
X60150616Y-97918706D01*
X60056846Y-97699180D01*
X60081525Y-97609781D01*
X60227161Y-97457722D01*
X60562791Y-97420584D01*
X61165082Y-97498853D01*
G37*
G36*
X68058616Y-92951369D02*
G01*
X68997055Y-93358295D01*
X69735129Y-93959288D01*
X70191160Y-94712755D01*
X70285833Y-95115875D01*
X70304022Y-95741319D01*
X70182526Y-95990809D01*
X69951069Y-95865058D01*
X69639370Y-95364780D01*
X69515092Y-95097381D01*
X69192971Y-94454400D01*
X68856915Y-94074442D01*
X68379412Y-93823454D01*
X68261009Y-93778858D01*
X67532798Y-93618777D01*
X66706687Y-93579773D01*
X66482297Y-93596707D01*
X65750188Y-93620478D01*
X65322496Y-93475164D01*
X65249987Y-93406354D01*
X65145129Y-93208463D01*
X65295841Y-93064317D01*
X65771412Y-92919074D01*
X65907335Y-92886085D01*
X67001484Y-92780100D01*
X68058616Y-92951369D01*
G37*
G36*
X63868049Y-98524818D02*
G01*
X64164812Y-98879813D01*
X64494265Y-99316423D01*
X64943514Y-99840521D01*
X65587696Y-100478629D01*
X66333192Y-101150212D01*
X67086386Y-101774734D01*
X67753664Y-102271659D01*
X68241404Y-102560449D01*
X68285708Y-102578130D01*
X68496604Y-102777960D01*
X68494173Y-102873762D01*
X68280619Y-102959783D01*
X67884429Y-102870494D01*
X67459164Y-102670474D01*
X67158383Y-102424298D01*
X67101503Y-102288090D01*
X66931947Y-102004151D01*
X66516921Y-101671109D01*
X66376296Y-101587158D01*
X65588874Y-101060238D01*
X64864345Y-100418217D01*
X64267418Y-99738692D01*
X63862804Y-99099265D01*
X63715206Y-98577536D01*
X63740150Y-98425783D01*
X63868049Y-98524818D01*
G37*
G36*
X85880527Y-96675726D02*
G01*
X85983494Y-96907537D01*
X85949380Y-97378964D01*
X85811385Y-97953353D01*
X85602708Y-98494046D01*
X85356549Y-98864390D01*
X85346566Y-98873572D01*
X84871836Y-99065992D01*
X84340966Y-98979326D01*
X83919298Y-98669587D01*
X83776390Y-98341657D01*
X83786370Y-97846781D01*
X83911617Y-97343160D01*
X84102294Y-96956836D01*
X84308561Y-96813854D01*
X84370037Y-96840332D01*
X84443998Y-97139884D01*
X84296161Y-97601427D01*
X84141548Y-98111302D01*
X84291761Y-98438757D01*
X84296392Y-98442823D01*
X84686304Y-98566889D01*
X85078452Y-98349217D01*
X85398233Y-97853865D01*
X85539191Y-97375577D01*
X85685541Y-96854296D01*
X85857200Y-96670992D01*
X85880527Y-96675726D01*
G37*
G36*
X68421934Y-114112618D02*
G01*
X68487291Y-114376552D01*
X68479037Y-114923411D01*
X68407953Y-115567043D01*
X68321032Y-116295425D01*
X68289767Y-116882235D01*
X68314583Y-117168479D01*
X68315732Y-117504051D01*
X68221480Y-118106908D01*
X68052140Y-118847866D01*
X68048043Y-118863525D01*
X67851177Y-119643382D01*
X67693601Y-120320971D01*
X67611565Y-120737413D01*
X67488692Y-121073152D01*
X67349398Y-121136445D01*
X67224383Y-120904801D01*
X67225508Y-120596898D01*
X67313835Y-120161347D01*
X67476482Y-119479145D01*
X67668210Y-118736057D01*
X67853329Y-117916388D01*
X67968298Y-117152827D01*
X67988908Y-116655212D01*
X67981702Y-116008012D01*
X68036958Y-115321560D01*
X68136398Y-114703207D01*
X68261738Y-114260308D01*
X68394694Y-114100211D01*
X68421934Y-114112618D01*
G37*
G36*
X77713381Y-97683184D02*
G01*
X78616663Y-97943804D01*
X79222661Y-98210095D01*
X79898442Y-98570994D01*
X80333382Y-98945699D01*
X80677631Y-99481051D01*
X80825973Y-99778060D01*
X81136903Y-100540019D01*
X81222405Y-101043917D01*
X81081055Y-101256786D01*
X80888459Y-101231715D01*
X80642865Y-100988860D01*
X80398167Y-100528028D01*
X80387138Y-100499858D01*
X80069932Y-99990970D01*
X79666939Y-99688334D01*
X79281527Y-99467237D01*
X79142683Y-99277761D01*
X78884009Y-98988736D01*
X78295083Y-98790415D01*
X77452108Y-98700186D01*
X76677720Y-98715316D01*
X75877174Y-98735096D01*
X75419438Y-98655039D01*
X75260772Y-98515634D01*
X75305377Y-98277115D01*
X75695825Y-98034439D01*
X76015429Y-97907491D01*
X76894078Y-97675588D01*
X77713381Y-97683184D01*
G37*
G36*
X63729333Y-96040389D02*
G01*
X64536560Y-96137282D01*
X64990688Y-96263336D01*
X65151633Y-96447153D01*
X65092613Y-96691161D01*
X64896063Y-97240222D01*
X64994552Y-97507453D01*
X65393741Y-97505711D01*
X65445597Y-97492535D01*
X65933112Y-97443639D01*
X66418140Y-97510205D01*
X66755153Y-97658024D01*
X66819134Y-97815450D01*
X66600101Y-97900131D01*
X66120825Y-97929757D01*
X65955057Y-97925318D01*
X65330192Y-97902778D01*
X64837376Y-97894922D01*
X64779453Y-97895558D01*
X64434910Y-97750725D01*
X64347274Y-97588586D01*
X64384240Y-97141743D01*
X64463285Y-96948564D01*
X64524057Y-96701660D01*
X64273513Y-96588620D01*
X64102929Y-96566408D01*
X63577218Y-96424100D01*
X63272160Y-96241206D01*
X63159672Y-96071324D01*
X63362180Y-96018837D01*
X63729333Y-96040389D01*
G37*
G36*
X68930091Y-100700058D02*
G01*
X69012358Y-100921564D01*
X69230682Y-101345391D01*
X69646857Y-101427888D01*
X69956238Y-101304090D01*
X70416742Y-101250771D01*
X70931349Y-101509988D01*
X71385709Y-102017184D01*
X71466935Y-102156967D01*
X71678039Y-102472692D01*
X71909911Y-102462096D01*
X72116602Y-102334303D01*
X72477815Y-102016861D01*
X72618756Y-101805778D01*
X72828820Y-101617954D01*
X72917545Y-101626895D01*
X73001987Y-101832460D01*
X72879882Y-102203482D01*
X72627054Y-102604019D01*
X72319329Y-102898133D01*
X72172887Y-102961913D01*
X71908887Y-102982744D01*
X71663117Y-102869004D01*
X71336604Y-102552131D01*
X70969133Y-102128034D01*
X70631096Y-101812781D01*
X70315589Y-101786623D01*
X70200903Y-101823616D01*
X69623311Y-101983397D01*
X69251987Y-101885180D01*
X68936655Y-101479406D01*
X68885374Y-101389803D01*
X68694979Y-100934287D01*
X68694642Y-100646150D01*
X68727747Y-100616913D01*
X68930091Y-100700058D01*
G37*
G36*
X77231244Y-102474678D02*
G01*
X77841645Y-102540434D01*
X78441044Y-102646595D01*
X78891756Y-102775128D01*
X79042871Y-102865876D01*
X79057157Y-103163830D01*
X78905076Y-103490010D01*
X78745461Y-103856285D01*
X78921718Y-103994374D01*
X79439338Y-103907012D01*
X79626541Y-103849013D01*
X80200219Y-103735930D01*
X80635473Y-103781844D01*
X80821869Y-103967093D01*
X80808521Y-104059462D01*
X80588688Y-104174413D01*
X80446817Y-104147570D01*
X80156242Y-104141706D01*
X80096449Y-104204528D01*
X79867651Y-104334766D01*
X79415126Y-104413557D01*
X78927030Y-104419877D01*
X78653967Y-104365695D01*
X78390413Y-104112181D01*
X78274868Y-103895305D01*
X78226033Y-103524714D01*
X78294700Y-103384516D01*
X78331119Y-103180026D01*
X78118000Y-102971385D01*
X77803000Y-102867644D01*
X77634772Y-102897107D01*
X77282672Y-102935430D01*
X76871125Y-102841576D01*
X76574031Y-102672211D01*
X76528173Y-102536512D01*
X76747527Y-102467360D01*
X77231244Y-102474678D01*
G37*
G36*
X91576555Y-89394231D02*
G01*
X92250045Y-89546175D01*
X92731258Y-89764757D01*
X92925547Y-90033401D01*
X92911447Y-90127823D01*
X92755310Y-90310323D01*
X92676529Y-90272220D01*
X92385601Y-90157054D01*
X91795158Y-90076395D01*
X91017484Y-90033168D01*
X90164864Y-90030298D01*
X89349582Y-90070710D01*
X88683923Y-90157329D01*
X88637447Y-90167000D01*
X87382246Y-90443274D01*
X86478515Y-90654317D01*
X85872546Y-90814947D01*
X85510629Y-90939975D01*
X85339061Y-91044217D01*
X85311230Y-91084470D01*
X85051834Y-91386267D01*
X84681120Y-91577465D01*
X84378117Y-91574689D01*
X84337072Y-91538162D01*
X84307457Y-91214996D01*
X84656590Y-90855879D01*
X85354283Y-90482728D01*
X86235861Y-90159133D01*
X87020667Y-89934644D01*
X87709724Y-89778518D01*
X88158720Y-89723249D01*
X88170157Y-89723617D01*
X88707256Y-89669847D01*
X89330270Y-89510388D01*
X89348894Y-89503958D01*
X90031330Y-89356547D01*
X90805434Y-89325496D01*
X91576555Y-89394231D01*
G37*
G36*
X93353470Y-91376645D02*
G01*
X93269604Y-92113435D01*
X93183459Y-92586033D01*
X92990508Y-93134153D01*
X92629596Y-93863418D01*
X92183035Y-94631826D01*
X91733125Y-95297375D01*
X91373716Y-95708362D01*
X91096249Y-95997759D01*
X90640240Y-96527817D01*
X90078976Y-97211856D01*
X89704292Y-97682887D01*
X89144523Y-98370389D01*
X88669685Y-98907454D01*
X88340415Y-99228126D01*
X88228154Y-99288248D01*
X88045107Y-99360138D01*
X88039514Y-99384407D01*
X87847070Y-99717571D01*
X87424413Y-100136574D01*
X86899926Y-100522364D01*
X86678025Y-100646921D01*
X86184954Y-100795238D01*
X85728632Y-100787333D01*
X85441188Y-100643096D01*
X85416108Y-100456878D01*
X85652585Y-100307168D01*
X86044706Y-100250096D01*
X86589904Y-100107227D01*
X86928705Y-99863073D01*
X87238265Y-99529247D01*
X87735967Y-99017090D01*
X88314575Y-98436935D01*
X88319778Y-98431785D01*
X89885030Y-96732248D01*
X91172960Y-95018206D01*
X92142717Y-93348554D01*
X92604156Y-92255519D01*
X92924485Y-91444940D01*
X93166052Y-91033921D01*
X93314000Y-91013982D01*
X93353470Y-91376645D01*
G37*
G36*
X62840541Y-101463338D02*
G01*
X63353226Y-101600970D01*
X64103222Y-101839819D01*
X65016036Y-102157439D01*
X65147693Y-102205135D01*
X66255597Y-102622101D01*
X67006903Y-102939649D01*
X67440785Y-103176426D01*
X67596418Y-103351084D01*
X67598228Y-103371751D01*
X67477424Y-103486351D01*
X67090967Y-103433495D01*
X66387660Y-103205785D01*
X66346063Y-103190698D01*
X65675997Y-102968168D01*
X65159004Y-102835704D01*
X64923877Y-102820049D01*
X64853836Y-103041132D01*
X64962864Y-103418415D01*
X65180342Y-103779117D01*
X65380881Y-103938185D01*
X65633101Y-104127792D01*
X65575521Y-104426814D01*
X65190392Y-104868635D01*
X64629183Y-105351649D01*
X64071140Y-105816122D01*
X63659306Y-106185311D01*
X63483074Y-106378978D01*
X63624370Y-106529260D01*
X64043305Y-106740566D01*
X64291377Y-106837994D01*
X64826302Y-107081322D01*
X65159387Y-107324992D01*
X65205732Y-107405168D01*
X65220987Y-107597880D01*
X65108627Y-107674423D01*
X64787536Y-107634899D01*
X64176596Y-107479399D01*
X63912149Y-107406686D01*
X63208328Y-107182595D01*
X62841564Y-106980356D01*
X62740234Y-106775831D01*
X62886616Y-106415283D01*
X63299617Y-105855790D01*
X63927551Y-105161575D01*
X64467154Y-104630006D01*
X64838423Y-104158979D01*
X64834851Y-103813021D01*
X64604679Y-103655670D01*
X64345467Y-103411135D01*
X64145162Y-103048906D01*
X63854923Y-102609105D01*
X63564410Y-102398016D01*
X63159585Y-102161123D01*
X62805782Y-101821951D01*
X62634986Y-101515882D01*
X62639659Y-101449370D01*
X62840541Y-101463338D01*
G37*
G36*
X64514973Y-109771049D02*
G01*
X64367370Y-110340777D01*
X64084500Y-111239671D01*
X63674963Y-112440400D01*
X63147364Y-113915631D01*
X63146034Y-113919280D01*
X62694689Y-115181944D01*
X62302662Y-116323235D01*
X61989227Y-117283285D01*
X61773655Y-118002226D01*
X61675220Y-118420188D01*
X61673804Y-118492782D01*
X61731124Y-118949211D01*
X61673756Y-119423259D01*
X61531011Y-119730649D01*
X61471605Y-119763819D01*
X61340721Y-119621025D01*
X61309846Y-119185481D01*
X61365998Y-118561694D01*
X61496203Y-117854168D01*
X61687484Y-117167406D01*
X61843230Y-116771185D01*
X62098816Y-116154204D01*
X62158430Y-115785316D01*
X62037535Y-115557835D01*
X62021250Y-115543178D01*
X61612313Y-115399766D01*
X61002198Y-115394853D01*
X60377412Y-115524569D01*
X60234791Y-115580220D01*
X59676889Y-115958291D01*
X59059879Y-116568759D01*
X58507306Y-117273599D01*
X58155143Y-117903514D01*
X57871565Y-118425250D01*
X57594673Y-118669001D01*
X57390258Y-118603921D01*
X57322770Y-118293839D01*
X57482121Y-117700344D01*
X57924665Y-116994734D01*
X58570641Y-116261979D01*
X59340295Y-115587053D01*
X60153869Y-115054926D01*
X60528623Y-114878373D01*
X61148738Y-114707495D01*
X61719256Y-114678001D01*
X62113112Y-114785348D01*
X62215596Y-114938698D01*
X62282607Y-114940365D01*
X62426381Y-114624403D01*
X62496194Y-114425490D01*
X62870887Y-113338852D01*
X63265260Y-112272974D01*
X63650992Y-111296015D01*
X63999759Y-110476136D01*
X64283245Y-109881498D01*
X64473128Y-109580261D01*
X64518704Y-109557819D01*
X64514973Y-109771049D01*
G37*
G36*
X84094714Y-101080770D02*
G01*
X84160368Y-101104050D01*
X84667682Y-101231797D01*
X85010517Y-101217234D01*
X85034822Y-101202568D01*
X85343837Y-101175422D01*
X85871438Y-101300025D01*
X86477799Y-101522896D01*
X87023100Y-101790552D01*
X87367517Y-102049510D01*
X87407515Y-102110109D01*
X87489399Y-102529040D01*
X87464008Y-102679430D01*
X87196424Y-102967969D01*
X86649672Y-103310318D01*
X85942610Y-103650059D01*
X85194100Y-103930769D01*
X84522997Y-104096030D01*
X84462219Y-104104343D01*
X83890109Y-104203377D01*
X83599665Y-104380322D01*
X83460122Y-104734788D01*
X83427833Y-104892225D01*
X83366451Y-105516795D01*
X83363086Y-106295777D01*
X83380342Y-106603266D01*
X83419904Y-107217868D01*
X83430993Y-107642315D01*
X83422446Y-107745759D01*
X83225485Y-107746816D01*
X82772337Y-107625497D01*
X82510029Y-107535602D01*
X82003285Y-107307513D01*
X81726391Y-107096298D01*
X81707431Y-107023723D01*
X81926589Y-106938292D01*
X82263186Y-107006242D01*
X82580169Y-107079481D01*
X82778503Y-106974412D01*
X82886779Y-106625174D01*
X82933585Y-105965899D01*
X82943579Y-105438765D01*
X82965169Y-104731249D01*
X83006910Y-104178262D01*
X83047508Y-103945671D01*
X83289970Y-103778201D01*
X83798770Y-103640962D01*
X84079659Y-103601643D01*
X84816622Y-103433494D01*
X85639898Y-103113127D01*
X86035946Y-102906071D01*
X87050202Y-102306906D01*
X85462572Y-101885878D01*
X84690572Y-101683849D01*
X84069505Y-101526312D01*
X83710441Y-101441305D01*
X83676361Y-101434926D01*
X83493024Y-101239092D01*
X83477127Y-101130068D01*
X83628219Y-100984372D01*
X84094714Y-101080770D01*
G37*
G36*
X74858979Y-106667145D02*
G01*
X75152344Y-106819214D01*
X75153562Y-106820619D01*
X75268758Y-107024247D01*
X75085752Y-107106793D01*
X74750389Y-107119046D01*
X74139748Y-107147717D01*
X73369656Y-107218892D01*
X73051831Y-107257466D01*
X72321939Y-107326362D01*
X71672512Y-107342299D01*
X71460770Y-107328904D01*
X70889016Y-107396619D01*
X70190595Y-107659718D01*
X69506054Y-108042602D01*
X68975945Y-108469661D01*
X68761464Y-108780935D01*
X68604678Y-109543555D01*
X68691236Y-110191889D01*
X68969621Y-110577814D01*
X69235672Y-110696507D01*
X69420357Y-110536430D01*
X69574841Y-110168866D01*
X69785568Y-109745410D01*
X69986399Y-109574721D01*
X70009480Y-109578484D01*
X70078224Y-109796047D01*
X69989456Y-110234430D01*
X69967452Y-110297731D01*
X69858240Y-110791031D01*
X69996841Y-111203786D01*
X70279755Y-111561930D01*
X70825887Y-112015670D01*
X71315334Y-112066376D01*
X71772491Y-111710263D01*
X72048443Y-111287074D01*
X72441746Y-110573636D01*
X72208594Y-111299896D01*
X72089869Y-111870853D01*
X72139681Y-112227724D01*
X72338376Y-112294669D01*
X72449123Y-112228082D01*
X72770042Y-112175834D01*
X73167222Y-112259117D01*
X73755064Y-112346975D01*
X74172028Y-112295201D01*
X74681215Y-112217317D01*
X75027247Y-112303578D01*
X75094921Y-112512124D01*
X74850115Y-112667911D01*
X74352407Y-112764184D01*
X73759394Y-112786803D01*
X73228683Y-112721630D01*
X73121900Y-112689127D01*
X72680991Y-112652138D01*
X72442859Y-112771611D01*
X72142460Y-112847603D01*
X71627611Y-112777581D01*
X71049743Y-112607116D01*
X70560290Y-112381775D01*
X70310687Y-112147123D01*
X70305430Y-112128441D01*
X70112835Y-111889493D01*
X69700728Y-111586327D01*
X69645263Y-111552749D01*
X68872344Y-110869849D01*
X68360427Y-109945044D01*
X68215533Y-109340946D01*
X68192484Y-108846948D01*
X68340310Y-108491824D01*
X68671196Y-108129075D01*
X69368513Y-107579708D01*
X70176802Y-107147081D01*
X70950816Y-106897986D01*
X71408921Y-106870195D01*
X71890736Y-106874953D01*
X72620814Y-106823864D01*
X73428634Y-106729600D01*
X74307437Y-106638490D01*
X74858979Y-106667145D01*
G37*
G36*
X75219523Y-105106422D02*
G01*
X75905478Y-105246101D01*
X75910450Y-105247330D01*
X76873278Y-105440348D01*
X77921171Y-105583532D01*
X78546159Y-105631656D01*
X79289871Y-105679546D01*
X79903489Y-105751312D01*
X80198144Y-105815115D01*
X80501335Y-105995810D01*
X80457555Y-106145349D01*
X80132627Y-106219368D01*
X79650628Y-106184133D01*
X78967447Y-106091562D01*
X78632124Y-106125994D01*
X78594501Y-106304187D01*
X78702968Y-106500629D01*
X78832517Y-106751148D01*
X78798818Y-106995959D01*
X78560817Y-107359124D01*
X78316530Y-107668475D01*
X77678765Y-108461248D01*
X78105975Y-109343437D01*
X78364503Y-110043859D01*
X78584847Y-110928780D01*
X78687755Y-111564441D01*
X78794595Y-112426201D01*
X78909955Y-113260944D01*
X78984391Y-113739283D01*
X79020581Y-114868241D01*
X78789843Y-116011110D01*
X78336797Y-117059614D01*
X77706059Y-117905490D01*
X77071987Y-118380003D01*
X75965334Y-118762229D01*
X74811549Y-118846021D01*
X73719780Y-118642356D01*
X72799170Y-118162196D01*
X72530535Y-117923631D01*
X72074479Y-117182400D01*
X71854688Y-116200837D01*
X71885985Y-115087237D01*
X72042976Y-114360864D01*
X72308006Y-113579118D01*
X72525630Y-113203303D01*
X72632236Y-113170174D01*
X72701363Y-113399500D01*
X72596027Y-113917153D01*
X72493481Y-114225516D01*
X72205053Y-115432282D01*
X72255207Y-116487414D01*
X72631062Y-117351290D01*
X73319734Y-117984295D01*
X73787680Y-118205619D01*
X74508829Y-118381075D01*
X75227281Y-118428462D01*
X75332762Y-118419977D01*
X75973214Y-118237668D01*
X76664324Y-117880591D01*
X77264223Y-117439040D01*
X77631044Y-117003307D01*
X77658873Y-116939490D01*
X77887795Y-116623575D01*
X78017268Y-116558587D01*
X78276527Y-116331381D01*
X78465870Y-115898132D01*
X78502053Y-115465587D01*
X78484184Y-115399001D01*
X78435489Y-115052541D01*
X78420869Y-114482597D01*
X78424851Y-114289607D01*
X78391203Y-112957411D01*
X78224599Y-111587219D01*
X77949412Y-110306746D01*
X77590018Y-109243704D01*
X77382165Y-108826433D01*
X77315782Y-108529924D01*
X77465424Y-108118797D01*
X77695901Y-107731960D01*
X78020121Y-107108057D01*
X78069905Y-106704662D01*
X77849216Y-106558770D01*
X77576276Y-106614580D01*
X77232596Y-106654924D01*
X76991605Y-106393435D01*
X76953334Y-106323374D01*
X76706578Y-106030462D01*
X76609996Y-105981416D01*
X77032387Y-105981416D01*
X77111479Y-106223574D01*
X77155810Y-106246095D01*
X77397968Y-106167004D01*
X77420489Y-106122675D01*
X77341397Y-105880516D01*
X77297065Y-105857996D01*
X77054908Y-105937085D01*
X77032387Y-105981416D01*
X76609996Y-105981416D01*
X76257871Y-105802602D01*
X75572091Y-105601301D01*
X74873021Y-105390074D01*
X74522044Y-105200615D01*
X74491624Y-105113001D01*
X74583815Y-105090209D01*
X74711700Y-105058594D01*
X75219523Y-105106422D01*
G37*
G36*
X69680393Y-79254624D02*
G01*
X70204440Y-79781662D01*
X70832749Y-80514265D01*
X71502882Y-81383414D01*
X71607628Y-81527505D01*
X72064200Y-82145791D01*
X72432286Y-82616586D01*
X72643352Y-82852834D01*
X72659552Y-82863807D01*
X72813978Y-83079790D01*
X72998596Y-83510518D01*
X73207633Y-84099746D01*
X74203507Y-83938907D01*
X74733570Y-83938161D01*
X75446135Y-83937158D01*
X76144672Y-84122126D01*
X77089962Y-84466182D01*
X77429515Y-83271228D01*
X77628876Y-82612545D01*
X77784740Y-82273570D01*
X77954522Y-82173526D01*
X78174026Y-82223665D01*
X78496905Y-82489979D01*
X78854164Y-82997322D01*
X79008412Y-83291976D01*
X79390613Y-83960032D01*
X79928254Y-84721718D01*
X80344103Y-85227263D01*
X80899771Y-85858714D01*
X81411980Y-86456648D01*
X81703077Y-86809142D01*
X82096188Y-87232361D01*
X82440106Y-87494351D01*
X82460524Y-87503631D01*
X82872539Y-87880932D01*
X83177282Y-88576390D01*
X83328976Y-89429022D01*
X83319339Y-89995049D01*
X83208702Y-90195440D01*
X83060598Y-90016939D01*
X82946148Y-89508923D01*
X82814015Y-88906654D01*
X82545394Y-88360949D01*
X82075439Y-87773302D01*
X81339310Y-87045207D01*
X81300631Y-87009185D01*
X80448339Y-86144793D01*
X79653672Y-85209457D01*
X79000361Y-84310242D01*
X78572132Y-83554205D01*
X78540551Y-83479925D01*
X78275637Y-82989674D01*
X78042912Y-82909503D01*
X77841211Y-83230757D01*
X77722591Y-83735372D01*
X77639672Y-84407927D01*
X77605662Y-85075038D01*
X77633775Y-85563323D01*
X77656840Y-85650429D01*
X77728229Y-85997513D01*
X77593241Y-86034250D01*
X77313773Y-85764309D01*
X77210929Y-85623959D01*
X76638815Y-85063801D01*
X76118310Y-84783558D01*
X77056280Y-84783558D01*
X77117991Y-84915898D01*
X77250330Y-84854188D01*
X77188620Y-84721848D01*
X77056280Y-84783558D01*
X76118310Y-84783558D01*
X76050907Y-84747268D01*
X75532109Y-84627357D01*
X74847486Y-84555729D01*
X74119880Y-84533306D01*
X73472139Y-84561015D01*
X73027105Y-84639777D01*
X72902719Y-84723603D01*
X73012317Y-84933525D01*
X73349292Y-85259201D01*
X73408979Y-85307342D01*
X73822903Y-85731441D01*
X74301117Y-86360218D01*
X74611469Y-86844217D01*
X75049258Y-87496912D01*
X75506983Y-88037099D01*
X75788062Y-88278429D01*
X76142779Y-88566958D01*
X76256460Y-88792186D01*
X76255563Y-88794844D01*
X76052855Y-88907534D01*
X75682678Y-88715030D01*
X75195734Y-88262823D01*
X74642720Y-87596404D01*
X74185266Y-86937211D01*
X73693287Y-86229898D01*
X73171636Y-85567720D01*
X72867003Y-85231504D01*
X72488164Y-84795094D01*
X72400968Y-84479055D01*
X72509315Y-84235491D01*
X72611699Y-83931700D01*
X72508849Y-83529948D01*
X72171710Y-82928857D01*
X72104770Y-82823971D01*
X71451700Y-81900569D01*
X70772900Y-81094575D01*
X70128621Y-80464923D01*
X69579117Y-80070545D01*
X69186767Y-79969911D01*
X68879012Y-80183063D01*
X68384446Y-80709502D01*
X67733464Y-81511228D01*
X66956451Y-82550246D01*
X66083796Y-83788555D01*
X65801181Y-84203150D01*
X65515834Y-84734649D01*
X65187502Y-85513272D01*
X64849766Y-86435542D01*
X64536208Y-87397981D01*
X64280410Y-88297114D01*
X64115957Y-89029459D01*
X64076428Y-89491546D01*
X64078982Y-89509762D01*
X64167793Y-90199744D01*
X64214995Y-90882513D01*
X64216489Y-91432556D01*
X64168179Y-91724354D01*
X64151839Y-91740843D01*
X63996540Y-91614805D01*
X63787463Y-91231791D01*
X63776997Y-91207671D01*
X63640639Y-90518055D01*
X63667381Y-89543986D01*
X63845116Y-88375021D01*
X64161737Y-87100707D01*
X64452112Y-86214391D01*
X64763105Y-85394099D01*
X65075720Y-84677712D01*
X65449479Y-83947168D01*
X65943911Y-83084395D01*
X66465162Y-82221553D01*
X66754452Y-81825287D01*
X67179005Y-81321264D01*
X67286983Y-81202129D01*
X67635434Y-80806682D01*
X67813221Y-80569815D01*
X67818625Y-80542299D01*
X67907432Y-80390457D01*
X68197343Y-80024177D01*
X68448674Y-79727774D01*
X68874179Y-79287559D01*
X69208967Y-79031425D01*
X69323049Y-79002174D01*
X69680393Y-79254624D01*
G37*
G36*
X90637119Y-116808941D02*
G01*
X90863154Y-117260489D01*
X90971092Y-117700563D01*
X90955831Y-117840605D01*
X91033032Y-118107813D01*
X91137726Y-118223871D01*
X91285749Y-118526809D01*
X91434232Y-119111502D01*
X91545113Y-119808073D01*
X91651464Y-120538248D01*
X91770281Y-121108772D01*
X91870608Y-121385672D01*
X91981674Y-121725620D01*
X92078851Y-122400756D01*
X92154817Y-123333308D01*
X92202258Y-124445508D01*
X92212761Y-125021679D01*
X92133628Y-125920564D01*
X91906503Y-126944410D01*
X91571733Y-127982079D01*
X91169665Y-128922422D01*
X90740644Y-129654301D01*
X90398302Y-130020012D01*
X89936691Y-130268644D01*
X89575040Y-130323945D01*
X89560194Y-130319300D01*
X89441578Y-130199461D01*
X89628289Y-129985912D01*
X89877654Y-129803972D01*
X90503679Y-129164656D01*
X91044122Y-128222972D01*
X91463205Y-127086551D01*
X91725151Y-125863020D01*
X91794188Y-124660004D01*
X91753634Y-124160400D01*
X91651138Y-123342469D01*
X91551849Y-122483241D01*
X91538384Y-122358898D01*
X91420546Y-121562796D01*
X91227088Y-120553373D01*
X90996584Y-119511612D01*
X90767610Y-118618498D01*
X90677511Y-118319938D01*
X90575921Y-117888284D01*
X90575346Y-117678423D01*
X90481280Y-117473968D01*
X90437560Y-117453211D01*
X90248308Y-117577837D01*
X90030092Y-117975613D01*
X89990420Y-118077940D01*
X89804936Y-118493062D01*
X89487877Y-119059565D01*
X89011804Y-119821091D01*
X88349285Y-120821283D01*
X87472884Y-122103780D01*
X87326372Y-122315838D01*
X86971941Y-122746218D01*
X86770640Y-122796203D01*
X86724904Y-122469940D01*
X86837165Y-121771573D01*
X86884443Y-121563607D01*
X87078960Y-120563338D01*
X87131198Y-119849757D01*
X87048893Y-119448650D01*
X86839783Y-119385804D01*
X86511611Y-119687006D01*
X86377007Y-119872899D01*
X86008443Y-120259851D01*
X85435697Y-120704472D01*
X85090013Y-120926892D01*
X84540680Y-121279557D01*
X84160886Y-121573859D01*
X84059493Y-121693697D01*
X83821101Y-121869469D01*
X83272893Y-122095189D01*
X82510707Y-122343237D01*
X81630385Y-122585996D01*
X80727766Y-122795849D01*
X79898693Y-122945169D01*
X79578978Y-122984873D01*
X79030089Y-123043745D01*
X78723692Y-123078780D01*
X78216874Y-123045539D01*
X77607066Y-122891800D01*
X77568728Y-122878164D01*
X76869864Y-122623798D01*
X76709854Y-123494728D01*
X76636029Y-124177248D01*
X76653275Y-124779577D01*
X76673010Y-124889389D01*
X76693243Y-125292254D01*
X76580317Y-125457892D01*
X76410795Y-125314273D01*
X76319712Y-124933534D01*
X76317523Y-124418907D01*
X76366734Y-124112274D01*
X76405844Y-123750083D01*
X76381504Y-123192473D01*
X76372329Y-123105335D01*
X76336364Y-122600668D01*
X76440311Y-122349608D01*
X76767907Y-122196596D01*
X76881342Y-122159669D01*
X77278798Y-121995408D01*
X77342866Y-121817189D01*
X77255519Y-121670362D01*
X76949724Y-121366647D01*
X76816790Y-121289303D01*
X76564738Y-121042133D01*
X76475436Y-120861218D01*
X76473787Y-120542190D01*
X76747715Y-120374060D01*
X77245528Y-120112988D01*
X77449252Y-119958687D01*
X77620759Y-119773768D01*
X77500393Y-119722682D01*
X77127327Y-119753591D01*
X76407348Y-119788537D01*
X75818013Y-119739273D01*
X75462021Y-119620943D01*
X75408349Y-119500087D01*
X75641837Y-119367862D01*
X76111883Y-119312924D01*
X76150239Y-119313127D01*
X76796785Y-119224696D01*
X77320838Y-119021776D01*
X77789170Y-118871939D01*
X78094905Y-119018130D01*
X78224531Y-119371213D01*
X78164540Y-119842056D01*
X77901422Y-120341528D01*
X77571349Y-120674534D01*
X77297949Y-120974336D01*
X77375854Y-121228905D01*
X77829503Y-121504953D01*
X77885137Y-121531065D01*
X78262172Y-121797431D01*
X78271799Y-122108728D01*
X78267957Y-122117169D01*
X78229743Y-122370940D01*
X78492873Y-122488515D01*
X78673474Y-122512466D01*
X79244009Y-122488840D01*
X79924819Y-122354715D01*
X80041806Y-122320590D01*
X80578974Y-122204179D01*
X80940100Y-122218278D01*
X80993193Y-122252990D01*
X81242062Y-122284257D01*
X81528860Y-122130491D01*
X81893161Y-121915963D01*
X82085861Y-121885182D01*
X82480142Y-121881759D01*
X83014687Y-121725657D01*
X83509951Y-121486714D01*
X83786401Y-121234773D01*
X83791820Y-121221568D01*
X84039797Y-120926653D01*
X84518183Y-120582039D01*
X84726663Y-120464439D01*
X85233836Y-120171482D01*
X85554259Y-119933769D01*
X85601345Y-119872603D01*
X85856568Y-119531189D01*
X86296898Y-119183798D01*
X86766600Y-118932795D01*
X87109938Y-118880534D01*
X87110445Y-118880713D01*
X87368679Y-119165155D01*
X87527357Y-119698363D01*
X87557184Y-120322119D01*
X87464321Y-120791895D01*
X87392477Y-121101086D01*
X87441605Y-121159573D01*
X87688488Y-120919020D01*
X88068544Y-120411180D01*
X88520501Y-119733141D01*
X88983082Y-118981982D01*
X89395014Y-118254795D01*
X89695021Y-117648658D01*
X89762554Y-117482226D01*
X90052189Y-116823826D01*
X90294750Y-116555812D01*
X90385872Y-116555370D01*
X90637119Y-116808941D01*
G37*
%TO.C,SW5*%
D18*
X28750000Y-105750000D02*
G75*
G02*
X26750000Y-105750000I-1000000J0D01*
G01*
X26750000Y-105750000D02*
G75*
G02*
X28750000Y-105750000I1000000J0D01*
G01*
D10*
X32350000Y-117450000D02*
X32350000Y-112450000D01*
X34650000Y-112450000D01*
X35950000Y-110550000D01*
X37750000Y-110550000D01*
X37750000Y-100950000D01*
X35950000Y-100950000D01*
X34650000Y-99050000D01*
X32550000Y-99050000D01*
X32550000Y-95850000D01*
X22850000Y-95850000D01*
X22850000Y-99050000D01*
X19850000Y-99050000D01*
X19850000Y-112450000D01*
X23150000Y-112450000D01*
X23150000Y-117450000D01*
X32350000Y-117450000D01*
%TO.C,J1*%
D13*
X37755000Y-86765000D02*
X38500000Y-86765000D01*
X37755000Y-87500000D02*
X37755000Y-86765000D01*
X37755000Y-88235000D02*
X37755000Y-92110000D01*
X37755000Y-88235000D02*
X37814435Y-88235000D01*
X37755000Y-92110000D02*
X38089970Y-92110000D01*
X38910030Y-92110000D02*
X39245000Y-92110000D01*
X39185565Y-88235000D02*
X39245000Y-88235000D01*
X39245000Y-88235000D02*
X39245000Y-92110000D01*
D17*
%TO.C,G\u002A\u002A\u002A*%
G36*
X17171284Y-88021869D02*
G01*
X17221968Y-88038160D01*
X17236165Y-88055702D01*
X17267896Y-88082232D01*
X17340884Y-88093706D01*
X17377614Y-88094500D01*
X17475628Y-88103249D01*
X17540423Y-88132589D01*
X17555906Y-88146231D01*
X17596454Y-88194382D01*
X17599619Y-88225345D01*
X17561281Y-88242491D01*
X17477320Y-88249187D01*
X17429345Y-88249694D01*
X17326939Y-88252809D01*
X17266506Y-88263422D01*
X17238589Y-88283431D01*
X17236165Y-88288492D01*
X17201174Y-88315253D01*
X17134111Y-88327287D01*
X17052254Y-88325377D01*
X16972883Y-88310304D01*
X16913276Y-88282851D01*
X16902800Y-88273404D01*
X16863641Y-88216973D01*
X16865294Y-88181573D01*
X16896333Y-88172097D01*
X16927136Y-88148962D01*
X16935132Y-88094500D01*
X16937496Y-88050232D01*
X16953054Y-88027135D01*
X16994502Y-88018321D01*
X17074538Y-88016904D01*
X17078204Y-88016904D01*
X17171284Y-88021869D01*
G37*
G36*
X18627744Y-86962342D02*
G01*
X18675186Y-86981440D01*
X18684637Y-86995213D01*
X18719255Y-87025362D01*
X18761422Y-87034011D01*
X18809427Y-87046024D01*
X18823273Y-87091253D01*
X18823319Y-87095908D01*
X18837766Y-87149549D01*
X18862117Y-87172693D01*
X18886262Y-87206516D01*
X18898850Y-87273516D01*
X18899923Y-87356460D01*
X18889522Y-87438110D01*
X18867689Y-87501232D01*
X18861295Y-87511002D01*
X18836066Y-87577123D01*
X18824179Y-87688662D01*
X18823319Y-87737030D01*
X18816871Y-87862458D01*
X18793464Y-87945016D01*
X18747007Y-87992412D01*
X18671407Y-88012352D01*
X18604180Y-88014250D01*
X18531331Y-88009725D01*
X18477757Y-87993835D01*
X18426249Y-87957704D01*
X18359597Y-87892457D01*
X18351272Y-87883818D01*
X18228411Y-87756040D01*
X18228411Y-87514188D01*
X18230168Y-87394943D01*
X18236341Y-87318372D01*
X18248286Y-87275510D01*
X18267209Y-87257448D01*
X18296424Y-87221138D01*
X18306868Y-87157685D01*
X18326026Y-87057284D01*
X18382181Y-86991910D01*
X18476960Y-86960143D01*
X18537289Y-86956415D01*
X18627744Y-86962342D01*
G37*
G36*
X17904357Y-88576430D02*
G01*
X17943889Y-88611812D01*
X17978921Y-88669553D01*
X17995084Y-88741945D01*
X17991399Y-88810163D01*
X17966891Y-88855383D01*
X17956822Y-88861114D01*
X17924108Y-88896388D01*
X17918024Y-88924966D01*
X17900579Y-88977757D01*
X17861697Y-89030257D01*
X17797784Y-89066528D01*
X17712227Y-89082375D01*
X17625098Y-89077545D01*
X17556471Y-89051783D01*
X17537749Y-89034341D01*
X17495740Y-89006776D01*
X17469152Y-89007700D01*
X17428188Y-88998432D01*
X17370675Y-88953732D01*
X17349751Y-88932100D01*
X17267859Y-88842107D01*
X17211424Y-88914211D01*
X17116689Y-89020672D01*
X17032913Y-89079555D01*
X16953934Y-89092099D01*
X16873591Y-89059544D01*
X16799337Y-88997050D01*
X16730658Y-88915606D01*
X16702893Y-88851782D01*
X16716458Y-88809572D01*
X16771764Y-88792973D01*
X16778220Y-88792871D01*
X16834224Y-88801227D01*
X16857690Y-88836370D01*
X16862283Y-88864001D01*
X16878753Y-88917281D01*
X16920728Y-88934659D01*
X16935132Y-88935132D01*
X16988095Y-88921171D01*
X17008332Y-88874864D01*
X17042090Y-88790291D01*
X17106599Y-88736112D01*
X17188667Y-88715421D01*
X17275107Y-88731311D01*
X17352727Y-88786876D01*
X17357945Y-88792871D01*
X17412620Y-88843310D01*
X17464854Y-88869453D01*
X17473872Y-88870468D01*
X17522789Y-88887916D01*
X17539394Y-88909266D01*
X17570348Y-88937526D01*
X17619812Y-88947596D01*
X17665525Y-88939054D01*
X17685234Y-88912033D01*
X17706097Y-88872103D01*
X17724032Y-88861114D01*
X17753247Y-88824804D01*
X17763691Y-88761351D01*
X17776582Y-88696142D01*
X17807230Y-88628753D01*
X17845367Y-88577439D01*
X17876905Y-88560081D01*
X17904357Y-88576430D01*
G37*
G36*
X18562815Y-86492906D02*
G01*
X18634155Y-86500133D01*
X18672307Y-86514031D01*
X18684637Y-86529633D01*
X18723022Y-86559032D01*
X18800221Y-86568431D01*
X18871115Y-86575198D01*
X18899524Y-86597476D01*
X18900916Y-86607229D01*
X18923239Y-86638530D01*
X18962689Y-86646028D01*
X19006048Y-86664380D01*
X19072968Y-86713229D01*
X19153976Y-86783263D01*
X19239595Y-86865171D01*
X19320352Y-86949639D01*
X19386771Y-87027357D01*
X19429379Y-87089013D01*
X19439633Y-87114777D01*
X19463072Y-87164061D01*
X19484898Y-87180621D01*
X19513332Y-87214560D01*
X19521690Y-87257448D01*
X19535960Y-87311419D01*
X19560488Y-87335045D01*
X19577857Y-87351222D01*
X19589356Y-87389461D01*
X19596031Y-87458099D01*
X19598927Y-87565472D01*
X19599286Y-87644620D01*
X19599286Y-87939307D01*
X19528156Y-87937151D01*
X19456599Y-87916591D01*
X19407825Y-87881485D01*
X19375529Y-87840735D01*
X19379148Y-87815437D01*
X19401359Y-87796725D01*
X19424430Y-87755447D01*
X19439702Y-87680976D01*
X19447050Y-87588290D01*
X19446344Y-87492366D01*
X19437457Y-87408183D01*
X19420262Y-87350717D01*
X19405295Y-87335045D01*
X19375290Y-87300466D01*
X19366496Y-87257448D01*
X19352226Y-87203477D01*
X19327698Y-87179851D01*
X19294959Y-87144572D01*
X19288900Y-87116115D01*
X19270182Y-87071065D01*
X19222030Y-87007042D01*
X19156445Y-86936049D01*
X19085425Y-86870084D01*
X19020973Y-86821150D01*
X18975087Y-86801245D01*
X18974006Y-86801221D01*
X18925863Y-86783178D01*
X18910269Y-86762423D01*
X18872151Y-86733032D01*
X18797453Y-86723625D01*
X18719189Y-86712991D01*
X18684637Y-86684826D01*
X18662233Y-86663019D01*
X18609588Y-86650762D01*
X18517242Y-86646189D01*
X18487878Y-86646028D01*
X18389254Y-86648292D01*
X18332713Y-86656438D01*
X18308750Y-86672491D01*
X18306007Y-86684826D01*
X18283732Y-86716154D01*
X18245039Y-86723625D01*
X18190295Y-86743144D01*
X18119296Y-86793505D01*
X18044335Y-86862410D01*
X17977711Y-86937565D01*
X17931719Y-87006671D01*
X17918024Y-87050639D01*
X17903849Y-87099869D01*
X17879225Y-87111608D01*
X17844934Y-87090904D01*
X17840427Y-87072810D01*
X17817292Y-87042008D01*
X17762830Y-87034011D01*
X17701537Y-87024928D01*
X17688554Y-86998513D01*
X17724032Y-86956415D01*
X17757253Y-86904894D01*
X17762830Y-86874839D01*
X17780693Y-86826467D01*
X17801629Y-86810575D01*
X17836005Y-86778008D01*
X17840427Y-86759656D01*
X17863362Y-86731471D01*
X17911557Y-86722529D01*
X17990597Y-86696069D01*
X18046138Y-86644932D01*
X18106274Y-86591498D01*
X18165542Y-86568536D01*
X18169000Y-86568431D01*
X18217050Y-86553947D01*
X18228411Y-86529633D01*
X18237776Y-86510266D01*
X18271874Y-86498399D01*
X18339705Y-86492450D01*
X18449080Y-86490834D01*
X18562815Y-86492906D01*
G37*
G36*
X16303610Y-86594297D02*
G01*
X16546471Y-86840020D01*
X16546810Y-87196483D01*
X16546032Y-87343181D01*
X16542841Y-87445865D01*
X16536443Y-87512227D01*
X16526038Y-87549956D01*
X16510832Y-87566746D01*
X16508350Y-87567835D01*
X16479049Y-87604833D01*
X16469551Y-87670486D01*
X16447659Y-87767024D01*
X16386845Y-87833027D01*
X16294405Y-87861198D01*
X16278327Y-87861710D01*
X16207680Y-87873096D01*
X16175676Y-87900508D01*
X16154481Y-87932732D01*
X16122730Y-87930503D01*
X16072277Y-87891128D01*
X16034910Y-87854012D01*
X15984391Y-87789766D01*
X15955149Y-87729112D01*
X15952240Y-87710940D01*
X15936823Y-87658995D01*
X15913441Y-87638274D01*
X15888079Y-87609138D01*
X15876184Y-87541569D01*
X15874643Y-87486659D01*
X15880149Y-87395168D01*
X15898028Y-87346392D01*
X15913441Y-87335045D01*
X15938436Y-87306685D01*
X15950426Y-87240779D01*
X15952240Y-87179851D01*
X15957430Y-87087471D01*
X15974382Y-87037608D01*
X15991038Y-87024658D01*
X16020373Y-86987338D01*
X16029836Y-86919320D01*
X16046428Y-86833841D01*
X16102442Y-86754664D01*
X16107433Y-86749490D01*
X16164116Y-86683148D01*
X16180096Y-86632886D01*
X16156471Y-86584309D01*
X16122740Y-86549032D01*
X16064679Y-86509646D01*
X15988682Y-86493627D01*
X15935661Y-86492406D01*
X15860046Y-86496829D01*
X15808589Y-86514795D01*
X15761352Y-86556893D01*
X15719449Y-86607229D01*
X15664174Y-86669900D01*
X15617412Y-86711707D01*
X15596588Y-86722053D01*
X15573339Y-86745988D01*
X15564256Y-86801221D01*
X15552688Y-86862826D01*
X15525458Y-86878818D01*
X15494280Y-86901347D01*
X15486659Y-86944294D01*
X15472960Y-86999380D01*
X15447861Y-87024658D01*
X15417207Y-87059410D01*
X15409062Y-87098675D01*
X15393978Y-87151181D01*
X15370264Y-87172693D01*
X15340861Y-87211472D01*
X15331466Y-87292667D01*
X15321314Y-87376201D01*
X15292667Y-87412642D01*
X15263268Y-87451026D01*
X15253869Y-87528225D01*
X15250581Y-87593411D01*
X15233010Y-87621941D01*
X15189591Y-87628821D01*
X15176272Y-87628920D01*
X15131911Y-87626531D01*
X15108822Y-87610876D01*
X15100058Y-87569221D01*
X15098676Y-87488835D01*
X15098675Y-87486659D01*
X15102159Y-87400867D01*
X15114381Y-87356698D01*
X15137474Y-87344398D01*
X15164355Y-87327448D01*
X15175517Y-87271152D01*
X15176272Y-87240124D01*
X15186477Y-87157185D01*
X15215071Y-87120962D01*
X15245075Y-87086383D01*
X15253869Y-87043365D01*
X15268139Y-86989394D01*
X15292667Y-86965768D01*
X15322046Y-86927902D01*
X15331466Y-86855438D01*
X15343478Y-86775661D01*
X15388133Y-86713993D01*
X15407967Y-86696546D01*
X15459477Y-86639073D01*
X15484938Y-86581362D01*
X15485564Y-86574086D01*
X15501583Y-86521570D01*
X15525458Y-86500188D01*
X15559834Y-86467621D01*
X15564256Y-86449269D01*
X15587435Y-86421382D01*
X15639697Y-86413238D01*
X15697169Y-86403352D01*
X15725937Y-86380906D01*
X15759621Y-86360203D01*
X15842299Y-86349806D01*
X15898742Y-86348574D01*
X16060749Y-86348574D01*
X16303610Y-86594297D01*
G37*
G36*
X15317802Y-92761554D02*
G01*
X15331364Y-92809941D01*
X15331466Y-92815780D01*
X15345165Y-92870867D01*
X15370264Y-92896145D01*
X15410511Y-92924375D01*
X15406312Y-92953857D01*
X15364036Y-92976134D01*
X15304788Y-92983095D01*
X15221849Y-92993299D01*
X15185626Y-93021893D01*
X15150547Y-93050844D01*
X15095908Y-93060692D01*
X15036345Y-93072617D01*
X15021079Y-93099490D01*
X14998807Y-93130820D01*
X14960167Y-93138288D01*
X14912639Y-93155995D01*
X14848810Y-93201776D01*
X14779487Y-93264625D01*
X14715477Y-93333535D01*
X14667587Y-93397499D01*
X14646625Y-93445510D01*
X14647669Y-93456558D01*
X14640287Y-93495953D01*
X14621649Y-93509190D01*
X14598501Y-93531544D01*
X14585844Y-93583074D01*
X14581449Y-93674021D01*
X14581364Y-93694398D01*
X14577922Y-93794504D01*
X14566281Y-93852653D01*
X14544465Y-93878245D01*
X14542566Y-93879037D01*
X14526425Y-93893833D01*
X14515311Y-93928881D01*
X14508388Y-93991963D01*
X14504819Y-94090862D01*
X14503769Y-94233359D01*
X14503767Y-94240343D01*
X14504595Y-94382770D01*
X14507643Y-94481038D01*
X14513757Y-94542704D01*
X14523784Y-94575322D01*
X14538569Y-94586447D01*
X14542566Y-94586761D01*
X14566131Y-94599705D01*
X14578161Y-94645031D01*
X14581364Y-94726722D01*
X14584914Y-94812991D01*
X14600745Y-94868060D01*
X14636631Y-94912260D01*
X14660232Y-94933047D01*
X14708612Y-94982964D01*
X14731343Y-95024994D01*
X14731386Y-95033005D01*
X14740658Y-95080806D01*
X14776580Y-95134475D01*
X14824181Y-95177582D01*
X14868485Y-95193697D01*
X14876281Y-95191997D01*
X14922068Y-95198714D01*
X14970115Y-95239686D01*
X15007186Y-95299810D01*
X15020218Y-95356262D01*
X15004111Y-95401677D01*
X14961420Y-95413002D01*
X14903375Y-95391447D01*
X14841208Y-95338220D01*
X14840020Y-95336863D01*
X14782474Y-95287259D01*
X14725057Y-95261766D01*
X14717158Y-95260954D01*
X14669722Y-95243941D01*
X14658961Y-95206663D01*
X14641281Y-95156051D01*
X14597261Y-95094865D01*
X14581364Y-95078207D01*
X14532275Y-95018908D01*
X14505459Y-94964513D01*
X14503767Y-94952518D01*
X14486058Y-94903946D01*
X14464969Y-94887794D01*
X14440244Y-94859994D01*
X14428195Y-94795298D01*
X14426170Y-94729833D01*
X14422723Y-94643766D01*
X14410618Y-94599327D01*
X14387372Y-94586761D01*
X14371976Y-94579628D01*
X14361165Y-94553369D01*
X14354188Y-94500691D01*
X14350291Y-94414304D01*
X14348721Y-94286914D01*
X14348574Y-94210898D01*
X14349422Y-94059868D01*
X14352462Y-93953046D01*
X14358439Y-93882929D01*
X14368099Y-93842013D01*
X14382186Y-93822797D01*
X14387372Y-93820147D01*
X14409397Y-93797379D01*
X14421661Y-93743904D01*
X14426066Y-93650267D01*
X14426170Y-93626967D01*
X14428513Y-93529455D01*
X14436924Y-93473974D01*
X14453482Y-93450978D01*
X14464969Y-93448675D01*
X14495852Y-93425676D01*
X14503767Y-93373846D01*
X14516195Y-93313240D01*
X14542566Y-93284128D01*
X14574696Y-93248997D01*
X14581364Y-93217559D01*
X14600701Y-93165646D01*
X14648921Y-93101428D01*
X14711337Y-93039817D01*
X14773262Y-92995729D01*
X14812249Y-92983095D01*
X14860066Y-92964791D01*
X14875239Y-92944297D01*
X14913698Y-92914896D01*
X14991634Y-92905498D01*
X15072541Y-92895110D01*
X15108029Y-92866700D01*
X15142608Y-92836695D01*
X15185626Y-92827901D01*
X15239597Y-92813631D01*
X15263223Y-92789103D01*
X15290667Y-92752880D01*
X15317802Y-92761554D01*
G37*
G36*
X17409807Y-84034986D02*
G01*
X17449154Y-84085102D01*
X17460767Y-84126121D01*
X17459954Y-84128937D01*
X17474572Y-84155123D01*
X17522840Y-84213362D01*
X17601156Y-84299810D01*
X17705921Y-84410625D01*
X17833533Y-84541964D01*
X17980390Y-84689984D01*
X18057638Y-84766798D01*
X18203646Y-84912232D01*
X18337136Y-85046851D01*
X18453806Y-85166185D01*
X18549350Y-85265764D01*
X18619465Y-85341118D01*
X18659846Y-85387776D01*
X18668126Y-85400820D01*
X18678733Y-85427912D01*
X18712239Y-85420089D01*
X18771166Y-85375656D01*
X18858039Y-85292918D01*
X18913033Y-85236354D01*
X18995465Y-85154824D01*
X19069590Y-85090029D01*
X19125617Y-85050088D01*
X19148390Y-85041266D01*
X19196818Y-85021679D01*
X19252064Y-84974804D01*
X19261821Y-84963670D01*
X19315119Y-84913598D01*
X19365359Y-84888021D01*
X19373207Y-84887168D01*
X19421115Y-84869280D01*
X19478789Y-84825052D01*
X19490816Y-84812922D01*
X19551987Y-84761469D01*
X19612056Y-84747543D01*
X19636106Y-84749743D01*
X19692043Y-84748670D01*
X19742398Y-84720433D01*
X19793729Y-84668636D01*
X19850334Y-84611862D01*
X19896008Y-84588963D01*
X19949087Y-84591157D01*
X19953645Y-84592042D01*
X20015730Y-84595445D01*
X20045780Y-84570223D01*
X20047400Y-84566337D01*
X20065949Y-84544930D01*
X20108119Y-84532175D01*
X20184041Y-84526204D01*
X20270980Y-84525050D01*
X20406651Y-84531809D01*
X20498731Y-84554826D01*
X20553912Y-84598215D01*
X20578890Y-84666089D01*
X20582179Y-84716275D01*
X20593564Y-84786921D01*
X20620977Y-84818925D01*
X20633342Y-84830161D01*
X20642838Y-84857113D01*
X20649821Y-84905670D01*
X20654649Y-84981722D01*
X20657679Y-85091159D01*
X20659267Y-85239871D01*
X20659771Y-85433748D01*
X20659775Y-85459014D01*
X20659477Y-85656484D01*
X20658291Y-85808576D01*
X20655783Y-85921644D01*
X20651518Y-86002039D01*
X20645058Y-86056114D01*
X20635970Y-86090221D01*
X20623819Y-86110712D01*
X20614511Y-86119398D01*
X20584675Y-86148238D01*
X20594263Y-86172676D01*
X20620977Y-86194979D01*
X20656013Y-86227204D01*
X20650499Y-86250242D01*
X20627443Y-86268961D01*
X20608337Y-86289611D01*
X20595398Y-86324111D01*
X20587487Y-86381526D01*
X20583468Y-86470917D01*
X20582202Y-86601348D01*
X20582179Y-86629480D01*
X20581323Y-86766874D01*
X20578120Y-86860406D01*
X20571616Y-86917924D01*
X20560858Y-86947280D01*
X20544894Y-86956322D01*
X20542475Y-86956415D01*
X20524501Y-86963607D01*
X20513518Y-86990979D01*
X20508466Y-87047226D01*
X20508284Y-87141043D01*
X20510143Y-87221537D01*
X20517515Y-87486659D01*
X20627443Y-87494613D01*
X20699249Y-87495459D01*
X20731833Y-87482001D01*
X20737372Y-87462281D01*
X20750888Y-87426916D01*
X20763238Y-87421995D01*
X20801703Y-87440407D01*
X20848692Y-87482537D01*
X20884545Y-87528721D01*
X20892566Y-87551323D01*
X20913516Y-87574270D01*
X20931364Y-87577189D01*
X20962661Y-87599519D01*
X20970162Y-87639085D01*
X20955715Y-87692726D01*
X20931364Y-87715870D01*
X20899155Y-87751021D01*
X20892566Y-87782070D01*
X20875092Y-87825252D01*
X20829241Y-87889512D01*
X20764864Y-87961081D01*
X20763588Y-87962358D01*
X20682467Y-88037161D01*
X20617559Y-88079270D01*
X20554249Y-88097533D01*
X20537264Y-88099384D01*
X20469912Y-88111333D01*
X20438952Y-88138492D01*
X20431637Y-88165746D01*
X20441032Y-88220307D01*
X20463969Y-88239644D01*
X20499464Y-88271840D01*
X20504582Y-88291259D01*
X20519473Y-88323866D01*
X20530447Y-88327290D01*
X20577109Y-88348886D01*
X20623437Y-88400773D01*
X20654545Y-88463598D01*
X20659775Y-88495417D01*
X20673266Y-88547424D01*
X20698574Y-88560081D01*
X20720411Y-88571370D01*
X20732508Y-88611681D01*
X20737113Y-88690676D01*
X20737372Y-88726874D01*
X20734183Y-88825172D01*
X20721425Y-88889732D01*
X20694310Y-88938323D01*
X20674034Y-88962011D01*
X20625179Y-89002457D01*
X20586294Y-89014189D01*
X20581524Y-89012324D01*
X20544650Y-89015693D01*
X20504385Y-89045779D01*
X20468875Y-89074685D01*
X20422095Y-89087756D01*
X20347897Y-89088064D01*
X20299627Y-89084728D01*
X20208833Y-89080094D01*
X20156919Y-89085824D01*
X20131711Y-89103954D01*
X20126950Y-89113590D01*
X20101334Y-89139646D01*
X20043240Y-89152422D01*
X19971570Y-89154989D01*
X19885851Y-89158838D01*
X19842429Y-89171994D01*
X19832077Y-89192497D01*
X19816100Y-89216176D01*
X19762978Y-89230766D01*
X19683350Y-89237761D01*
X19598844Y-89244166D01*
X19552926Y-89256119D01*
X19532456Y-89279655D01*
X19525668Y-89310183D01*
X19505400Y-89367777D01*
X19480403Y-89395531D01*
X19449807Y-89436327D01*
X19444093Y-89466661D01*
X19420797Y-89535174D01*
X19361177Y-89590277D01*
X19280636Y-89619294D01*
X19256568Y-89621016D01*
X19161242Y-89646048D01*
X19114307Y-89682860D01*
X19068380Y-89736733D01*
X19063319Y-89764783D01*
X19100775Y-89774928D01*
X19133706Y-89775763D01*
X19195311Y-89787330D01*
X19211303Y-89814561D01*
X19232007Y-89848853D01*
X19250101Y-89853360D01*
X19284393Y-89874064D01*
X19288900Y-89892158D01*
X19309604Y-89926450D01*
X19327698Y-89930956D01*
X19361990Y-89951661D01*
X19366496Y-89969755D01*
X19380463Y-90004176D01*
X19392362Y-90008553D01*
X19436692Y-90029237D01*
X19483492Y-90077982D01*
X19515989Y-90134830D01*
X19521690Y-90162461D01*
X19542309Y-90216330D01*
X19566739Y-90238118D01*
X19595511Y-90266820D01*
X19578075Y-90290104D01*
X19519934Y-90303915D01*
X19474606Y-90306007D01*
X19405180Y-90314103D01*
X19374458Y-90341593D01*
X19371696Y-90351272D01*
X19374496Y-90379612D01*
X19405455Y-90393066D01*
X19476110Y-90396536D01*
X19478227Y-90396537D01*
X19561199Y-90403613D01*
X19603336Y-90426795D01*
X19609850Y-90438489D01*
X19638031Y-90467241D01*
X19696954Y-90466204D01*
X19702146Y-90465201D01*
X19780137Y-90466914D01*
X19822894Y-90494380D01*
X19881427Y-90526207D01*
X19959689Y-90538957D01*
X20025785Y-90547072D01*
X20045653Y-90570223D01*
X20045468Y-90571289D01*
X20061528Y-90598230D01*
X20112592Y-90609221D01*
X20148158Y-90606782D01*
X20173210Y-90624486D01*
X20195650Y-90657911D01*
X20225932Y-90694032D01*
X20273688Y-90701063D01*
X20311420Y-90695542D01*
X20375802Y-90690207D01*
X20412518Y-90710636D01*
X20427713Y-90734150D01*
X20465625Y-90774227D01*
X20519640Y-90773366D01*
X20568333Y-90770261D01*
X20582179Y-90796961D01*
X20604553Y-90827979D01*
X20659775Y-90836252D01*
X20714258Y-90843744D01*
X20737366Y-90861796D01*
X20737372Y-90862117D01*
X20758421Y-90906953D01*
X20809048Y-90954425D01*
X20870471Y-90988795D01*
X20896962Y-90995841D01*
X20949854Y-91023758D01*
X20966074Y-91066996D01*
X20990996Y-91125257D01*
X21040704Y-91186914D01*
X21050137Y-91195618D01*
X21099505Y-91252807D01*
X21124572Y-91308984D01*
X21125356Y-91317758D01*
X21141196Y-91369017D01*
X21164154Y-91388783D01*
X21191422Y-91423193D01*
X21202523Y-91484426D01*
X21197199Y-91550079D01*
X21175192Y-91597748D01*
X21166643Y-91604468D01*
X21135280Y-91644224D01*
X21121378Y-91689816D01*
X21095541Y-91745234D01*
X21050703Y-91763207D01*
X20993220Y-91787629D01*
X20930432Y-91836696D01*
X20919356Y-91848165D01*
X20857397Y-91900242D01*
X20808848Y-91908706D01*
X20808467Y-91908562D01*
X20763417Y-91915572D01*
X20737959Y-91947376D01*
X20707494Y-91984048D01*
X20659898Y-91991291D01*
X20622201Y-91985793D01*
X20555381Y-91981109D01*
X20518183Y-92002775D01*
X20510634Y-92014336D01*
X20497525Y-92029768D01*
X20473296Y-92041172D01*
X20430990Y-92049107D01*
X20363646Y-92054135D01*
X20264307Y-92056819D01*
X20126013Y-92057720D01*
X19975609Y-92057512D01*
X19798513Y-92056509D01*
X19666134Y-92054372D01*
X19571459Y-92050511D01*
X19507477Y-92044336D01*
X19467176Y-92035260D01*
X19443545Y-92022691D01*
X19433497Y-92011957D01*
X19385489Y-91980941D01*
X19345126Y-91985843D01*
X19306550Y-92009623D01*
X19290747Y-92058518D01*
X19288900Y-92102641D01*
X19299462Y-92181663D01*
X19327698Y-92216481D01*
X19352693Y-92244841D01*
X19364682Y-92310747D01*
X19366496Y-92371675D01*
X19371686Y-92464055D01*
X19388639Y-92513918D01*
X19405295Y-92526868D01*
X19430019Y-92554668D01*
X19442068Y-92619365D01*
X19444093Y-92684829D01*
X19444093Y-92827901D01*
X19587165Y-92827901D01*
X19680245Y-92822936D01*
X19730929Y-92806645D01*
X19745126Y-92789103D01*
X19757629Y-92775282D01*
X19787431Y-92765086D01*
X19841169Y-92758003D01*
X19925479Y-92753522D01*
X20046998Y-92751133D01*
X20212362Y-92750322D01*
X20248693Y-92750305D01*
X20421557Y-92749794D01*
X20549174Y-92747919D01*
X20638023Y-92744165D01*
X20694582Y-92738018D01*
X20725330Y-92728963D01*
X20736744Y-92716487D01*
X20737372Y-92711506D01*
X20746444Y-92692578D01*
X20779553Y-92680788D01*
X20845540Y-92674663D01*
X20953245Y-92672728D01*
X20970162Y-92672708D01*
X21083731Y-92671196D01*
X21154472Y-92665678D01*
X21191225Y-92654680D01*
X21202830Y-92636729D01*
X21202952Y-92633910D01*
X21215933Y-92610310D01*
X21261364Y-92598283D01*
X21342446Y-92595111D01*
X21434623Y-92589852D01*
X21484242Y-92572697D01*
X21496828Y-92556313D01*
X21531406Y-92526308D01*
X21574424Y-92517515D01*
X21628395Y-92503244D01*
X21652021Y-92478716D01*
X21686849Y-92447582D01*
X21725919Y-92438822D01*
X21781545Y-92418667D01*
X21840615Y-92370130D01*
X21848379Y-92361226D01*
X21901614Y-92311160D01*
X21951715Y-92285580D01*
X21959542Y-92284724D01*
X22007834Y-92266766D01*
X22064552Y-92222640D01*
X22073344Y-92213594D01*
X22131506Y-92166252D01*
X22187927Y-92142963D01*
X22194970Y-92142464D01*
X22242458Y-92124504D01*
X22259353Y-92079845D01*
X22284275Y-92021584D01*
X22333983Y-91959927D01*
X22343416Y-91951224D01*
X22392501Y-91896945D01*
X22417734Y-91847134D01*
X22418635Y-91839250D01*
X22435997Y-91787602D01*
X22470366Y-91741547D01*
X22524242Y-91705968D01*
X22583794Y-91690815D01*
X22631896Y-91697472D01*
X22651425Y-91726896D01*
X22674214Y-91757251D01*
X22722555Y-91772161D01*
X22793686Y-91780345D01*
X22793686Y-92013136D01*
X22797734Y-92152692D01*
X22810463Y-92247735D01*
X22832240Y-92304123D01*
X22875474Y-92346136D01*
X22921905Y-92361374D01*
X22955093Y-92347375D01*
X22961812Y-92323523D01*
X22982731Y-92289898D01*
X23003431Y-92284724D01*
X23060504Y-92305921D01*
X23118141Y-92357250D01*
X23158978Y-92420318D01*
X23168290Y-92459317D01*
X23183404Y-92506346D01*
X23207535Y-92517515D01*
X23228574Y-92528130D01*
X23240636Y-92566311D01*
X23245748Y-92641565D01*
X23246333Y-92699385D01*
X23249328Y-92802756D01*
X23259555Y-92864137D01*
X23278881Y-92892989D01*
X23285132Y-92896145D01*
X23303635Y-92913716D01*
X23315426Y-92955191D01*
X23321761Y-93029357D01*
X23323895Y-93145000D01*
X23323930Y-93167733D01*
X23322347Y-93290762D01*
X23316763Y-93370920D01*
X23305921Y-93416994D01*
X23288566Y-93437770D01*
X23285132Y-93439322D01*
X23264998Y-93459125D01*
X23252900Y-93505778D01*
X23247269Y-93588555D01*
X23246333Y-93668533D01*
X23244147Y-93780593D01*
X23236542Y-93850339D01*
X23221948Y-93887042D01*
X23207535Y-93897744D01*
X23182810Y-93925544D01*
X23170761Y-93990241D01*
X23168737Y-94055705D01*
X23165289Y-94141772D01*
X23153184Y-94186211D01*
X23129938Y-94198777D01*
X23095646Y-94219482D01*
X23091140Y-94237576D01*
X23070435Y-94271867D01*
X23052341Y-94276374D01*
X23018050Y-94297079D01*
X23013543Y-94315172D01*
X22992839Y-94349464D01*
X22974745Y-94353971D01*
X22943540Y-94376456D01*
X22935946Y-94418635D01*
X22919091Y-94480043D01*
X22878535Y-94540398D01*
X22829297Y-94580404D01*
X22805092Y-94586761D01*
X22789079Y-94602338D01*
X22792535Y-94610764D01*
X22783772Y-94635945D01*
X22753314Y-94651924D01*
X22715722Y-94669885D01*
X22711425Y-94681249D01*
X22706737Y-94707501D01*
X22673366Y-94747812D01*
X22626218Y-94788385D01*
X22580197Y-94815421D01*
X22562023Y-94819551D01*
X22524367Y-94837224D01*
X22463212Y-94884265D01*
X22389798Y-94951711D01*
X22365089Y-94976616D01*
X22289498Y-95049282D01*
X22228028Y-95098296D01*
X22189421Y-95116940D01*
X22183929Y-95115821D01*
X22150383Y-95122018D01*
X22100704Y-95159009D01*
X22081366Y-95178614D01*
X22013773Y-95236672D01*
X21941572Y-95258205D01*
X21914902Y-95259266D01*
X21840458Y-95270270D01*
X21807215Y-95298064D01*
X21772636Y-95328069D01*
X21729618Y-95336863D01*
X21675647Y-95351133D01*
X21652021Y-95375661D01*
X21622885Y-95401024D01*
X21555316Y-95412918D01*
X21500407Y-95414460D01*
X21408916Y-95419966D01*
X21360139Y-95437844D01*
X21348792Y-95453258D01*
X21329388Y-95473115D01*
X21283659Y-95485171D01*
X21202398Y-95490941D01*
X21113235Y-95492056D01*
X21003086Y-95493703D01*
X20935592Y-95499698D01*
X20901753Y-95511624D01*
X20892566Y-95530855D01*
X20882404Y-95551320D01*
X20845681Y-95563333D01*
X20773043Y-95568764D01*
X20698574Y-95569653D01*
X20504582Y-95569653D01*
X20504582Y-95673927D01*
X20514786Y-95756867D01*
X20543380Y-95793090D01*
X20568375Y-95821449D01*
X20580365Y-95887355D01*
X20582179Y-95948283D01*
X20576989Y-96040664D01*
X20560036Y-96090526D01*
X20543380Y-96103477D01*
X20513376Y-96138055D01*
X20504582Y-96181073D01*
X20490311Y-96235044D01*
X20465783Y-96258670D01*
X20437030Y-96292998D01*
X20426985Y-96344451D01*
X20426985Y-96415343D01*
X20021478Y-96407863D01*
X19864314Y-96404226D01*
X19751304Y-96399442D01*
X19674871Y-96392639D01*
X19627438Y-96382944D01*
X19601430Y-96369485D01*
X19592527Y-96358490D01*
X19558228Y-96330054D01*
X19495848Y-96332707D01*
X19491473Y-96333643D01*
X19421771Y-96336297D01*
X19367969Y-96301348D01*
X19364129Y-96297307D01*
X19315529Y-96262997D01*
X19276000Y-96258657D01*
X19235440Y-96251613D01*
X19221686Y-96231909D01*
X19186253Y-96199803D01*
X19143060Y-96190427D01*
X19089089Y-96176157D01*
X19065463Y-96151629D01*
X19030884Y-96121624D01*
X18987866Y-96112830D01*
X18933895Y-96098560D01*
X18910269Y-96074032D01*
X18875652Y-96043883D01*
X18833485Y-96035233D01*
X18783555Y-96021236D01*
X18771588Y-95996435D01*
X18752391Y-95962110D01*
X18735725Y-95957637D01*
X18706845Y-95934932D01*
X18688474Y-95880040D01*
X18686642Y-95824320D01*
X18708193Y-95803825D01*
X18724336Y-95802443D01*
X18763757Y-95819915D01*
X18771588Y-95841242D01*
X18793918Y-95872539D01*
X18833485Y-95880040D01*
X18887126Y-95894487D01*
X18910269Y-95918838D01*
X18944719Y-95948365D01*
X18990634Y-95957637D01*
X19043249Y-95970986D01*
X19056109Y-95996435D01*
X19079109Y-96027318D01*
X19130939Y-96035233D01*
X19191544Y-96047661D01*
X19220656Y-96074032D01*
X19255235Y-96104036D01*
X19298253Y-96112830D01*
X19352224Y-96127101D01*
X19375850Y-96151629D01*
X19414309Y-96181030D01*
X19492245Y-96190427D01*
X19573152Y-96200815D01*
X19608640Y-96229225D01*
X19623976Y-96245858D01*
X19660267Y-96257136D01*
X19725526Y-96263974D01*
X19827764Y-96267290D01*
X19947660Y-96268024D01*
X20271792Y-96268024D01*
X20271792Y-96203579D01*
X20289894Y-96142051D01*
X20320043Y-96109001D01*
X20355447Y-96063637D01*
X20355906Y-96031499D01*
X20363974Y-95983665D01*
X20385252Y-95968116D01*
X20416449Y-95932909D01*
X20426416Y-95875473D01*
X20414747Y-95820112D01*
X20388187Y-95793090D01*
X20363192Y-95764730D01*
X20351202Y-95698824D01*
X20349388Y-95637896D01*
X20344871Y-95548340D01*
X20329396Y-95499072D01*
X20307698Y-95481593D01*
X20278030Y-95449792D01*
X20277425Y-95387805D01*
X20274856Y-95318579D01*
X20254451Y-95281474D01*
X20232146Y-95238656D01*
X20220532Y-95168905D01*
X20220060Y-95151825D01*
X20209646Y-95071212D01*
X20181262Y-95035830D01*
X20150608Y-95001078D01*
X20142464Y-94961812D01*
X20127379Y-94909306D01*
X20103665Y-94887794D01*
X20073661Y-94853216D01*
X20064867Y-94810198D01*
X20050596Y-94756226D01*
X20026069Y-94732601D01*
X19996762Y-94695552D01*
X19987270Y-94629538D01*
X19976502Y-94559790D01*
X19950390Y-94510864D01*
X19948472Y-94509164D01*
X19915250Y-94457643D01*
X19909673Y-94427589D01*
X19891810Y-94379216D01*
X19870875Y-94363324D01*
X19841474Y-94324865D01*
X19832077Y-94246929D01*
X19821689Y-94166022D01*
X19793278Y-94130534D01*
X19763274Y-94095956D01*
X19754480Y-94052937D01*
X19740210Y-93998966D01*
X19715682Y-93975341D01*
X19686281Y-93936881D01*
X19676883Y-93858946D01*
X19666495Y-93778038D01*
X19638085Y-93742550D01*
X19608694Y-93704432D01*
X19599286Y-93629734D01*
X19588653Y-93551470D01*
X19560488Y-93516918D01*
X19530484Y-93482340D01*
X19521690Y-93439322D01*
X19507419Y-93385351D01*
X19482891Y-93361725D01*
X19453490Y-93323266D01*
X19444093Y-93245330D01*
X19433775Y-93164966D01*
X19599286Y-93164966D01*
X19602281Y-93268337D01*
X19612508Y-93329717D01*
X19631834Y-93358570D01*
X19638085Y-93361725D01*
X19668089Y-93396304D01*
X19676883Y-93439322D01*
X19691154Y-93493293D01*
X19715682Y-93516918D01*
X19745073Y-93555037D01*
X19754480Y-93629734D01*
X19765114Y-93707999D01*
X19793278Y-93742550D01*
X19822679Y-93781010D01*
X19832077Y-93858946D01*
X19842609Y-93940564D01*
X19872659Y-93976025D01*
X19901050Y-94009420D01*
X19897281Y-94041881D01*
X19901354Y-94093543D01*
X19931763Y-94119160D01*
X19966774Y-94153125D01*
X19975328Y-94212779D01*
X19973610Y-94238635D01*
X19976876Y-94314040D01*
X20002008Y-94345310D01*
X20030600Y-94379313D01*
X20039001Y-94422214D01*
X20053272Y-94476185D01*
X20077800Y-94499811D01*
X20107201Y-94538270D01*
X20116598Y-94616206D01*
X20126986Y-94697113D01*
X20155396Y-94732601D01*
X20185401Y-94767179D01*
X20194195Y-94810198D01*
X20208465Y-94864169D01*
X20232993Y-94887794D01*
X20263647Y-94922546D01*
X20271792Y-94961812D01*
X20286876Y-95014317D01*
X20310590Y-95035830D01*
X20339896Y-95072878D01*
X20349388Y-95138892D01*
X20360157Y-95208641D01*
X20386268Y-95257567D01*
X20388187Y-95259266D01*
X20419120Y-95309425D01*
X20426985Y-95352963D01*
X20432316Y-95390979D01*
X20457487Y-95408990D01*
X20516266Y-95414270D01*
X20543380Y-95414460D01*
X20620098Y-95409382D01*
X20655043Y-95392117D01*
X20659775Y-95375661D01*
X20674303Y-95341396D01*
X20706168Y-95341414D01*
X20737794Y-95371827D01*
X20747452Y-95395060D01*
X20763566Y-95453258D01*
X20810207Y-95393165D01*
X20839529Y-95361981D01*
X20876045Y-95344629D01*
X20933784Y-95337907D01*
X21026772Y-95338614D01*
X21046534Y-95339225D01*
X21149481Y-95340370D01*
X21213638Y-95334064D01*
X21251688Y-95318009D01*
X21270368Y-95298676D01*
X21302969Y-95269920D01*
X21353554Y-95261737D01*
X21421260Y-95267976D01*
X21496356Y-95274681D01*
X21538272Y-95265142D01*
X21564192Y-95234935D01*
X21566595Y-95230553D01*
X21606183Y-95191097D01*
X21654774Y-95192083D01*
X21704496Y-95192515D01*
X21728161Y-95154264D01*
X21728229Y-95154005D01*
X21745853Y-95119162D01*
X21783851Y-95110956D01*
X21830156Y-95117492D01*
X21889560Y-95123101D01*
X21932787Y-95105778D01*
X21980218Y-95056106D01*
X21990431Y-95043434D01*
X22045328Y-94987368D01*
X22089845Y-94965582D01*
X22099207Y-94966884D01*
X22135710Y-94955653D01*
X22197603Y-94908679D01*
X22278398Y-94830964D01*
X22286372Y-94822635D01*
X22360875Y-94749843D01*
X22427271Y-94694717D01*
X22474276Y-94666320D01*
X22483436Y-94664358D01*
X22524452Y-94645875D01*
X22585775Y-94598157D01*
X22655943Y-94532796D01*
X22723498Y-94461385D01*
X22776979Y-94395518D01*
X22804926Y-94346789D01*
X22806618Y-94337416D01*
X22824143Y-94297520D01*
X22869221Y-94238804D01*
X22910081Y-94195779D01*
X22970918Y-94131735D01*
X23001766Y-94078456D01*
X23012558Y-94013806D01*
X23013543Y-93965204D01*
X23019720Y-93875293D01*
X23039531Y-93828590D01*
X23052341Y-93820147D01*
X23072476Y-93800344D01*
X23084573Y-93753691D01*
X23090204Y-93670914D01*
X23091140Y-93590936D01*
X23093326Y-93478876D01*
X23100931Y-93409130D01*
X23115525Y-93372427D01*
X23129938Y-93361725D01*
X23151649Y-93328830D01*
X23165690Y-93259732D01*
X23172136Y-93169380D01*
X23171063Y-93072717D01*
X23162546Y-92984692D01*
X23146661Y-92920250D01*
X23127587Y-92895242D01*
X23105356Y-92876599D01*
X23094494Y-92835010D01*
X23093066Y-92759105D01*
X23095255Y-92705311D01*
X23098201Y-92610977D01*
X23093542Y-92556567D01*
X23078980Y-92530545D01*
X23058808Y-92522446D01*
X23025845Y-92528268D01*
X23014036Y-92570625D01*
X23013543Y-92590447D01*
X23002566Y-92649558D01*
X22977331Y-92681069D01*
X22951216Y-92716538D01*
X22941128Y-92788826D01*
X22941119Y-92791289D01*
X22929032Y-92872078D01*
X22899735Y-92910774D01*
X22864783Y-92953851D01*
X22858350Y-92984380D01*
X22836513Y-93047792D01*
X22783873Y-93104909D01*
X22719736Y-93136582D01*
X22703156Y-93138288D01*
X22682957Y-93135669D01*
X22668835Y-93122594D01*
X22659705Y-93091235D01*
X22654486Y-93033765D01*
X22652092Y-92942358D01*
X22651442Y-92809185D01*
X22651425Y-92764523D01*
X22652089Y-92616059D01*
X22654703Y-92511044D01*
X22657397Y-92476820D01*
X22780753Y-92476820D01*
X22802511Y-92510399D01*
X22834640Y-92517515D01*
X22874060Y-92505158D01*
X22877761Y-92485183D01*
X22849929Y-92452975D01*
X22810818Y-92445048D01*
X22783365Y-92463376D01*
X22780753Y-92476820D01*
X22657397Y-92476820D01*
X22660201Y-92441202D01*
X22669518Y-92398261D01*
X22683588Y-92373947D01*
X22696690Y-92363625D01*
X22727828Y-92339986D01*
X22716763Y-92317610D01*
X22696690Y-92301291D01*
X22670362Y-92267331D01*
X22656218Y-92208942D01*
X22651493Y-92113575D01*
X22651425Y-92095874D01*
X22647616Y-92006478D01*
X22637657Y-91938962D01*
X22624521Y-91909032D01*
X22592144Y-91915667D01*
X22549225Y-91954087D01*
X22544937Y-91959376D01*
X22495971Y-92018587D01*
X22455446Y-92063159D01*
X22424334Y-92113258D01*
X22418635Y-92140616D01*
X22396429Y-92198541D01*
X22342275Y-92250988D01*
X22274869Y-92281933D01*
X22250508Y-92284724D01*
X22201899Y-92293578D01*
X22185845Y-92310590D01*
X22164249Y-92357251D01*
X22112362Y-92403579D01*
X22049537Y-92434688D01*
X22017718Y-92439918D01*
X21969109Y-92448772D01*
X21953054Y-92465783D01*
X21931458Y-92512445D01*
X21879572Y-92558773D01*
X21816747Y-92589881D01*
X21784928Y-92595111D01*
X21732920Y-92608602D01*
X21720264Y-92633910D01*
X21697129Y-92664712D01*
X21642667Y-92672708D01*
X21581063Y-92684275D01*
X21565071Y-92711506D01*
X21552090Y-92735106D01*
X21506659Y-92747133D01*
X21425577Y-92750305D01*
X21333400Y-92755564D01*
X21283782Y-92772719D01*
X21271196Y-92789103D01*
X21251791Y-92808960D01*
X21206063Y-92821016D01*
X21124801Y-92826786D01*
X21035638Y-92827901D01*
X20925489Y-92829548D01*
X20857996Y-92835543D01*
X20824156Y-92847469D01*
X20814969Y-92866700D01*
X20808535Y-92880424D01*
X20784917Y-92890556D01*
X20737634Y-92897610D01*
X20660210Y-92902101D01*
X20546166Y-92904542D01*
X20389024Y-92905448D01*
X20326290Y-92905498D01*
X20151990Y-92906070D01*
X20022775Y-92908125D01*
X19932010Y-92912176D01*
X19873059Y-92918733D01*
X19839284Y-92928308D01*
X19824051Y-92941413D01*
X19822723Y-92944297D01*
X19784015Y-92973700D01*
X19703561Y-92983095D01*
X19599286Y-92983095D01*
X19599286Y-93164966D01*
X19433775Y-93164966D01*
X19433705Y-93164423D01*
X19405295Y-93128935D01*
X19380570Y-93101135D01*
X19368521Y-93036438D01*
X19366871Y-92983095D01*
X19366496Y-92970974D01*
X19363049Y-92884907D01*
X19350943Y-92840467D01*
X19327698Y-92827901D01*
X19305169Y-92815983D01*
X19293074Y-92773732D01*
X19288976Y-92691407D01*
X19288900Y-92672708D01*
X19285920Y-92582594D01*
X19275357Y-92534213D01*
X19254776Y-92517821D01*
X19250101Y-92517515D01*
X19226762Y-92504802D01*
X19214710Y-92460162D01*
X19211303Y-92374442D01*
X19206337Y-92281363D01*
X19190046Y-92230678D01*
X19172504Y-92216481D01*
X19141851Y-92181729D01*
X19133706Y-92142464D01*
X19118622Y-92089958D01*
X19094908Y-92068446D01*
X19065517Y-92034034D01*
X19056109Y-91987270D01*
X19042569Y-91931860D01*
X19017311Y-91906094D01*
X18987986Y-91868873D01*
X18978513Y-91801596D01*
X18967995Y-91729318D01*
X18942488Y-91676077D01*
X18940561Y-91674035D01*
X18914194Y-91612587D01*
X18917452Y-91561872D01*
X18919342Y-91501043D01*
X18887601Y-91464160D01*
X18877082Y-91458113D01*
X18837775Y-91425413D01*
X18846309Y-91398969D01*
X18898850Y-91382697D01*
X18954173Y-91379429D01*
X19056109Y-91379429D01*
X19056109Y-91520404D01*
X19063580Y-91623521D01*
X19085984Y-91677179D01*
X19092419Y-91682064D01*
X19123782Y-91721821D01*
X19137684Y-91767413D01*
X19147812Y-91804986D01*
X19173820Y-91825655D01*
X19229164Y-91835896D01*
X19288750Y-91840114D01*
X19386246Y-91852597D01*
X19443044Y-91875566D01*
X19451696Y-91885379D01*
X19484116Y-91900020D01*
X19556746Y-91911494D01*
X19659886Y-91919815D01*
X19783837Y-91925000D01*
X19918900Y-91927064D01*
X20055377Y-91926022D01*
X20183568Y-91921891D01*
X20293775Y-91914686D01*
X20376299Y-91904422D01*
X20421441Y-91891115D01*
X20426985Y-91883808D01*
X20442218Y-91858235D01*
X20494012Y-91846587D01*
X20543380Y-91845009D01*
X20620098Y-91839932D01*
X20655043Y-91822667D01*
X20659775Y-91806211D01*
X20682910Y-91775409D01*
X20737372Y-91767413D01*
X20793689Y-91757906D01*
X20816064Y-91735081D01*
X20835221Y-91698784D01*
X20881192Y-91650059D01*
X20893661Y-91639298D01*
X20943715Y-91586182D01*
X20969302Y-91536345D01*
X20970162Y-91528558D01*
X20988758Y-91481096D01*
X21008961Y-91466379D01*
X21043309Y-91435356D01*
X21047759Y-91418227D01*
X21026948Y-91380793D01*
X21008961Y-91370075D01*
X20976222Y-91334796D01*
X20970162Y-91306339D01*
X20950812Y-91257675D01*
X20900934Y-91191745D01*
X20832792Y-91120354D01*
X20758645Y-91055311D01*
X20690756Y-91008421D01*
X20643147Y-90991445D01*
X20593918Y-90977270D01*
X20582179Y-90952647D01*
X20559044Y-90921845D01*
X20504582Y-90913849D01*
X20442977Y-90902281D01*
X20426985Y-90875050D01*
X20409424Y-90847734D01*
X20351604Y-90836788D01*
X20326290Y-90836252D01*
X20245981Y-90825809D01*
X20210707Y-90797453D01*
X20176128Y-90767449D01*
X20133110Y-90758655D01*
X20079139Y-90744385D01*
X20055513Y-90719857D01*
X20017054Y-90690456D01*
X19939118Y-90681058D01*
X19858211Y-90670671D01*
X19822723Y-90642260D01*
X19784264Y-90612859D01*
X19706328Y-90603462D01*
X19626343Y-90593589D01*
X19589211Y-90562731D01*
X19588723Y-90561510D01*
X19560824Y-90532847D01*
X19502421Y-90533655D01*
X19495767Y-90534929D01*
X19423483Y-90534919D01*
X19370742Y-90498598D01*
X19316906Y-90463014D01*
X19280089Y-90463198D01*
X19236153Y-90458890D01*
X19221686Y-90438019D01*
X19186142Y-90405511D01*
X19145157Y-90396537D01*
X19087626Y-90379536D01*
X19060246Y-90353117D01*
X19015860Y-90319826D01*
X18942986Y-90303473D01*
X18862136Y-90304411D01*
X18793821Y-90322992D01*
X18763580Y-90348017D01*
X18714933Y-90387244D01*
X18674836Y-90396537D01*
X18638624Y-90390630D01*
X18621471Y-90363813D01*
X18616526Y-90302442D01*
X18616394Y-90280142D01*
X18616394Y-90163747D01*
X18952647Y-90163747D01*
X19092297Y-90162921D01*
X19187979Y-90159837D01*
X19247436Y-90153582D01*
X19278414Y-90143242D01*
X19288658Y-90127907D01*
X19288900Y-90124137D01*
X19267974Y-90080978D01*
X19250101Y-90069638D01*
X19219953Y-90035021D01*
X19211303Y-89992853D01*
X19198759Y-89944316D01*
X19154609Y-89930956D01*
X19102493Y-89911585D01*
X19034695Y-89860065D01*
X18998048Y-89823859D01*
X18936951Y-89750596D01*
X18909064Y-89692319D01*
X18906015Y-89636333D01*
X18921443Y-89576128D01*
X18960369Y-89550375D01*
X18978513Y-89546951D01*
X19036107Y-89526683D01*
X19063861Y-89501686D01*
X19104686Y-89471029D01*
X19134696Y-89465376D01*
X19193182Y-89448390D01*
X19250114Y-89408057D01*
X19285370Y-89360317D01*
X19288900Y-89343233D01*
X19266359Y-89321943D01*
X19210058Y-89310406D01*
X19136973Y-89308297D01*
X19064085Y-89315292D01*
X19008373Y-89331068D01*
X18987866Y-89348981D01*
X18952877Y-89375934D01*
X18885803Y-89388913D01*
X18804237Y-89388374D01*
X18725772Y-89374771D01*
X18668001Y-89348559D01*
X18659202Y-89340478D01*
X18620202Y-89286605D01*
X18624221Y-89255638D01*
X18673397Y-89245332D01*
X18745176Y-89250275D01*
X18825656Y-89256414D01*
X18869301Y-89248629D01*
X18889739Y-89224377D01*
X18890204Y-89223191D01*
X18922711Y-89202432D01*
X18993022Y-89187662D01*
X19087638Y-89178966D01*
X19193062Y-89176429D01*
X19295793Y-89180137D01*
X19382334Y-89190173D01*
X19439185Y-89206622D01*
X19453447Y-89219653D01*
X19480640Y-89253150D01*
X19510248Y-89253387D01*
X19521690Y-89225401D01*
X19542861Y-89180175D01*
X19593569Y-89132942D01*
X19654604Y-89099018D01*
X19689816Y-89091369D01*
X19733195Y-89071897D01*
X19749477Y-89021829D01*
X19775790Y-88960493D01*
X19825825Y-88937025D01*
X19883563Y-88956179D01*
X19904390Y-88975854D01*
X19959244Y-89016240D01*
X20014489Y-89022317D01*
X20052869Y-88992829D01*
X20055513Y-88986863D01*
X20078282Y-88964838D01*
X20131757Y-88952573D01*
X20225394Y-88948169D01*
X20248693Y-88948064D01*
X20346205Y-88945722D01*
X20401686Y-88937311D01*
X20424682Y-88920753D01*
X20426985Y-88909266D01*
X20450120Y-88878464D01*
X20504582Y-88870468D01*
X20548776Y-88868123D01*
X20571880Y-88852642D01*
X20580734Y-88811356D01*
X20582178Y-88731596D01*
X20582179Y-88726749D01*
X20578696Y-88638773D01*
X20563117Y-88581593D01*
X20527743Y-88534462D01*
X20501526Y-88509366D01*
X20455581Y-88458080D01*
X20436407Y-88417171D01*
X20438151Y-88407745D01*
X20430936Y-88375623D01*
X20393210Y-88325202D01*
X20363610Y-88295522D01*
X20298454Y-88222057D01*
X20273248Y-88153287D01*
X20272238Y-88133478D01*
X20289114Y-88066672D01*
X20330229Y-88002511D01*
X20382397Y-87956522D01*
X20432434Y-87944233D01*
X20432857Y-87944327D01*
X20467690Y-87931912D01*
X20522959Y-87892159D01*
X20587605Y-87835728D01*
X20650573Y-87773278D01*
X20700805Y-87715468D01*
X20727243Y-87672958D01*
X20727711Y-87660079D01*
X20695342Y-87648305D01*
X20620389Y-87639558D01*
X20511950Y-87634651D01*
X20434954Y-87633888D01*
X20307209Y-87632758D01*
X20221460Y-87628000D01*
X20168025Y-87618270D01*
X20137219Y-87602222D01*
X20127076Y-87591138D01*
X20080188Y-87559062D01*
X20047853Y-87556108D01*
X20010004Y-87547740D01*
X19992754Y-87499027D01*
X19992019Y-87493126D01*
X19993126Y-87441426D01*
X20021664Y-87423368D01*
X20047449Y-87421995D01*
X20101787Y-87436073D01*
X20125952Y-87460794D01*
X20161299Y-87494644D01*
X20216901Y-87493870D01*
X20276936Y-87460926D01*
X20303596Y-87433252D01*
X20327439Y-87396675D01*
X20342378Y-87352450D01*
X20350074Y-87288812D01*
X20352191Y-87193993D01*
X20351141Y-87096742D01*
X20350251Y-86971988D01*
X20353455Y-86889811D01*
X20361883Y-86841138D01*
X20376665Y-86816900D01*
X20386744Y-86811129D01*
X20403175Y-86797293D01*
X20414557Y-86765300D01*
X20421742Y-86707266D01*
X20425584Y-86615308D01*
X20426936Y-86481545D01*
X20426985Y-86439503D01*
X20428082Y-86289774D01*
X20431899Y-86183835D01*
X20439225Y-86113782D01*
X20450851Y-86071711D01*
X20465783Y-86051119D01*
X20479476Y-86014377D01*
X20490573Y-85935120D01*
X20499063Y-85822490D01*
X20504933Y-85685628D01*
X20508173Y-85533674D01*
X20508771Y-85375770D01*
X20506716Y-85221057D01*
X20501997Y-85078676D01*
X20494601Y-84957767D01*
X20484517Y-84867473D01*
X20471735Y-84816933D01*
X20467336Y-84810860D01*
X20432922Y-84760532D01*
X20422071Y-84724063D01*
X20410562Y-84690890D01*
X20379411Y-84673072D01*
X20315306Y-84665045D01*
X20276669Y-84663302D01*
X20185518Y-84665226D01*
X20136867Y-84680281D01*
X20125175Y-84695200D01*
X20089891Y-84721968D01*
X20021631Y-84731975D01*
X19943783Y-84745778D01*
X19879600Y-84795098D01*
X19866906Y-84809572D01*
X19806632Y-84865086D01*
X19737107Y-84885722D01*
X19700450Y-84887168D01*
X19636516Y-84893027D01*
X19601527Y-84907624D01*
X19599286Y-84913034D01*
X19579213Y-84955810D01*
X19532376Y-85002783D01*
X19478854Y-85036194D01*
X19453079Y-85042362D01*
X19416205Y-85059958D01*
X19355637Y-85106769D01*
X19282589Y-85173833D01*
X19258946Y-85197555D01*
X19163059Y-85288347D01*
X19090856Y-85338937D01*
X19043036Y-85352749D01*
X18993911Y-85363465D01*
X18978780Y-85405609D01*
X18978513Y-85417413D01*
X18960571Y-85482799D01*
X18922846Y-85537743D01*
X18881672Y-85573877D01*
X18856275Y-85573783D01*
X18835931Y-85550676D01*
X18787066Y-85519157D01*
X18717005Y-85506847D01*
X18637268Y-85490225D01*
X18570840Y-85435130D01*
X18565877Y-85429250D01*
X18505741Y-85375816D01*
X18446473Y-85352854D01*
X18443015Y-85352749D01*
X18395446Y-85338707D01*
X18383604Y-85298716D01*
X18363984Y-85242150D01*
X18314561Y-85173789D01*
X18249496Y-85108088D01*
X18182947Y-85059507D01*
X18132551Y-85042362D01*
X18089851Y-85032780D01*
X18074364Y-84994038D01*
X18073217Y-84964765D01*
X18065946Y-84908982D01*
X18036342Y-84888721D01*
X18013180Y-84887168D01*
X17965826Y-84868677D01*
X17896879Y-84820067D01*
X17817038Y-84751633D01*
X17737001Y-84673673D01*
X17667466Y-84596483D01*
X17619132Y-84530357D01*
X17602921Y-84492345D01*
X17582939Y-84448348D01*
X17536506Y-84442613D01*
X17488563Y-84435838D01*
X17478309Y-84413048D01*
X17460035Y-84374183D01*
X17421327Y-84357346D01*
X17386357Y-84372382D01*
X17384656Y-84374910D01*
X17387983Y-84410966D01*
X17409693Y-84434830D01*
X17436231Y-84471536D01*
X17449567Y-84539372D01*
X17452443Y-84621730D01*
X17458989Y-84731359D01*
X17479289Y-84795662D01*
X17491242Y-84809572D01*
X17517720Y-84856874D01*
X17529896Y-84930401D01*
X17530040Y-84939299D01*
X17540702Y-85017267D01*
X17568838Y-85051715D01*
X17590841Y-85081364D01*
X17604632Y-85137776D01*
X17608906Y-85201708D01*
X17602356Y-85253913D01*
X17584009Y-85275152D01*
X17555779Y-85256895D01*
X17506876Y-85209592D01*
X17461148Y-85158757D01*
X17397774Y-85090525D01*
X17346740Y-85055269D01*
X17291512Y-85043042D01*
X17267685Y-85042362D01*
X17192172Y-85031463D01*
X17158568Y-85003563D01*
X17127605Y-84984208D01*
X17060457Y-84970605D01*
X16970142Y-84962756D01*
X16869677Y-84960659D01*
X16772081Y-84964315D01*
X16690370Y-84973724D01*
X16637563Y-84988886D01*
X16624745Y-85003563D01*
X16607443Y-85030696D01*
X16550266Y-85041737D01*
X16522568Y-85042362D01*
X16446331Y-85051485D01*
X16401861Y-85075447D01*
X16399706Y-85078672D01*
X16359950Y-85110034D01*
X16314358Y-85123937D01*
X16264015Y-85144253D01*
X16249706Y-85195171D01*
X16249694Y-85197555D01*
X16255669Y-85238898D01*
X16282989Y-85259646D01*
X16345750Y-85269112D01*
X16359623Y-85270173D01*
X16438103Y-85283558D01*
X16468869Y-85309524D01*
X16469551Y-85315438D01*
X16492846Y-85344674D01*
X16547148Y-85352749D01*
X16608753Y-85364316D01*
X16624745Y-85391547D01*
X16647880Y-85422349D01*
X16702341Y-85430345D01*
X16756825Y-85437838D01*
X16779932Y-85455889D01*
X16779938Y-85456211D01*
X16801628Y-85503113D01*
X16853862Y-85549376D01*
X16917390Y-85580340D01*
X16949783Y-85585539D01*
X16997079Y-85592994D01*
X17010123Y-85626079D01*
X17007980Y-85656669D01*
X16984816Y-85709639D01*
X16941615Y-85738009D01*
X16895962Y-85735882D01*
X16867585Y-85703748D01*
X16830887Y-85672525D01*
X16777171Y-85663136D01*
X16723896Y-85655389D01*
X16702341Y-85637270D01*
X16681507Y-85592555D01*
X16632268Y-85545815D01*
X16574522Y-85513545D01*
X16546336Y-85507942D01*
X16496599Y-85491088D01*
X16478905Y-85469144D01*
X16440445Y-85439743D01*
X16362510Y-85430345D01*
X16281603Y-85419958D01*
X16246115Y-85391547D01*
X16211363Y-85360893D01*
X16172097Y-85352749D01*
X16119592Y-85337664D01*
X16098079Y-85313950D01*
X16060291Y-85284564D01*
X15985383Y-85274057D01*
X15903622Y-85261152D01*
X15841146Y-85215829D01*
X15824125Y-85196460D01*
X15768214Y-85146039D01*
X15712438Y-85120684D01*
X15704031Y-85119959D01*
X15652559Y-85104252D01*
X15632499Y-85081160D01*
X15598050Y-85051633D01*
X15552135Y-85042362D01*
X15499520Y-85029012D01*
X15486659Y-85003563D01*
X15463832Y-84972551D01*
X15415529Y-84964691D01*
X15346540Y-84944835D01*
X15292667Y-84887168D01*
X15229566Y-84824093D01*
X15176272Y-84808074D01*
X15113409Y-84784981D01*
X15040478Y-84716555D01*
X15021079Y-84693140D01*
X14962712Y-84629800D01*
X14914432Y-84595085D01*
X14894313Y-84591936D01*
X14851821Y-84583726D01*
X14808708Y-84551029D01*
X14758593Y-84515444D01*
X14724972Y-84523906D01*
X14717800Y-84571991D01*
X14721345Y-84589839D01*
X14719449Y-84645401D01*
X14697575Y-84663802D01*
X14668452Y-84701147D01*
X14658961Y-84770773D01*
X14647909Y-84844733D01*
X14620162Y-84877815D01*
X14600186Y-84897389D01*
X14588112Y-84943513D01*
X14582401Y-85025424D01*
X14581364Y-85110605D01*
X14579243Y-85223611D01*
X14571856Y-85294257D01*
X14557662Y-85331780D01*
X14542566Y-85343395D01*
X14526889Y-85357702D01*
X14515939Y-85391624D01*
X14508952Y-85452722D01*
X14505164Y-85548558D01*
X14503814Y-85686692D01*
X14503767Y-85727800D01*
X14502897Y-85877436D01*
X14499776Y-85982924D01*
X14493642Y-86051824D01*
X14483732Y-86091698D01*
X14469283Y-86110107D01*
X14464969Y-86112204D01*
X14449360Y-86126441D01*
X14438435Y-86160201D01*
X14431440Y-86221013D01*
X14427622Y-86316406D01*
X14426229Y-86453906D01*
X14426170Y-86500188D01*
X14427028Y-86650612D01*
X14430103Y-86756853D01*
X14436148Y-86826440D01*
X14445915Y-86866902D01*
X14460158Y-86885766D01*
X14464969Y-86888172D01*
X14483793Y-86906160D01*
X14495655Y-86948603D01*
X14501873Y-87024400D01*
X14503763Y-87142453D01*
X14503767Y-87150407D01*
X14505456Y-87271060D01*
X14511399Y-87348966D01*
X14522914Y-87393024D01*
X14541318Y-87412134D01*
X14542566Y-87412642D01*
X14576972Y-87447100D01*
X14581364Y-87466945D01*
X14569550Y-87492250D01*
X14526236Y-87496315D01*
X14490394Y-87491598D01*
X14415686Y-87489165D01*
X14363374Y-87516546D01*
X14350824Y-87529001D01*
X14310348Y-87561231D01*
X14259074Y-87570905D01*
X14185841Y-87563713D01*
X14106893Y-87556667D01*
X14063385Y-87567341D01*
X14047355Y-87585101D01*
X14006354Y-87618495D01*
X13960590Y-87632898D01*
X13909281Y-87655047D01*
X13898592Y-87690060D01*
X13929064Y-87720464D01*
X13957646Y-87728176D01*
X14014613Y-87752511D01*
X14077802Y-87801751D01*
X14090967Y-87815295D01*
X14142396Y-87860621D01*
X14183327Y-87877773D01*
X14191700Y-87875681D01*
X14223344Y-87883971D01*
X14280008Y-87924091D01*
X14352301Y-87989244D01*
X14362301Y-87999142D01*
X14433471Y-88071859D01*
X14475573Y-88124312D01*
X14496237Y-88172698D01*
X14503095Y-88233213D01*
X14503767Y-88299425D01*
X14499813Y-88396608D01*
X14486579Y-88451772D01*
X14464969Y-88473130D01*
X14435568Y-88511590D01*
X14426170Y-88589525D01*
X14415783Y-88670433D01*
X14387372Y-88705921D01*
X14357981Y-88744039D01*
X14348574Y-88818737D01*
X14337188Y-88899234D01*
X14308043Y-88932217D01*
X14277518Y-88969894D01*
X14275711Y-89019048D01*
X14284502Y-89060752D01*
X14307639Y-89082897D01*
X14358882Y-89092845D01*
X14420599Y-89096574D01*
X14508892Y-89096073D01*
X14556809Y-89082876D01*
X14572094Y-89064242D01*
X14595078Y-89042298D01*
X14649195Y-89030088D01*
X14743771Y-89025750D01*
X14765190Y-89025661D01*
X14862702Y-89023319D01*
X14918183Y-89014908D01*
X14941179Y-88998350D01*
X14943482Y-88986863D01*
X14962009Y-88952625D01*
X15008650Y-88946557D01*
X15069995Y-88965978D01*
X15132634Y-89008206D01*
X15153213Y-89028805D01*
X15209063Y-89081440D01*
X15257128Y-89097643D01*
X15291176Y-89093011D01*
X15357396Y-89093891D01*
X15401739Y-89128666D01*
X15470500Y-89171592D01*
X15544139Y-89180855D01*
X15613894Y-89188047D01*
X15640921Y-89211537D01*
X15641853Y-89219653D01*
X15664988Y-89250455D01*
X15719449Y-89258451D01*
X15778663Y-89268977D01*
X15797046Y-89293578D01*
X15819803Y-89320084D01*
X15868177Y-89325910D01*
X15920277Y-89331824D01*
X15938057Y-89364567D01*
X15939083Y-89387779D01*
X15925041Y-89440551D01*
X15876757Y-89461250D01*
X15816340Y-89452196D01*
X15791632Y-89428918D01*
X15745544Y-89397351D01*
X15669200Y-89387779D01*
X15589840Y-89377249D01*
X15554902Y-89348981D01*
X15527102Y-89324256D01*
X15462406Y-89312207D01*
X15396941Y-89310183D01*
X15311673Y-89306959D01*
X15267465Y-89295338D01*
X15253937Y-89272399D01*
X15253869Y-89269897D01*
X15242002Y-89244441D01*
X15198846Y-89235622D01*
X15143940Y-89237565D01*
X15070365Y-89248926D01*
X15030888Y-89272567D01*
X15026747Y-89312407D01*
X15059178Y-89372365D01*
X15129419Y-89456361D01*
X15238706Y-89568314D01*
X15252653Y-89582003D01*
X15366621Y-89697871D01*
X15441773Y-89784812D01*
X15480262Y-89845488D01*
X15486659Y-89870973D01*
X15482492Y-89904817D01*
X15461774Y-89922788D01*
X15412177Y-89929864D01*
X15337932Y-89931031D01*
X15251151Y-89933580D01*
X15198613Y-89945609D01*
X15162905Y-89973851D01*
X15137474Y-90008553D01*
X15089250Y-90060699D01*
X15039537Y-90086069D01*
X15034012Y-90086522D01*
X14972779Y-90107021D01*
X14917093Y-90156057D01*
X14881553Y-90216728D01*
X14878577Y-90266450D01*
X14896544Y-90297498D01*
X14934165Y-90313377D01*
X15005270Y-90318708D01*
X15035755Y-90318940D01*
X15120953Y-90315378D01*
X15164538Y-90302898D01*
X15176272Y-90280142D01*
X15193223Y-90247263D01*
X15228920Y-90245294D01*
X15260628Y-90274237D01*
X15263223Y-90280142D01*
X15297593Y-90309383D01*
X15345305Y-90318940D01*
X15393246Y-90326325D01*
X15406456Y-90359240D01*
X15404314Y-90389711D01*
X15387578Y-90442946D01*
X15344888Y-90460357D01*
X15331466Y-90460842D01*
X15281652Y-90472608D01*
X15260787Y-90517006D01*
X15258617Y-90532331D01*
X15237414Y-90590112D01*
X15204985Y-90603462D01*
X15173819Y-90621223D01*
X15113773Y-90670196D01*
X15031367Y-90743911D01*
X14933124Y-90835901D01*
X14825565Y-90939695D01*
X14715212Y-91048827D01*
X14608585Y-91156828D01*
X14512207Y-91257228D01*
X14432599Y-91343561D01*
X14376282Y-91409356D01*
X14349777Y-91448145D01*
X14348574Y-91452917D01*
X14331036Y-91487458D01*
X14284369Y-91546175D01*
X14217489Y-91618195D01*
X14193380Y-91642173D01*
X14117202Y-91718222D01*
X14071163Y-91772577D01*
X14047697Y-91818956D01*
X14039237Y-91871080D01*
X14038187Y-91923559D01*
X14031991Y-92013430D01*
X14012126Y-92060077D01*
X13999388Y-92068446D01*
X13970101Y-92105336D01*
X13960590Y-92170234D01*
X13973835Y-92243276D01*
X14019760Y-92314116D01*
X14051982Y-92348526D01*
X14112097Y-92402825D01*
X14166134Y-92430021D01*
X14237289Y-92439221D01*
X14284772Y-92439918D01*
X14370271Y-92436396D01*
X14414151Y-92424047D01*
X14426170Y-92401119D01*
X14436933Y-92379900D01*
X14475586Y-92367826D01*
X14551675Y-92362822D01*
X14604462Y-92362321D01*
X14704631Y-92359596D01*
X14763988Y-92349891D01*
X14793241Y-92330911D01*
X14798727Y-92320695D01*
X14823282Y-92293536D01*
X14875503Y-92291229D01*
X14903560Y-92295740D01*
X14968395Y-92301613D01*
X15005206Y-92282625D01*
X15022186Y-92256791D01*
X15053397Y-92219253D01*
X15102288Y-92210895D01*
X15139941Y-92215450D01*
X15206146Y-92218870D01*
X15243613Y-92196768D01*
X15255465Y-92178281D01*
X15296448Y-92139997D01*
X15330166Y-92134648D01*
X15375602Y-92119366D01*
X15445888Y-92065653D01*
X15522077Y-91991879D01*
X15606509Y-91909561D01*
X15668172Y-91863718D01*
X15714728Y-91848989D01*
X15725467Y-91849618D01*
X15763594Y-91863493D01*
X15783274Y-91900633D01*
X15792196Y-91970515D01*
X15787881Y-92067774D01*
X15756156Y-92131841D01*
X15755855Y-92132174D01*
X15726218Y-92172322D01*
X15733683Y-92204019D01*
X15754239Y-92228563D01*
X15792464Y-92287243D01*
X15784367Y-92334940D01*
X15758248Y-92362321D01*
X15745077Y-92380906D01*
X15735161Y-92416132D01*
X15728076Y-92474398D01*
X15723397Y-92562104D01*
X15720702Y-92685650D01*
X15719565Y-92851435D01*
X15719449Y-92948275D01*
X15718972Y-93134900D01*
X15717255Y-93276049D01*
X15713873Y-93377970D01*
X15708399Y-93446911D01*
X15700406Y-93489120D01*
X15689470Y-93510847D01*
X15680651Y-93516918D01*
X15668589Y-93527905D01*
X15659252Y-93554299D01*
X15652308Y-93601836D01*
X15647430Y-93676249D01*
X15644287Y-93783272D01*
X15642550Y-93928637D01*
X15641890Y-94118080D01*
X15641853Y-94192227D01*
X15641579Y-94395697D01*
X15640491Y-94553604D01*
X15638188Y-94672112D01*
X15634268Y-94757388D01*
X15628330Y-94815597D01*
X15619973Y-94852905D01*
X15608795Y-94875477D01*
X15596588Y-94887830D01*
X15566752Y-94916669D01*
X15576340Y-94941108D01*
X15603054Y-94963411D01*
X15638091Y-94995636D01*
X15632576Y-95018674D01*
X15609521Y-95037393D01*
X15591080Y-95057141D01*
X15578361Y-95090059D01*
X15570349Y-95144822D01*
X15566030Y-95230104D01*
X15564390Y-95354581D01*
X15564256Y-95424589D01*
X15563323Y-95570689D01*
X15559984Y-95672794D01*
X15553426Y-95738617D01*
X15542837Y-95775868D01*
X15527405Y-95792259D01*
X15525458Y-95793090D01*
X15491082Y-95825657D01*
X15486659Y-95844009D01*
X15507424Y-95875884D01*
X15525458Y-95880040D01*
X15556635Y-95902569D01*
X15564256Y-95945516D01*
X15550557Y-96000602D01*
X15525458Y-96025880D01*
X15507691Y-96042532D01*
X15496082Y-96081874D01*
X15489514Y-96152407D01*
X15486869Y-96262635D01*
X15486659Y-96321190D01*
X15487466Y-96446533D01*
X15491280Y-96531659D01*
X15500190Y-96588074D01*
X15516286Y-96627283D01*
X15541657Y-96660792D01*
X15549997Y-96669954D01*
X15602527Y-96712998D01*
X15642309Y-96720209D01*
X15644450Y-96719066D01*
X15682625Y-96721857D01*
X15710680Y-96747856D01*
X15762492Y-96784137D01*
X15836572Y-96789763D01*
X15911012Y-96795535D01*
X15942562Y-96823291D01*
X15977048Y-96849334D01*
X16043444Y-96862505D01*
X16123569Y-96862836D01*
X16199237Y-96850360D01*
X16252264Y-96825109D01*
X16254792Y-96822731D01*
X16320590Y-96792903D01*
X16403443Y-96790399D01*
X16462400Y-96791607D01*
X16508558Y-96779949D01*
X16556241Y-96747767D01*
X16619770Y-96687403D01*
X16645916Y-96660750D01*
X16711409Y-96587484D01*
X16759151Y-96522513D01*
X16779735Y-96478805D01*
X16779938Y-96475992D01*
X16798552Y-96428552D01*
X16818737Y-96413864D01*
X16848138Y-96375404D01*
X16857535Y-96297468D01*
X16867923Y-96216561D01*
X16896333Y-96181073D01*
X16926338Y-96146495D01*
X16935132Y-96103477D01*
X16949402Y-96049505D01*
X16973930Y-96025880D01*
X16999931Y-95995348D01*
X17011620Y-95924837D01*
X17012728Y-95880040D01*
X17018818Y-95789944D01*
X17038380Y-95742987D01*
X17051527Y-95734200D01*
X17081971Y-95706439D01*
X17089541Y-95669916D01*
X17070778Y-95647883D01*
X17064460Y-95647250D01*
X17017680Y-95625815D01*
X16971996Y-95575114D01*
X16942961Y-95515547D01*
X16940008Y-95483999D01*
X16954739Y-95446570D01*
X16994547Y-95427325D01*
X17057993Y-95419439D01*
X17167922Y-95411485D01*
X17167922Y-95192303D01*
X17170020Y-95078959D01*
X17177332Y-95007992D01*
X17191388Y-94970178D01*
X17206720Y-94958233D01*
X17228919Y-94935169D01*
X17241187Y-94881022D01*
X17245451Y-94786348D01*
X17245519Y-94767820D01*
X17248734Y-94666160D01*
X17259662Y-94606463D01*
X17280227Y-94579284D01*
X17284317Y-94577407D01*
X17302820Y-94559836D01*
X17314612Y-94518361D01*
X17320946Y-94444195D01*
X17323080Y-94328552D01*
X17323115Y-94305819D01*
X17324775Y-94182071D01*
X17330549Y-94101434D01*
X17341632Y-94055369D01*
X17359219Y-94035337D01*
X17361056Y-94034559D01*
X17378657Y-94016355D01*
X17391078Y-93972329D01*
X17399470Y-93894677D01*
X17404985Y-93775594D01*
X17406321Y-93727871D01*
X17410110Y-93601318D01*
X17415097Y-93517682D01*
X17423063Y-93468156D01*
X17435787Y-93443930D01*
X17455051Y-93436194D01*
X17465376Y-93435743D01*
X17507693Y-93452868D01*
X17525292Y-93506873D01*
X17533697Y-93548891D01*
X17555265Y-93572056D01*
X17603040Y-93582997D01*
X17685234Y-93588131D01*
X17729332Y-93597869D01*
X17750263Y-93632075D01*
X17757808Y-93685963D01*
X17772734Y-93757498D01*
X17798918Y-93808009D01*
X17803073Y-93811992D01*
X17828677Y-93861201D01*
X17840126Y-93947278D01*
X17840427Y-93965987D01*
X17849679Y-94061187D01*
X17875715Y-94117947D01*
X17879225Y-94121181D01*
X17906931Y-94174012D01*
X17917920Y-94268353D01*
X17918024Y-94280353D01*
X17924579Y-94369523D01*
X17945459Y-94415161D01*
X17956822Y-94422214D01*
X17986827Y-94456792D01*
X17995620Y-94499811D01*
X18009891Y-94553782D01*
X18034419Y-94577407D01*
X18063820Y-94615867D01*
X18073217Y-94693802D01*
X18083605Y-94774710D01*
X18112016Y-94810198D01*
X18142669Y-94844949D01*
X18150814Y-94884215D01*
X18165898Y-94936721D01*
X18189612Y-94958233D01*
X18221383Y-94993274D01*
X18228411Y-95026536D01*
X18246109Y-95077697D01*
X18290170Y-95139196D01*
X18306007Y-95155804D01*
X18355096Y-95215102D01*
X18381913Y-95269497D01*
X18383604Y-95281493D01*
X18401313Y-95330064D01*
X18422403Y-95346216D01*
X18452407Y-95380795D01*
X18461201Y-95423813D01*
X18475471Y-95477784D01*
X18499999Y-95501410D01*
X18525560Y-95530714D01*
X18537935Y-95579637D01*
X18535017Y-95625901D01*
X18514698Y-95647228D01*
X18513794Y-95647250D01*
X18475745Y-95628235D01*
X18422425Y-95581095D01*
X18367353Y-95520688D01*
X18324045Y-95461872D01*
X18306017Y-95419503D01*
X18306007Y-95418850D01*
X18287281Y-95373499D01*
X18241075Y-95319904D01*
X18229506Y-95309784D01*
X18177996Y-95252311D01*
X18152535Y-95194600D01*
X18151909Y-95187324D01*
X18135891Y-95134808D01*
X18112016Y-95113426D01*
X18082011Y-95078848D01*
X18073217Y-95035830D01*
X18058947Y-94981858D01*
X18034419Y-94958233D01*
X18003765Y-94923481D01*
X17995620Y-94884215D01*
X17980536Y-94831710D01*
X17956822Y-94810198D01*
X17927421Y-94771738D01*
X17918024Y-94693802D01*
X17907636Y-94612895D01*
X17879225Y-94577407D01*
X17849221Y-94542829D01*
X17840427Y-94499811D01*
X17826157Y-94445839D01*
X17801629Y-94422214D01*
X17776633Y-94393854D01*
X17764644Y-94327948D01*
X17762830Y-94267020D01*
X17757640Y-94174640D01*
X17740688Y-94124777D01*
X17724032Y-94111827D01*
X17697300Y-94079626D01*
X17685919Y-94005683D01*
X17685234Y-93971972D01*
X17680645Y-93893497D01*
X17669006Y-93836535D01*
X17661558Y-93822433D01*
X17639951Y-93779300D01*
X17629226Y-93733197D01*
X17609133Y-93683746D01*
X17581771Y-93668533D01*
X17563293Y-93677895D01*
X17550636Y-93711522D01*
X17542311Y-93777725D01*
X17536827Y-93884814D01*
X17535497Y-93926725D01*
X17529666Y-94055366D01*
X17520210Y-94140026D01*
X17505884Y-94188403D01*
X17490233Y-94206065D01*
X17471298Y-94229829D01*
X17459529Y-94281197D01*
X17453686Y-94368786D01*
X17452443Y-94468484D01*
X17450314Y-94591551D01*
X17442993Y-94672592D01*
X17429083Y-94721173D01*
X17412330Y-94743046D01*
X17388204Y-94779890D01*
X17379767Y-94844653D01*
X17382571Y-94920806D01*
X17384022Y-95021143D01*
X17369250Y-95085705D01*
X17351554Y-95113230D01*
X17322303Y-95178422D01*
X17307222Y-95285792D01*
X17305947Y-95315672D01*
X17297272Y-95419880D01*
X17276856Y-95481731D01*
X17259340Y-95501141D01*
X17234926Y-95525851D01*
X17243918Y-95552288D01*
X17283171Y-95589687D01*
X17320481Y-95617090D01*
X17364186Y-95634192D01*
X17426964Y-95643335D01*
X17521492Y-95646858D01*
X17594901Y-95647250D01*
X17840427Y-95647250D01*
X17840427Y-95724847D01*
X17840427Y-95802443D01*
X17581771Y-95802443D01*
X17461155Y-95801161D01*
X17383716Y-95796464D01*
X17340947Y-95787075D01*
X17324340Y-95771719D01*
X17323115Y-95763645D01*
X17301291Y-95732116D01*
X17268580Y-95724847D01*
X17230386Y-95733264D01*
X17225701Y-95768460D01*
X17230417Y-95790078D01*
X17232263Y-95847268D01*
X17207356Y-95870443D01*
X17182295Y-95897663D01*
X17170069Y-95960640D01*
X17167922Y-96027490D01*
X17164825Y-96112316D01*
X17152804Y-96158638D01*
X17127762Y-96179457D01*
X17119196Y-96182147D01*
X17083243Y-96208889D01*
X17084269Y-96247660D01*
X17077907Y-96303344D01*
X17055399Y-96324311D01*
X17021896Y-96372309D01*
X17012728Y-96447601D01*
X17002198Y-96526961D01*
X16973930Y-96561899D01*
X16944403Y-96596348D01*
X16935132Y-96642263D01*
X16926939Y-96689017D01*
X16891861Y-96706137D01*
X16857535Y-96707739D01*
X16802573Y-96714148D01*
X16782315Y-96744380D01*
X16779938Y-96785335D01*
X16773529Y-96840297D01*
X16743297Y-96860555D01*
X16702341Y-96862932D01*
X16640737Y-96874499D01*
X16624745Y-96901730D01*
X16602216Y-96932908D01*
X16559269Y-96940529D01*
X16504183Y-96954228D01*
X16478905Y-96979327D01*
X16461178Y-96997951D01*
X16419342Y-97009769D01*
X16344567Y-97016061D01*
X16228023Y-97018105D01*
X16210895Y-97018126D01*
X16088772Y-97016504D01*
X16009473Y-97010786D01*
X15964168Y-96999695D01*
X15944026Y-96981951D01*
X15942886Y-96979327D01*
X15904427Y-96949926D01*
X15826491Y-96940529D01*
X15745584Y-96930141D01*
X15710096Y-96901730D01*
X15674945Y-96869522D01*
X15643896Y-96862932D01*
X15600857Y-96845458D01*
X15536576Y-96799558D01*
X15464680Y-96735017D01*
X15462025Y-96732372D01*
X15331466Y-96601813D01*
X15331466Y-96175451D01*
X15332165Y-96013671D01*
X15334678Y-95896530D01*
X15339628Y-95816948D01*
X15347636Y-95767847D01*
X15359325Y-95742148D01*
X15370264Y-95734200D01*
X15384121Y-95721665D01*
X15394333Y-95691790D01*
X15401416Y-95637920D01*
X15405886Y-95553400D01*
X15408258Y-95431577D01*
X15409048Y-95265796D01*
X15409062Y-95233400D01*
X15409639Y-95059640D01*
X15411711Y-94930948D01*
X15415796Y-94840669D01*
X15422407Y-94782149D01*
X15432062Y-94748734D01*
X15445275Y-94733769D01*
X15447861Y-94732601D01*
X15459258Y-94722145D01*
X15468235Y-94696929D01*
X15475068Y-94651559D01*
X15480030Y-94580645D01*
X15483395Y-94478793D01*
X15485438Y-94340611D01*
X15486433Y-94160706D01*
X15486659Y-93969566D01*
X15486962Y-93750054D01*
X15488059Y-93576844D01*
X15490229Y-93444507D01*
X15493752Y-93347617D01*
X15498907Y-93280747D01*
X15505976Y-93238467D01*
X15515238Y-93215353D01*
X15526030Y-93206312D01*
X15539960Y-93194522D01*
X15549937Y-93166948D01*
X15556403Y-93116801D01*
X15559796Y-93037292D01*
X15560558Y-92921632D01*
X15559128Y-92763034D01*
X15558362Y-92707766D01*
X15554719Y-92525011D01*
X15549586Y-92389157D01*
X15542579Y-92295386D01*
X15533313Y-92238878D01*
X15521406Y-92214817D01*
X15518991Y-92213572D01*
X15491251Y-92224326D01*
X15486659Y-92243770D01*
X15464476Y-92277122D01*
X15421183Y-92284724D01*
X15366097Y-92298423D01*
X15340819Y-92323523D01*
X15305741Y-92352474D01*
X15251102Y-92362321D01*
X15191539Y-92374246D01*
X15176272Y-92401119D01*
X15163292Y-92424719D01*
X15117861Y-92436746D01*
X15036779Y-92439918D01*
X14944602Y-92445177D01*
X14894983Y-92462332D01*
X14882397Y-92478716D01*
X14859992Y-92500523D01*
X14807348Y-92512780D01*
X14715002Y-92517353D01*
X14685638Y-92517515D01*
X14587014Y-92519779D01*
X14530473Y-92527924D01*
X14506509Y-92543978D01*
X14503767Y-92556313D01*
X14493605Y-92576778D01*
X14456883Y-92588791D01*
X14384244Y-92594222D01*
X14309775Y-92595111D01*
X14207450Y-92593079D01*
X14147386Y-92585734D01*
X14120228Y-92571207D01*
X14115783Y-92556313D01*
X14093298Y-92525108D01*
X14051119Y-92517515D01*
X13980149Y-92497144D01*
X13918696Y-92447017D01*
X13884981Y-92383611D01*
X13882993Y-92365488D01*
X13864207Y-92308339D01*
X13844195Y-92284724D01*
X13820740Y-92240780D01*
X13807074Y-92167192D01*
X13803196Y-92080745D01*
X13809108Y-91998227D01*
X13824807Y-91936421D01*
X13844195Y-91913253D01*
X13873598Y-91874544D01*
X13882993Y-91794090D01*
X13889300Y-91721844D01*
X13910247Y-91691846D01*
X13921792Y-91689816D01*
X13952594Y-91666681D01*
X13960590Y-91612219D01*
X13972157Y-91550615D01*
X13999388Y-91534622D01*
X14033680Y-91513918D01*
X14038187Y-91495824D01*
X14058891Y-91461532D01*
X14076985Y-91457026D01*
X14111392Y-91442176D01*
X14115783Y-91429490D01*
X14133988Y-91396501D01*
X14179151Y-91349101D01*
X14193380Y-91336661D01*
X14250214Y-91271312D01*
X14270977Y-91209003D01*
X14279816Y-91164315D01*
X14316610Y-91148016D01*
X14348574Y-91146639D01*
X14410178Y-91135071D01*
X14426170Y-91107840D01*
X14446875Y-91073549D01*
X14464969Y-91069042D01*
X14495771Y-91045907D01*
X14503767Y-90991445D01*
X14515335Y-90929841D01*
X14542566Y-90913849D01*
X14576857Y-90893144D01*
X14581364Y-90875050D01*
X14604303Y-90843842D01*
X14652494Y-90835273D01*
X14710980Y-90819877D01*
X14771304Y-90769820D01*
X14809853Y-90724099D01*
X14874261Y-90650204D01*
X14940582Y-90586828D01*
X14968830Y-90565011D01*
X15016942Y-90518694D01*
X15027132Y-90478476D01*
X15000882Y-90456226D01*
X14955606Y-90459093D01*
X14900541Y-90456893D01*
X14882327Y-90435151D01*
X14847422Y-90403824D01*
X14812646Y-90396537D01*
X14754211Y-90377979D01*
X14705130Y-90331642D01*
X14671966Y-90271534D01*
X14661282Y-90211659D01*
X14679640Y-90166026D01*
X14698972Y-90153927D01*
X14731648Y-90123862D01*
X14734706Y-90105895D01*
X14735533Y-90040392D01*
X14764923Y-90011439D01*
X14794755Y-90007458D01*
X14848906Y-89987671D01*
X14907138Y-89940378D01*
X14916403Y-89929861D01*
X14969290Y-89879829D01*
X15018621Y-89854229D01*
X15026332Y-89853360D01*
X15075599Y-89836239D01*
X15129715Y-89796174D01*
X15168601Y-89750111D01*
X15176272Y-89726799D01*
X15155688Y-89698523D01*
X15137474Y-89688813D01*
X15104661Y-89653515D01*
X15098675Y-89625411D01*
X15081178Y-89581908D01*
X15035904Y-89519471D01*
X14988747Y-89468063D01*
X14912916Y-89379217D01*
X14877190Y-89304414D01*
X14875123Y-89289440D01*
X14871330Y-89224874D01*
X14868657Y-89187321D01*
X14844675Y-89164018D01*
X14791421Y-89153838D01*
X14729199Y-89156155D01*
X14678314Y-89170343D01*
X14658961Y-89193787D01*
X14649574Y-89213185D01*
X14615407Y-89225056D01*
X14547445Y-89230993D01*
X14439103Y-89232586D01*
X14326247Y-89230713D01*
X14252267Y-89223471D01*
X14204390Y-89208428D01*
X14169845Y-89183152D01*
X14167515Y-89180855D01*
X14135462Y-89125437D01*
X14117284Y-89048342D01*
X14113688Y-88967045D01*
X14125380Y-88899021D01*
X14153068Y-88861743D01*
X14154582Y-88861114D01*
X14183983Y-88822655D01*
X14193380Y-88744719D01*
X14203768Y-88663812D01*
X14232179Y-88628324D01*
X14256903Y-88600524D01*
X14268952Y-88535827D01*
X14270977Y-88470363D01*
X14274201Y-88385094D01*
X14285821Y-88340886D01*
X14308761Y-88327358D01*
X14311262Y-88327290D01*
X14336719Y-88315423D01*
X14345537Y-88272267D01*
X14343594Y-88217362D01*
X14333891Y-88145908D01*
X14312783Y-88111218D01*
X14275373Y-88098896D01*
X14215262Y-88075726D01*
X14157382Y-88032277D01*
X14120515Y-87984288D01*
X14115783Y-87965172D01*
X14093702Y-87945536D01*
X14052857Y-87939307D01*
X14004840Y-87920607D01*
X13936032Y-87871569D01*
X13857277Y-87802781D01*
X13779421Y-87724834D01*
X13713311Y-87648318D01*
X13669791Y-87583823D01*
X13658933Y-87554672D01*
X13658713Y-87523161D01*
X13678239Y-87506676D01*
X13729194Y-87500432D01*
X13793438Y-87499592D01*
X13886476Y-87494613D01*
X13937112Y-87478285D01*
X13951236Y-87460794D01*
X13989696Y-87431392D01*
X14067631Y-87421995D01*
X14148539Y-87411607D01*
X14184026Y-87383197D01*
X14219105Y-87354246D01*
X14273744Y-87344398D01*
X14348574Y-87344398D01*
X14348574Y-87111608D01*
X14347062Y-86998039D01*
X14341543Y-86927298D01*
X14330546Y-86890546D01*
X14312595Y-86878941D01*
X14309775Y-86878818D01*
X14293741Y-86854761D01*
X14281378Y-86789560D01*
X14272688Y-86693675D01*
X14267669Y-86577563D01*
X14266322Y-86451681D01*
X14268647Y-86326487D01*
X14274644Y-86212440D01*
X14284313Y-86119996D01*
X14297653Y-86059615D01*
X14309775Y-86041766D01*
X14339178Y-86003057D01*
X14348574Y-85922603D01*
X14342267Y-85850358D01*
X14321320Y-85820359D01*
X14309775Y-85818329D01*
X14275452Y-85799046D01*
X14270977Y-85782298D01*
X14291841Y-85742368D01*
X14309775Y-85731379D01*
X14328187Y-85713924D01*
X14339957Y-85672720D01*
X14346324Y-85599014D01*
X14348524Y-85484052D01*
X14348574Y-85457023D01*
X14349850Y-85336190D01*
X14354524Y-85258546D01*
X14363869Y-85215593D01*
X14379155Y-85198831D01*
X14387372Y-85197555D01*
X14408411Y-85186940D01*
X14420473Y-85148758D01*
X14425585Y-85073505D01*
X14426170Y-85015684D01*
X14429165Y-84912314D01*
X14439392Y-84850933D01*
X14458718Y-84822081D01*
X14464969Y-84818925D01*
X14489964Y-84790566D01*
X14501953Y-84724659D01*
X14503767Y-84663732D01*
X14508957Y-84571351D01*
X14525910Y-84521489D01*
X14542566Y-84508538D01*
X14572714Y-84473921D01*
X14581364Y-84431753D01*
X14587423Y-84391912D01*
X14615190Y-84374130D01*
X14679049Y-84369869D01*
X14685638Y-84369857D01*
X14768577Y-84380061D01*
X14804800Y-84408655D01*
X14839723Y-84439964D01*
X14875403Y-84447453D01*
X14927511Y-84466448D01*
X14984877Y-84513312D01*
X14995213Y-84525050D01*
X15048161Y-84575523D01*
X15097554Y-84601647D01*
X15105823Y-84602647D01*
X15147233Y-84620273D01*
X15208677Y-84666177D01*
X15268045Y-84721702D01*
X15346163Y-84793081D01*
X15402851Y-84825440D01*
X15423253Y-84825601D01*
X15464888Y-84831413D01*
X15477473Y-84848806D01*
X15511912Y-84878469D01*
X15554902Y-84887168D01*
X15608873Y-84901439D01*
X15632499Y-84925967D01*
X15667178Y-84956347D01*
X15707999Y-84964765D01*
X15763882Y-84978857D01*
X15789295Y-85001075D01*
X15829046Y-85032661D01*
X15874643Y-85046954D01*
X15920742Y-85064769D01*
X15932840Y-85088241D01*
X15948722Y-85113751D01*
X15978105Y-85119959D01*
X16020136Y-85109127D01*
X16029836Y-85094093D01*
X16052556Y-85043733D01*
X16109080Y-84998201D01*
X16181951Y-84969301D01*
X16221061Y-84964765D01*
X16291707Y-84953379D01*
X16323711Y-84925967D01*
X16362171Y-84896566D01*
X16440107Y-84887168D01*
X16522479Y-84876321D01*
X16556915Y-84847293D01*
X16588747Y-84828732D01*
X16659040Y-84816209D01*
X16754898Y-84809549D01*
X16863423Y-84808577D01*
X16971720Y-84813118D01*
X17066893Y-84822997D01*
X17136046Y-84838038D01*
X17165218Y-84855553D01*
X17203183Y-84882862D01*
X17266775Y-84899462D01*
X17333940Y-84902775D01*
X17382622Y-84890224D01*
X17391009Y-84881943D01*
X17386967Y-84846653D01*
X17361537Y-84819030D01*
X17335064Y-84789363D01*
X17321937Y-84741036D01*
X17319319Y-84660272D01*
X17320446Y-84619433D01*
X17321012Y-84523939D01*
X17312644Y-84468590D01*
X17293220Y-84442252D01*
X17285976Y-84438736D01*
X17259305Y-84403641D01*
X17244791Y-84334052D01*
X17242044Y-84245659D01*
X17250671Y-84154155D01*
X17270283Y-84075231D01*
X17296188Y-84028785D01*
X17346857Y-83974399D01*
X17409807Y-84034986D01*
G37*
%TO.C,SW3*%
D13*
X47975000Y-111595000D02*
X61945000Y-111595000D01*
X47975000Y-125565000D02*
X47975000Y-111595000D01*
X61945000Y-111595000D02*
X61945000Y-125565000D01*
X61945000Y-125565000D02*
X47975000Y-125565000D01*
%TD*%
M02*
