%TF.GenerationSoftware,KiCad,Pcbnew,10.0.5*%
%TF.CreationDate,2026-08-30T10:22:25+02:00*%
%TF.ProjectId,HackpadCADController,4861636b-7061-4644-9341-44436f6e7472,rev?*%
%TF.SameCoordinates,Original*%
%TF.FileFunction,Copper,L1,Top*%
%TF.FilePolarity,Positive*%
%FSLAX46Y46*%
G04 Gerber Fmt 4.6, Leading zero omitted, Abs format (unit mm)*
G04 Created by KiCad (PCBNEW 10.0.5) date 2026-08-30 10:22:25*
%MOMM*%
%LPD*%
G01*
G04 APERTURE LIST*
%TA.AperFunction,ComponentPad*%
%ADD10C,3.600000*%
%TD*%
%TA.AperFunction,ConnectorPad*%
%ADD11C,5.600000*%
%TD*%
%TA.AperFunction,ComponentPad*%
%ADD12C,2.200000*%
%TD*%
%TA.AperFunction,ComponentPad*%
%ADD13R,3.500000X1.700000*%
%TD*%
%TA.AperFunction,ComponentPad*%
%ADD14O,3.600000X1.700000*%
%TD*%
%TA.AperFunction,ComponentPad*%
%ADD15O,3.700000X1.700000*%
%TD*%
%TA.AperFunction,ComponentPad*%
%ADD16C,2.050000*%
%TD*%
%TA.AperFunction,ComponentPad*%
%ADD17C,2.550000*%
%TD*%
%TA.AperFunction,ComponentPad*%
%ADD18C,2.250000*%
%TD*%
%TA.AperFunction,ComponentPad*%
%ADD19R,0.850000X0.850000*%
%TD*%
%TA.AperFunction,ComponentPad*%
%ADD20C,0.850000*%
%TD*%
%TA.AperFunction,Conductor*%
%ADD21C,0.200000*%
%TD*%
G04 APERTURE END LIST*
D10*
%TO.P,REF\u002A\u002A,1*%
%TO.N,N/C*%
X8000000Y-134500000D03*
D11*
X8000000Y-134500000D03*
%TD*%
D10*
%TO.P,REF\u002A\u002A,1*%
%TO.N,N/C*%
X93500000Y-81500000D03*
D11*
X93500000Y-81500000D03*
%TD*%
D12*
%TO.P,SW1,1,1_1*%
%TO.N,Net-(U1-PA6_A10_D10_MOSI)*%
X80460000Y-91920000D03*
%TO.P,SW1,2,2_2*%
%TO.N,GND*%
X74110000Y-94460000D03*
%TD*%
D13*
%TO.P,U1,1,PA02_A0_D0_1*%
%TO.N,Net-(SW5-V)*%
X46719000Y-88297530D03*
D14*
%TO.P,U1,2,PA4_A1_D1_2*%
%TO.N,Net-(SW5-H)*%
X46719000Y-90837530D03*
%TO.P,U1,3,PA10_A2_D2_3*%
%TO.N,Net-(U1-PA10_A2_D2)*%
X46719000Y-93377530D03*
%TO.P,U1,4,PA11_A3_D3_4*%
%TO.N,unconnected-(U1-PA11_A3_D3-Pad4)*%
X46719000Y-95917530D03*
%TO.P,U1,5,PA8_A4_D4_SDA_5*%
%TO.N,Net-(J1-Pin_5)*%
X46719000Y-98457530D03*
%TO.P,U1,6,PA9_A5_D5_SCL_6*%
%TO.N,Net-(J1-Pin_4)*%
X46719000Y-100997530D03*
%TO.P,U1,7,PB08_A6_D6_TX_7*%
%TO.N,Net-(J1-Pin_3)*%
X46719000Y-103537530D03*
%TO.P,U1,8,PB09_A7_D7_RX_8*%
%TO.N,unconnected-(U1-PB09_A7_D7_RX-Pad8)*%
X63969000Y-103537530D03*
%TO.P,U1,9,PA7_A8_D8_SCK_9*%
%TO.N,Net-(U1-PA7_A8_D8_SCK)*%
X63969000Y-100997530D03*
%TO.P,U1,10,PA5_A9_D9_MISO_10*%
%TO.N,Net-(U1-PA5_A9_D9_MISO)*%
X63969000Y-98457530D03*
D15*
%TO.P,U1,11,PA6_A10_D10_MOSI_11*%
%TO.N,Net-(U1-PA6_A10_D10_MOSI)*%
X63969000Y-95917530D03*
%TO.P,U1,12,3V3_12*%
%TO.N,unconnected-(U1-3V3-Pad12)*%
X63969000Y-93377530D03*
%TO.P,U1,13,GND_13*%
%TO.N,GND*%
X63969000Y-90837530D03*
%TO.P,U1,14,5V_14*%
%TO.N,Net-(J1-Pin_1)*%
X63969000Y-88297530D03*
%TD*%
D10*
%TO.P,REF\u002A\u002A,1*%
%TO.N,N/C*%
X8000000Y-81500000D03*
D11*
X8000000Y-81500000D03*
%TD*%
D10*
%TO.P,REF\u002A\u002A,1*%
%TO.N,N/C*%
X93500000Y-134500000D03*
D11*
X93500000Y-134500000D03*
%TD*%
D12*
%TO.P,SW2,1,1_1*%
%TO.N,Net-(U1-PA5_A9_D9_MISO)*%
X80500000Y-113420000D03*
%TO.P,SW2,2,2_2*%
%TO.N,GND*%
X74150000Y-115960000D03*
%TD*%
D16*
%TO.P,SW5,1,H-_1*%
%TO.N,GND*%
X30250000Y-97020000D03*
%TO.P,SW5,1',V-_1'*%
X36480000Y-108250000D03*
%TO.P,SW5,2,H_2*%
%TO.N,Net-(SW5-H)*%
X27750000Y-97020000D03*
%TO.P,SW5,2',V_2'*%
%TO.N,Net-(SW5-V)*%
X36480000Y-105750000D03*
%TO.P,SW5,3,H+_3*%
%TO.N,Net-(J1-Pin_1)*%
X25250000Y-97020000D03*
%TO.P,SW5,3',V+_3'*%
X36480000Y-103250000D03*
D17*
%TO.P,SW5,SH,SH_SH*%
%TO.N,unconnected-(SW5-PadSH)*%
X21425000Y-100750000D03*
X21425000Y-110750000D03*
X34075000Y-100750000D03*
X34075000Y-110750000D03*
D18*
%TO.P,SW5,a,BTN_a*%
%TO.N,Net-(U1-PA10_A2_D2)*%
X24500000Y-111500000D03*
%TO.P,SW5,b,BTN_b*%
X31000000Y-111500000D03*
%TO.P,SW5,c,BTN_c*%
%TO.N,GND*%
X24500000Y-116000000D03*
%TO.P,SW5,d,BTN_d*%
X31000000Y-116000000D03*
%TD*%
D19*
%TO.P,J1,1,Pin_1_1*%
%TO.N,Net-(J1-Pin_1)*%
X38500000Y-87500000D03*
D20*
%TO.P,J1,2,Pin_2_2*%
%TO.N,GND*%
X38500000Y-88500000D03*
%TO.P,J1,3,Pin_3_3*%
%TO.N,Net-(J1-Pin_3)*%
X38500000Y-89500000D03*
%TO.P,J1,4,Pin_4_4*%
%TO.N,Net-(J1-Pin_4)*%
X38500000Y-90500000D03*
%TO.P,J1,5,Pin_5_5*%
%TO.N,Net-(J1-Pin_5)*%
X38500000Y-91500000D03*
%TD*%
D12*
%TO.P,SW3,1,1_1*%
%TO.N,Net-(U1-PA7_A8_D8_SCK)*%
X57500000Y-113500000D03*
%TO.P,SW3,2,2_2*%
%TO.N,GND*%
X51150000Y-116040000D03*
%TD*%
%TO.N,Net-(U1-PA6_A10_D10_MOSI)*%
D21*
X68500000Y-90000000D02*
X78540000Y-90000000D01*
X62969000Y-95917530D02*
X66672571Y-95917530D01*
X66672571Y-95917530D02*
X68500000Y-94090101D01*
X68500000Y-94090101D02*
X68500000Y-90000000D01*
X78540000Y-90000000D02*
X80460000Y-91920000D01*
%TO.N,Net-(SW5-V)*%
X45702470Y-88297530D02*
X41500000Y-92500000D01*
X41250000Y-105750000D02*
X36480000Y-105750000D01*
X41500000Y-105500000D02*
X41250000Y-105750000D01*
X41500000Y-92500000D02*
X41500000Y-105500000D01*
X47719000Y-88297530D02*
X45702470Y-88297530D01*
%TO.N,Net-(SW5-H)*%
X47719000Y-90837530D02*
X48769000Y-89787530D01*
X27750000Y-85750000D02*
X27750000Y-97020000D01*
X48769000Y-89787530D02*
X48769000Y-87147530D01*
X28000000Y-85500000D02*
X27750000Y-85750000D01*
X48769000Y-87147530D02*
X47121470Y-85500000D01*
X47121470Y-85500000D02*
X28000000Y-85500000D01*
%TO.N,Net-(U1-PA10_A2_D2)*%
X35675000Y-112325000D02*
X31825000Y-112325000D01*
X47719000Y-93377530D02*
X47596530Y-93500000D01*
X47596530Y-93500000D02*
X42000000Y-93500000D01*
X31825000Y-112325000D02*
X31000000Y-111500000D01*
X42000000Y-93500000D02*
X42000000Y-106000000D01*
X42000000Y-106000000D02*
X35675000Y-112325000D01*
%TO.N,Net-(U1-PA7_A8_D8_SCK)*%
X57500000Y-106466530D02*
X57500000Y-113500000D01*
X62969000Y-100997530D02*
X57500000Y-106466530D01*
%TO.N,Net-(U1-PA5_A9_D9_MISO)*%
X65537530Y-98457530D02*
X80500000Y-113420000D01*
X62969000Y-98457530D02*
X65537530Y-98457530D01*
%TO.N,Net-(J1-Pin_1)*%
X37775000Y-87600000D02*
X37875000Y-87500000D01*
X36480000Y-88895000D02*
X37875000Y-87500000D01*
X26575000Y-98345000D02*
X30798833Y-98345000D01*
X36480000Y-103250000D02*
X36480000Y-88895000D01*
X25250000Y-97020000D02*
X26575000Y-98345000D01*
X37775000Y-91368833D02*
X37775000Y-87600000D01*
X30798833Y-98345000D02*
X37775000Y-91368833D01*
X37875000Y-87500000D02*
X38500000Y-87500000D01*
%TO.N,unconnected-(SW5-PadSH)*%
X34075000Y-100750000D02*
X21425000Y-100750000D01*
X21425000Y-100750000D02*
X21425000Y-110750000D01*
X32800000Y-109475000D02*
X34075000Y-110750000D01*
X21425000Y-110750000D02*
X22700000Y-109475000D01*
X34075000Y-110750000D02*
X34075000Y-100750000D01*
X22700000Y-109475000D02*
X32800000Y-109475000D01*
%TD*%
M02*
